<?xml version="1.0" encoding="UTF-8" standalone="no"?>
<!-- Created with Inkscape (http://www.inkscape.org/) -->

<svg
   version="1.1"
   id="svg1"
   width="650"
   height="600"
   viewBox="0 0 650 600"
   sodipodi:docname="icon-tight.svg"
   inkscape:version="1.4.1-rc (06eac75fbf, 2025-03-29)"
   xmlns:inkscape="http://www.inkscape.org/namespaces/inkscape"
   xmlns:sodipodi="http://sodipodi.sourceforge.net/DTD/sodipodi-0.dtd"
   xmlns="http://www.w3.org/2000/svg"
   xmlns:svg="http://www.w3.org/2000/svg">
  <defs
     id="defs1">
    <linearGradient
       id="swatch39">
      <stop
         style="stop-color:#1a1a1a;stop-opacity:1;"
         offset="0"
         id="stop40" />
    </linearGradient>
  </defs>
  <sodipodi:namedview
     id="namedview1"
     pagecolor="#505050"
     bordercolor="#eeeeee"
     borderopacity="1"
     inkscape:showpageshadow="0"
     inkscape:pageopacity="0"
     inkscape:pagecheckerboard="0"
     inkscape:deskcolor="#505050"
     inkscape:zoom="0.72809193"
     inkscape:cx="364.65175"
     inkscape:cy="426.45714"
     inkscape:window-width="1854"
     inkscape:window-height="1011"
     inkscape:window-x="66"
     inkscape:window-y="32"
     inkscape:window-maximized="1"
     inkscape:current-layer="g1" />
  <g
     inkscape:groupmode="layer"
     inkscape:label="Image"
     id="g1">
    <ellipse
       style="fill:#ffffff;fill-opacity:1;stroke:#ffffff;stroke-width:1.43369;stroke-dasharray:none;stroke-opacity:1"
       id="path42"
       cx="514.88556"
       cy="434.77145"
       rx="114.87035"
       ry="134.26755" />
    <ellipse
       style="fill:#ffffff;fill-opacity:1;stroke:#ffffff;stroke-width:2.11717;stroke-dasharray:none;stroke-opacity:1"
       id="path43"
       cx="-0.78382766"
       cy="387.64667"
       rx="122.63126"
       ry="87.929611"
       transform="matrix(0.63322991,-0.77396375,0.80312626,0.59580888,0,0)" />
    <path
       id="path20"
       style="fill:#ff0000;stroke-width:1.31046"
       inkscape:label="logo"
       d="m 343.89372,0.07843318 c -4.23731,-0.01461605 -8.53444,1.00736342 -12.88959,3.06626442 -3.60377,1.7036761 -8.08594,4.7938956 -9.96155,6.8671204 -1.87557,2.073225 -26.59962,38.267963 -54.94201,80.431984 -28.34239,42.164018 -59.90479,89.045698 -70.13772,104.181508 -10.23292,15.1358 -29.1491,43.14686 -42.03452,62.2468 -34.54342,51.2034 -78.051901,115.52327 -115.481654,170.71546 -19.881067,29.31568 -33.9388858,51.34354 -35.221144,55.19285 -4.2446945,12.74239 0.2914067,29.27537 9.910347,36.12466 9.615533,6.84685 3.114608,6.59164 168.583401,6.62139 88.04787,0.0159 155.12878,0.532 156.90701,1.20808 0.0989,0.0375 0.19908,0.0808 0.2969,0.12542 l -11.69687,-59.50559 -0.069,-9.02476 10.24563,-82.32345 1.26184,-7.06933 38.52289,-65.52038 5.02173,-6.41922 32.93808,-28.09296 2.88455,-0.17918 3.35805,5.23675 -1.08011,2.69769 -32.47994,33.02255 -2.74122,3.38619 -31.70696,59.17542 -2.0911,5.66161 -5.03197,83.42657 0.18174,3.30432 16.51128,68.2053 -1.84542,2.84615 -20.57317,5.16504 -0.018,-0.15355 c -5.76118,1.6278 -23.10939,4.9569 -77.65494,15.65384 -141.02212,27.65588 -168.696054,33.30556 -170.495344,34.79883 -1.919957,1.59342 -2.44786,5.38671 -0.957238,6.87734 0.480493,0.48052 98.224362,0.87292 217.208592,0.87279 237.59612,-2.5e-4 226.07188,0.36987 246.90893,-7.93185 48.22907,-19.21498 81.26075,-65.89103 89.96354,-127.12478 5.41892,-38.12813 -1.22102,-79.04558 -18.66892,-115.04911 -15.50674,-31.99792 -41.25856,-57.34818 -70.71618,-69.61557 l -10.18421,-4.24107 -20.56806,-30.32997 C 514.0391,227.92903 483.73239,183.3226 458.00353,145.48309 432.27465,107.64359 403.25078,64.889849 393.50436,50.474799 366.38364,10.362943 363.66567,6.8982463 356.43014,3.2317252 352.30945,1.1435874 348.13107,0.0930444 343.89377,0.07843318 Z M 314.79232,130.00841 c 0.50278,0.004 1.01339,0.0909 1.55872,0.22779 3.38054,0.84847 22.00292,24.52285 53.22716,67.66524 9.65041,13.33394 20.69332,28.50075 24.5404,33.70339 7.02842,9.50501 8.39273,13.09274 5.35701,14.09511 -4.36321,1.4407 -14.66817,1.90485 -43.44223,1.95033 l -31.31793,0.0486 -13.89291,13.59089 c -7.64038,7.47479 -16.48555,15.43583 -19.65689,17.6912 l -5.76653,4.10031 h -36.24494 c -28.33751,0 -36.77196,-0.38467 -38.66111,-1.76605 -2.88275,-2.10791 -4.51813,0.84707 16.78258,-30.3402 45.12915,-66.07556 54.69577,-79.99073 67.13543,-97.63688 13.62254,-19.32409 16.86169,-23.35695 20.38124,-23.32975 z m 203.19793,173.78428 c 6.82993,0.0978 13.75431,0.53103 16.13504,1.23367 3.40948,1.00626 3.97654,1.84607 4.27946,6.31683 0.65342,9.64347 1.14274,10.37524 9.11178,13.6344 4.16616,1.70387 10.72964,5.092 14.58399,7.53003 l 7.00788,4.43304 5.29304,-2.75658 c 2.9106,-1.5171 5.98484,-2.49269 6.83128,-2.16788 1.90746,0.73196 16.70979,20.22347 21.2796,28.0213 l 3.37084,5.75117 -4.20014,5.84844 -4.2001,5.84587 3.30174,10.13302 c 1.81582,5.57214 4.29276,14.25842 5.50291,19.30368 2.54733,10.6202 3.69896,12.44936 7.84227,12.44936 7.27389,0 9.563,9.68494 7.23057,30.59104 -1.77568,15.91572 -2.61402,17.62059 -8.93264,18.14422 -4.89338,0.40552 -4.91423,0.43205 -8.33626,10.89063 -1.88663,5.76602 -4.90277,13.76441 -6.7033,17.77311 l -3.27359,7.28687 3.87508,4.83231 3.87507,4.83232 -3.58841,6.22469 c -4.73969,8.22204 -15.22896,22.45333 -19.50076,26.45745 l -3.40925,3.1968 -4.99867,-4.88095 -4.99613,-4.87839 -8.41561,3.77268 c -4.62849,2.0744 -10.63169,4.50112 -13.34006,5.39286 -5.43581,1.78976 -7.51512,4.59021 -7.54537,10.16884 -0.0104,2.02946 -0.56421,4.54994 -1.22857,5.60017 -2.23428,3.53219 -32.43252,4.33901 -35.25186,0.9419 -0.73958,-0.89114 -1.82208,-4.39374 -2.40592,-7.78341 -1.05489,-6.12459 -1.13986,-6.20831 -13.51155,-13.34775 l -12.44936,-7.18448 -4.67619,5.37237 c -3.94231,4.52719 -5.07528,5.15479 -7.21775,4.00816 -4.02279,-2.15293 -16.66861,-15.96917 -22.0705,-24.11296 -5.5003,-8.29214 -5.45376,-10.40297 0.36089,-15.97378 l 3.71383,-3.56026 -4.41513,-11.75317 c -2.42821,-6.46464 -5.35117,-15.43502 -6.49598,-19.93331 -2.91815,-11.46617 -3.69039,-12.54532 -9.29864,-13.01244 -7.20259,-0.59994 -8.18882,-3.59174 -8.12382,-24.65047 0.0703,-22.75136 1.19836,-26.26978 9.02476,-28.16718 l 5.84076,-1.41541 3.46554,-11.09027 c 1.90539,-6.09943 4.99747,-14.8085 6.87224,-19.35231 l 3.40925,-8.26204 -4.53287,-5.93546 c -4.52511,-5.92823 -4.52746,-5.94397 -2.2293,-9.91289 3.03174,-5.23589 25.06133,-28.55831 27.00006,-28.58439 0.83043,-0.0118 3.61377,2.42555 6.18628,5.41588 l 4.67875,5.43891 11.09285,-5.27255 c 6.10191,-2.89901 11.7364,-6.07284 12.52101,-7.05395 0.78462,-0.98111 1.82887,-4.55481 2.3189,-7.9421 0.68868,-4.76059 1.54539,-6.36799 3.77013,-7.077 2.0078,-0.63985 8.742,-0.87835 15.57193,-0.78064 z m 4.58661,68.61739 c -1.60678,-0.0414 -3.2784,-0.0131 -5.02426,0.0844 -17.51835,0.97709 -30.49643,10.08775 -40.13539,28.17231 -10.90228,20.45478 -10.99833,48.56727 -0.24058,70.68032 6.84078,14.0616 18.15456,24.73358 30.50912,28.77379 3.23313,1.05729 9.25496,1.61225 14.71707,1.35653 27.61814,-1.29294 48.21479,-28.87359 48.11075,-64.42237 -0.062,-21.18931 -6.71067,-38.43894 -19.99474,-51.87319 -8.59603,-8.69324 -16.69439,-12.48197 -27.94197,-12.77186 z" />
  </g>
  <g
     inkscape:groupmode="layer"
     id="layer2"
     inkscape:label="Flag">
    <rect
       style="fill:#ffffff;fill-opacity:1;stroke:#ffffff;stroke-width:1.39618;stroke-dasharray:none;stroke-opacity:1"
       id="rect33"
       width="32.163425"
       height="109.04526"
       x="140.26727"
       y="377.33847" />
    <rect
       style="fill:#ffffff;fill-opacity:1;stroke:#ffffff;stroke-width:1.39618;stroke-dasharray:none;stroke-opacity:1"
       id="rect33-3"
       width="32.163425"
       height="109.04526"
       x="417.46951"
       y="-211.86827"
       transform="rotate(90)" />
  </g>
</svg>
