<?xml version="1.0" encoding="UTF-8" standalone="no"?>
<!-- Created with Inkscape (http://www.inkscape.org/) -->

<svg
   width="400"
   height="400"
   viewBox="0 0 400 400"
   version="1.1"
   id="svg1"
   inkscape:version="1.3.1 (9b9bdc1480, 2023-11-25, custom)"
   sodipodi:docname="icon-final-v2-400x400.svg"
   xml:space="preserve"
   xmlns:inkscape="http://www.inkscape.org/namespaces/inkscape"
   xmlns:sodipodi="http://sodipodi.sourceforge.net/DTD/sodipodi-0.dtd"
   xmlns:xlink="http://www.w3.org/1999/xlink"
   xmlns="http://www.w3.org/2000/svg"
   xmlns:svg="http://www.w3.org/2000/svg"><sodipodi:namedview
     id="namedview1"
     pagecolor="#505050"
     bordercolor="#ffffff"
     borderopacity="1"
     inkscape:showpageshadow="0"
     inkscape:pageopacity="0"
     inkscape:pagecheckerboard="1"
     inkscape:deskcolor="#505050"
     inkscape:document-units="px"
     inkscape:zoom="0.84814184"
     inkscape:cx="258.21153"
     inkscape:cy="198.08008"
     inkscape:window-width="1854"
     inkscape:window-height="1011"
     inkscape:window-x="66"
     inkscape:window-y="32"
     inkscape:window-maximized="1"
     inkscape:current-layer="layer3"
     showgrid="false"
     inkscape:export-bgcolor="#ffffffff" /><defs
     id="defs1"><linearGradient
       id="linearGradient1"
       inkscape:collect="always"><stop
         style="stop-color:#4935c9;stop-opacity:1;"
         offset="0"
         id="stop1" /><stop
         style="stop-color:#232325;stop-opacity:1;"
         offset="0.8141138"
         id="stop2" /></linearGradient><inkscape:path-effect
       effect="copy_rotate"
       starting_point="0,0"
       origin="24,24"
       id="path-effect35"
       is_visible="true"
       lpeversion="1.2"
       lpesatellites=""
       method="normal"
       num_copies="10"
       starting_angle="0"
       rotation_angle="36"
       gap="-0.01"
       copies_to_360="true"
       mirror_copies="false"
       split_items="false"
       link_styles="false" /><inkscape:path-effect
       effect="powerclip"
       id="path-effect12"
       is_visible="true"
       lpeversion="1"
       inverse="true"
       flatten="false"
       hide_clip="false"
       message="Use fill-rule evenodd on &lt;b&gt;fill and stroke&lt;/b&gt; dialog if no flatten result after convert clip to paths." /><inkscape:path-effect
       effect="powerclip"
       id="path-effect11"
       is_visible="true"
       lpeversion="1"
       inverse="true"
       flatten="false"
       hide_clip="false"
       message="Use fill-rule evenodd on &lt;b&gt;fill and stroke&lt;/b&gt; dialog if no flatten result after convert clip to paths." /><inkscape:path-effect
       effect="powerclip"
       id="path-effect24"
       is_visible="true"
       lpeversion="1"
       inverse="true"
       flatten="false"
       hide_clip="false"
       message="Use fill-rule evenodd on &lt;b&gt;fill and stroke&lt;/b&gt; dialog if no flatten result after convert clip to paths." /><inkscape:path-effect
       effect="powerclip"
       id="path-effect23"
       is_visible="true"
       lpeversion="1"
       inverse="true"
       flatten="false"
       hide_clip="false"
       message="Use fill-rule evenodd on &lt;b&gt;fill and stroke&lt;/b&gt; dialog if no flatten result after convert clip to paths." /><inkscape:path-effect
       effect="powerclip"
       id="path-effect18"
       is_visible="true"
       lpeversion="1"
       inverse="true"
       flatten="false"
       hide_clip="false"
       message="Use fill-rule evenodd on &lt;b&gt;fill and stroke&lt;/b&gt; dialog if no flatten result after convert clip to paths." /><inkscape:path-effect
       effect="skeletal"
       id="path-effect7"
       is_visible="true"
       lpeversion="1"
       pattern="M 0,1.0726301 H 2.98173 6.255786"
       copytype="repeated"
       prop_scale="1.04"
       scale_y_rel="false"
       spacing="7.1"
       normal_offset="-1.5"
       tang_offset="-1.4"
       prop_units="false"
       vertical_pattern="false"
       hide_knot="false"
       fuse_tolerance="0.1" /><inkscape:path-effect
       effect="skeletal"
       id="path-effect6"
       is_visible="false"
       lpeversion="1"
       pattern="M 0,1.0726301 H 2.98173 6.255786"
       copytype="repeated_stretched"
       prop_scale="1"
       scale_y_rel="false"
       spacing="0"
       normal_offset="0"
       tang_offset="0"
       prop_units="false"
       vertical_pattern="false"
       hide_knot="false"
       fuse_tolerance="0" /><inkscape:path-effect
       effect="skeletal"
       id="path-effect5"
       is_visible="true"
       lpeversion="1"
       pattern="M 0,1.0726301 H 6.255786"
       copytype="repeated"
       prop_scale="1"
       scale_y_rel="false"
       spacing="0"
       normal_offset="0"
       tang_offset="0"
       prop_units="false"
       vertical_pattern="false"
       hide_knot="false"
       fuse_tolerance="0" /><inkscape:path-effect
       effect="skeletal"
       id="path-effect4"
       is_visible="true"
       lpeversion="1"
       pattern="M 2.418688,11.436069 C 1.661963,10.526796 0.885321,9.4501843 1.01607,8.2744663 1.10001,7.5196281 1.617737,6.8961716 2.111162,6.3187999 v -2e-7 C 2.615101,5.7291265 3.12688,5.083533 3.213854,4.3127517 v -6e-7 C 3.351266,3.0949699 2.591975,1.9630156 1.834034,1"
       copytype="repeated_stretched"
       prop_scale="1.0119603"
       scale_y_rel="false"
       spacing="10"
       normal_offset="4.8"
       tang_offset="0"
       prop_units="false"
       vertical_pattern="false"
       hide_knot="false"
       fuse_tolerance="0" /><inkscape:path-effect
       effect="skeletal"
       id="path-effect3"
       is_visible="true"
       lpeversion="1"
       pattern="M 0,0 H 1"
       copytype="repeated"
       prop_scale="1"
       scale_y_rel="false"
       spacing="0"
       normal_offset="0"
       tang_offset="0"
       prop_units="false"
       vertical_pattern="false"
       hide_knot="false"
       fuse_tolerance="0" /><clipPath
       clipPathUnits="userSpaceOnUse"
       id="clipPath18"><path
         id="path18"
         style="font-size:29.3333px;line-height:0;font-family:sans-serif;-inkscape-font-specification:sans-serif;letter-spacing:1px;word-spacing:3.71px;display:none;fill:#333333;stroke:#333333;stroke-width:0.01;stroke-linecap:round;stroke-linejoin:miter;stroke-dasharray:none"
         d="m 17.249142,25.841499 -0.132878,0.602398 c -0.84454,3.7896 -1.754048,7.483251 -2.728516,11.077954 l 1.590159,1.948943 h 4.221225 l 0.456229,-2.174842 c -0.04331,-0.389787 -0.06648,-0.909503 -0.06648,-1.559151 0,-1.754043 0.09746,-3.735476 0.292346,-5.944272 0.03463,-0.349811 0.07498,-0.616358 0.110739,-0.943464 -1.396534,-0.810607 -2.660976,-1.823844 -3.742851,-3.007566 z"
         inkscape:label="mask" /></clipPath><clipPath
       clipPathUnits="userSpaceOnUse"
       id="clipPath22"><path
         id="lpe_path-effect23"
         style="font-size:29.3333px;line-height:0;font-family:sans-serif;-inkscape-font-specification:sans-serif;letter-spacing:1px;word-spacing:3.71px;display:inline;fill:#630303;fill-opacity:0.254762;stroke:#471f1f;stroke-width:0.00858588;stroke-linecap:round;stroke-linejoin:miter;stroke-dasharray:none;stroke-opacity:0.569048"
         class="powerclip"
         d="M -3.1133993,-2.3918575 H 51.399922 V 50.435635 H -3.1133993 Z M 17.720708,24.291163 17.606621,24.808375 c -0.725113,3.253706 -1.506005,6.425031 -2.342672,9.511401 l 1.365292,1.67334 h 3.624294 l 0.391712,-1.867294 c -0.03718,-0.334667 -0.05708,-0.780889 -0.05708,-1.338669 0,-1.506 0.08368,-3.207236 0.251004,-5.103682 0.02973,-0.300343 0.06438,-0.529197 0.09508,-0.810047 -1.199048,-0.695977 -2.284683,-1.565931 -3.213568,-2.582261 z" /></clipPath><clipPath
       clipPathUnits="userSpaceOnUse"
       id="clipPath23" /><filter
       id="mask-powermask-path-effect26_inverse"
       inkscape:label="filtermask-powermask-path-effect26"
       style="color-interpolation-filters:sRGB"
       height="100"
       width="100"
       x="-50"
       y="-50"><feColorMatrix
         id="mask-powermask-path-effect26_primitive1"
         values="1"
         type="saturate"
         result="fbSourceGraphic" /><feColorMatrix
         id="mask-powermask-path-effect26_primitive2"
         values="-1 0 0 0 1 0 -1 0 0 1 0 0 -1 0 1 0 0 0 1 0 "
         in="fbSourceGraphic" /></filter><clipPath
       clipPathUnits="userSpaceOnUse"
       id="clipath_lpe_path-effect24" /><clipPath
       clipPathUnits="userSpaceOnUse"
       id="clipPath10"><path
         id="lpe_path-effect11"
         style="font-size:24.7933px;line-height:0;-inkscape-font-specification:sans-serif;letter-spacing:1.03305px;word-spacing:3.83262px;display:inline;fill:#333333;fill-opacity:0.192308;stroke:#333333;stroke-width:0.165282;stroke-linecap:round;stroke-linejoin:round;stroke-dasharray:none"
         class="powerclip"
         d="M 9.3404377,9.2819736 H 38.250306 V 38.191842 H 9.3404377 Z M 20.87426,28.318015 c -1.1887,-0.01615 -2.34816,-0.154906 -3.463808,-0.40352 -0.366882,1.507307 -0.746224,2.998501 -1.142768,4.461311 l 1.155679,1.413932 h 3.063519 l 0.329272,-1.578568 c -0.03141,-0.282712 -0.04841,-0.65867 -0.04841,-1.129856 0,-0.839742 0.04494,-1.77985 0.106527,-2.763299 z" /></clipPath><clipPath
       clipPathUnits="userSpaceOnUse"
       id="clipPath11"><path
         id="lpe_path-effect12"
         style="font-size:24.7933px;line-height:0;-inkscape-font-specification:sans-serif;letter-spacing:1.03305px;word-spacing:3.83262px;display:inline;fill:#333333;fill-opacity:0.192308;stroke:#333333;stroke-width:0.194607;stroke-linecap:round;stroke-linejoin:round;stroke-dasharray:none"
         class="powerclip"
         d="M -4.7449219,-4.6787664 H 53.03203 V 52.774936 H -4.7449219 Z M 20.704191,29.415801 c -1.399605,-0.01902 -2.764783,-0.182391 -4.078374,-0.475115 -0.431976,1.774741 -0.878623,3.53051 -1.345524,5.252859 l 1.360725,1.664799 h 3.607064 l 0.387693,-1.858645 c -0.03698,-0.332873 -0.057,-0.775535 -0.057,-1.330321 0,-0.988733 0.05291,-2.09564 0.125428,-3.253577 z" /></clipPath><radialGradient
       inkscape:collect="always"
       xlink:href="#linearGradient1"
       id="radialGradient2"
       cx="24.00012"
       cy="24.001341"
       fx="24.00012"
       fy="24.001341"
       r="23.80044"
       gradientTransform="matrix(8.4030762,0,0,8.4029847,-1.6746338,-1.6798833)"
       gradientUnits="userSpaceOnUse" /></defs><g
     inkscape:groupmode="layer"
     id="layer3"
     inkscape:label="Background"
     style="display:inline;fill:#4d4d4d;stroke:#666666;stroke-width:1.5;stroke-linecap:round;stroke-linejoin:miter;stroke-miterlimit:20;stroke-dasharray:none"><rect
       style="display:inline;fill:url(#radialGradient2);fill-opacity:1;stroke:none;stroke-width:3.33351;stroke-linecap:square;stroke-linejoin:miter;stroke-miterlimit:20;stroke-dasharray:none;stroke-opacity:1"
       id="rect1"
       width="399.99384"
       height="399.98944"
       x="0.0033003241"
       y="0.0082771406"
       ry="0"
       rx="0" /></g><g
     inkscape:label="Outer"
     inkscape:groupmode="layer"
     id="layer1"
     style="display:inline"
     transform="matrix(0.89968634,0,0,0.89968634,2.4075377,2.4076075)"><path
       id="path13"
       style="display:inline;fill:#252c9a;fill-opacity:1;stroke:#ffffff;stroke-width:7.86403;stroke-dasharray:none;stroke-opacity:1"
       d="m 187.50263,39.683916 -46.35861,14.873223 -4.36459,10.221059 1.07986,9.122503 c -11.5875,6.48722 -22.36302,14.32851 -32.09985,23.358913 l -7.130103,-4.388951 -10.839266,-0.144282 -28.766725,39.274709 2.471346,10.84227 6.348885,6.84945 0.04247,-0.0639 c 0.583591,-0.55256 -9.803906,24.70688 -12.439933,37.73338 l -8.30213,0.63254 -8.855214,6.24914 -0.177371,48.68797 8.36055,7.31806 8.683632,1.71473 c 2.621154,13.10959 6.801303,25.85852 12.451337,37.975 l -6.204195,5.26551 -3.48525,10.26268 28.477826,39.49711 11.058341,1.00858 8.1371,-3.76154 c 0.39578,0.40984 1.03882,-0.92436 1.43877,-0.51857 1.64268,-0.6789 4.48329,-13.04142 6.01404,-16.71148 L 118.3143,297.1238 C 103.10688,277.08811 94.165254,253.00212 92.614658,227.89661 88.564108,157.59916 142.26487,97.326818 212.56201,93.27069 c 70.29747,-4.050553 130.56983,49.65019 134.62594,119.94736 4.05066,70.29744 -49.65018,130.56982 -119.94734,134.62593 -8.56683,0.38603 -17.15077,-0.0934 -25.62138,-1.43042 l -7.10857,4.25612 -3.5712,15.17541 -2.09791,15.10586 3.10439,3.94416 c 12.29187,2.19753 24.79081,3.01459 37.26416,2.43605 3.4573,-0.21509 6.90713,-0.537 10.34449,-0.96569 l 2.77463,6.76319 8.6979,6.49862 46.3586,-14.87322 4.3646,-10.22107 -0.95136,-7.96066 c 11.91787,-6.60286 22.98622,-14.63419 32.96004,-23.91622 l 6.14138,3.78443 10.83927,0.14431 28.76672,-39.27468 -2.47135,-10.8423 -5.46248,-5.88514 c 5.73639,-12.35065 9.94633,-25.35433 12.53669,-38.7235 l 7.27653,-0.54268 8.85518,-6.24915 0.1771,-48.68795 -8.36057,-7.31805 -8.09208,-1.59504 c -2.637,-13.28178 -6.87375,-26.19514 -12.61761,-38.45768 l 5.77898,-4.9025 3.48524,-10.26268 -28.47786,-39.497122 -11.05831,-1.008562 -7.77794,3.586988 C 323.41852,87.800166 312.47704,79.897755 300.70937,73.387896 l 1.85152,-7.645342 -3.2124,-10.353415 -46.23168,-15.21152 -9.54906,5.68914 -4.32383,7.726359 c -9.7309,-1.170135 -19.54573,-1.484532 -29.33159,-0.939562 -3.51046,0.342425 -7.00921,0.795578 -10.49107,1.358769 l -3.22072,-7.829812 z"
       sodipodi:nodetypes="cccccccccccccccccccccccccccccccccccccccccccccccccccccccccccccccccccccc" /></g><g
     inkscape:groupmode="layer"
     id="layer2"
     inkscape:label="Mu"
     transform="matrix(0.946544,0,0,0.946544,20.29351,20.288785)"
     style="display:inline"><path
       id="path21"
       style="color:#000000;-inkscape-font-specification:sans-serif;display:inline;fill:#ffffff;stroke-width:13.5959;stroke-linecap:round;stroke-linejoin:round;-inkscape-stroke:none"
       d="m 152.7598,131.72838 a 9.6730978,9.6730978 0 0 0 -9.43828,7.5874 l -25.42208,114.66904 c -3.08791,13.85602 -6.41933,27.32363 -9.97762,40.44979 a 9.6730978,9.6730978 0 0 0 1.85089,8.66606 l 5.88361,7.19516 a 9.6730978,9.6730978 0 0 0 7.47708,3.55468 h 15.60381 a 9.6730978,9.6730978 0 0 0 9.46281,-7.70998 l 1.67927,-8.01641 a 9.6730978,9.6730978 0 0 0 0.14711,-3.03987 c -0.0951,-0.85315 -0.18382,-2.51071 -0.18382,-4.69463 0,-6.08878 0.34874,-13.12387 1.04187,-21.00936 v -0.1101 c 0.18897,-1.90127 0.41589,-2.73627 0.6129,-4.43721 3.29023,0.94587 6.62822,1.7528 10.13697,1.7528 9.09636,0 17.89347,-3.50183 25.52013,-9.4873 a 9.6730978,9.6730978 0 0 0 0.0856,-0.0489 c 2.12552,-1.69506 4.26208,-5.2573 6.36165,-7.37903 1.11134,3.55032 1.0976,7.56613 3.64048,10.32083 a 9.6730978,9.6730978 0 0 0 0.0734,0.0978 c 4.8774,5.14838 12.05166,7.5874 19.13397,7.5874 4.32888,0 8.57706,-0.69163 12.56395,-2.12055 4.00316,-1.35144 7.81888,-3.44424 11.73044,-6.16553 l 0.0245,-0.0245 c 4.20518,-2.87038 8.55519,-6.60515 13.29939,-11.26465 a 9.6730978,9.6730978 0 0 0 0.0612,-13.74068 l -6.72936,-6.70485 a 9.6730978,9.6730978 0 0 0 -14.05937,0.41671 c -1.97487,2.2217 -3.20025,3.01267 -4.43723,3.93468 0.24567,-2.7166 0.6091,-6.16749 2.03476,-12.55171 l 17.02569,-75.91078 a 9.6730978,9.6730978 0 0 0 -9.43825,-11.81629 h -20.76422 a 9.6730978,9.6730978 0 0 0 -9.42603,7.66096 l -11.88941,55.72256 c -0.97105,4.43028 -3.36467,10.36257 -7.42807,17.38115 -3.97086,6.8588 -8.36658,12.34592 -13.10327,16.60893 a 9.6730978,9.6730978 0 0 0 -0.0489,0.0489 c -4.50357,4.11198 -7.53804,5.02561 -8.81313,5.02561 -2.28163,0 -2.5253,-0.37758 -2.65989,-0.51489 -2.1e-4,0.0149 -0.39226,-0.1399 -0.39226,-2.52506 0,-2.50929 0.26118,-5.49001 0.80898,-8.82539 l 0.0245,-0.0979 c 0.003,-0.0205 -0.003,-0.0285 0,-0.0489 0.68429,-3.71188 1.59401,-8.10457 2.75795,-13.22585 a 9.6730978,9.6730978 0 0 0 0,-0.0122 9.6730978,9.6730978 0 0 0 0,-0.0122 l 14.77029,-65.36933 a 9.6730978,9.6730978 0 0 0 -9.43828,-11.81623 z" /></g></svg>
