<?xml version="1.0" encoding="UTF-8" standalone="no"?>
<!-- Created with Inkscape (http://www.inkscape.org/) -->

<svg
   version="1.1"
   id="svg1"
   width="2053"
   height="642"
   viewBox="0 0 2053 642"
   sodipodi:docname="institut-le-rosey.svg"
   inkscape:version="1.4.1-rc (d9e8dc1fe0, 2025-03-10)"
   xmlns:inkscape="http://www.inkscape.org/namespaces/inkscape"
   xmlns:sodipodi="http://sodipodi.sourceforge.net/DTD/sodipodi-0.dtd"
   xmlns="http://www.w3.org/2000/svg"
   xmlns:svg="http://www.w3.org/2000/svg">
  <defs
     id="defs1" />
  <sodipodi:namedview
     id="namedview1"
     pagecolor="#505050"
     bordercolor="#eeeeee"
     borderopacity="1"
     inkscape:showpageshadow="0"
     inkscape:pageopacity="0"
     inkscape:pagecheckerboard="0"
     inkscape:deskcolor="#505050"
     inkscape:zoom="0.26119292"
     inkscape:cx="798.26053"
     inkscape:cy="790.60335"
     inkscape:window-width="1854"
     inkscape:window-height="1011"
     inkscape:window-x="66"
     inkscape:window-y="32"
     inkscape:window-maximized="1"
     inkscape:current-layer="g1" />
  <g
     inkscape:groupmode="layer"
     inkscape:label="Image"
     id="g1">
    <g
       id="g2">
      <path
         style="fill:#b89d1d"
         d="m 270.34281,629.5 c 0.004,-4.4 0.17944,-6.07561 0.39069,-3.72357 0.21124,2.35204 0.20827,5.95204 -0.007,8 -0.21487,2.04796 -0.38771,0.12357 -0.38408,-4.27643 z m 0.69639,-23.75 c 0.0216,-0.6875 -0.0815,-83.90942 -0.22906,-184.93761 -0.14754,-101.02818 0.0234,-183.97922 0.37978,-184.33564 1.09528,-1.09528 2.18083,1.72093 19.29765,50.06343 9.12936,25.78376 16.75536,47.03609 16.94667,47.2274 0.19132,0.19131 18.47878,-8.23623 40.6388,-18.72787 26.18938,-12.39934 40.63242,-18.73425 41.26658,-18.10009 0.63416,0.63416 0.6155,1.42794 -0.0533,2.268 -2.64885,3.32708 -39.33534,80.14023 -38.61078,80.84215 0.45346,0.43929 20.30379,8.09483 44.11186,17.01231 24.48393,9.17063 43.13189,16.68009 42.92942,17.2875 -0.19689,0.59065 -19.90121,7.56226 -43.78739,15.49246 -23.88618,7.9302 -43.61299,14.58098 -43.83735,14.77951 -0.22436,0.19854 8.66812,19.79993 19.76106,43.55865 11.09294,23.75873 19.82651,43.50796 19.40793,43.88718 -0.41858,0.37921 -18.76106,-6.3941 -40.76106,-15.05181 -22,-8.65771 -40.2369,-15.37671 -40.52645,-14.93113 -0.28954,0.44559 -8.16454,24.22751 -17.5,52.84872 -10.36096,31.76527 -17.46053,52.04407 -18.22355,52.0527 -0.6875,0.008 -1.23236,-0.54836 -1.2108,-1.23586 z m 18.60232,-57.48137 c 8.44,-25.72275 15.34838,-47.40948 15.35197,-48.19274 0.008,-1.71548 -29.85653,-75.17036 -31.11295,-76.52589 C 273.37262,423.00201 273,459.35956 273,509.46667 c 0,47.77666 0.29162,86.57505 0.64804,86.21863 0.35642,-0.35642 7.55349,-21.69392 15.99348,-47.41667 z M 379.60525,515.75 C 371.07406,497.25529 346.79306,445.4674 346.52601,445.19673 346.27827,444.94563 284.7852,420.98541 280,419.27546 c -0.825,-0.2948 21.89838,22.92262 50.49639,51.59427 C 359.09441,499.54138 382.59555,523 382.72115,523 c 0.12559,0 -1.27656,-3.2625 -3.1159,-7.25 z M 425,411.46319 c -1.925,-0.78856 -20.16822,-7.64356 -40.54049,-15.23333 L 347.41902,382.43027 314.45951,397.1856 C 296.33178,405.30103 281.05,412.14369 280.5,412.39152 c -0.55,0.24782 32.525,0.46292 73.5,0.478 65.63545,0.0242 74.08354,-0.14317 71,-1.40633 z m -95.47075,-56.99779 50.77863,-51.5346 -11.40394,5.37465 C 362.63177,311.2615 346.7,318.77178 333.5,324.99495 c -13.2,6.22317 -24.52865,11.80765 -25.17477,12.40995 -0.64612,0.60231 -7.55961,15.7201 -15.3633,33.5951 -16.3126,37.36532 -15.31959,35 -14.69361,35 0.26526,0 23.33268,-23.19057 51.26093,-51.5346 z M 261.19495,548.5 c 0.0204,-1.65 0.2445,-2.20394 0.49804,-1.23097 0.25354,0.97297 0.23687,2.32297 -0.0371,3 -0.27393,0.67703 -0.48137,-0.11903 -0.46099,-1.76903 z M 188.75,533.33772 c 0.6875,-0.27741 1.8125,-0.27741 2.5,0 0.6875,0.27741 0.125,0.50439 -1.25,0.50439 -1.375,0 -1.9375,-0.22698 -1.25,-0.50439 z m 12,-9 c 0.6875,-0.27741 1.8125,-0.27741 2.5,0 0.6875,0.27741 0.125,0.50439 -1.25,0.50439 -1.375,0 -1.9375,-0.22698 -1.25,-0.50439 z m 24.0625,-24.02083 c 0.72187,-0.28887 1.58437,-0.25335 1.91667,0.0789 0.33229,0.33229 -0.25834,0.56864 -1.3125,0.52522 -1.16495,-0.048 -1.4019,-0.28494 -0.60417,-0.60416 z m -56.54875,-45.03447 c 1.52006,-0.22986 3.77006,-0.22371 5,0.0136 1.22994,0.23736 -0.0137,0.42542 -2.76375,0.41792 -2.75,-0.008 -3.75631,-0.20172 -2.23625,-0.43157 z m 1060.99995,-24 c 1.5201,-0.22986 3.7701,-0.22371 5,0.0136 1.23,0.23736 -0.014,0.42542 -2.7637,0.41792 -2.75,-0.008 -3.7563,-0.20172 -2.2363,-0.43157 z m -504.99467,-1.97541 c 0.97297,-0.25354 2.32297,-0.23687 3,0.0371 0.67703,0.27393 -0.11903,0.48137 -1.76903,0.46099 -1.65,-0.0204 -2.20394,-0.2445 -1.23097,-0.49804 z M 1970.25,429.28375 c 1.5125,-0.22913 3.9875,-0.22913 5.5,0 1.5125,0.22912 0.275,0.41659 -2.75,0.41659 -3.025,0 -4.2625,-0.18747 -2.75,-0.41659 z m -1270,-0.97308 c 0.9625,-0.25152 2.5375,-0.25152 3.5,0 0.9625,0.25153 0.175,0.45733 -1.75,0.45733 -1.925,0 -2.7125,-0.2058 -1.75,-0.45733 z m 121.5625,0.006 c 0.72187,-0.28887 1.58438,-0.25335 1.91667,0.0789 0.33229,0.33229 -0.25834,0.56864 -1.3125,0.52522 -1.16495,-0.048 -1.4019,-0.28494 -0.60417,-0.60416 z m 93.96393,-0.0504 c 2.35204,-0.21124 5.95204,-0.20827 8,0.007 2.04796,0.21487 0.12357,0.38771 -4.27643,0.38408 -4.4,-0.004 -6.07561,-0.17944 -3.72357,-0.39069 z m 769.03607,0.0504 c 0.7219,-0.28887 1.5844,-0.25335 1.9167,0.0789 0.3323,0.33229 -0.2584,0.56864 -1.3125,0.52522 -1.165,-0.048 -1.4019,-0.28494 -0.6042,-0.60416 z m 93.4375,-0.0454 c 2.0625,-0.21574 5.4375,-0.21574 7.5,0 2.0625,0.21575 0.375,0.39226 -3.75,0.39226 -4.125,0 -5.8125,-0.17651 -3.75,-0.39226 z m 146.5625,0.0454 c 0.7219,-0.28887 1.5844,-0.25335 1.9167,0.0789 0.3323,0.33229 -0.2584,0.56864 -1.3125,0.52522 -1.165,-0.048 -1.4019,-0.28494 -0.6042,-0.60416 z M 656.25,427.31067 c 0.9625,-0.25152 2.5375,-0.25152 3.5,0 0.9625,0.25153 0.175,0.45733 -1.75,0.45733 -1.925,0 -2.7125,-0.2058 -1.75,-0.45733 z m 14.01375,-0.0283 c 1.52006,-0.22986 3.77006,-0.22371 5,0.0136 1.22994,0.23736 -0.0137,0.42542 -2.76375,0.41792 -2.75,-0.008 -3.75631,-0.20172 -2.23625,-0.43157 z m 167.98625,0.0283 c 0.9625,-0.25152 2.5375,-0.25152 3.5,0 0.9625,0.25153 0.175,0.45733 -1.75,0.45733 -1.925,0 -2.7125,-0.2058 -1.75,-0.45733 z m 21,-0.0457 c 2.6125,-0.206 6.8875,-0.206 9.5,0 2.6125,0.206 0.475,0.37454 -4.75,0.37454 -5.225,0 -7.3625,-0.16854 -4.75,-0.37454 z m 217,0.0457 c 0.9625,-0.25152 2.5375,-0.25152 3.5,0 0.9625,0.25153 0.175,0.45733 -1.75,0.45733 -1.925,0 -2.7125,-0.2058 -1.75,-0.45733 z m 12.019,-0.004 c 0.973,-0.25354 2.323,-0.23687 3,0.0371 0.6771,0.27393 -0.119,0.48137 -1.769,0.46099 -1.65,-0.0204 -2.2039,-0.2445 -1.231,-0.49804 z m 477.981,0.004 c 0.9625,-0.25152 2.5375,-0.25152 3.5,0 0.9625,0.25153 0.175,0.45733 -1.75,0.45733 -1.925,0 -2.7125,-0.2058 -1.75,-0.45733 z m 135,0 c 0.9625,-0.25152 2.5375,-0.25152 3.5,0 0.9625,0.25153 0.175,0.45733 -1.75,0.45733 -1.925,0 -2.7125,-0.2058 -1.75,-0.45733 z m 20.5335,-0.0491 c 2.906,-0.20265 7.406,-0.20052 10,0.005 2.5941,0.20525 0.2165,0.37104 -5.2835,0.36844 -5.5,-0.003 -7.6224,-0.17053 -4.7165,-0.37317 z m 214.4855,0.0454 c 0.973,-0.25354 2.323,-0.23687 3,0.0371 0.6771,0.27393 -0.119,0.48137 -1.769,0.46099 -1.65,-0.0204 -2.2039,-0.2445 -1.231,-0.49804 z m 8.481,0.0307 c 0.6875,-0.27741 1.8125,-0.27741 2.5,0 0.6875,0.27741 0.125,0.50439 -1.25,0.50439 -1.375,0 -1.9375,-0.22698 -1.25,-0.50439 z m -576.9375,-1.02083 c 0.7219,-0.28887 1.5844,-0.25335 1.9167,0.0789 0.3323,0.33229 -0.2584,0.56864 -1.3125,0.52522 -1.165,-0.048 -1.4019,-0.28494 -0.6042,-0.60416 z m 10,0 c 0.7219,-0.28887 1.5844,-0.25335 1.9167,0.0789 0.3323,0.33229 -0.2584,0.56864 -1.3125,0.52522 -1.165,-0.048 -1.4019,-0.28494 -0.6042,-0.60416 z m -133,-2 c 0.7219,-0.28887 1.5844,-0.25335 1.9167,0.0789 0.3323,0.33229 -0.2584,0.56864 -1.3125,0.52522 -1.165,-0.048 -1.4019,-0.28494 -0.6042,-0.60416 z m -1093,-3 c 0.72187,-0.28887 1.58437,-0.25335 1.91667,0.0789 0.33229,0.33229 -0.25834,0.56864 -1.3125,0.52522 -1.16495,-0.048 -1.4019,-0.28494 -0.60417,-0.60416 z m 558.9375,0.0208 c 0.6875,-0.27741 1.8125,-0.27741 2.5,0 0.6875,0.27741 0.125,0.50439 -1.25,0.50439 -1.375,0 -1.9375,-0.22698 -1.25,-0.50439 z m 28.5,-0.027 c 0.9625,-0.25152 2.5375,-0.25152 3.5,0 0.9625,0.25153 0.175,0.45733 -1.75,0.45733 -1.925,0 -2.7125,-0.2058 -1.75,-0.45733 z m 188.5625,-0.99378 c 0.72187,-0.28887 1.58438,-0.25335 1.91667,0.0789 0.33229,0.33229 -0.25834,0.56864 -1.3125,0.52522 -1.16495,-0.048 -1.4019,-0.28494 -0.60417,-0.60416 z m 814,0 c 0.7219,-0.28887 1.5844,-0.25335 1.9167,0.0789 0.3323,0.33229 -0.2584,0.56864 -1.3125,0.52522 -1.165,-0.048 -1.4019,-0.28494 -0.6042,-0.60416 z m 49,0 c 0.7219,-0.28887 1.5844,-0.25335 1.9167,0.0789 0.3323,0.33229 -0.2584,0.56864 -1.3125,0.52522 -1.165,-0.048 -1.4019,-0.28494 -0.6042,-0.60416 z M 1070.1949,399.5 c 0.02,-1.65 0.2445,-2.20394 0.4981,-1.23097 0.2535,0.97297 0.2369,2.32297 -0.037,3 -0.2739,0.67703 -0.4813,-0.11903 -0.461,-1.76903 z M 1718.232,398 c 0,-1.925 0.2058,-2.7125 0.4573,-1.75 0.2516,0.9625 0.2516,2.5375 0,3.5 -0.2515,0.9625 -0.4573,0.175 -0.4573,-1.75 z m -1068.15305,0.41667 c 0.048,-1.16495 0.28494,-1.4019 0.60416,-0.60417 0.28887,0.72187 0.25335,1.58438 -0.0789,1.91667 -0.33229,0.33229 -0.56864,-0.25834 -0.52522,-1.3125 z M 855.34941,392 c 0,-4.675 0.17226,-6.5875 0.3828,-4.25 0.21053,2.3375 0.21053,6.1625 0,8.5 -0.21054,2.3375 -0.3828,0.425 -0.3828,-4.25 z m -68.27046,1.41667 c 0.048,-1.16495 0.28494,-1.4019 0.60416,-0.60417 0.28887,0.72187 0.25335,1.58438 -0.0789,1.91667 -0.33229,0.33229 -0.56864,-0.25834 -0.52522,-1.3125 z M 831.29966,390 c 0,-3.025 0.18747,-4.2625 0.41659,-2.75 0.22913,1.5125 0.22913,3.9875 0,5.5 -0.22912,1.5125 -0.41659,0.275 -0.41659,-2.75 z m 1102.89524,2.5 c 0.02,-1.65 0.2445,-2.20394 0.4981,-1.23097 0.2535,0.97297 0.2369,2.32297 -0.037,3 -0.2739,0.67703 -0.4813,-0.11903 -0.461,-1.76903 z m -841.116,-0.0833 c 0.048,-1.16495 0.285,-1.4019 0.6042,-0.60417 0.2889,0.72187 0.2534,1.58438 -0.079,1.91667 -0.3323,0.33229 -0.5687,-0.25834 -0.5253,-1.3125 z M 1957.232,389 c 0,-1.925 0.2058,-2.7125 0.4573,-1.75 0.2516,0.9625 0.2516,2.5375 0,3.5 -0.2515,0.9625 -0.4573,0.175 -0.4573,-1.75 z m -448.1531,0.41667 c 0.048,-1.16495 0.285,-1.4019 0.6042,-0.60417 0.2889,0.72187 0.2534,1.58438 -0.079,1.91667 -0.3323,0.33229 -0.5687,-0.25834 -0.5253,-1.3125 z m -834.99995,-2 c 0.048,-1.16495 0.28494,-1.4019 0.60416,-0.60417 0.28887,0.72187 0.25335,1.58438 -0.0789,1.91667 -0.33229,0.33229 -0.56864,-0.25834 -0.52522,-1.3125 z M 1694.3099,381.5 c 0.01,-3.3 0.1923,-4.52944 0.4148,-2.73209 0.2226,1.79735 0.218,4.49735 -0.01,6 -0.2281,1.50265 -0.4102,0.0321 -0.4046,-3.26791 z M 69.227262,376.61594 C 49.418261,371.58251 32.835939,354.47611 27.531247,333.60215 25.313752,324.87631 23.6976,307.20814 24.184798,297.01796 c 0.48339,-10.11053 -0.04015,-10.90559 -5.332276,-8.09778 -5.341455,2.83398 -8.15289,8.97166 -8.676147,18.94101 -0.4050902,7.71798 -0.5590388,8.2368 -1.7925049,6.04096 -2.396403,-4.26613 -5.384479,-14.99791 -5.3619081,-19.25749 0.033262,-6.27711 2.8696828,-11.26775 11.937609,-21.00402 9.57587,-10.28166 12.485169,-15.88516 14.631367,-28.18098 4.812054,-27.56883 19.183373,-47.34054 43.134901,-59.34395 C 85.663227,179.63208 101.31938,175.90667 125,173.67697 c 9.92135,-0.93417 12.5,-1.48641 12.5,-2.67697 0,-1.18592 -2.01572,-1.63164 -9.62672,-2.12869 -5.29469,-0.34577 -11.879,-1.37677 -14.63179,-2.2911 C 102.02643,162.85517 92.231686,152.45481 87.267272,139 c -2.377195,-6.44279 -2.76515,-8.98009 -2.752216,-18 0.01319,-9.19711 0.410524,-11.63712 3.202152,-19.66408 C 92.674041,87.083193 94.282853,77.487547 93.781593,65.165329 93.324891,53.938459 91.159655,45.841697 87.083086,40.116684 85.937389,38.5077 85,36.99135 85,36.747017 c 0,-0.244333 2.5875,-0.05217 5.75,0.427038 15.2176,2.305879 29.73067,14.359441 39.51769,32.820688 1.8633,3.514734 3.80283,6.52789 4.31006,6.695902 0.50724,0.168013 2.11532,-1.60615 3.57352,-3.942584 C 146.815,58.866376 146.15051,43.401262 136.37461,31.399099 132.66299,26.84223 132.28492,26 133.95098,26 c 3.66404,0 12.51593,3.958988 17.74685,7.937235 4.56546,3.472155 5.56866,3.846727 8.24597,3.078882 5.11739,-1.467646 9.17349,-5.070688 11.59703,-10.301648 l 2.30936,-4.984522 0.99847,3.885027 c 2.49838,9.721201 3.42798,16.581687 3.44131,25.396798 0.0264,17.452894 -6.44744,26.388809 -20.2092,27.895077 -2.98057,0.326233 -5.58326,1.088715 -5.78375,1.694404 -0.20049,0.605688 1.56876,1.839577 3.93165,2.741975 9.88954,3.776848 16.74206,13.224657 16.76156,23.109722 l 0.01,4.95295 -3.75,-3.59693 c -4.70481,-4.51275 -10.37671,-7.3779 -16.98209,-8.578467 -7.67268,-1.394555 -8.43122,-0.216204 -3.38494,5.258357 4.09144,4.43869 7.11703,9.89328 7.11703,12.83071 0,0.76109 -1.35,2.79645 -3,4.52301 -2.21631,2.31917 -3.01095,4.1212 -3.04192,6.89832 L 149.91617,132.5 148,129 c -1.05389,-1.925 -1.93503,-4.38178 -1.95808,-5.45951 -0.0231,-1.07774 -2.08849,-3.83847 -4.58984,-6.13497 -3.78305,-3.47321 -4.44153,-4.59939 -3.91526,-6.6962 0.80268,-3.19814 -2.07722,-4.34614 -6.90547,-2.75267 -6.81437,2.24895 -10.11723,9.07189 -9.45163,19.5249 1.15047,18.06776 20.97207,38.74214 38.51377,40.17074 10.13263,0.8252 16.07639,-4.19062 18.32486,-15.46397 2.67035,-13.3886 4.85515,-17.83865 10.68789,-21.76934 3.28618,-2.21456 11.12862,-3.80331 13.77023,-2.78964 2.62197,1.00615 1.75066,3.37066 -1.24207,3.37066 -4.51166,0 -9.48396,3.33135 -11.95948,8.01262 -2.51354,4.75318 -2.81438,8.46727 -1.17349,14.48738 1.35524,4.97211 3.86414,7.79625 10.89857,12.26794 7.21886,4.58893 10.77966,7.94793 13.00055,12.26378 1.82443,3.54541 3.99945,13.21434 3.99945,17.7793 0,2.34649 -0.17544,2.28198 -4.41023,-1.62151 -2.96254,-2.73077 -5.67066,-4.25907 -8.25,-4.65579 -13.51256,-2.07836 -15.43484,-2.95933 -20.67675,-9.47603 -3.23963,-4.02749 -3.67867,-0.79709 -0.72284,5.31858 3.59978,7.44801 5.45719,16.13644 4.83466,22.61518 -0.26701,2.77889 -0.66309,5.21368 -0.88016,5.41064 -0.21707,0.19696 -3.15032,0.54917 -6.51832,0.78268 l -6.12363,0.42457 -0.57549,-6.05467 c -1.04098,-10.95212 -7.76418,-31.19672 -10.17724,-30.64528 -0.55,0.12569 -1.54328,3.17215 -2.20729,6.76992 -1.6536,8.95954 -3.09885,10.83934 -9.49252,12.34666 -11.62814,2.74136 -17.54362,7.15452 -20.68584,15.43238 l -1.81106,4.77106 -0.65021,-4.74381 c -1.44836,-10.56697 2.78377,-23.85578 9.84683,-30.91884 1.92505,-1.92505 3.50009,-3.96509 3.50009,-4.53343 0,-1.38131 -21.52294,-1.35773 -31.53312,0.0346 -16.470865,2.29089 -32.435084,7.72328 -43.8125,14.90877 -8.811492,5.56496 -18.812969,16.40245 -23.228077,25.16968 -10.915192,21.67468 -7.713512,43.14405 9.522357,63.85366 8.491166,10.20249 11.084022,16.29626 10.972393,25.78751 -0.04342,3.69187 -0.229087,6.26249 -0.412591,5.71249 -0.183503,-0.55 -1.263371,-4.18823 -2.399706,-8.08496 C 56.716141,292.78106 48.455439,285 39.496935,285 c -8.570219,0 -11.909493,6.96291 -11.749707,24.5 0.182668,20.04855 6.938187,38.96802 17.788479,49.81832 12.645581,12.64558 30.076543,15.66261 49.1851,8.51318 7.935903,-2.9692 16.273353,-11.31978 18.811773,-18.84138 3.81532,-11.3052 1.26694,-26.80144 -6.34406,-38.57714 -4.89135,-7.56787 -8.52034,-10.58159 -18.709861,-15.5377 -9.964664,-4.84674 -18.045524,-11.82615 -21.90704,-18.92103 -2.500855,-4.59489 -2.628095,-5.189 -0.97411,-4.54833 C 69.485745,272.91203 78.508324,275 81.128311,275 c 6.531223,0 7.699145,-2.56104 2.455669,-5.38484 -3.739542,-2.01388 -11.182222,-9.00248 -12.797575,-12.01679 -0.871771,-1.62676 -0.749303,-1.79176 0.847261,-1.14155 6.788581,2.76471 15.866334,3.27748 15.866334,0.89624 0,-0.63082 -2.7,-3.13685 -6,-5.56895 -9.556421,-7.04307 -16.17622,-17.52412 -17.123908,-27.11206 L 63.864878,219.5 l 2.638538,5 c 5.303068,10.04926 15.932893,17.87256 19.85799,14.61502 2.189952,-1.8175 3.99101,-13.37101 3.23488,-20.75127 -0.701603,-6.84804 -3.500043,-15.39144 -6.965419,-21.26481 l -2.09328,-3.54785 3.981207,2.40226 c 15.888296,9.58696 28.197246,19.02726 38.116926,29.23361 6.12615,6.30319 13.36428,15.33437 13.36428,16.67492 0,0.38977 -4.31081,3.79407 -9.57958,7.5651 -6.89355,4.93394 -9.43152,7.30737 -9.05154,8.46472 0.29042,0.88456 2.32767,6.7833 4.52721,13.1083 5.89675,16.95663 7.55635,26.1931 7.5465,42 -0.01,16.07268 -1.41932,22.37573 -7.99848,35.77279 -5.42173,11.04018 -16.31829,22.95697 -24.165627,26.42822 -5.9777,2.64422 -20.358607,3.36961 -28.051221,1.41493 z m 402.339208,-2.21775 c -17.19247,-4.15847 -35.71262,-17.92425 -47.496,-35.30314 -22.21678,-32.76676 -21.09452,-70.67646 3.05703,-103.26501 9.49243,-12.80847 27.23185,-27.85024 45.62435,-38.68619 l 5.25184,-3.09413 -3.01623,5.97512 c -4.27024,8.4593 -6.32093,18.00278 -5.59739,26.049 1.20596,13.41088 4.05085,16.20196 11.8535,11.62931 4.31735,-2.53014 9.54205,-8.84625 12.33076,-14.90658 l 1.51694,-3.29657 -0.40662,4.60648 c -0.4663,5.2825 -4.26955,14.16759 -8.37267,19.56004 -1.54659,2.03258 -5.51198,5.6855 -8.81198,8.11759 -3.3,2.4321 -6,4.93813 -6,5.56895 0,1.77159 7.68161,1.91906 12.55228,0.24097 2.4033,-0.828 4.49391,-1.38117 4.64582,-1.22927 0.68116,0.68117 -5.9976,8.37969 -9.22647,10.63524 -7.5802,5.2952 -8.11076,5.86615 -6.47163,6.96437 2.80934,1.88227 12.59075,0.67519 20.40249,-2.51776 1.64989,-0.67437 1.52275,-0.0799 -0.95756,4.47724 -3.95045,7.25828 -11.7415,14.034 -21.77133,18.93409 -13.23388,6.46543 -20.94802,15.81541 -25.19996,30.54378 -2.50913,8.69143 -1.69745,21.40436 1.80187,28.22163 3.33596,6.49901 10.3872,12.73261 17.34922,15.33743 30.64671,11.46641 55.89182,-4.05104 64.52135,-39.65943 2.48691,-10.26184 2.98848,-28.24417 0.98088,-35.1663 -2.45474,-8.46384 -8.9139,-11.34005 -17.45361,-7.77193 -5.04323,2.1072 -11.39568,10.00775 -13.27953,16.51578 -2.82976,9.77578 -3.44641,10.20288 -3.06244,2.1211 0.414,-8.71411 3.10165,-14.91991 9.8095,-22.65023 10.54086,-12.1476 15.5604,-23.35179 16.50889,-36.84977 1.84159,-26.20775 -16.50031,-50.89849 -45.7695,-61.61211 -14.28318,-5.22819 -23.84682,-6.94969 -42.13027,-7.58366 -10.86999,-0.37691 -16.75,-0.23032 -16.75,0.41761 0,0.54912 1.59371,2.68822 3.54157,4.75356 7.1807,7.61376 11.33098,20.54494 9.90998,30.87687 l -0.69314,5.0397 -1.83522,-4.83472 c -3.17088,-8.35338 -8.28163,-12.37014 -19.24095,-15.12232 -8.06039,-2.02418 -9.1923,-3.35078 -10.94269,-12.82494 -0.68175,-3.69004 -1.68955,-6.74926 -2.23955,-6.79826 -1.452,-0.12938 -4.12845,5.89342 -7.07421,15.91899 -3.32931,11.33099 -4.22822,25.72056 -2.04416,32.72262 0.84976,2.72433 1.3532,5.14517 1.11874,5.37963 -0.23446,0.23446 -3.32556,-2.47298 -6.86912,-6.01653 C 374.81897,219.00416 372,212.91976 372,205.0286 c 0,-5.04352 2.50817,-14.1245 5.57011,-20.16696 1.6554,-3.26677 2.2406,-5.45093 1.62531,-6.06622 -0.61528,-0.61528 -1.45365,-0.34767 -2.32844,0.74326 -5.57399,6.95118 -7.56484,7.8861 -21.33472,10.01904 -2.88655,0.44713 -5.16019,1.80705 -8.3438,4.99066 l -4.37606,4.37607 0.66157,-6.21223 c 1.44839,-13.60038 5.16,-19.91082 15.36179,-26.11792 8.76316,-5.33178 11.35427,-8.55895 12.30076,-15.32033 1.47202,-10.51545 -1.55821,-27.18606 -6.86619,-37.77397 -5.89575,-11.76032 -13.36691,-17.721159 -24.87286,-19.844724 -3.8683,-0.71394 -6.95492,-1.82763 -7.21325,-2.602624 -0.36028,-1.080824 0.79979,-1.241203 5.73862,-0.793365 18.32211,1.661391 32.91227,19.066463 39.78233,47.457633 4.54675,18.78987 5.21037,20.90599 7.44836,23.75113 2.60473,3.31138 9.13454,6.47936 13.41833,6.50999 12.17141,0.087 28.44047,-12.19886 35.72455,-26.97804 2.89984,-5.8837 3.20359,-7.37009 3.20359,-15.67667 0,-7.69393 -0.33358,-9.63286 -2.06453,-12 -2.75647,-3.76957 -8.78099,-6.70441 -12.0687,-5.87925 -2.16932,0.54447 -2.46224,1.03941 -1.91217,3.23105 0.54641,2.17709 -0.0733,3.26128 -3.90252,6.82719 -2.50364,2.3315 -4.55208,4.99463 -4.55208,5.91805 0,0.92342 -0.76414,3.1191 -1.6981,4.87929 l -1.6981,3.20034 -0.65054,-3.7873 c -0.35918,-2.09102 -1.89392,-5.0851 -3.42665,-6.68492 -2.21747,-2.31455 -2.637,-3.45182 -2.08486,-5.65171 0.80914,-3.22387 3.64068,-7.55542 7.95536,-12.16969 3.87064,-4.139394 2.5309,-5.283777 -4.65642,-3.97744 -6.94864,1.26296 -13.7429,4.87061 -17.73447,9.41676 l -3.31374,3.77414 0.53541,-6.67012 c 0.87132,-10.854833 6.34659,-18.223449 16.5637,-22.291444 2.36038,-0.939796 4.12403,-2.21487 3.91923,-2.833498 -0.2048,-0.618628 -2.81102,-1.391696 -5.79159,-1.717929 C 392.31383,77.964961 387.45927,74.671794 383.36697,67 380.7061,62.01169 380.69868,39.626995 383.35446,29.263286 l 1.85447,-7.236713 2.48158,4.97989 c 2.64081,5.299409 6.37363,8.577952 11.41161,10.022826 2.73783,0.785197 3.70866,0.423354 8.4318,-3.142646 C 412.98493,29.771088 421.37892,26 425.08865,26 c 1.84909,0 1.6902,0.440438 -1.50596,4.174431 -6.38434,7.45866 -8.08269,12.160658 -8.08269,22.377432 0,8.478897 0.24257,9.542679 3.83226,16.805913 2.10774,4.264728 4.35774,7.582746 5,7.373373 0.64226,-0.209373 2.8209,-3.389964 4.84143,-7.06798 C 439.78813,50.341451 453.8066,38.804337 468.5139,37.28641 l 5.84813,-0.603581 -2.22157,3.11991 c -5.9471,8.351939 -8.58807,25.872851 -6.17274,40.951666 0.68238,4.260077 2.9938,13.279874 5.13648,20.043995 5.57124,17.58748 5.25478,29.1267 -1.17288,42.76828 -7.88373,16.73184 -18.88065,23.9616 -38.43132,25.26609 -7.92567,0.52882 -10,0.97838 -10,2.16723 0,1.14818 1.87638,1.66931 8,2.22186 28.285,2.55222 41.38576,5.58738 57.02436,13.21129 13.10921,6.39082 23.23464,15.09465 30.51113,26.22741 6.23491,9.53918 9.34012,17.6209 12.33554,32.10483 1.36984,6.62371 3.40758,13.84049 4.5283,16.03729 1.12073,2.1968 5.72078,7.96969 10.22234,12.82865 4.50156,4.85896 9.00585,10.64217 10.00953,12.85157 3.01132,6.62882 2.28674,13.9381 -2.47996,25.0171 l -2.15124,5 -0.51639,-8.5 C 548.2428,295.8061 543.9172,288.50248 537,287.76613 l -2.5,-0.26613 0.33508,11 c 0.83172,27.30417 -5.51647,49.67221 -17.83443,62.84015 -11.91217,12.73415 -27.84335,17.31286 -45.43418,13.05804 z M 1071.286,371.5 c 0.01,-2.75 0.2017,-3.75631 0.4316,-2.23625 0.2298,1.52006 0.2237,3.77006 -0.014,5 -0.2373,1.22994 -0.4254,-0.0138 -0.4179,-2.76375 z M 651.4686,314 c 0,-32.175 0.12636,-45.3375 0.2808,-29.25 0.15445,16.0875 0.15445,42.4125 0,58.5 -0.15444,16.0875 -0.2808,2.925 -0.2808,-29.25 z m -165.6561,55.31689 c 0.72187,-0.28887 1.58438,-0.25335 1.91667,0.0789 0.33229,0.33229 -0.25834,0.56864 -1.3125,0.52522 -1.16495,-0.048 -1.4019,-0.28494 -0.60417,-0.60416 z m -414,-1 c 0.721875,-0.28887 1.584375,-0.25335 1.916667,0.0789 0.332291,0.33229 -0.258334,0.56864 -1.3125,0.52522 -1.164943,-0.048 -1.4019,-0.28494 -0.604167,-0.60416 z M 1935.37,350 c 0,-5.775 0.1652,-8.1375 0.3672,-5.25 0.202,2.8875 0.202,7.6125 0,10.5 -0.202,2.8875 -0.3672,0.525 -0.3672,-5.25 z M 673.41858,338 c 0,-10.725 0.14711,-15.1125 0.32692,-9.75 0.17981,5.3625 0.17981,14.1375 0,19.5 -0.17981,5.3625 -0.32692,0.975 -0.32692,-9.75 z m 1043.94662,1.5 c 0,-5.5 0.1706,-7.62242 0.3732,-4.71648 0.2026,2.90594 0.2005,7.40594 -0,10 -0.2053,2.59406 -0.3711,0.21648 -0.3685,-5.28352 z m -885.01024,-3 c -0.003,-4.95 0.16605,-7.10108 0.37577,-4.78017 0.20972,2.3209 0.21222,6.3709 0.006,9 -0.20667,2.62909 -0.37827,0.73017 -0.38131,-4.21983 z m -720.27601,0.91667 c 0.048,-1.16495 0.28494,-1.4019 0.60416,-0.60417 0.28887,0.72187 0.25335,1.58438 -0.0789,1.91667 -0.3323,0.33229 -0.56864,-0.25834 -0.52522,-1.3125 z M 854.36996,326 c 0,-5.775 0.16528,-8.1375 0.36728,-5.25 0.202,2.8875 0.202,7.6125 0,10.5 -0.202,2.8875 -0.36728,0.525 -0.36728,-5.25 z m 1102.91604,5.5 c 0.01,-2.75 0.2017,-3.75631 0.4316,-2.23625 0.2298,1.52006 0.2237,3.77006 -0.014,5 -0.2373,1.22994 -0.4254,-0.0138 -0.4179,-2.76375 z m -261.9119,-9 c 0,-6.05 0.1669,-8.39607 0.366,-5.21349 0.199,3.18258 0.1972,8.13258 -0,11 -0.2013,2.86742 -0.3642,0.26349 -0.3619,-5.78651 z m -751.29515,6.91667 c 0.048,-1.16495 0.28494,-1.4019 0.60416,-0.60417 0.28887,0.72187 0.25335,1.58438 -0.0789,1.91667 -0.33229,0.33229 -0.56864,-0.25834 -0.52522,-1.3125 z M 144.19495,325.5 c 0.0204,-1.65 0.2445,-2.20394 0.49804,-1.23097 0.25354,0.97297 0.23687,2.32297 -0.0371,3 -0.27393,0.67703 -0.48137,-0.11903 -0.46099,-1.76903 z m 1661.88395,-3.08333 c 0.048,-1.16495 0.285,-1.4019 0.6042,-0.60417 0.2889,0.72187 0.2534,1.58438 -0.079,1.91667 -0.3323,0.33229 -0.5687,-0.25834 -0.5253,-1.3125 z M 943.15789,320 c 0,-1.375 0.22698,-1.9375 0.50439,-1.25 0.27741,0.6875 0.27741,1.8125 0,2.5 -0.27741,0.6875 -0.50439,0.125 -0.50439,-1.25 z m -406.07894,-3.58333 c 0.048,-1.16495 0.28494,-1.4019 0.60416,-0.60417 0.28887,0.72187 0.25335,1.58438 -0.0789,1.91667 -0.33229,0.33229 -0.56864,-0.25834 -0.52522,-1.3125 z M 1482.3428,310.5 c 0,-4.4 0.1795,-6.07561 0.3907,-3.72357 0.2112,2.35204 0.2083,5.95204 -0.01,8 -0.2149,2.04796 -0.3877,0.12357 -0.3841,-4.27643 z M 21.078947,315.41667 c 0.04798,-1.16495 0.284941,-1.4019 0.604167,-0.60417 0.288871,0.72187 0.253344,1.58438 -0.07895,1.91667 -0.332292,0.33229 -0.568641,-0.25834 -0.52522,-1.3125 z M 528.29966,309 c 0,-3.025 0.18747,-4.2625 0.41659,-2.75 0.22913,1.5125 0.22913,3.9875 0,5.5 -0.22912,1.5125 -0.41659,0.275 -0.41659,-2.75 z M 912.75,313.33772 c 0.6875,-0.27741 1.8125,-0.27741 2.5,0 0.6875,0.27741 0.125,0.50439 -1.25,0.50439 -1.375,0 -1.9375,-0.22698 -1.25,-0.50439 z m 180.3289,-0.92105 c 0.048,-1.16495 0.285,-1.4019 0.6042,-0.60417 0.2889,0.72187 0.2534,1.58438 -0.079,1.91667 -0.3323,0.33229 -0.5687,-0.25834 -0.5253,-1.3125 z M 1248.1949,311.5 c 0.02,-1.65 0.2445,-2.20394 0.4981,-1.23097 0.2535,0.97297 0.2369,2.32297 -0.037,3 -0.2739,0.67703 -0.4813,-0.11903 -0.461,-1.76903 z m 527.5551,1.83772 c 0.6875,-0.27741 1.8125,-0.27741 2.5,0 0.6875,0.27741 0.125,0.50439 -1.25,0.50439 -1.375,0 -1.9375,-0.22698 -1.25,-0.50439 z M 237.07895,309.41667 c 0.048,-1.16495 0.28494,-1.4019 0.60416,-0.60417 0.28887,0.72187 0.25335,1.58438 -0.0789,1.91667 -0.3323,0.33229 -0.56864,-0.25834 -0.52522,-1.3125 z M 30.157895,308 c 0,-1.375 0.226973,-1.9375 0.504386,-1.25 0.277412,0.6875 0.277412,1.8125 0,2.5 -0.277413,0.6875 -0.504386,0.125 -0.504386,-1.25 z m 841.153275,-4.74821 c 8.14615,-0.16828 21.19615,-0.16789 29,8.6e-4 7.80386,0.16876 1.13883,0.30644 -14.81117,0.30596 -15.95,-4.7e-4 -22.33497,-0.13854 -14.18883,-0.30682 z m 861.93883,3.5e-4 c 8.1125,-0.16808 21.3875,-0.16808 29.5,0 8.1125,0.16809 1.475,0.30561 -14.75,0.30561 -16.225,0 -22.8625,-0.13752 -14.75,-0.30561 z m -620.4375,-1.93525 c 0.7219,-0.28887 1.5844,-0.25335 1.9167,0.0789 0.3323,0.33229 -0.2584,0.56864 -1.3125,0.52522 -1.165,-0.048 -1.4019,-0.28494 -0.6042,-0.60416 z M 854.46274,251 c 0,-26.675 0.12889,-37.5875 0.28641,-24.25 0.15752,13.3375 0.15752,35.1625 0,48.5 -0.15752,13.3375 -0.28641,2.425 -0.28641,-24.25 z m 393.73216,45.5 c 0.02,-1.65 0.2445,-2.20394 0.4981,-1.23097 0.2535,0.97297 0.2369,2.32297 -0.037,3 -0.2739,0.67703 -0.4813,-0.11903 -0.461,-1.76903 z m 25.884,-4.08333 c 0.048,-1.16495 0.285,-1.4019 0.6042,-0.60417 0.2889,0.72187 0.2534,1.58438 -0.079,1.91667 -0.3323,0.33229 -0.5687,-0.25834 -0.5253,-1.3125 z m -328.99995,-3 c 0.048,-1.16495 0.28494,-1.4019 0.60416,-0.60417 0.28887,0.72187 0.25335,1.58438 -0.0789,1.91667 -0.33229,0.33229 -0.56864,-0.25834 -0.52522,-1.3125 z M 218.75,288.33772 c 0.6875,-0.27741 1.8125,-0.27741 2.5,0 0.6875,0.27741 0.125,0.50439 -1.25,0.50439 -1.375,0 -1.9375,-0.22698 -1.25,-0.50439 z m 1589.3289,-0.92105 c 0.048,-1.16495 0.285,-1.4019 0.6042,-0.60417 0.2889,0.72187 0.2534,1.58438 -0.079,1.91667 -0.3323,0.33229 -0.5687,-0.25834 -0.5253,-1.3125 z M 478.5,255 c 0.33992,-0.55 0.81648,-1 1.05902,-1 0.24254,0 0.44098,0.45 0.44098,1 0,0.55 -0.47656,1 -1.05902,1 -0.58246,0 -0.7809,-0.45 -0.44098,-1 z m 194.89456,-14.5 c 0.002,-7.7 0.15853,-10.71781 0.34883,-6.70625 0.1903,4.01156 0.18902,10.31156 -0.003,14 C 673.5487,251.48219 673.393,248.2 673.39456,240.5 Z m 516.90514,4.5 c 0,-3.025 0.1874,-4.2625 0.4166,-2.75 0.2291,1.5125 0.2291,3.9875 0,5.5 -0.2292,1.5125 -0.4166,0.275 -0.4166,-2.75 z m -119.0475,-3.5 c 0.011,-2.2 0.2159,-2.98225 0.4551,-1.73834 0.2392,1.24391 0.2301,3.04391 -0.02,4 -0.2503,0.95609 -0.446,-0.0617 -0.4349,-2.26166 z M 650.15789,220 c 0,-1.375 0.22698,-1.9375 0.50439,-1.25 0.27741,0.6875 0.27741,1.8125 0,2.5 -0.27741,0.6875 -0.50439,0.125 -0.50439,-1.25 z m -178.07894,-0.58333 c 0.048,-1.16495 0.28494,-1.4019 0.60416,-0.60417 0.28887,0.72187 0.25335,1.58437 -0.0789,1.91667 -0.33229,0.33229 -0.56864,-0.25834 -0.52522,-1.3125 z M 498.232,218 c 0,-1.925 0.2058,-2.7125 0.45733,-1.75 0.25152,0.9625 0.25152,2.5375 0,3.5 -0.25153,0.9625 -0.45733,0.175 -0.45733,-1.75 z m 571.9259,1 c 0,-1.375 0.227,-1.9375 0.5044,-1.25 0.2774,0.6875 0.2774,1.8125 0,2.5 -0.2774,0.6875 -0.5044,0.125 -0.5044,-1.25 z m 565,0 c 0,-1.375 0.227,-1.9375 0.5044,-1.25 0.2774,0.6875 0.2774,1.8125 0,2.5 -0.2774,0.6875 -0.5044,0.125 -0.5044,-1.25 z M 60.157895,218 c 0,-1.375 0.226973,-1.9375 0.504386,-1.25 0.277412,0.6875 0.277412,1.8125 0,2.5 -0.277413,0.6875 -0.504386,0.125 -0.504386,-1.25 z m 63.921055,-5.58333 c 0.048,-1.16495 0.28494,-1.4019 0.60416,-0.60417 0.28887,0.72187 0.25335,1.58437 -0.0789,1.91667 -0.3323,0.33229 -0.56864,-0.25834 -0.52522,-1.3125 z m 550,0 c 0.048,-1.16495 0.28494,-1.4019 0.60416,-0.60417 0.28887,0.72187 0.25335,1.58437 -0.0789,1.91667 -0.33229,0.33229 -0.56864,-0.25834 -0.52522,-1.3125 z m -550,-9 c 0.048,-1.16495 0.28494,-1.4019 0.60416,-0.60417 0.28887,0.72187 0.25335,1.58437 -0.0789,1.91667 -0.3323,0.33229 -0.56864,-0.25834 -0.52522,-1.3125 z M 1717.1579,203 c 0,-1.375 0.227,-1.9375 0.5044,-1.25 0.2774,0.6875 0.2774,1.8125 0,2.5 -0.2774,0.6875 -0.5044,0.125 -0.5044,-1.25 z m 98.921,-4.58333 c 0.048,-1.16495 0.285,-1.4019 0.6042,-0.60417 0.2889,0.72187 0.2534,1.58437 -0.079,1.91667 -0.3323,0.33229 -0.5687,-0.25834 -0.5253,-1.3125 z M 953.15789,196 c 0,-1.375 0.22698,-1.9375 0.50439,-1.25 0.27741,0.6875 0.27741,1.8125 0,2.5 -0.27741,0.6875 -0.50439,0.125 -0.50439,-1.25 z M 244.232,193 c 0,-1.925 0.2058,-2.7125 0.45733,-1.75 0.25152,0.9625 0.25152,2.5375 0,3.5 -0.25153,0.9625 -0.45733,0.175 -0.45733,-1.75 z m 669.52966,1.29274 c 1.24391,-0.23919 3.04391,-0.23011 4,0.0202 0.95609,0.25029 -0.0617,0.446 -2.26166,0.4349 -2.2,-0.0111 -2.98225,-0.21589 -1.73834,-0.45508 z m 863.00004,0 c 1.2439,-0.23919 3.0439,-0.23011 4,0.0202 0.956,0.25029 -0.062,0.446 -2.2617,0.4349 -2.2,-0.0111 -2.9823,-0.21589 -1.7383,-0.45508 z M 247.66667,192.33333 c -0.92172,-0.92171 -0.84388,-22.10578 0.0833,-22.67882 0.4125,-0.25494 0.75,4.8935 0.75,11.44098 0,6.54748 -0.0375,11.90451 -0.0833,11.90451 -0.0458,0 -0.38334,-0.3 -0.75,-0.66667 z M 654.75,187.33772 c 0.6875,-0.27741 1.8125,-0.27741 2.5,0 0.6875,0.27741 0.125,0.50439 -1.25,0.50439 -1.375,0 -1.9375,-0.22698 -1.25,-0.50439 z m 15,0 c 0.6875,-0.27741 1.8125,-0.27741 2.5,0 0.6875,0.27741 0.125,0.50439 -1.25,0.50439 -1.375,0 -1.9375,-0.22698 -1.25,-0.50439 z m 163,0 c 0.6875,-0.27741 1.8125,-0.27741 2.5,0 0.6875,0.27741 0.125,0.50439 -1.25,0.50439 -1.375,0 -1.9375,-0.22698 -1.25,-0.50439 z m 39.03919,-0.0791 c 3.45905,-0.19583 8.85905,-0.19422 12,0.004 3.14094,0.19781 0.31081,0.35803 -6.28919,0.35606 -6.6,-0.002 -9.16987,-0.16382 -5.71081,-0.35965 z m 197.96081,0.0791 c 0.6875,-0.27741 1.8125,-0.27741 2.5,0 0.6875,0.27741 0.125,0.50439 -1.25,0.50439 -1.375,0 -1.9375,-0.22698 -1.25,-0.50439 z m 19,0 c 0.6875,-0.27741 1.8125,-0.27741 2.5,0 0.6875,0.27741 0.125,0.50439 -1.25,0.50439 -1.375,0 -1.9375,-0.22698 -1.25,-0.50439 z m 607,0 c 0.6875,-0.27741 1.8125,-0.27741 2.5,0 0.6875,0.27741 0.125,0.50439 -1.25,0.50439 -1.375,0 -1.9375,-0.22698 -1.25,-0.50439 z m 39.0392,-0.0791 c 3.459,-0.19583 8.859,-0.19422 12,0.004 3.1409,0.19781 0.3108,0.35803 -6.2892,0.35606 -6.6,-0.002 -9.1699,-0.16382 -5.7108,-0.35965 z m 136.4798,0.0484 c 0.973,-0.25354 2.323,-0.23687 3,0.0371 0.6771,0.27393 -0.119,0.48137 -1.769,0.46099 -1.65,-0.0204 -2.2039,-0.2445 -1.231,-0.49804 z m 19,0 c 0.973,-0.25354 2.323,-0.23687 3,0.0371 0.6771,0.27393 -0.119,0.48137 -1.769,0.46099 -1.65,-0.0204 -2.2039,-0.2445 -1.231,-0.49804 z m 124.5435,0.01 c 0.7219,-0.28887 1.5844,-0.25335 1.9167,0.0789 0.3323,0.33229 -0.2584,0.56864 -1.3125,0.52522 -1.165,-0.048 -1.4019,-0.28494 -0.6042,-0.60416 z m 14,0 c 0.7219,-0.28887 1.5844,-0.25335 1.9167,0.0789 0.3323,0.33229 -0.2584,0.56864 -1.3125,0.52522 -1.165,-0.048 -1.4019,-0.28494 -0.6042,-0.60416 z M 639.75,186.33772 c 0.6875,-0.27741 1.8125,-0.27741 2.5,0 0.6875,0.27741 0.125,0.50439 -1.25,0.50439 -1.375,0 -1.9375,-0.22698 -1.25,-0.50439 z m 44.0625,-0.0208 c 0.72187,-0.28887 1.58438,-0.25335 1.91667,0.0789 0.33229,0.33229 -0.25834,0.56864 -1.3125,0.52522 -1.16495,-0.048 -1.4019,-0.28494 -0.60417,-0.60416 z m 260,0 c 0.72187,-0.28887 1.58438,-0.25335 1.91667,0.0789 0.33229,0.33229 -0.25834,0.56864 -1.3125,0.52522 -1.16495,-0.048 -1.4019,-0.28494 -0.60417,-0.60416 z m 114,0 c 0.7219,-0.28887 1.5844,-0.25335 1.9167,0.0789 0.3323,0.33229 -0.2584,0.56864 -1.3125,0.52522 -1.165,-0.048 -1.4019,-0.28494 -0.6042,-0.60416 z m 47,0 c 0.7219,-0.28887 1.5844,-0.25335 1.9167,0.0789 0.3323,0.33229 -0.2584,0.56864 -1.3125,0.52522 -1.165,-0.048 -1.4019,-0.28494 -0.6042,-0.60416 z m 702,0 c 0.7219,-0.28887 1.5844,-0.25335 1.9167,0.0789 0.3323,0.33229 -0.2584,0.56864 -1.3125,0.52522 -1.165,-0.048 -1.4019,-0.28494 -0.6042,-0.60416 z m 50,0 c 0.7219,-0.28887 1.5844,-0.25335 1.9167,0.0789 0.3323,0.33229 -0.2584,0.56864 -1.3125,0.52522 -1.165,-0.048 -1.4019,-0.28494 -0.6042,-0.60416 z m 146,0 c 0.7219,-0.28887 1.5844,-0.25335 1.9167,0.0789 0.3323,0.33229 -0.2584,0.56864 -1.3125,0.52522 -1.165,-0.048 -1.4019,-0.28494 -0.6042,-0.60416 z m 38,0 c 0.7219,-0.28887 1.5844,-0.25335 1.9167,0.0789 0.3323,0.33229 -0.2584,0.56864 -1.3125,0.52522 -1.165,-0.048 -1.4019,-0.28494 -0.6042,-0.60416 z M 244.34281,178.5 c 0.004,-4.4 0.17944,-6.07561 0.39069,-3.72357 0.21124,2.35204 0.20827,5.95204 -0.007,8 -0.21487,2.04796 -0.38771,0.12357 -0.38408,-4.27643 z m -6.07378,-8.19299 c 0.97297,-0.25354 2.32297,-0.23687 3,0.0371 0.67703,0.27393 -0.11903,0.48137 -1.76903,0.46099 -1.65,-0.0204 -2.20394,-0.2445 -1.23097,-0.49804 z m -12.71139,-43.21375 c -0.30822,-0.49871 0.34022,-0.67122 1.44098,-0.38337 2.33499,0.61061 2.63015,1.29011 0.5604,1.29011 -0.79254,0 -1.69316,-0.40803 -2.00138,-0.90674 z M 176.25218,109.5 c 0.0111,-2.2 0.21589,-2.98225 0.45508,-1.73834 0.23919,1.24391 0.23011,3.04391 -0.0202,4 -0.25029,0.95609 -0.446,-0.0617 -0.4349,-2.26166 z M 311.232,110 c 0,-1.925 0.2058,-2.7125 0.45733,-1.75 0.25152,0.9625 0.25152,2.5375 0,3.5 -0.25153,0.9625 -0.45733,0.175 -0.45733,-1.75 z m 14.96295,-0.5 c 0.0204,-1.65 0.2445,-2.20394 0.49804,-1.23097 0.25354,0.97297 0.23687,2.32297 -0.0371,3 -0.27393,0.67703 -0.48137,-0.11903 -0.46099,-1.76903 z m 55.884,-0.0833 c 0.048,-1.16495 0.28494,-1.4019 0.60416,-0.60417 0.28887,0.72187 0.25335,1.58437 -0.0789,1.91667 -0.33229,0.33229 -0.56864,-0.25834 -0.52522,-1.3125 z M 335.75,96.337719 c 0.6875,-0.277412 1.8125,-0.277412 2.5,0 0.6875,0.277413 0.125,0.504386 -1.25,0.504386 -1.375,0 -1.9375,-0.226973 -1.25,-0.504386 z m -59.5,-26.027045 c 0.9625,-0.251527 2.5375,-0.251527 3.5,0 0.9625,0.251528 0.175,0.457323 -1.75,0.457323 -1.925,0 -2.7125,-0.205795 -1.75,-0.457323 z m -0.5,-3.016407 c 1.2375,-0.238353 3.2625,-0.238353 4.5,0 1.2375,0.238353 0.225,0.433369 -2.25,0.433369 -2.475,0 -3.4875,-0.195016 -2.25,-0.433369 z m 0,-2.956548 c 0.6875,-0.277412 1.8125,-0.277412 2.5,0 0.6875,0.277413 0.125,0.504386 -1.25,0.504386 -1.375,0 -1.9375,-0.226973 -1.25,-0.504386 z m 18,0 c 0.6875,-0.277412 1.8125,-0.277412 2.5,0 0.6875,0.277413 0.125,0.504386 -1.25,0.504386 -1.375,0 -1.9375,-0.226973 -1.25,-0.504386 z m -21.9375,-4.020833 c 0.72187,-0.288871 1.58438,-0.253344 1.91667,0.07895 0.33229,0.332292 -0.25834,0.568641 -1.3125,0.52522 -1.16495,-0.04798 -1.4019,-0.284941 -0.60417,-0.604167 z m 27,0 c 0.72187,-0.288871 1.58438,-0.253344 1.91667,0.07895 0.33229,0.332292 -0.25834,0.568641 -1.3125,0.52522 -1.16495,-0.04798 -1.4019,-0.284941 -0.60417,-0.604167 z M 274.75,57.337719 c 0.6875,-0.277412 1.8125,-0.277412 2.5,0 0.6875,0.277413 0.125,0.504386 -1.25,0.504386 -1.375,0 -1.9375,-0.226973 -1.25,-0.504386 z m 20,0 c 0.6875,-0.277412 1.8125,-0.277412 2.5,0 0.6875,0.277413 0.125,0.504386 -1.25,0.504386 -1.375,0 -1.9375,-0.226973 -1.25,-0.504386 z m 82.32895,-1.921052 c 0.048,-1.164943 0.28494,-1.4019 0.60416,-0.604167 0.28887,0.721875 0.25335,1.584375 -0.0789,1.916667 -0.33229,0.332291 -0.56864,-0.258334 -0.52522,-1.3125 z M 270.8125,53.316886 c 0.72187,-0.288871 1.58438,-0.253344 1.91667,0.07895 0.33229,0.332292 -0.25834,0.568641 -1.3125,0.52522 -1.16495,-0.04798 -1.4019,-0.284941 -0.60417,-0.604167 z M 240.85007,39.07144 C 235.25169,31.667216 231.67615,27.83103 230,27.43044 c -4.70607,-1.124723 -5,-1.372329 -5,-4.211964 0,-4.833599 7.31306,-10.206054 11.90762,-8.747797 2.75975,0.87591 3.33904,3.328511 1.60648,6.801502 -2.07687,4.163197 -1.9434,4.942345 1.3945,8.140257 2.39632,2.29582 3.45455,2.666711 6.00832,2.105809 3.689,-0.810239 4.75081,-2.528723 5.61976,-9.095274 0.63696,-4.8134 0.5826,-4.948861 -2.44261,-6.086109 -4.0104,-1.507606 -4.2214,-5.304944 -0.45921,-8.2642839 3.61595,-2.844309 11.33038,-2.8734634 13.88334,-0.052468 1.77636,1.962857 1.76407,2.1068158 -0.43353,5.0792378 -2.5764,3.484765 -2.33144,5.758245 1.18091,10.960053 2.23923,3.316309 2.52023,3.427695 7.77879,3.083452 6.03008,-0.39475 6.23,-0.569633 8.54985,-7.479038 l 1.62376,-4.836183 -3.31815,-2.77012 c -3.26535,-2.7260294 -3.29108,-2.8114533 -1.61656,-5.3670839 3.11579,-4.7553009 13.29163,-4.722391 16.46253,0.053242 1.38842,2.0910678 1.27599,2.4335504 -1.71641,5.228878 l -3.20215,2.991249 1.7093,5.268101 c 0.94012,2.897455 1.99149,5.552818 2.33638,5.900806 0.34489,0.347989 3.03841,0.849124 5.98559,1.113634 l 5.3585,0.480927 2.8915,-4.559414 c 3.4714,-5.473838 3.53255,-6.381753 0.68891,-10.227987 l -2.20258,-2.9791497 2.09966,-2.0996624 c 4.512,-4.512001 15.41637,-1.4373349 16.12768,4.5474641 0.26799,2.25482 -0.21035,2.910928 -2.84408,3.901103 -3.08963,1.161575 -3.151,1.305612 -2.53611,5.952558 0.86409,6.530321 1.45206,7.747039 4.25949,8.814425 3.91793,1.489594 5.04652,1.120338 7.86339,-2.572767 2.5974,-3.40536 2.6246,-3.584796 1.04727,-6.908767 -1.90614,-4.016886 -1.27725,-6.390033 1.90502,-7.188733 C 336.95291,13.293034 344,18.693253 344,23.205699 c 0,2.852445 -0.29427,3.101022 -5,4.223693 -1.59922,0.381534 -4.74395,3.564367 -8.72777,8.833523 -3.42527,4.530397 -7.25027,9.470307 -8.5,10.977578 l -2.27223,2.740493 -9,-1.549635 c -15.22205,-2.620959 -42.80696,-2.082959 -58.64993,1.143875 -2.40836,0.490524 -3.41117,-0.467045 -11,-10.503786 z m 41.91159,10.221299 c 1.24391,-0.239193 3.04391,-0.230112 4,0.02018 0.95609,0.250292 -0.0617,0.445996 -2.26166,0.434897 -2.2,-0.0111 -2.98225,-0.215885 -1.73834,-0.455078 z M 377.15789,46 c 0,-1.375 0.22698,-1.9375 0.50439,-1.25 0.27741,0.6875 0.27741,1.8125 0,2.5 -0.27741,0.6875 -0.50439,0.125 -0.50439,-1.25 z M 181.07895,44.416667 c 0.048,-1.164943 0.28494,-1.4019 0.60416,-0.604167 0.28887,0.721875 0.25335,1.584375 -0.0789,1.916667 -0.3323,0.332291 -0.56864,-0.258334 -0.52522,-1.3125 z M 227.8125,30.316886 c 0.72187,-0.288871 1.58437,-0.253344 1.91667,0.07895 0.33229,0.332292 -0.25834,0.568641 -1.3125,0.52522 -1.16495,-0.04798 -1.4019,-0.284941 -0.60417,-0.604167 z m 112,0 c 0.72187,-0.288871 1.58438,-0.253344 1.91667,0.07895 0.33229,0.332292 -0.25834,0.568641 -1.3125,0.52522 -1.16495,-0.04798 -1.4019,-0.284941 -0.60417,-0.604167 z M 221.07895,23.416667 c 0.048,-1.164943 0.28494,-1.4019 0.60416,-0.604167 0.28887,0.721875 0.25335,1.584375 -0.0789,1.916667 -0.3323,0.332291 -0.56864,-0.258334 -0.52522,-1.3125 z m 126,0 c 0.048,-1.164943 0.28494,-1.4019 0.60416,-0.604167 0.28887,0.721875 0.25335,1.584375 -0.0789,1.916667 -0.33229,0.332291 -0.56864,-0.258334 -0.52522,-1.3125 z M 127.76166,22.292739 c 1.24391,-0.239193 3.04391,-0.230112 4,0.02018 0.95609,0.250292 -0.0617,0.445996 -2.26166,0.434897 -2.2,-0.0111 -2.98225,-0.215885 -1.73834,-0.455078 z m 300,0 c 1.24391,-0.239193 3.04391,-0.230112 4,0.02018 0.95609,0.250292 -0.0617,0.445996 -2.26166,0.434897 -2.2,-0.0111 -2.98225,-0.215885 -1.73834,-0.455078 z"
         id="path3" />
      <path
         style="fill:#182e65"
         d="M 262,634.42126 C 244.78172,620.74994 232.17008,612.99457 208.15201,601.30811 172.86579,584.13892 149.70511,570.07918 133,555.68691 118.92433,543.56004 106.85576,526.43936 101.43462,510.90772 L 98.5,502.5 98.213793,440.71148 97.927586,378.92296 94.213793,379.71148 C 92.171207,380.14517 85.775,380.46445 80,380.421 67.607814,380.32776 60.202362,377.94732 48.872495,370.41523 29.993917,357.86478 21.036978,335.41084 21.008205,300.56291 L 21,290.62582 l -2.905629,2.78377 c -1.624115,1.556 -3.388296,4.70061 -4,7.12991 -1.269131,5.04018 -1.363566,15.12043 -0.198042,21.13969 1.772243,9.15262 -1.448389,7.27539 -7.1727922,-4.18085 C -0.13340824,303.77554 -1.6827277,293.30347 1.9575851,285.28459 3.0100987,282.96611 7.559428,277.15365 12.067206,272.36802 21.663437,262.18027 24.185219,257.26033 26.863897,243.5 32.598118,214.04338 46.117063,195.86055 71.5,183.46495 c 11.421937,-5.57784 21.787172,-8.67868 36.42846,-10.89784 6.00829,-0.91067 7.97346,-1.5259 6.57154,-2.05732 C 101.26448,165.49261 93.358434,158.6333 87.575542,147.15001 79.981957,132.07116 79.07378,117.00648 84.763239,100.5 c 9.162333,-26.582116 8.14946,-49.418341 -2.74209,-61.823132 -4.330031,-4.931633 -3.310396,-6.047929 4.737052,-5.18612 9.375569,1.004038 15.036009,2.930322 22.180949,7.548317 8.20931,5.305938 15.56992,13.123687 21.1025,22.413113 2.45209,4.117156 4.89371,7.354585 5.42583,7.194288 0.53211,-0.160298 2.02273,-2.916503 3.3125,-6.124901 C 143.8819,51.830091 141.05235,40.068421 130.4952,30.083904 127.47284,27.225482 125,24.413064 125,23.834086 c 0,-0.676091 2.59366,-0.912725 7.25,-0.661456 8.18311,0.441583 16.08806,3.551256 21.81928,8.583336 3.227,2.833344 3.69283,2.96155 6.45437,1.776385 5.7119,-2.451364 9.49813,-8.45324 10.97063,-17.390472 0.63811,-3.872917 0.88497,-4.191205 2.2173,-2.85887 2.03863,2.038632 6.06062,17.944572 7.39199,29.233435 2.36668,20.067432 -2.77914,32.689613 -15.49253,38.001607 l -3.78131,1.579931 4.62694,4.072796 c 7.40976,6.522332 8.9687,10.456942 9.00909,22.738162 0.0393,11.93394 -1.07434,13.59681 -4.444,6.636 -2.65015,-5.47446 -7.81969,-9.94735 -13.88534,-12.01412 -2.46157,-0.83875 -4.64984,-1.35073 -4.86282,-1.13775 -0.21298,0.21298 1.02086,2.38492 2.74186,4.82652 1.721,2.44161 3.37401,6.26527 3.67335,8.49701 0.48016,3.5798 0.16389,4.4538 -2.68522,7.42056 -3.10844,3.2368 -3.20804,3.59582 -2.65732,9.57903 0.31469,3.4189 0.18153,6.45761 -0.2959,6.75268 C 151.25022,140.58142 143,128.32423 143,124.53724 c 0,-0.84835 -1.80092,-3.16947 -4.00204,-5.15805 -2.20112,-1.98858 -4.33862,-4.9111 -4.75,-6.4945 L 133.5,110.00578 130,111.75289 c -4.36322,2.17801 -6.32151,7.39369 -5.77483,15.38064 1.39972,20.44967 28.48135,43.31941 43.08906,36.3876 4.34657,-2.06258 7.06677,-7.22521 8.70502,-16.52113 1.4571,-8.268 5.42821,-15.60597 10.12905,-18.71684 2.04861,-1.3557 6.59185,-2.93195 10.26367,-3.5609 4.18386,-0.71667 6.58803,-1.60575 6.58803,-2.43631 0,-1.88746 9.16425,-16.291 17.14359,-26.944744 C 230.75787,81.169374 240.88291,73 247.83304,73 c 1.602,0 5.10743,-1.011504 7.78984,-2.247786 4.48305,-2.066165 6.33152,-2.247965 22.87712,-2.25 10.0575,-0.0012 22.37434,0.615681 27.91352,1.398115 9.02934,1.275436 10.26323,1.716275 13.83461,4.942804 2.1566,1.948362 5.21304,5.420253 6.79208,7.715315 2.86466,4.16364 2.88745,4.173895 10.33814,4.652052 22.14688,1.4213 37.03709,20.23772 45.19217,57.10833 2.7782,12.56076 4.99213,16.77122 10.09077,19.19069 7.43977,3.53039 17.82297,-0.22832 28.52837,-10.32725 8.64279,-8.15316 12.86599,-16.22782 13.55991,-25.92619 0.62013,-8.66727 -1.29655,-13.74168 -5.92563,-15.68806 -3.24062,-1.36258 -3.25476,-1.35574 -4.46309,2.15907 -0.6667,1.93928 -2.82063,4.8518 -4.78651,6.47225 -1.96589,1.62045 -3.57434,3.60643 -3.57434,4.4133 0,3.84216 -8.208,15.99487 -10.0388,14.86338 -0.40301,-0.24908 -0.50962,-3.27058 -0.23691,-6.71444 0.47112,-5.94945 0.34081,-6.42313 -2.61423,-9.50248 -1.71053,-1.78249 -3.10018,-4.25749 -3.0881,-5.5 0.0291,-2.9952 3.56977,-10.69197 6.21442,-13.5091 2.94466,-3.13669 0.70475,-2.9302 -6.81762,0.62851 -6.29435,2.97776 -9.62278,6.28195 -11.95857,11.87149 -2.68446,6.42387 -4.46019,3.57579 -4.46019,-7.15365 0,-10.19516 2.21797,-15.94475 8.62083,-22.347614 l 5.26824,-5.268244 -3.50254,-1.463456 C 380.93821,75.315795 375.7946,62.532899 378.05362,42.41172 c 1.08922,-9.701658 5.30793,-26.937511 7.13099,-29.134167 1.48555,-1.789967 2.77836,0.05897 2.80008,4.004566 0.0344,6.246666 4.93637,13.865696 10.44168,16.229217 2.73395,1.17373 3.24342,1.005734 7.74792,-2.554868 C 412.55729,25.910995 420.55628,23 428.03751,23 431.31688,23 434,23.354539 434,23.787864 c 0,0.433325 -2.85876,3.71778 -6.3528,7.298788 -4.6673,4.78347 -6.8192,7.915106 -8.11068,11.803412 -2.41086,7.258414 -1.74908,15.865724 1.81471,23.602658 l 2.76037,5.992722 3.36078,-6.290168 c 9.74869,-18.246017 25.05025,-29.903878 42.48702,-32.369758 10.43589,-1.475827 11.42734,-0.65955 6.70815,5.522928 -4.95128,6.486526 -7.78122,14.690136 -8.41182,24.384753 -0.68473,10.526591 0.94808,20.595454 5.84847,36.0652 C 477.32196,109.95634 478,113.53118 478,120.3383 c 0,19.99375 -10.37712,39.1967 -25.17851,46.59304 -3.37752,1.68776 -6.74406,3.06866 -7.48121,3.06866 -0.73716,0 -1.33974,0.3375 -1.33907,0.75 6.6e-4,0.4125 4.92999,1.5495 10.95406,2.52667 32.4621,5.26571 56.26002,20.43383 68.39912,43.59567 4.26334,8.13461 7.01515,16.59539 9.57646,29.44398 2.3555,11.81616 4.67446,16.0386 14.69031,26.74857 4.14033,4.42726 8.38445,9.93632 9.43139,12.24234 2.34306,5.16089 2.46873,12.57444 0.33496,19.75961 -1.79382,6.04045 -7.75497,18.46479 -10.17493,21.20679 -2.16483,2.45292 -3.17682,0.47274 -2.10822,-4.12519 1.22529,-5.27216 1.08468,-18.28436 -0.24042,-22.24922 -1.04138,-3.1159 -5.46523,-8.90284 -6.80103,-8.89658 -0.3096,0.001 -0.58492,6.41395 -0.61183,14.25 -0.096,27.96775 -6.15102,46.61793 -19.39899,59.75152 -16.16499,16.02542 -39.12725,18.42067 -62.45921,6.51526 l -8.51474,-4.34474 -0.28907,68.16266 L 446.5,503.5 l -3.1549,8.81973 c -5.14383,14.37988 -11.29173,23.59125 -24.8451,37.22528 -16.79133,16.89127 -39.49201,31.95253 -70.31962,46.6551 -8.07421,3.85082 -19.18038,9.16168 -24.68038,11.80193 -12.05546,5.78715 -25.30834,14.34464 -39.67696,25.61972 -5.87234,4.60803 -11.04734,8.3702 -11.5,8.36037 -0.45267,-0.01 -5.09804,-3.41222 -10.32304,-7.56087 z m 10.27605,-27.4354 c 0.72855,-0.008 8.094,-21.07677 18.1975,-52.0527 9.33546,-28.62121 17.21046,-52.40313 17.5,-52.84872 0.28955,-0.44558 18.52645,6.27342 40.52645,14.93113 22,8.65771 40.34248,15.43102 40.76106,15.05181 0.41858,-0.37922 -8.31499,-20.12845 -19.40793,-43.88718 -11.09294,-23.75872 -19.98542,-43.36011 -19.76106,-43.55865 0.22436,-0.19853 19.95117,-6.84931 43.83735,-14.77951 23.88618,-7.9302 43.5905,-14.90181 43.78739,-15.49246 0.20247,-0.60741 -18.44549,-8.11687 -42.92942,-17.2875 -23.80807,-8.91748 -43.6584,-16.57302 -44.11186,-17.01231 -0.72456,-0.70192 35.96193,-77.51507 38.61078,-80.84215 0.66881,-0.84006 0.68747,-1.63384 0.0533,-2.268 -0.63416,-0.63416 -15.0772,5.70075 -41.26658,18.10009 -22.16002,10.49164 -40.44748,18.91918 -40.6388,18.72787 -0.19131,-0.19131 -7.81731,-21.44364 -16.94667,-47.2274 -9.12935,-25.78375 -17.04637,-47.71579 -17.59337,-48.73787 -0.547,-1.02208 -1.42197,-1.59417 -1.94437,-1.2713 -0.56029,0.34628 -0.94983,-1.9255 -0.94983,-5.53938 0,-7.24385 2.11505,-7.42212 -19.05486,1.60604 -20.69332,8.82492 -19.50679,8.67354 -20.79785,2.65349 -0.58298,-2.7183 -1.36675,-7.93685 -1.74172,-11.59676 L 227.72381,217 l -25.66097,0 -25.66096,0 -27.78253,20.18305 c -23.62999,17.16638 -27.70169,20.492 -27.24172,22.25 0.29744,1.13682 2.10314,6.56695 4.01265,12.06695 14.26209,41.07923 8.29655,76.03571 -16.94524,99.29445 L 101,377.65459 l 0,59.94281 c 0,57.46255 0.0853,60.25229 2.06238,67.4227 7.73031,28.03659 29.18517,50.7845 70.9916,75.27016 5.25469,3.07763 20.55469,10.98039 34,17.56171 24.98443,12.22956 38.89294,20.62226 53.94602,32.55223 l 8.5,6.73647 0.27605,-15.07034 c 0.20256,-11.05858 0.60186,-15.07409 1.5,-15.08447 z m -2.02919,-11.60487 C 269.75447,583.17609 265.35447,564 263.04641,564 c -0.40504,0 -1.59368,0.96211 -2.64142,2.13802 -1.88293,2.11325 -7.25389,4.86198 -9.50023,4.86198 -0.63771,0 0.6791,-1.99463 2.92626,-4.4325 2.24715,-2.43788 4.82994,-6.15038 5.73953,-8.25 1.65855,-3.8285 2.49684,-14.58344 1.23505,-15.84523 -0.37017,-0.37018 -2.39037,0.66651 -4.48932,2.30374 -4.72126,3.68269 -9.23708,5.22858 -15.2155,5.20868 -7.12754,-0.0237 -7.69915,-1.06099 -2.82837,-5.13245 8.73382,-7.30058 12.41022,-19.50232 8.08315,-26.82748 -1.77907,-3.01171 -5.2795,-4.74839 -8.35556,-4.14547 -2.64698,0.51883 -6.19961,4.48271 -8.62258,9.62071 -2.30455,4.8869 -2.3581,4.92648 -2.36765,1.75 -0.006,-1.96739 -0.51448,-3.25 -1.28866,-3.25 -0.70339,0 -4.08314,2.8294 -7.51056,6.28756 l -6.23168,6.28757 2.88515,4.46243 c 1.58684,2.45434 3.84159,5.24554 5.01057,6.20265 2.50574,2.05162 2.65652,3.83205 0.65269,7.70704 C 218.05876,557.72083 206,562.33004 206,558.5 c 0,-0.825 0.86547,-1.5 1.92327,-1.5 2.61082,0 8.07673,-4.74466 8.07673,-7.01097 0,-2.49386 -7.59636,-8.82268 -11.45959,-9.54743 -1.90323,-0.35704 -4.7842,0.0723 -7.33553,1.0931 -4.92799,1.97179 -13.25579,10.6421 -15.83358,16.48478 -1.97369,4.47347 -3.70605,4.72619 -4.19177,0.6115 -0.42866,-3.63139 3.28853,-9.65187 10.83558,-17.54961 7.61748,-7.97145 6.76786,-9.12282 -4.82992,-6.54536 -6.64426,1.4766 -8.22697,2.26758 -11.68519,5.83986 -2.2,2.27256 -4.50972,5.03018 -5.13272,6.12803 -1.66165,2.9282 -2.7144,1.15995 -1.89855,-3.18889 0.48929,-2.60816 2.1554,-5.22486 5.37989,-8.44935 3.9188,-3.9188 5.47478,-4.77765 9.66124,-5.33271 C 187.62422,528.4571 190,527.88891 190,527.02414 c 0,-0.44933 -1.59066,-2.21357 -3.5348,-3.92055 -6.21039,-5.45279 -13.05925,-4.08851 -19.33557,3.85163 -3.60966,4.56656 -4.05706,4.84879 -4.66252,2.94116 -0.47202,-1.48721 0.21567,-3.33313 2.32964,-6.25324 4.44573,-6.14107 7.11998,-7.73457 14.03219,-8.36135 6.1092,-0.55396 6.15838,-0.53719 11.62681,3.96473 3.20804,2.64103 7.0139,4.80661 9.15236,5.20778 3.26753,0.613 4.3981,0.17833 10.5263,-4.04697 3.77607,-2.60355 6.86559,-5.10172 6.86559,-5.55148 0,-0.44976 -1.18507,-1.11518 -2.63349,-1.47871 -2.38924,-0.59966 -1.90233,-1.01134 5.25,-4.43884 4.33592,-2.07783 9.09908,-5.05147 10.58481,-6.60809 l 2.70131,-2.83021 -5.85972,0.3342 c -3.3752,0.1925 -6.83306,-0.18671 -8.15533,-0.89436 -2.20244,-1.17871 -2.098,-1.29164 2.57341,-2.78255 C 227.07501,494.36555 233,488.97432 233,485.6578 c 0,-1.25155 -0.59747,-3.09262 -1.3277,-4.09128 -1.23463,-1.68846 -1.4737,-1.5683 -3.41044,1.71423 -2.96151,5.01939 -16.18054,12.164 -26.26186,14.19398 l -3.5,0.70476 3.6196,-3.05506 c 4.20269,-3.54721 6.8804,-8.6165 6.8804,-13.02556 0,-3.7572 -0.3723,-3.80483 -4.2482,-0.54348 C 198.70303,486.6451 185.06564,492 178.1524,492 c -2.28266,0 -2.2073,-0.17492 1.26378,-2.93338 4.67702,-3.71683 7.28492,-7.02752 8.10286,-10.28645 0.98015,-3.90524 -0.55686,-3.94885 -6.52608,-0.18515 -11.91644,7.51353 -22.54672,7.18629 -33.31294,-1.02551 C 144.5203,475.15948 137.2288,466 138.46998,466 c 0.32684,0 2.18097,0.66297 4.12029,1.47327 6.11497,2.555 12.48304,2.89023 19.18442,1.00991 7.36409,-2.06626 14.49539,-7.58517 14.02866,-10.85677 C 175.5243,455.67035 174.69889,455.44893 165.5,454.86245 137.06236,453.04941 119.74156,435.09856 116.42272,404 l -0.69367,-6.5 4.68366,6 c 9.30633,11.92184 19.50925,17.63586 31.65346,17.72711 3.61139,0.0271 8.27234,-0.51375 10.35767,-1.20197 l 3.7915,-1.25131 -8.85767,-4.2295 c -11.83459,-5.65095 -18.29441,-11.61469 -23.09179,-21.31844 -3.75003,-7.58527 -3.76588,-7.67018 -3.76588,-20.17161 0,-9.15717 0.50359,-14.38079 1.86105,-19.30428 1.02357,-3.7125 2.176,-6.75 2.56095,-6.75 0.38494,0 1.28847,2.29647 2.00783,5.10327 4.4548,17.38172 18.49358,32.51411 32.84845,35.40733 l 3.27828,0.66073 -7.35845,-11.33566 C 148.64883,350.57129 145,341.53027 145,325.55014 c 0,-13.34725 3.02523,-21.88265 14.33697,-40.45043 3.78105,-6.20643 5.11758,-9.39098 5.11758,-12.19363 0,-4.7276 -3.24906,-8.46462 -8.80717,-10.12987 l -3.97239,-1.19016 4.91251,-1.27374 c 10.42043,-2.70185 20.66485,-1.17799 24.75446,3.68224 4.06851,4.83515 4.27763,9.62492 0.79947,18.31121 -1.65111,4.12345 -3.54026,10.23303 -4.19812,13.57684 -1.64598,8.36639 -0.74195,21.26659 1.98773,28.36406 3.01555,7.84077 10.54364,15.89414 18.39726,19.68094 9.66229,4.65888 9.87744,4.60795 11.48366,-2.7188 l 1.37919,-6.29121 13.71464,-6.87039 13.71463,-6.8704 -1.26231,-14.2424 c -0.69428,-7.83332 -1.47847,-14.80566 -1.74265,-15.4941 -0.26417,-0.68844 -1.86504,-1.55584 -3.55748,-1.92757 -2.08092,-0.45704 -5.09753,-2.92937 -9.31757,-7.6364 -3.43223,-3.8283 -6.36769,-7.32343 -6.52325,-7.76696 -0.15556,-0.44353 0.16946,-1.99607 0.72228,-3.45009 0.77131,-2.02869 3.39595,-3.79089 11.28284,-7.57535 5.65275,-2.71242 12.30272,-5.46052 14.77772,-6.10688 3.19399,-0.83412 5.86203,-2.57945 9.19304,-6.01371 l 4.69305,-4.83852 1.17299,3.55418 c 0.64514,1.9548 0.93859,5.30172 0.65211,7.43759 -0.46871,3.4945 -0.30007,3.88341 1.68397,3.88341 1.21266,0 2.79942,-0.5625 3.52613,-1.25 1.87784,-1.77652 0.52069,5.46332 -1.9215,10.2504 l -1.83323,3.59343 5.41984,7.16318 5.41983,7.16318 -0.25625,156.7899 c -0.14094,86.23445 -0.36734,154.03636 -0.50312,150.6709 z M 235.54307,272.41254 c 3.35931,-1.5941 5.15146,-4.47975 3.96971,-6.39186 C 238.9691,265.14099 227,270.31777 227,271.43261 c 0,0.2221 -0.30053,1.18697 -0.66784,2.14417 -0.57727,1.50434 -0.22741,1.65227 2.57984,1.09082 1.78622,-0.35724 4.7702,-1.37202 6.63107,-2.25506 z m -32.15172,25.16493 c -0.35381,-0.92203 0.84322,-3.20186 3.01066,-5.73402 3.34089,-3.90309 4.35857,-5.84345 3.06475,-5.84345 -1.78743,0 -10.59264,5.33951 -11.92534,7.23157 -1.35532,1.92417 -1.74296,2.04079 -2.5543,0.76843 -2.52597,-3.96129 -1.44906,-5.41264 8.9311,-12.0365 l 8.41822,-5.3719 4.87596,5.44397 4.87595,5.44396 -2.79418,0.73365 c -1.53679,0.4035 -5.61146,3.01991 -9.05482,5.81425 -4.89398,3.97153 -6.38887,4.74649 -6.848,3.55004 z M 97.278483,375.20101 c 7.847337,-3.47125 18.743897,-15.38804 24.165627,-26.42822 6.57916,-13.39706 7.98847,-19.70011 7.99848,-35.77279 0.01,-15.8069 -1.64975,-25.04337 -7.5465,-42 -2.19954,-6.325 -4.23679,-12.22374 -4.52721,-13.1083 -0.37998,-1.15735 2.15799,-3.53078 9.05154,-8.46472 5.26877,-3.77103 9.57958,-7.17533 9.57958,-7.5651 0,-1.34055 -7.23813,-10.37173 -13.36428,-16.67492 -9.91968,-10.20635 -22.22863,-19.64665 -38.116926,-29.23361 l -3.981207,-2.40226 2.09328,3.54785 c 3.465376,5.87337 6.263816,14.41677 6.965419,21.26481 0.75613,7.38026 -1.044928,18.93377 -3.23488,20.75127 -3.925097,3.25754 -14.554922,-4.56576 -19.85799,-14.61502 l -2.638538,-5 0.511214,5.17205 c 0.947688,9.58794 7.567487,20.06899 17.123908,27.11206 3.3,2.4321 6,4.93813 6,5.56895 0,2.38124 -9.077753,1.86847 -15.866334,-0.89624 -1.596564,-0.65021 -1.719032,-0.48521 -0.847261,1.14155 1.615353,3.01431 9.058033,10.00291 12.797575,12.01679 5.243476,2.8238 4.075554,5.38484 -2.455669,5.38484 -2.619987,0 -11.642566,-2.08797 -15.530802,-3.59408 -1.653985,-0.64067 -1.526745,-0.0466 0.97411,4.54833 3.861516,7.09488 11.942376,14.07429 21.90704,18.92103 10.189521,4.95611 13.818511,7.96983 18.709861,15.5377 7.611,11.7757 10.15938,27.27194 6.34406,38.57714 -2.53842,7.5216 -10.87587,15.87218 -18.811773,18.84138 C 64.198342,379.25142 39.261919,364.68545 30.363258,330.2387 28.476036,322.93325 27.822411,317.75161 27.747228,309.5 27.587442,291.96291 30.926716,285 39.496935,285 c 8.958504,0 17.219206,7.78106 20.611821,19.41504 1.136335,3.89673 2.216203,7.53496 2.399706,8.08496 0.183504,0.55 0.36917,-2.02062 0.412591,-5.71249 C 63.032682,297.29626 60.439826,291.20249 51.94866,281 34.712791,260.29039 31.511111,238.82102 42.426303,217.14634 55.405344,191.37341 87.778704,176 129.07236,176 136.61396,176 141,176.37998 141,177.03333 c 0,0.56834 -1.57504,2.60838 -3.50009,4.53343 -7.06306,7.06306 -11.29519,20.35187 -9.84683,30.91884 l 0.65021,4.74381 1.81106,-4.77106 c 3.14222,-8.27786 9.0577,-12.69102 20.68584,-15.43238 6.39367,-1.50732 7.83892,-3.38712 9.49252,-12.34666 0.66401,-3.59777 1.65729,-6.64423 2.20729,-6.76992 2.41306,-0.55144 9.13626,19.69316 10.17724,30.64528 l 0.57549,6.05467 6.12363,-0.42457 c 3.368,-0.23351 6.30125,-0.58572 6.51832,-0.78268 0.21707,-0.19696 0.61315,-2.63175 0.88016,-5.41064 0.62253,-6.47874 -1.23488,-15.16717 -4.83466,-22.61518 -2.95583,-6.11567 -2.51679,-9.34607 0.72284,-5.31858 5.24191,6.5167 7.16419,7.39767 20.67675,9.47603 2.57934,0.39672 5.28746,1.92502 8.25,4.65579 4.23479,3.90349 4.41023,3.968 4.41023,1.62151 0,-4.56496 -2.17502,-14.23389 -3.99945,-17.7793 -2.22089,-4.31585 -5.78169,-7.67485 -13.00055,-12.26378 -7.03443,-4.47169 -9.54333,-7.29583 -10.89857,-12.26794 -1.64089,-6.02011 -1.34005,-9.7342 1.17349,-14.48738 C 191.75044,134.33135 196.72274,131 201.2344,131 c 2.99273,0 3.86404,-2.36451 1.24207,-3.37066 -2.64161,-1.01367 -10.48405,0.57508 -13.77023,2.78964 -5.83274,3.93069 -8.01754,8.38074 -10.68789,21.76934 -2.24847,11.27335 -8.19223,16.28917 -18.32486,15.46397 -17.5417,-1.4286 -37.3633,-22.10298 -38.51377,-40.17074 -0.6656,-10.45301 2.63726,-17.27595 9.45163,-19.5249 4.82825,-1.59347 7.70815,-0.44547 6.90547,2.75267 -0.52627,2.09681 0.13221,3.22299 3.91526,6.6962 2.50135,2.2965 4.56678,5.05723 4.58984,6.13497 0.023,1.07773 0.90419,3.53451 1.95808,5.45951 l 1.91617,3.5 0.0419,-3.7591 c 0.031,-2.77712 0.82561,-4.57915 3.04192,-6.89832 1.65,-1.72656 3,-3.76192 3,-4.52301 0,-2.93743 -3.02559,-8.39202 -7.11703,-12.83071 -5.04628,-5.474561 -4.28774,-6.652912 3.38494,-5.258357 6.60538,1.200567 12.27728,4.065717 16.98209,8.578467 l 3.75,3.59693 -0.01,-4.95295 c -0.0195,-9.885065 -6.87202,-19.332874 -16.76156,-23.109722 -2.36289,-0.902398 -4.13214,-2.136287 -3.93165,-2.741975 0.20049,-0.605689 2.80318,-1.368171 5.78375,-1.694404 9.2795,-1.01567 14.14078,-4.632122 18.02256,-13.407534 3.47694,-7.860195 2.98896,-23.372353 -1.25467,-39.884341 l -0.99847,-3.885027 -2.30936,4.984522 c -2.42354,5.23096 -6.47964,8.834002 -11.59703,10.301648 -2.67731,0.767845 -3.68051,0.393273 -8.24597,-3.078882 C 146.46691,29.958988 137.61502,26 133.95098,26 c -1.66606,0 -1.28799,0.84223 2.42363,5.399099 9.7759,12.002163 10.44039,27.467277 1.77666,41.348962 -1.4582,2.336434 -3.06628,4.110597 -3.57352,3.942584 -0.50723,-0.168012 -2.44676,-3.181168 -4.31006,-6.695902 C 120.48067,51.533496 105.9676,39.479934 90.75,37.174055 87.5875,36.694851 85,36.502684 85,36.747017 c 0,0.244333 0.937389,1.760683 2.083086,3.369667 4.076569,5.725013 6.241805,13.821775 6.698507,25.048645 0.50126,12.322218 -1.107552,21.917864 -6.064385,36.170591 -2.791628,8.02696 -3.188965,10.46697 -3.202152,19.66408 -0.01293,9.01991 0.375021,11.55721 2.752216,18 4.964414,13.45481 14.759158,23.85517 25.974218,27.58021 2.75279,0.91433 9.3371,1.94533 14.63179,2.2911 7.611,0.49705 9.62672,0.94277 9.62672,2.12869 0,1.19056 -2.57865,1.7428 -12.5,2.67697 -23.68062,2.2297 -39.336773,5.95511 -52.274161,12.43874 -23.951528,12.00341 -38.322847,31.77512 -43.134901,59.34395 -2.146198,12.29582 -5.055497,17.89932 -14.631367,28.18098 -9.0679262,9.73627 -11.9043474,14.72691 -11.937609,21.00402 -0.022571,4.25958 2.9655051,14.99136 5.3619081,19.25749 1.2334661,2.19584 1.3874147,1.67702 1.7925049,-6.04096 0.523257,-9.96935 3.334692,-16.10703 8.676147,-18.94101 5.292128,-2.80781 5.815666,-2.01275 5.332276,8.09778 -0.487198,10.19018 1.128954,27.85835 3.346449,36.58419 5.304692,20.87396 21.887014,37.98036 41.696015,43.01379 7.692614,1.95468 22.073521,1.22929 28.051221,-1.41493 z m 398.186557,-0.73392 c 8.66754,-2.25761 14.95033,-6.08726 21.53561,-13.12694 12.31796,-13.16794 18.66615,-35.53598 17.83443,-62.84015 l -0.33508,-11 2.5,0.26613 c 6.9172,0.73635 11.2428,8.03997 11.98361,20.23387 l 0.51639,8.5 2.15124,-5 c 4.7667,-11.079 5.49128,-18.38828 2.47996,-25.0171 -1.00368,-2.2094 -5.50797,-7.99261 -10.00953,-12.85157 -4.50156,-4.85896 -9.10161,-10.63185 -10.22234,-12.82865 -1.12072,-2.1968 -3.15846,-9.41358 -4.5283,-16.03729 -2.99542,-14.48393 -6.10063,-22.56565 -12.33554,-32.10483 C 509.759,201.5278 499.63357,192.82397 486.52436,186.43315 470.88576,178.80924 457.785,175.77408 429.5,173.22186 c -6.12362,-0.55255 -8,-1.07368 -8,-2.22186 0,-1.18885 2.07433,-1.63841 10,-2.16723 19.55067,-1.30449 30.54759,-8.53425 38.43132,-25.26609 6.42766,-13.64158 6.74412,-25.1808 1.17288,-42.76828 -2.14268,-6.764121 -4.4541,-15.783918 -5.13648,-20.043995 -2.41533,-15.078815 0.22564,-32.599727 6.17274,-40.951666 l 2.22157,-3.11991 -5.84813,0.603581 c -14.7073,1.517927 -28.72577,13.055041 -39.34021,32.376759 -2.02053,3.678016 -4.19917,6.858607 -4.84143,7.06798 -0.64226,0.209373 -2.89226,-3.108645 -5,-7.373373 C 415.74257,62.094542 415.5,61.03076 415.5,52.551863 c 0,-10.216774 1.69835,-14.918772 8.08269,-22.377432 C 426.77885,26.440438 426.93774,26 425.08865,26 c -3.70973,0 -12.10372,3.771088 -17.55473,7.886643 -4.72314,3.566 -5.69397,3.927843 -8.4318,3.142646 -5.03798,-1.444874 -8.7708,-4.723417 -11.41161,-10.022826 l -2.48158,-4.97989 -1.85447,7.236713 C 380.69868,39.626995 380.7061,62.01169 383.36697,67 c 4.0923,7.671794 8.94686,10.964961 17.55226,11.906849 2.98057,0.326233 5.58679,1.099301 5.79159,1.717929 0.2048,0.618628 -1.55885,1.893702 -3.91923,2.833498 -10.21711,4.067995 -15.69238,11.436611 -16.5637,22.291444 l -0.53541,6.67012 3.31374,-3.77414 c 3.99157,-4.54615 10.78583,-8.1538 17.73447,-9.41676 7.18732,-1.306337 8.52706,-0.161954 4.65642,3.97744 -4.31468,4.61427 -7.14622,8.94582 -7.95536,12.16969 -0.55214,2.19989 -0.13261,3.33716 2.08486,5.65171 1.53273,1.59982 3.06747,4.5939 3.42665,6.68492 l 0.65054,3.7873 1.6981,-3.20034 c 0.93396,-1.76019 1.6981,-3.95587 1.6981,-4.87929 0,-0.92342 2.04844,-3.58655 4.55208,-5.91805 3.82919,-3.56591 4.44893,-4.6501 3.90252,-6.82719 -0.55007,-2.19164 -0.25715,-2.68658 1.91217,-3.23105 3.28771,-0.82516 9.31223,2.10968 12.0687,5.87925 1.73095,2.36714 2.06453,4.30607 2.06453,12 0,8.30658 -0.30375,9.79297 -3.20359,15.67667 -7.28408,14.77918 -23.55314,27.06506 -35.72455,26.97804 -4.28379,-0.0306 -10.8136,-3.19861 -13.41833,-6.50999 -2.23799,-2.84514 -2.90161,-4.96126 -7.44836,-23.75113 -6.87006,-28.39117 -21.46022,-45.796242 -39.78233,-47.457633 -4.93883,-0.447838 -6.0989,-0.287459 -5.73862,0.793365 0.25833,0.774994 3.34495,1.888684 7.21325,2.602624 11.50595,2.123565 18.97711,8.084404 24.87286,19.844724 5.30798,10.58791 8.33821,27.25852 6.86619,37.77397 -0.94649,6.76138 -3.5376,9.98855 -12.30076,15.32033 -10.20179,6.2071 -13.9134,12.51754 -15.36179,26.11792 l -0.66157,6.21223 4.37606,-4.37607 c 3.18361,-3.18361 5.45725,-4.54353 8.3438,-4.99066 13.76988,-2.13294 15.76073,-3.06786 21.33472,-10.01904 0.87479,-1.09093 1.71316,-1.35854 2.32844,-0.74326 0.61529,0.61529 0.0301,2.79945 -1.62531,6.06622 C 374.50817,190.9041 372,199.98508 372,205.0286 c 0,7.89116 2.81897,13.97556 9.63125,20.78784 3.54356,3.54355 6.63466,6.25099 6.86912,6.01653 0.23446,-0.23446 -0.26898,-2.6553 -1.11874,-5.37963 -2.18406,-7.00206 -1.28515,-21.39163 2.04416,-32.72262 2.94576,-10.02557 5.62221,-16.04837 7.07421,-15.91899 0.55,0.049 1.5578,3.10822 2.23955,6.79826 1.75039,9.47416 2.8823,10.80076 10.94269,12.82494 10.95932,2.75218 16.07007,6.76894 19.24095,15.12232 l 1.83522,4.83472 0.69314,-5.0397 c 1.421,-10.33193 -2.72928,-23.26311 -9.90998,-30.87687 C 419.59371,179.41006 418,177.27096 418,176.72184 c 0,-1.74608 32.3402,-0.10529 42,2.13087 33.96433,7.86246 55.50645,25.95327 61.57736,51.7119 4.1104,17.4403 -1.25602,35.44319 -15.43648,51.78516 -6.70785,7.73032 -9.3955,13.93612 -9.8095,22.65023 -0.38397,8.08178 0.23268,7.65468 3.06244,-2.1211 1.88385,-6.50803 8.2363,-14.40858 13.27953,-16.51578 1.79433,-0.74972 5.09732,-1.36312 7.33999,-1.36312 8.23258,0 11.41382,6.88359 11.32264,24.5 -0.2082,40.22523 -23.95383,67.65458 -54.23888,62.65311 -14.98989,-2.47553 -24.66753,-8.48877 -29.82159,-18.52976 -3.49932,-6.81727 -4.311,-19.5302 -1.80187,-28.22163 4.25194,-14.72837 11.96608,-24.07835 25.19996,-30.54378 10.02983,-4.90009 17.82088,-11.67581 21.77133,-18.93409 2.48031,-4.55714 2.60745,-5.15161 0.95756,-4.47724 -7.81174,3.19295 -17.59315,4.40003 -20.40249,2.51776 -1.63913,-1.09822 -1.10857,-1.66917 6.47163,-6.96437 3.22887,-2.25555 9.90763,-9.95407 9.22647,-10.63524 -0.15191,-0.1519 -2.24252,0.40127 -4.64582,1.22927 -4.87067,1.67809 -12.55228,1.53062 -12.55228,-0.24097 0,-0.63082 2.7,-3.13685 6,-5.56895 3.3,-2.43209 7.26539,-6.08501 8.81198,-8.11759 4.10312,-5.39245 7.90637,-14.27754 8.37267,-19.56004 l 0.40662,-4.60648 -1.51694,3.29657 c -2.78871,6.06033 -8.01341,12.37644 -12.33076,14.90658 -7.80265,4.57265 -10.64754,1.78157 -11.8535,-11.62931 -0.72354,-8.04622 1.32715,-17.5897 5.59739,-26.049 l 3.01623,-5.97512 -5.25184,3.09413 c -18.3925,10.83595 -36.13192,25.87772 -45.62435,38.68619 -18.37502,24.79408 -23.67669,53.56853 -14.72055,79.8949 13.43389,39.48864 52.06981,66.81357 83.05809,58.74215 z m 3.08246,-7.57075 c 10.88545,-4.07277 21.02615,-16.57166 25.8784,-31.89634 5.14915,-16.26242 5.51402,-37.62841 0.75029,-43.93634 -1.59269,-2.10896 -2.73815,-2.5536 -6.45833,-2.50695 -9.81463,0.12309 -17.49364,11.30184 -18.46562,26.88138 -0.62249,9.97775 -2.09909,11.12191 -4.91953,3.81191 -1.29556,-3.35783 -1.8282,-7.38781 -1.81733,-13.75 0.0134,-7.86143 0.37139,-9.70604 2.82952,-14.58102 1.54778,-3.06956 5.50445,-8.69233 8.7926,-12.49506 10.57184,-12.22624 15.57896,-25.85257 14.52959,-39.54062 -1.02846,-13.41512 -7.53367,-26.8079 -17.59047,-36.21487 C 497.26604,198.16871 486.91977,191 485.2361,191 c -1.35221,0 -5.10008,5.53281 -8.2277,12.14616 -4.06631,8.5982 -5.56352,17.91556 -4.1596,25.88574 1.36522,7.75047 2.08395,8.57555 5.7863,6.64247 5.79613,-3.02627 11.61049,-11.43502 14.84941,-21.47528 2.60869,-8.08661 4.01549,-6.17871 4.01549,5.44583 0,9.49706 -0.17499,10.31561 -3.75256,17.553 -2.70398,5.47011 -5.45819,9.17051 -9.85644,13.2425 -5.34292,4.94661 -5.74777,5.56558 -3.24743,4.965 4.07596,-0.97903 7.56612,-2.87465 9.76378,-5.30304 C 492.66738,247.60507 495,247.355 495,249.61002 c 0,3.11331 -6.32919,13.4387 -10.71645,17.48273 -2.43956,2.24871 -4.27666,4.24747 -4.08244,4.44169 0.69398,0.69398 9.04617,-1.61995 12.84789,-3.55944 4.7639,-2.43036 5.95379,-2.47542 5.94123,-0.225 -0.0139,2.48488 -4.42027,11.63619 -7.62766,15.8413 -3.4167,4.47952 -12.87819,11.20317 -21.46924,15.25677 -14.4742,6.82949 -23.72623,23.50746 -22.68774,40.89756 0.53213,8.91081 2.80418,14.22521 8.40873,19.66828 9.88611,9.60126 28.56796,12.85715 42.93318,7.48243 z m -414.064945,0.58987 c 14.108634,-2.98853 22.708035,-9.52251 26.142865,-19.8638 2.99893,-9.02894 1.49871,-21.57828 -3.82771,-32.01894 -3.19963,-6.27178 -11.282139,-14.13572 -17.095915,-16.6336 -15.16082,-6.51382 -26.304993,-17.69487 -29.062408,-29.15858 -0.85818,-3.56782 0.58921,-4.26174 4.581245,-2.19638 3.727279,1.92837 12.956797,4.54099 13.637418,3.86037 0.24808,-0.24808 -1.614909,-2.26959 -4.139976,-4.49224 C 70.464879,263.23923 64,252.59755 64,249.34028 c 0,-2.017 2.444737,-1.61132 4.592652,0.7621 2.197662,2.42839 5.687822,4.32401 9.763779,5.30304 2.500334,0.60058 2.095493,-0.0184 -3.247436,-4.965 -4.398245,-4.07199 -7.152457,-7.77239 -9.856431,-13.2425 C 61.66807,229.94652 61.5,229.15625 61.5,219.55326 c 0,-12.02418 1.580034,-13.39973 4.655779,-4.05326 3.38725,10.29306 13.327337,22.48854 17.275899,21.19578 1.926669,-0.6308 3.699719,-9.93692 3.180964,-16.69578 -0.274388,-3.575 -1.388131,-9.05229 -2.474983,-12.17175 C 81.92407,201.47484 75.591655,191 73.964385,191 c -2.322088,0 -12.807321,7.63349 -18.624981,13.55941 -8.206413,8.35913 -13.925628,19.8025 -15.550349,31.11413 -2.144082,14.92751 2.729216,29.60168 14.210755,42.79053 3.334411,3.83025 7.286031,9.45525 8.781378,12.5 C 65.128142,295.74284 65.5,297.73095 65.5,305.5 65.5,315.17391 63.075113,324 60.417292,324 59.341994,324 59,322.45696 59,317.60534 c 0,-3.64157 -0.891155,-9.2799 -2.069897,-13.09622 -3.274886,-10.60284 -11.894728,-17.84054 -19.47426,-16.35168 -5.207864,1.023 -7.88647,13.0276 -6.349752,28.45745 2.75127,27.62489 16.690851,47.51958 35.939211,51.29275 6.589132,1.29163 9.705582,1.21631 17.437253,-0.42143 z m 338.406075,-131.07027 6.12289,-8.58405 -1.04296,-6.52871 C 425.95407,208.693 421.32162,203.60909 409,200.48605 c -7.76622,-1.96843 -10.6116,-4.36158 -12.3746,-10.40783 l -1.31795,-4.51993 -1.65806,4.99194 c -4.34011,13.06685 -5.95969,29.45547 -3.38465,34.24947 0.8612,1.6033 23.90063,19.20929 26.36812,20.14966 0.0731,0.0279 2.88817,-3.81218 6.25577,-8.53342 z M 155.8282,228.17513 170,217.85025 v -4.3759 c 0,-5.39498 -1.48634,-12.93784 -4.22543,-21.44312 l -2.08323,-6.46877 -1.31734,4.51785 c -1.76217,6.04338 -4.60767,8.43681 -12.374,10.40812 -12.0922,3.06934 -16.86269,8.46232 -18.91581,21.38409 l -1.01252,6.37253 4.53174,5.88934 c 3.00922,3.9107 4.95528,5.63338 5.79237,5.12748 0.69334,-0.41903 7.63793,-5.40806 15.43242,-11.08674 z M 257.5,226.57738 c 26.60271,-10.89729 40.97721,-18.08254 55.48784,-27.73621 11.30744,-7.52263 30.01812,-22.26415 30.00599,-23.64071 -0.003,-0.38525 -4.27071,-5.20046 -9.48293,-10.70046 -8.29313,-8.75101 -9.61041,-9.78071 -10.54673,-8.24426 -2.96494,4.86523 -7.14665,7.34394 -28.96417,17.16848 -12.925,5.8202 -28.89054,13.50574 -35.47898,17.07898 C 251.93259,194.07644 246.19509,197 245.77102,197 245.34696,197 245,195.425 245,193.5 c 0,-4.27764 -0.9427,-4.36722 -5.33893,-0.50728 -7.22612,6.34462 -10.26483,20.57041 -7.67444,35.92804 1.006,5.96424 1.51717,7.16843 2.86875,6.75813 0.90454,-0.27459 11.09462,-4.37027 22.64462,-9.10151 z M 125.02138,215.15074 c -1.73068,-12.2029 1.10105,-24.3782 7.67424,-32.9961 l 2.63562,-3.45547 -12.91562,0.56679 c -7.10359,0.31174 -16.29062,1.28868 -20.41562,2.17099 -8.872752,1.89781 -23.006091,6.44494 -22.985592,7.39517 0.0079,0.36733 2.370424,1.95057 5.25,3.5183 9.399911,5.1176 24.061602,15.42678 32.735592,23.01761 4.675,4.09122 8.62039,7.32419 8.76754,7.1844 0.14715,-0.1398 -0.18863,-3.47056 -0.74616,-7.40169 z m 332.56484,-12.00848 c 4.44742,-3.10324 11.29951,-7.44226 15.22685,-9.64226 3.92735,-2.2 7.15105,-4.27636 7.16378,-4.61414 0.0269,-0.71264 -6.09694,-3.0626 -13.97685,-5.3635 -8.39456,-2.45117 -23.52,-4.5099 -33.18238,-4.51646 l -8.68237,-0.006 3.33959,4.96261 c 1.83677,2.72944 4.13384,7.34194 5.1046,10.25 1.89982,5.69124 2.46133,18.59552 1.09422,25.14689 l -0.80537,3.85951 8.31585,-7.21725 c 4.57372,-3.96948 11.95466,-9.75626 16.40208,-12.8595 z M 228.45883,209.25 c 1.36835,-9.47598 6.96809,-18.35093 13.8116,-21.88985 2.75804,-1.42623 2.80642,-1.60198 2.52079,-9.15714 L 244.5,170.5 l -5.96084,-0.5 -5.96083,-0.5 -8.37862,-9.5 c -4.60824,-5.225 -10.68693,-13.25991 -13.50819,-17.85537 l -5.12957,-8.35536 -4.49853,0.50705 c -8.24255,0.92905 -12.64725,8.97514 -10.03022,18.32224 1.35204,4.82902 2.6679,6.11715 13.89156,13.59875 8.19972,5.46586 11.64554,11.28959 13.24914,22.39214 1.16175,8.04338 0.44895,19.39055 -1.21806,19.39055 -0.49513,0 -1.87264,-2.26039 -3.06111,-5.02308 -2.61497,-6.07865 -6.67961,-9.71254 -11.67417,-10.43701 -2.04631,-0.29682 -6.32983,-1.14599 -9.51893,-1.88704 -5.07288,-1.17878 -5.7275,-1.16268 -5.23198,0.12864 1.88198,4.90435 2.7297,11.14624 2.27801,16.77328 L 189.23031,214 h 19.2713 19.2713 z m 140.8241,-1.0664 c -0.4785,-5.27702 0.50771,-12.86848 2.26752,-17.45448 0.59892,-1.56076 0.35942,-1.64535 -2.0571,-0.72659 -1.50421,0.5719 -5.5998,1.44553 -9.1013,1.94141 -8.21982,1.16407 -11.97904,3.87331 -15.06891,10.86007 -1.84464,4.17104 -2.70762,5.21151 -3.59037,4.32876 -1.34105,-1.34105 -1.63358,-15.39199 -0.45736,-21.96777 l 0.77541,-4.335 -7.27541,5.91452 c -9.87774,8.03008 -21.48009,15.99932 -32.23345,22.14001 L 293.58393,214 h 38.11321 38.1132 z M 275,178.75576 c 5.775,-2.7209 17.025,-7.87082 25,-11.44426 7.975,-3.57343 15.70221,-7.63076 17.17158,-9.01629 3.38828,-3.19493 11.25331,-20.72663 13.84585,-30.86336 4.87364,-19.05576 0.82158,-36.170184 -11.62125,-49.08394 C 315.87311,74.691504 314.78177,74.192879 308,73.141078 287.77892,70.004943 266.2632,69.952741 258.5,73.02098 c -2.8445,1.124228 -2.42984,1.302349 8,3.436438 16.55167,3.386701 28.9677,7.202292 39.30704,12.079505 6.93236,3.270095 10.0477,4.242129 12.20993,3.809683 6.21337,-1.242674 11.75474,8.769294 10.677,19.290874 -1.01567,9.91562 -6.17418,15.75211 -11.98406,13.55912 -3.06997,-1.15878 -3.16257,-1.09286 -15.64908,11.13893 -17.76788,17.40544 -34.54565,28.52962 -48.34864,32.05667 l -5.21219,1.33186 -0.287,10.32037 c -0.15785,5.6762 -0.0666,10.89474 0.20281,11.59676 0.34506,0.89923 2.94155,-0.085 8.78699,-3.33096 4.56346,-2.53405 13.0222,-6.83356 18.7972,-9.55447 z m 72.64213,-7.26555 c 0.31865,-0.83039 4.3542,-3.99571 8.96788,-7.03406 4.61369,-3.03835 9.0902,-6.59516 9.9478,-7.90403 1.13793,-1.73671 1.55107,-4.90256 1.52892,-11.71594 -0.0759,-23.36414 -10.68779,-43.04797 -25.53466,-47.364067 -7.47032,-2.171681 -8.62051,-1.678168 -7.48552,3.211807 1.3347,5.75038 1.07683,17.97555 -0.54013,25.60643 -0.79136,3.73469 -3.0723,10.59343 -5.06875,15.24164 -1.99645,4.64822 -3.44131,9.01756 -3.21081,9.70966 0.53769,1.61445 18.99738,21.59962 20.03452,21.69015 0.42977,0.0375 1.0421,-0.61121 1.36075,-1.44159 z m -97.83495,-5.61291 c 7.76343,-1.85731 22.17531,-9.18134 30.97234,-15.73997 8.91744,-6.64839 22.58804,-19.2884 27.31235,-25.25333 2.83102,-3.57445 2.88313,-3.83972 1.733,-8.82237 -0.72047,-3.12122 -1.63927,-4.96309 -2.3414,-4.69366 -0.63559,0.2439 -8.83968,2.74433 -18.23131,5.55652 -23.82946,7.1354 -42.41003,11.69441 -53.65998,13.16625 -5.2757,0.69023 -9.59218,1.55673 -9.59218,1.92556 0,4.25189 8.68365,22.15746 14.29868,29.4837 l 3.06572,4 -3.74281,-3.5 c -4.94003,-4.61955 -13.16423,-17.53991 -16.0487,-25.21279 -2.12386,-5.6496 -2.62792,-6.23034 -6.36552,-7.33392 -2.23246,-0.65917 -5.71961,-2.22479 -7.74923,-3.47916 l -3.69021,-2.28068 0.71246,2.40328 c 0.39186,1.3218 1.75714,4.73947 3.03396,7.59483 1.94472,4.34897 3.14632,5.60953 7.40357,7.76685 2.79515,1.4164 5.08208,3.0177 5.08208,3.55844 0,1.27212 -1.63053,1.25125 -4.06574,-0.052 -1.06384,-0.56935 -1.93426,-0.7282 -1.93426,-0.353 0,1.12902 6.92799,9.48467 13.38078,16.13818 5.7894,5.9695 6.27849,6.25 10.89751,6.25 2.65984,0 6.94784,-0.50522 9.52889,-1.1227 z m -4.47135,-16.44452 c -0.33077,-0.86197 -0.20414,-1.94846 0.28139,-2.41443 1.75684,-1.68605 19.7767,-6.02443 20.7947,-5.00643 1.49328,1.49328 0.009,2.38748 -9.71419,5.85182 -10.14442,3.61447 -10.55522,3.6712 -11.3619,1.56904 z m -1.47861,-8.10481 c -0.92426,-1.11367 -0.87388,-1.71663 0.22868,-2.73688 1.91682,-1.77372 21.08211,-4.82308 22.34924,-3.55595 1.61497,1.61497 -0.40181,2.55505 -11.16382,5.20374 -8.7923,2.16392 -10.39514,2.31685 -11.4141,1.08909 z M 214.75,137.9293 c -4.11985,-2.17207 -5.14251,-4.48222 -1.5,-3.38844 4.13714,1.24232 7.19521,2.94958 7.04689,3.93414 -0.24856,1.64986 -1.64262,1.51272 -5.54689,-0.5457 z M 274,139.02032 C 274,138.00101 281.14091,134 282.96016,134 c 2.17254,0 0.89447,1.71342 -2.84631,3.81586 C 275.90182,140.18315 274,140.55782 274,139.02032 Z m 0.004,-6.27032 c 0.004,-1.21467 7.26541,-4.75 9.75676,-4.75 2.54266,0 1.09816,1.67013 -3.28726,3.80073 -5.18511,2.51913 -6.47478,2.70836 -6.4695,0.94927 z M 250,124.36713 c 12.77177,-2.4927 39.01236,-9.4622 51.4047,-13.6531 6.72839,-2.27543 6.93663,-2.44843 8.15487,-6.77454 0.68758,-2.44172 1.56256,-5.421813 1.94439,-6.622429 0.59937,-1.884652 -0.0319,-2.550875 -4.61944,-4.875581 -11.61475,-5.885637 -30.9675,-11.56149 -51.02064,-14.963541 -9.34614,-1.585588 -9.75239,-1.575194 -13.5,0.3454 -4.33898,2.223666 -15.98035,13.965088 -21.73162,21.918383 l -3.79044,5.241718 2.07909,2.64314 c 3.59717,4.57307 1.98933,7.85508 -2.4297,4.95962 -1.33147,-0.87241 -2.66727,-1.5862 -2.96845,-1.5862 -0.30118,0 -2.16632,2.53047 -4.14476,5.62326 -4.06907,6.36099 -4.07422,6.35008 4.26379,9.02452 5.93025,1.90215 8.35061,1.36286 8.37651,-1.8664 0.0453,-5.64897 11.78685,-29.375419 19.63411,-39.675182 4.82931,-6.338601 4.12971,-4.349576 -2.1115,6.003198 -3.0025,4.980477 -6.83215,12.615874 -8.51033,16.967544 -3.22654,8.36668 -6.15104,19.46927 -5.34156,20.27875 0.83432,0.83431 11.34229,-0.45743 24.31098,-2.98856 z m -9,-8.41679 c 0,-3.63949 3.46586,-6.79386 12.97761,-11.81128 8.26879,-4.361767 10.74587,-5.244365 13.29041,-4.735456 4.7796,0.955916 7.90321,3.386816 7.54325,5.870396 -0.27005,1.86323 -2.49617,2.77816 -16.81127,6.90944 -19.2912,5.56736 -17,5.05967 -17,3.7669 z m 81.79225,4.7708 c 5.31611,-5.65874 4.71501,-18.76005 -1.05849,-23.070595 L 319,95.609498 l -2.73376,2.041047 c -5.67969,4.240495 -6.56421,16.465025 -1.61679,22.344705 3.02429,3.59416 5.26089,3.79354 8.1428,0.72589 z M 1348.6553,432.46495 c -38.7086,-7.29829 -72.4535,-35.53761 -89.2412,-74.68103 -7.5836,-17.68259 -10.7059,-33.55458 -10.6787,-54.28392 0.05,-38.01481 11.0257,-64.73906 36.6492,-89.23523 17.5323,-16.76099 34.634,-25.74488 59.0546,-31.02268 12.1941,-2.63538 33.371,-2.32579 44.926,0.65679 43.4475,11.21466 77.2751,47.07759 89.3822,94.76025 2.5956,10.22238 2.7492,12.06748 2.6929,32.34087 -0.055,20.01483 -0.2426,22.17787 -2.7084,31.31318 -5.0931,18.86901 -13.6428,35.43741 -25.8348,50.06507 -16.1007,19.31726 -35.9361,31.81799 -60.8233,38.33233 -12.1767,3.18729 -31.6462,3.97398 -43.4185,1.75437 z M 1391,424.43589 c 29.3381,-8.68721 54.1988,-41.32094 63.1812,-82.93589 3.11,-14.40812 3.5541,-38.08286 0.9944,-53 -6.2467,-36.40263 -26.8415,-72.14371 -50.6882,-87.96608 -18.1138,-12.01862 -42.0305,-16.55573 -60.5075,-11.47858 -21.3356,5.86265 -39.8343,19.62738 -50.5539,37.61678 -12.667,21.25756 -18.7796,45.65405 -18.8737,75.32788 -0.058,18.43375 0.8924,24.83295 6.1665,41.5 16.4848,52.09493 54.5151,85.0545 95.7812,83.0103 4.95,-0.2452 11.475,-1.17869 14.5,-2.07441 z m 165,9.03822 c -0.825,-0.16164 -4.875,-0.82883 -9,-1.48266 -11.342,-1.79775 -25.3426,-6.70744 -29.5333,-10.3567 -3.4162,-2.97484 -3.6925,-3.69589 -5.4148,-14.13475 -0.9981,-6.05 -2.1315,-14.48691 -2.5186,-18.74869 -0.6129,-6.74851 -0.4861,-7.83221 0.9824,-8.39572 2.1645,-0.83059 2.8394,0.33191 5.9099,10.18023 5.7432,18.42043 18.1874,30.28597 36.8497,35.13634 8.6722,2.25391 21.6571,2.05317 29.4728,-0.45565 24.6695,-7.91881 40.2839,-36.47733 33.7207,-61.67496 -3.5574,-13.65799 -12.6887,-25.01369 -30.9688,-38.51286 -27.1326,-20.03643 -32.6499,-24.47199 -40.1217,-32.25477 -13.7494,-14.32167 -20.1154,-27.68531 -21.1074,-44.30906 -1.143,-19.15595 4.5367,-34.41168 17.6754,-47.47553 17.0069,-16.91004 40.2167,-23.05545 68.5537,-18.15138 15.4812,2.67922 22.2455,4.73025 22.8639,6.93273 0.2671,0.95112 0.7893,8.76255 1.1605,17.35873 0.5011,11.60619 0.3694,15.81821 -0.5119,16.36286 -1.7915,1.10721 -2.869,-0.52131 -4.5077,-6.81263 -4.1459,-15.9171 -13.0645,-24.25902 -30.2459,-28.29003 -15.4397,-3.6224 -29.1174,0.40985 -40.642,11.98141 -12.1292,12.1786 -17.2118,30.11147 -13.0852,46.16888 3.7084,14.43056 11.3964,24.01085 29.8035,37.13924 28.8058,20.545 45.8317,34.43863 52.2845,42.66559 9.8992,12.62107 14.3431,25.36761 14.3482,41.15527 0.01,31.82519 -23.2221,57.75056 -58.1757,64.9192 -6.6134,1.35633 -23.0663,1.98084 -27.7922,1.05491 z m -340,-4.35985 c -21.3519,-6.90322 -31.4775,-18.74595 -73.2938,-85.72316 -20.8287,-33.36133 -23.0986,-35.37336 -39.921,-35.38552 -6.6073,-0.005 -7.8634,0.2721 -8.75,1.92868 -1.4061,2.62724 -1.364,76.414 0.052,90.64206 0.5978,6.00803 1.7301,12.29345 2.5161,13.96762 1.827,3.89082 6.0424,6.35503 14.3013,8.35999 4.602,1.11719 6.6727,2.11042 6.9016,3.31034 0.5306,2.78197 -4.1101,3.22815 -19.4772,1.87264 -11.3833,-1.0041 -17.5238,-1.00214 -31.07,0.01 -17.2726,1.2905 -20.2587,1.06868 -20.2587,-1.50496 0,-0.97494 2.845,-2.33864 8.4378,-4.04455 9.1578,-2.7933 11.6954,-4.9233 13.597,-11.41307 1.9203,-6.55342 2.8788,-40.61988 2.9158,-103.63428 0.035,-59.91709 -1.0282,-97.15165 -2.9864,-104.56513 -1.3841,-5.23999 -4.8834,-7.89898 -13.5716,-10.31258 -14.7302,-4.09212 -9.6458,-7.2193 8.925,-5.48929 9.3621,0.87216 17.4285,0.83888 34.8438,-0.14376 24.728,-1.39527 35.9221,-0.90908 47.5518,2.0653 19.9488,5.10203 36.7931,21.43457 41.7556,40.48701 1.9091,7.32958 1.9855,24.16313 0.1411,31.09006 -3.8888,14.60469 -15.6743,27.7374 -32.2939,35.98552 -6.7457,3.3478 -9.316,5.13526 -9.316,6.47866 0,4.1154 19.3247,37.53375 37.5319,64.90421 18.1916,27.34692 34.7983,46.14477 46.1842,52.27787 2.8363,1.52783 8.1914,3.32783 11.9001,4 3.7088,0.67217 6.7748,1.67213 6.8135,2.22213 0.039,0.55 -1.5047,1.7868 -3.4297,2.74845 -4.8716,2.43365 -22.2987,2.3557 -30,-0.13419 z m -86,-130.00288 c 4.675,-1.06791 9.8356,-2.45599 11.4679,-3.08462 7.8268,-3.01414 18.4844,-15.93226 22.7099,-27.52676 2.9795,-8.17569 3.6745,-26.11043 1.391,-35.89955 -5.9735,-25.60868 -26.1642,-40.51968 -54.9528,-40.58309 -9.9415,-0.0219 -15.5024,1.55361 -16.7119,4.73474 -0.4972,1.30796 -0.9041,24.9838 -0.9041,52.613 0,38.82285 0.284,50.53238 1.25,51.5444 1.781,1.86579 24.773,0.70936 35.75,-1.79812 z M 713.5,428.8542 c -13.75324,-0.76483 -57.2984,-1.0768 -78.98331,-0.56586 -7.74329,0.18244 -9.02867,-0.0218 -9.31201,-1.47962 -0.24276,-1.24903 0.79884,-1.99924 3.9833,-2.869 14.54946,-3.97386 17.67857,-6.10203 19.76074,-13.43972 2.31813,-8.16925 3.28047,-52.3559 2.64614,-121.5 -0.34563,-37.675 -1.0292,-72.40181 -1.51906,-77.17068 -1.41262,-13.75236 -3.58156,-16.47953 -15.56677,-19.57323 -4.63969,-1.19762 -7.09492,-2.3443 -7.30003,-3.40936 -0.50378,-2.6159 3.72296,-2.97085 20.8486,-1.75081 11.99714,0.85469 19.54337,0.85544 30.01307,0.003 C 691.74322,185.98566 696,186.43136 696,188.97617 c 0,1.32464 -1.34081,1.96158 -7.5142,3.56954 -11.5832,3.01705 -13.04139,5.83589 -14.61954,28.26123 -1.33983,19.03874 -0.45486,161.06555 1.0885,174.69306 1.77151,15.64189 4.14677,19.39346 14.46578,22.8477 11.31596,3.78796 54.04131,4.78663 68.52019,1.6016 6.61358,-1.45484 13.73898,-7.69012 18.98939,-16.61719 11.13519,-18.93279 13.33759,-15.63932 5.42278,8.10926 -2.84471,8.53565 -5.54204,14.83868 -6.95454,16.25118 -2.28215,2.28215 -2.55188,2.30574 -24.60291,2.15163 -12.2625,-0.0857 -29.04545,-0.5312 -37.29545,-0.98998 z m 91.69572,-1.11837 c -1.73185,-2.08675 -0.12327,-3.07513 8.29463,-5.09653 8.77016,-2.106 13.37358,-5.66191 15.85247,-12.24522 1.61842,-4.29813 1.95781,-10.00843 2.78719,-46.89408 0.51941,-23.1 0.81514,-67.875 0.65718,-99.5 L 832.5,206.5 l -2.27952,-4.6267 c -2.34954,-4.76882 -5.60163,-6.99959 -14.72048,-10.09752 -2.2,-0.7474 -4,-1.95497 -4,-2.68348 0,-1.08253 11.93219,-1.38489 65.30019,-1.65469 35.91511,-0.18156 67.26264,-0.6244 69.66118,-0.98409 3.63568,-0.5452 4.52087,-0.34624 5.32228,1.19626 0.90419,1.74032 3.47499,23.81241 3.64058,31.25685 0.13992,6.29054 -2.21787,4.50189 -6.7053,-5.08673 -5.03705,-10.76305 -9.58689,-16.08605 -15.23062,-17.81877 -2.67518,-0.82133 -15.69712,-1.39054 -39.55087,-1.72882 -31.76024,-0.4504 -35.73437,-0.33252 -37.16943,1.10254 -2.55575,2.55575 -2.91735,11.01573 -2.58213,60.41223 0.26999,39.78497 0.52483,46.42991 1.81412,47.30392 2.21241,1.49978 67.57675,0.5755 71.5,-1.01104 4.4155,-1.7856 7.35532,-4.89903 10.51863,-11.13979 6.0807,-11.99634 8.34808,-9.48995 6.26999,6.93091 -0.7398,5.84591 -1.21989,16.47892 -1.06686,23.62892 0.23526,10.9918 0.0474,13 -1.21627,13 -0.89794,0 -2.43587,-2.39506 -3.85274,-6 -3.197,-8.13411 -6.44739,-12.18103 -10.9218,-13.59825 -2.43142,-0.77013 -15.62852,-1.34103 -37.88888,-1.63906 -32.60186,-0.4365 -34.17728,-0.37317 -34.58256,1.38999 -0.83216,3.62037 0.39936,82.94193 1.36664,88.0242 1.37322,7.21518 5.44292,12.43586 12.00337,15.39815 5.31293,2.39898 5.70269,2.42497 36.37048,2.42497 34.48023,0 37.1375,-0.37083 43.43653,-6.06162 2.10275,-1.89971 7.08374,-8.1755 11.06887,-13.9462 C 963.84932,393.4779 966.87242,390 968.12554,390 c 1.03095,0 1.87446,0.69317 1.87446,1.54039 0,3.02265 -8.11172,30.96595 -9.85103,33.93491 L 958.37699,428.5 915.9385,428 c -59.14474,-0.69683 -77.15509,-0.62951 -94.48045,0.35315 -12.74724,0.72299 -15.22812,0.62882 -16.26233,-0.61732 z m 863.05428,0.60189 c -2.6559,-1.07169 -1.1083,-3.29565 3,-4.31117 19.5545,-4.83359 21.5646,-7.46306 22.9541,-30.02655 0.491,-7.975 0.9835,-53.2 1.0944,-100.5 0.1612,-68.79375 -0.061,-86.74027 -1.1096,-89.70002 -1.7794,-5.02185 -6.9349,-9.29377 -13.1332,-10.88233 -5.3754,-1.3777 -7.6825,-3.09442 -6.5724,-4.89063 0.4504,-0.72884 9.3137,-0.88008 28.3361,-0.4835 15.2243,0.31739 46.3556,0.17841 69.1806,-0.30885 22.825,-0.48726 41.8913,-0.55064 42.3695,-0.14084 0.4782,0.4098 1.4624,6.4403 2.1871,13.4011 0.7247,6.96081 1.6045,13.96194 1.955,15.55807 0.7073,3.22029 -0.1388,6.947 -1.5772,6.947 -0.5119,0 -2.916,-4.16424 -5.3425,-9.25387 -4.9889,-10.46449 -9.8625,-16.11982 -15.3453,-17.80675 -4.098,-1.26085 -70.3271,-2.63797 -74.6528,-1.55228 -1.8233,0.45762 -2.7867,1.64592 -3.5434,4.37069 -1.4016,5.04713 -1.4283,99.11796 -0.029,102.79813 l 1.0212,2.68612 34.2288,-0.41108 c 42.7868,-0.51385 39.4417,0.61989 50.2494,-17.03086 1.1113,-1.81505 2.4613,-3.18358 3,-3.04116 0.5461,0.1444 0.8779,3.24058 0.75,7 -0.1262,3.70758 -0.4083,14.61606 -0.6269,24.24106 -0.4823,21.23486 -0.364,20 -1.9152,20 -0.6993,0 -2.8368,-3.67481 -4.75,-8.16625 -1.9975,-4.68915 -4.5431,-8.94747 -5.9786,-10.00099 -3.9047,-2.86568 -14.9789,-3.76834 -46.643,-3.80188 -26.6164,-0.0282 -29.2,0.11772 -29.8007,1.68309 -0.3618,0.94269 -0.372,20.40519 -0.023,43.25 0.7229,47.28595 1.094,50.08785 7.433,56.11857 6.2191,5.91669 9.6161,6.41746 43.5335,6.41746 40.2838,0 39.3946,0.34215 53.93,-20.75 4.7255,-6.85695 7.3141,-9.75 8.724,-9.75 2.3753,0 2.3675,0.0531 -2.8501,19.47538 -3.9624,14.75028 -5.4327,18.11333 -8.3191,19.02946 -1.1205,0.35562 -26.8879,0.13542 -57.261,-0.48932 -39.1209,-0.80468 -59.4519,-0.82964 -69.7238,-0.0856 -15.3617,1.11272 -22.7032,1.23368 -24.75,0.4078 z m 243,-0.31467 c -4.9157,-2.09432 -1.9338,-4.323 8.1286,-6.07529 8.8239,-1.53661 12.0872,-4.22973 13.5844,-11.21069 1.707,-7.95959 3.1235,-60.81751 2.145,-80.03927 -1.021,-20.05347 0.2818,-16.85369 -23.8976,-58.6978 -38.1358,-65.99669 -45.2692,-75.22135 -61.3893,-79.38626 -9.5872,-2.47705 -12.4404,-4.91823 -7.2661,-6.2169 1.4052,-0.35269 10.5177,-0.10248 20.25,0.55603 9.7322,0.65851 24.8827,1.051 33.6677,0.87221 14.0447,-0.28584 16.0118,-0.13079 16.2963,1.28443 0.3428,1.70554 -2.1794,3.00962 -9.3602,4.8395 -2.2502,0.5734 -4.8686,1.90155 -5.8187,2.95143 -1.5318,1.69262 -1.5806,2.39928 -0.4306,6.23749 1.2354,4.12342 36.2286,66.2518 48.1367,85.46374 6.6903,10.79383 8.2177,12.34719 10.1403,10.31243 2.636,-2.78972 48.2085,-80.8078 52.1632,-89.301 4.5991,-9.8773 2.556,-14.20403 -7.8613,-16.64829 -6.507,-1.52677 -8.7384,-2.64816 -8.7384,-4.39159 0,-2.30537 4.5302,-2.66856 18.3885,-1.47421 9.932,0.85596 16.6303,0.86394 26.2252,0.0312 13.4019,-1.1631 17.3863,-0.83053 17.3863,1.4512 0,1.73336 -2.517,3.05784 -7.5184,3.95626 -11.1171,1.99701 -18.1346,7.87452 -30.9684,25.93768 -14.0931,19.83557 -50.342,80.86795 -54.359,91.52461 -2.3803,6.31457 -2.4635,7.45568 -2.9147,40 -0.4631,33.40626 0.6096,57.83322 2.7928,63.5947 1.7844,4.70901 5.0162,7.36936 10.9214,8.99021 8.1692,2.24227 10.0463,3.18588 10.0463,5.05031 0,1.53653 -1.3709,1.607 -16.25,0.8353 -21.0472,-1.09161 -27.9799,-1.13069 -40.75,-0.2297 -6.2628,0.44187 -11.408,0.35399 -12.75,-0.21777 z M 250.12885,66.655257 c -1.8086,-2.179236 0.38093,-3.232323 9.87115,-4.747679 17.91097,-2.859944 55.94464,-1.089065 59.13352,2.753304 2.33017,2.807681 -0.48043,3.371562 -8.17351,1.639822 -12.73223,-2.866071 -46.44689,-2.126532 -58.06883,1.273753 -0.88485,0.258884 -2.1279,-0.154756 -2.76233,-0.9192 z m -0.17337,-7.208894 c -1.89751,-2.286372 -0.27989,-3.032759 9.97872,-4.604279 18.52382,-2.837668 55.99677,-1.040038 59.21754,2.84075 2.3438,2.82411 -0.53049,3.437018 -7.72771,1.647839 -11.95093,-2.970917 -46.64724,-2.233644 -58.53285,1.243784 -0.88485,0.258884 -2.20591,-0.248758 -2.9357,-1.128094 z M 238.64182,41.58596 C 231.83148,32.678451 229.2472,30 227.46325,30 224.02755,30 222,27.387979 222,22.961905 c 0,-7.620786 10.58315,-14.3901141 16.92895,-10.828309 3.61858,2.031058 4.73194,5.835251 2.82595,9.655891 -1.44525,2.897074 -1.40735,3.188393 0.66851,5.138556 1.80937,1.699819 2.47874,1.845543 3.76502,0.819662 0.86043,-0.686238 1.82048,-2.643726 2.13345,-4.349974 0.4788,-2.610378 0.102,-3.447558 -2.37643,-5.279938 -3.83422,-2.834763 -4.08713,-8.067022 -0.5604,-11.5937501 5.74565,-5.74565699 17.58234,-5.2034523 20.51441,0.9397061 1.27251,2.666122 1.21586,3.326514 -0.56413,6.576139 -1.82022,3.323057 -1.85831,3.8666 -0.47559,6.786251 1.34328,2.83638 1.95804,3.173861 5.78155,3.173861 4.11953,0 4.32259,-0.147404 5.46758,-3.969044 1.0811,-3.608392 0.99776,-4.130873 -0.91722,-5.75 -3.64474,-3.08166 -3.7649,-6.6078244 -0.35522,-10.423917 C 277.67193,0.68355779 278.20032,0.5 284.5,0.5 c 6.29968,0 6.82807,0.18355779 9.66357,3.357039 3.40968,3.8160926 3.28952,7.342257 -0.35522,10.423917 -1.91498,1.619127 -1.99832,2.141608 -0.91722,5.75 1.12658,3.760189 1.3983,3.969044 5.16371,3.969044 3.37426,0 4.25985,-0.469132 5.86351,-3.106136 1.85964,-3.057929 1.85777,-3.158988 -0.12023,-6.511454 -3.85839,-6.5394806 0.32687,-11.8228278 9.25884,-11.6880826 5.08077,0.076647 11.23682,3.0229034 12.34382,5.907696 1.4166,3.6915986 0.56691,7.2791916 -2.26786,9.5754986 -2.44348,1.979342 -2.79785,2.86647 -2.39854,6.004423 0.57646,4.530001 2.81216,5.592687 5.82041,2.766587 2.04873,-1.924685 2.12271,-2.340228 0.8507,-4.77827 -1.99577,-3.82526 -1.74323,-5.923435 1.04906,-8.715717 2.95934,-2.959342 6.33888,-3.110737 11.43253,-0.512151 C 344.60229,15.347912 347,18.870865 347,23.393388 347,27.427052 344.84951,30 341.47815,30 c -1.86157,0 -4.2929,2.517835 -11.17858,11.576299 L 321.5,53.152597 l -4,-0.569578 c -2.2,-0.313268 -7.15,-1.056317 -11,-1.651219 -3.85,-0.594902 -13.75,-1.081641 -22,-1.081641 -8.25,0 -18.15,0.486739 -22,1.081641 -3.85,0.594902 -8.8,1.342298 -11,1.66088 l -4,0.579239 z M 261.5,47.914666 c 10.19303,-1.632098 38.23775,-1.336377 49,0.516685 l 9,1.549635 2.27223,-2.740493 c 1.24973,-1.507271 5.07473,-6.447181 8.5,-10.977578 3.98382,-5.269156 7.12855,-8.451989 8.72777,-8.833523 4.70573,-1.122671 5,-1.371248 5,-4.223693 0,-4.512446 -7.04709,-9.912665 -11.48284,-8.799362 -3.18227,0.7987 -3.81116,3.171847 -1.90502,7.188733 1.57733,3.323971 1.55013,3.503407 -1.04727,6.908767 -2.81687,3.693105 -3.94546,4.062361 -7.86339,2.572767 -2.80743,-1.067386 -3.3954,-2.284104 -4.25949,-8.814425 -0.61489,-4.646946 -0.55352,-4.790983 2.53611,-5.952558 2.63373,-0.990175 3.11207,-1.646283 2.84408,-3.901103 C 322.11087,6.423719 311.2065,3.3490529 306.6945,7.8610539 l -2.09966,2.0996624 2.20258,2.9791497 c 2.84364,3.846234 2.78249,4.754149 -0.68891,10.227987 l -2.8915,4.559414 -5.3585,-0.480927 c -2.94718,-0.26451 -5.6407,-0.765645 -5.98559,-1.113634 -0.34489,-0.347988 -1.39626,-3.003351 -2.33638,-5.900806 l -1.7093,-5.268101 3.20215,-2.991249 c 2.9924,-2.7953276 3.10483,-3.1378102 1.71641,-5.228878 -3.1709,-4.7756329 -13.34674,-4.8085428 -16.46253,-0.053242 -1.67452,2.5556306 -1.64879,2.6410545 1.61656,5.3670839 l 3.31815,2.77012 -1.62376,4.836183 c -2.31985,6.909405 -2.51977,7.084288 -8.54985,7.479038 -5.25856,0.344243 -5.53956,0.232857 -7.77879,-3.083452 -3.51235,-5.201808 -3.75731,-7.475288 -1.18091,-10.960053 2.1976,-2.972422 2.20989,-3.1163808 0.43353,-5.0792378 -2.55296,-2.8209955 -10.26739,-2.7918411 -13.88334,0.052468 -3.76219,2.9593399 -3.55119,6.7566779 0.45921,8.2642839 3.02521,1.137248 3.07957,1.272709 2.44261,6.086109 -0.86895,6.566551 -1.93076,8.285035 -5.61976,9.095274 -2.55377,0.560902 -3.612,0.190011 -6.00832,-2.105809 -3.3379,-3.197912 -3.47137,-3.97706 -1.3945,-8.140257 1.73256,-3.472991 1.15327,-5.925592 -1.60648,-6.801502 C 232.31306,13.012422 225,18.384877 225,23.218476 c 0,2.839635 0.29393,3.087241 5,4.211964 1.67615,0.40059 5.25169,4.236776 10.85007,11.641 7.58883,10.036741 8.59164,10.99431 11,10.503786 1.45746,-0.29685 5.79993,-1.044102 9.64993,-1.66056 z"
         id="path2" />
    </g>
  </g>
</svg>
