0
SECTION
2
HEADER
9
$INSUNITS
70
4
9
$ACADVER
1
AC1014
9
$HANDSEED
5
FFFF
0
ENDSEC
0
SECTION
2
TABLES
0
TABLE
2
VPORT
5
8
100
AcDbSymbolTable
0
ENDTAB
0
TABLE
2
LTYPE
5
5
100
AcDbSymbolTable
0
LTYPE
5
14
100
AcDbSymbolTableRecord
100
AcDbLinetypeTableRecord
2
BYBLOCK
70
0
0
LTYPE
5
15
100
AcDbSymbolTableRecord
100
AcDbLinetypeTableRecord
2
BYLAYER
70
0
0
LTYPE
5
16
100
AcDbSymbolTableRecord
100
AcDbLinetypeTableRecord
2
DASHED
70
0
3
Dashed __ __ __ __ __ __ __ __ __ __ __ __ __ _
72
65
73
2
40
0.75
49
0.5
74
0
49
-0.25
74
0
0
ENDTAB
0
TABLE
2
LAYER
5
2
100
AcDbSymbolTable
70
2
0
LAYER
5
50
100
AcDbSymbolTableRecord
100
AcDbLayerTableRecord
2
0
70
0
62
7
6
CONTINUOUS
0
ENDTAB
0
TABLE
2
STYLE
5
3
100
AcDbSymbolTable
70
1
0
STYLE
5
11
100
AcDbSymbolTableRecord
100
AcDbTextStyleTableRecord
2
STANDARD
70
0
0
ENDTAB
0
TABLE
2
VIEW
5
6
100
AcDbSymbolTable
70
0
0
ENDTAB
0
TABLE
2
UCS
5
7
100
AcDbSymbolTable
70
0
0
ENDTAB
0
TABLE
2
APPID
5
9
100
AcDbSymbolTable
70
2
0
APPID
5
12
100
AcDbSymbolTableRecord
100
AcDbRegAppTableRecord
2
ACAD
70
0
0
ENDTAB
0
TABLE
2
DIMSTYLE
5
A
100
AcDbSymbolTable
70
1
0
ENDTAB
0
TABLE
2
BLOCK_RECORD
5
1
100
AcDbSymbolTable
70
1
0
BLOCK_RECORD
5
1F
100
AcDbSymbolTableRecord
100
AcDbBlockTableRecord
2
*MODEL_SPACE
0
BLOCK_RECORD
5
1B
100
AcDbSymbolTableRecord
100
AcDbBlockTableRecord
2
*PAPER_SPACE
0
ENDTAB
0
ENDSEC
0
SECTION
2
BLOCKS
0
BLOCK
5
20
100
AcDbEntity
100
AcDbBlockBegin
2
*MODEL_SPACE
0
ENDBLK
5
21
100
AcDbEntity
100
AcDbBlockEnd
0
BLOCK
5
1C
100
AcDbEntity
100
AcDbBlockBegin
2
*PAPER_SPACE
0
ENDBLK
5
1D
100
AcDbEntity
100
AcDbBlockEnd
0
ENDSEC
0
SECTION
2
ENTITIES
0
POINT
5
100
100
AcDbEntity
8
0
100
AcDbPoint
10
932.2849619953605
20
346.5250021650757
30
0
0
LWPOLYLINE
5
101
100
AcDbEntity
8
0
100
AcDbPolyline
90
8
70
1
43
0.0
10
1738.4800445953235
20
32.109420514164924
42
0.41421356237310264
10
1743.2800445953235
20
36.909420514164921
10
1743.2800445953235
20
140.75030525224722
42
0.41421356237310153
10
1738.4800445953235
20
145.55030525224723
10
1428.0803700407384
20
145.5503052522472
42
0.41421356237310153
10
1423.2803700407385
20
140.75030525224722
10
1423.2803700407385
20
36.909420514164921
42
0.41421356237310264
10
1428.0803700407384
20
32.109420514164917
0
LWPOLYLINE
5
102
100
AcDbEntity
8
0
100
AcDbPolyline
90
8
70
1
43
0.0
10
0
20
50
10
50
20
0
10
1750
20
0
10
1800
20
50
10
1800
20
950
10
1750
20
1000
10
50
20
1000
10
0
20
950
0
LWPOLYLINE
5
103
100
AcDbEntity
8
0
100
AcDbPolyline
90
4
70
1
43
0.0
10
301.51213495362947
20
773.22168857750864
10
1501.5121349536296
20
773.22168857750864
10
1501.5121349536296
20
273.22168857750864
10
301.51213495362947
20
273.22168857750864
0
SPLINE
5
104
100
AcDbEntity
8
0
100
AcDbSpline
70
4
71
3
72
8
73
4
74
0
42
0.000000001
43
0.0000000001
44
0.0000000001
40
0
40
0
40
0
40
0
40
1
40
1
40
1
40
1
41
1
41
1
41
1
41
1
10
477.4143407005044
20
557.94066009449023
30
0
10
510.44785826063264
20
606.30649202154689
30
0
10
517.4504054028497
20
616.49208786714303
30
0
10
526.55597763100991
20
629.40867130091328
30
0
0
SPLINE
5
105
100
AcDbEntity
8
0
100
AcDbSpline
70
4
71
3
72
8
73
4
74
0
42
0.000000001
43
0.0000000001
44
0.0000000001
40
0
40
0
40
0
40
0
40
1
40
1
40
1
40
1
41
1
41
1
41
1
41
1
10
526.55597763100991
20
629.40867130091328
30
0
10
536.52736359424409
20
643.55346869076459
30
0
10
538.89836263424127
20
646.50542580197282
30
0
10
541.47458575639291
20
646.48548312280298
30
0
0
SPLINE
5
106
100
AcDbEntity
8
0
100
AcDbSpline
70
4
71
3
72
8
73
4
74
0
42
0.000000001
43
0.0000000001
44
0.0000000001
40
0
40
0
40
0
40
0
40
1
40
1
40
1
40
1
41
1
41
1
41
1
41
1
10
541.47458575639291
20
646.48548312280298
30
0
10
541.84262094372343
20
646.4824453426038
30
0
10
542.21636066486303
20
646.41891863378316
30
0
10
542.61553889652498
20
646.3187414546976
30
0
0
SPLINE
5
107
100
AcDbEntity
8
0
100
AcDbSpline
70
4
71
3
72
8
73
4
74
0
42
0.000000001
43
0.0000000001
44
0.0000000001
40
0
40
0
40
0
40
0
40
1
40
1
40
1
40
1
41
1
41
1
41
1
41
1
10
542.61553889652498
20
646.3187414546976
30
0
10
545.09000797658689
20
645.69767772810951
30
0
10
558.72120021574892
20
628.36856782555981
30
0
10
581.57662362413146
20
596.78930057640537
30
0
0
SPLINE
5
108
100
AcDbEntity
8
0
100
AcDbSpline
70
4
71
3
72
8
73
4
74
0
42
0.000000001
43
0.0000000001
44
0.0000000001
40
0
40
0
40
0
40
0
40
1
40
1
40
1
40
1
41
1
41
1
41
1
41
1
10
581.57662362413146
20
596.78930057640537
30
0
10
588.64050609937658
20
587.02916787740037
30
0
10
596.72366818265618
20
575.92739143724555
30
0
10
599.53964404892042
20
572.11918612021645
30
0
0
SPLINE
5
109
100
AcDbEntity
8
0
100
AcDbSpline
70
4
71
3
72
8
73
4
74
0
42
0.000000001
43
0.0000000001
44
0.0000000001
40
0
40
0
40
0
40
0
40
1
40
1
40
1
40
1
41
1
41
1
41
1
41
1
10
599.53964404892042
20
572.11918612021645
30
0
10
604.68427554568859
20
565.16173030316872
30
0
10
605.68293998886008
20
562.53559251018794
30
0
10
603.46086174610559
20
561.80187583545217
30
0
0
SPLINE
5
110
100
AcDbEntity
8
0
100
AcDbSpline
70
4
71
3
72
8
73
4
74
0
42
0.000000001
43
0.0000000001
44
0.0000000001
40
0
40
0
40
0
40
0
40
1
40
1
40
1
40
1
41
1
41
1
41
1
41
1
10
603.46086174610559
20
561.80187583545217
30
0
10
600.26708805538237
20
560.74731391770058
30
0
10
592.72409430766311
20
560.40756950779712
30
0
10
571.66212067485492
20
560.37428146599677
30
0
0
LINE
5
111
100
AcDbEntity
8
0
100
AcDbLine
10
571.66212067485492
20
560.37428146599666
30
0
11
548.73810372579283
21
560.33872088633746
31
0
0
LINE
5
112
100
AcDbEntity
8
0
100
AcDbLine
10
548.73810372579283
20
560.33872088633746
30
0
11
538.56879826637908
21
550.39050089576688
31
0
0
SPLINE
5
113
100
AcDbEntity
8
0
100
AcDbSpline
70
4
71
3
72
8
73
4
74
0
42
0.000000001
43
0.0000000001
44
0.0000000001
40
0
40
0
40
0
40
0
40
1
40
1
40
1
40
1
41
1
41
1
41
1
41
1
10
538.56879826637908
20
550.39050089576688
30
0
10
532.97622173063007
20
544.91911091971724
30
0
10
526.5017381815004
20
539.09181368797192
30
0
10
524.18041032613314
20
537.44093087929991
30
0
0
LINE
5
114
100
AcDbEntity
8
0
100
AcDbLine
10
524.18041032613314
20
537.44093087930003
30
0
11
519.95942633403138
21
534.43960404256563
31
0
0
LINE
5
115
100
AcDbEntity
8
0
100
AcDbLine
10
519.95942633403138
20
534.43960404256563
30
0
11
493.42893818123997
21
534.43960404256563
31
0
0
SPLINE
5
116
100
AcDbEntity
8
0
100
AcDbSpline
70
4
71
3
72
8
73
4
74
0
42
0.000000001
43
0.0000000001
44
0.0000000001
40
0
40
0
40
0
40
0
40
1
40
1
40
1
40
1
41
1
41
1
41
1
41
1
10
493.42893818123997
20
534.43960404256563
30
0
10
472.68651119838546
20
534.43960404256563
30
0
10
466.51268672690264
20
534.72116684544926
30
0
10
465.12987062893188
20
535.73230705768287
30
0
0
SPLINE
5
117
100
AcDbEntity
8
0
100
AcDbSpline
70
4
71
3
72
8
73
4
74
0
42
0.000000001
43
0.0000000001
44
0.0000000001
40
0
40
0
40
0
40
0
40
1
40
1
40
1
40
1
41
1
41
1
41
1
41
1
10
465.12987062893188
20
535.73230705768287
30
0
10
463.01976125405122
20
537.27524431805773
30
0
10
461.82270193688271
20
535.11227524879598
30
0
10
477.4143407005044
20
557.94066009449023
30
0
0
LWPOLYLINE
5
118
100
AcDbEntity
8
0
100
AcDbPolyline
90
12
70
1
43
0.0
10
378.13134477760866
20
408.34081429970649
10
378.13134477760866
20
432.78059337156753
10
406.5838320954029
20
432.78059337156753
10
406.5838320954029
20
463.27466393538418
10
431.02361116726394
20
463.27466393538418
10
431.02361116726394
20
432.78059337156748
10
460.99074371393613
20
432.78059337156748
10
460.99074371393613
20
408.34081429970638
10
431.02361116726394
20
408.34081429970644
10
431.02361116726394
20
380.41526499905672
10
406.5838320954029
20
380.41526499905672
10
406.5838320954029
20
408.34081429970644
0
SPLINE
5
119
100
AcDbEntity
8
0
100
AcDbSpline
70
4
71
3
72
8
73
4
74
0
42
0.000000001
43
0.0000000001
44
0.0000000001
40
0
40
0
40
0
40
0
40
1
40
1
40
1
40
1
41
1
41
1
41
1
41
1
10
676.05297916659447
20
513.52768747592927
30
0
10
676.5570883555165
20
517.01232282342812
30
0
10
677.18416966959808
20
518.1889177052858
30
0
10
678.81262855878504
20
518.70789114693764
30
0
0
SPLINE
5
120
100
AcDbEntity
8
0
100
AcDbSpline
70
4
71
3
72
8
73
4
74
0
42
0.000000001
43
0.0000000001
44
0.0000000001
40
0
40
0
40
0
40
0
40
1
40
1
40
1
40
1
41
1
41
1
41
1
41
1
10
678.81262855878504
20
518.70789114693764
30
0
10
680.28228806779168
20
519.17626583748654
30
0
10
685.21158500784952
20
519.35083384770792
30
0
10
690.21093640578169
20
519.2792952834767
30
0
0
SPLINE
5
121
100
AcDbEntity
8
0
100
AcDbSpline
70
4
71
3
72
8
73
4
74
0
42
0.000000001
43
0.0000000001
44
0.0000000001
40
0
40
0
40
0
40
0
40
1
40
1
40
1
40
1
41
1
41
1
41
1
41
1
10
690.21093640578169
20
519.2792952834767
30
0
10
695.21028780371398
20
519.20771034092172
30
0
10
700.27878928220957
20
518.89059855295977
30
0
10
702.02140841506264
20
518.37628613283482
30
0
0
SPLINE
5
122
100
AcDbEntity
8
0
100
AcDbSpline
70
4
71
3
72
8
73
4
74
0
42
0.000000001
43
0.0000000001
44
0.0000000001
40
0
40
0
40
0
40
0
40
1
40
1
40
1
40
1
41
1
41
1
41
1
41
1
10
702.02140841506264
20
518.37628613283482
30
0
10
704.51707238903293
20
517.63972878577545
30
0
10
704.932158385707
20
517.0250072949467
30
0
10
705.15389315108132
20
513.7525063998263
30
0
0
SPLINE
5
123
100
AcDbEntity
8
0
100
AcDbSpline
70
4
71
3
72
8
73
4
74
0
42
0.000000001
43
0.0000000001
44
0.0000000001
40
0
40
0
40
0
40
0
40
1
40
1
40
1
40
1
41
1
41
1
41
1
41
1
10
705.15389315108132
20
513.7525063998263
30
0
10
705.63219280289161
20
506.69370235102076
30
0
10
705.99037259644638
20
506.15805590201654
30
0
10
711.8235134969716
20
503.77242450090762
30
0
0
SPLINE
5
124
100
AcDbEntity
8
0
100
AcDbSpline
70
4
71
3
72
8
73
4
74
0
42
0.000000001
43
0.0000000001
44
0.0000000001
40
0
40
0
40
0
40
0
40
1
40
1
40
1
40
1
41
1
41
1
41
1
41
1
10
711.8235134969716
20
503.77242450090762
30
0
10
714.87302741197914
20
502.52524181045351
30
0
10
719.6773579589601
20
500.04518414239169
30
0
10
722.49864414328215
20
498.26061581579637
30
0
0
LINE
5
125
100
AcDbEntity
8
0
100
AcDbLine
10
722.49864414328215
20
498.26061581579637
30
0
11
727.62827225234923
21
495.01573321241005
31
0
0
LINE
5
126
100
AcDbEntity
8
0
100
AcDbLine
10
727.62827225234923
20
495.01573321241005
30
0
11
731.50267103180909
21
497.03349175032133
31
0
0
SPLINE
5
127
100
AcDbEntity
8
0
100
AcDbSpline
70
4
71
3
72
8
73
4
74
0
42
0.000000001
43
0.0000000001
44
0.0000000001
40
0
40
0
40
0
40
0
40
1
40
1
40
1
40
1
41
1
41
1
41
1
41
1
10
731.50267103180909
20
497.03349175032133
30
0
10
733.63315208535357
20
498.14397433181483
30
0
10
735.88342834888772
20
498.85808457022722
30
0
10
736.50299637453804
20
498.62032609403161
30
0
0
SPLINE
5
128
100
AcDbEntity
8
0
100
AcDbSpline
70
4
71
3
72
8
73
4
74
0
42
0.000000001
43
0.0000000001
44
0.0000000001
40
0
40
0
40
0
40
0
40
1
40
1
40
1
40
1
41
1
41
1
41
1
41
1
10
736.50299637453804
20
498.62032609403161
30
0
10
737.89921580804389
20
498.0845405100564
30
0
10
748.73416615765495
20
483.8171999945389
30
0
10
752.07920275096512
20
478.10935013535612
30
0
0
LINE
5
129
100
AcDbEntity
8
0
100
AcDbLine
10
752.07920275096524
20
478.10935013535612
30
0
11
754.54657594750859
21
473.89961288673965
31
0
0
LINE
5
130
100
AcDbEntity
8
0
100
AcDbLine
10
754.54657594750859
20
473.89961288673965
30
0
11
751.47215687270045
21
469.61868491131924
31
0
0
LINE
5
131
100
AcDbEntity
8
0
100
AcDbLine
10
751.47215687270045
20
469.61868491131924
30
0
11
748.39778417621596
21
465.33963525800675
31
0
0
LINE
5
132
100
AcDbEntity
8
0
100
AcDbLine
10
748.39778417621596
20
465.33963525800675
30
0
11
750.81460499998002
21
457.92248909151385
31
0
0
SPLINE
5
133
100
AcDbEntity
8
0
100
AcDbSpline
70
4
71
3
72
8
73
4
74
0
42
0.000000001
43
0.0000000001
44
0.0000000001
40
0
40
0
40
0
40
0
40
1
40
1
40
1
40
1
41
1
41
1
41
1
41
1
10
750.81460499998002
20
457.92248909151385
30
0
10
752.14376137748684
20
453.84381698553443
30
0
10
753.95682918396551
20
447.48565027212067
30
0
10
754.84260878737109
20
443.79263711645905
30
0
0
SPLINE
5
134
100
AcDbEntity
8
0
100
AcDbSpline
70
4
71
3
72
8
73
4
74
0
42
0.000000001
43
0.0000000001
44
0.0000000001
40
0
40
0
40
0
40
0
40
1
40
1
40
1
40
1
41
1
41
1
41
1
41
1
10
754.84260878737109
20
443.79263711645905
30
0
10
756.70720291142572
20
436.0188880194155
30
0
10
757.55017532210161
20
434.6799921939421
30
0
10
760.58299304059506
20
434.6799921939421
30
0
0
SPLINE
5
135
100
AcDbEntity
8
0
100
AcDbSpline
70
4
71
3
72
8
73
4
74
0
42
0.000000001
43
0.0000000001
44
0.0000000001
40
0
40
0
40
0
40
0
40
1
40
1
40
1
40
1
41
1
41
1
41
1
41
1
10
760.58299304059506
20
434.6799921939421
30
0
10
765.90731735234817
20
434.6799921939421
30
0
10
767.58287342920221
20
427.59083353230716
30
0
10
765.875594578971
20
412.28802737380136
30
0
0
SPLINE
5
136
100
AcDbEntity
8
0
100
AcDbSpline
70
4
71
3
72
8
73
4
74
0
42
0.000000001
43
0.0000000001
44
0.0000000001
40
0
40
0
40
0
40
0
40
1
40
1
40
1
40
1
41
1
41
1
41
1
41
1
10
765.875594578971
20
412.28802737380136
30
0
10
764.57584205865874
20
400.63807074267572
30
0
10
763.96221045843561
20
399.39014599904328
30
0
10
759.33708575404125
20
399.00685234323163
30
0
0
SPLINE
5
137
100
AcDbEntity
8
0
100
AcDbSpline
70
4
71
3
72
8
73
4
74
0
42
0.000000001
43
0.0000000001
44
0.0000000001
40
0
40
0
40
0
40
0
40
1
40
1
40
1
40
1
41
1
41
1
41
1
41
1
10
759.33708575404125
20
399.00685234323163
30
0
10
755.75524144017049
20
398.71003107186687
30
0
10
755.73998297168941
20
398.69059855425718
30
0
10
753.23513608963617
20
391.03516056084663
30
0
0
SPLINE
5
138
100
AcDbEntity
8
0
100
AcDbSpline
70
4
71
3
72
8
73
4
74
0
42
0.000000001
43
0.0000000001
44
0.0000000001
40
0
40
0
40
0
40
0
40
1
40
1
40
1
40
1
41
1
41
1
41
1
41
1
10
753.23513608963617
20
391.03516056084663
30
0
10
751.85417512461163
20
386.81457078449597
30
0
10
749.64642778386519
20
380.95993353095844
30
0
10
748.32844858235819
20
378.02564656106119
30
0
0
LINE
5
139
100
AcDbEntity
8
0
100
AcDbLine
10
748.32844858235808
20
378.02564656106119
30
0
11
745.93226611261866
21
372.69181469295978
31
0
0
LINE
5
140
100
AcDbEntity
8
0
100
AcDbLine
10
745.93226611261866
20
372.69181469295978
30
0
11
748.76876438709837
21
369.15465589392636
31
0
0
LINE
5
141
100
AcDbEntity
8
0
100
AcDbLine
10
748.76876438709837
20
369.15465589392636
30
0
11
751.60521628325444
21
365.61752028405493
31
0
0
LINE
5
142
100
AcDbEntity
8
0
100
AcDbLine
10
751.60521628325444
20
365.61752028405493
30
0
11
748.97857992329432
21
361.06119782279643
31
0
0
SPLINE
5
143
100
AcDbEntity
8
0
100
AcDbSpline
70
4
71
3
72
8
73
4
74
0
42
0.000000001
43
0.0000000001
44
0.0000000001
40
0
40
0
40
0
40
0
40
1
40
1
40
1
40
1
41
1
41
1
41
1
41
1
10
748.97857992329432
20
361.06119782279643
30
0
10
745.50924942260031
20
355.04284508677182
30
0
10
737.83131794221902
20
344.62585618990124
30
0
10
734.70444498336201
20
341.69493164846864
30
0
0
LINE
5
144
100
AcDbEntity
8
0
100
AcDbLine
10
734.70444498336201
20
341.69493164846864
30
0
11
732.2089665226863
21
339.35495970699384
31
0
0
LINE
5
145
100
AcDbEntity
8
0
100
AcDbLine
10
732.2089665226863
20
339.35495970699384
30
0
11
728.55004143490805
21
342.92771386942911
31
0
0
LINE
5
146
100
AcDbEntity
8
0
100
AcDbLine
10
728.55004143490805
20
342.92771386942911
30
0
11
724.89297148007563
21
346.49856652059475
31
0
0
LINE
5
147
100
AcDbEntity
8
0
100
AcDbLine
10
724.89297148007563
20
346.49856652059475
30
0
11
718.73295615445977
21
343.7370619954583
31
0
0
SPLINE
5
148
100
AcDbEntity
8
0
100
AcDbSpline
70
4
71
3
72
8
73
4
74
0
42
0.000000001
43
0.0000000001
44
0.0000000001
40
0
40
0
40
0
40
0
40
1
40
1
40
1
40
1
41
1
41
1
41
1
41
1
10
718.73295615445977
20
343.7370619954583
30
0
10
715.34501961177284
20
342.21863567913289
30
0
10
710.95076620251177
20
340.44234588330932
30
0
10
708.96832475806059
20
339.78961735624864
30
0
0
SPLINE
5
149
100
AcDbEntity
8
0
100
AcDbSpline
70
4
71
3
72
8
73
4
74
0
42
0.000000001
43
0.0000000001
44
0.0000000001
40
0
40
0
40
0
40
0
40
1
40
1
40
1
40
1
41
1
41
1
41
1
41
1
10
708.96832475806059
20
339.78961735624864
30
0
10
704.9894356154158
20
338.47956884808605
30
0
10
703.46743816816922
20
336.42969332104667
30
0
10
703.44526932946428
20
332.34626743689307
30
0
0
SPLINE
5
150
100
AcDbEntity
8
0
100
AcDbSpline
70
4
71
3
72
8
73
4
74
0
42
0.000000001
43
0.0000000001
44
0.0000000001
40
0
40
0
40
0
40
0
40
1
40
1
40
1
40
1
41
1
41
1
41
1
41
1
10
703.44526932946428
20
332.34626743689307
30
0
10
703.43761690606186
20
330.86076973035961
30
0
10
703.03227035735426
20
329.01584001553289
30
0
10
702.54599363387626
20
328.24707292269812
30
0
0
SPLINE
5
151
100
AcDbEntity
8
0
100
AcDbSpline
70
4
71
3
72
8
73
4
74
0
42
0.000000001
43
0.0000000001
44
0.0000000001
40
0
40
0
40
0
40
0
40
1
40
1
40
1
40
1
41
1
41
1
41
1
41
1
10
702.54599363387626
20
328.24707292269812
30
0
10
700.91055480698003
20
325.66157413581629
30
0
10
678.8061124043121
20
325.07103894077136
30
0
10
676.74241613682489
20
327.55761276330611
30
0
0
SPLINE
5
152
100
AcDbEntity
8
0
100
AcDbSpline
70
4
71
3
72
8
73
4
74
0
42
0.000000001
43
0.0000000001
44
0.0000000001
40
0
40
0
40
0
40
0
40
1
40
1
40
1
40
1
41
1
41
1
41
1
41
1
10
676.74241613682489
20
327.55761276330611
30
0
10
676.20104196484954
20
328.20992388545386
30
0
10
675.40869149443836
20
330.77371761686715
30
0
10
674.98133843115863
20
333.25491155385851
30
0
0
SPLINE
5
153
100
AcDbEntity
8
0
100
AcDbSpline
70
4
71
3
72
8
73
4
74
0
42
0.000000001
43
0.0000000001
44
0.0000000001
40
0
40
0
40
0
40
0
40
1
40
1
40
1
40
1
41
1
41
1
41
1
41
1
10
674.98133843115863
20
333.25491155385851
30
0
10
674.20918572069741
20
337.73797945291057
30
0
10
674.14699238868161
20
337.79924521845322
30
0
10
665.09118410179872
20
343.02515472741936
30
0
0
LINE
5
154
100
AcDbEntity
8
0
100
AcDbLine
10
665.09118410179872
20
343.02515472741936
30
0
11
655.97851599011983
21
348.28403922450121
31
0
0
LINE
5
155
100
AcDbEntity
8
0
100
AcDbLine
10
655.97851599011983
20
348.28403922450121
30
0
11
652.55565656972385
21
344.3515747838307
31
0
0
SPLINE
5
156
100
AcDbEntity
8
0
100
AcDbSpline
70
4
71
3
72
8
73
4
74
0
42
0.000000001
43
0.0000000001
44
0.0000000001
40
0
40
0
40
0
40
0
40
1
40
1
40
1
40
1
41
1
41
1
41
1
41
1
10
652.55565656972385
20
344.3515747838307
30
0
10
649.66997408301256
20
341.03779718066119
30
0
10
648.8406832778137
20
340.5783735065769
30
0
10
647.27242345272543
20
341.4176820296845
30
0
0
SPLINE
5
157
100
AcDbEntity
8
0
100
AcDbSpline
70
4
71
3
72
8
73
4
74
0
42
0.000000001
43
0.0000000001
44
0.0000000001
40
0
40
0
40
0
40
0
40
1
40
1
40
1
40
1
41
1
41
1
41
1
41
1
10
647.27242345272543
20
341.4176820296845
30
0
10
644.32784049497764
20
342.99357108901319
30
0
10
635.07137639081964
20
353.10673558764779
30
0
10
631.11732284048981
20
359.06783428312553
30
0
0
SPLINE
5
158
100
AcDbEntity
8
0
100
AcDbSpline
70
4
71
3
72
8
73
4
74
0
42
0.000000001
43
0.0000000001
44
0.0000000001
40
0
40
0
40
0
40
0
40
1
40
1
40
1
40
1
41
1
41
1
41
1
41
1
10
631.11732284048981
20
359.06783428312553
30
0
10
627.09122056436843
20
365.1375046342697
30
0
10
627.12528544308998
20
366.68257529753248
30
0
10
631.38149377200443
20
370.76027345871529
30
0
0
LINE
5
159
100
AcDbEntity
8
0
100
AcDbLine
10
631.38149377200443
20
370.76027345871529
30
0
11
634.09993602363113
21
373.36629465381259
31
0
0
LINE
5
160
100
AcDbEntity
8
0
100
AcDbLine
10
634.09993602363113
20
373.36629465381259
30
0
11
630.86815529667615
21
381.969357745217
31
0
0
SPLINE
5
161
100
AcDbEntity
8
0
100
AcDbSpline
70
4
71
3
72
8
73
4
74
0
42
0.000000001
43
0.0000000001
44
0.0000000001
40
0
40
0
40
0
40
0
40
1
40
1
40
1
40
1
41
1
41
1
41
1
41
1
10
630.86815529667615
20
381.969357745217
30
0
10
629.09075242108497
20
386.70131491814084
30
0
10
626.95120440526682
20
393.26744203480445
30
0
10
626.11324085354522
20
396.56009431155098
30
0
0
SPLINE
5
162
100
AcDbEntity
8
0
100
AcDbSpline
70
4
71
3
72
8
73
4
74
0
42
0.000000001
43
0.0000000001
44
0.0000000001
40
0
40
0
40
0
40
0
40
1
40
1
40
1
40
1
41
1
41
1
41
1
41
1
10
626.11324085354522
20
396.56009431155098
30
0
10
623.97724077948635
20
404.95306359681757
30
0
10
623.4119585816693
20
405.74297920523702
30
0
10
619.30685083120898
20
406.08490339635216
30
0
0
SPLINE
5
163
100
AcDbEntity
8
0
100
AcDbSpline
70
4
71
3
72
8
73
4
74
0
42
0.000000001
43
0.0000000001
44
0.0000000001
40
0
40
0
40
0
40
0
40
1
40
1
40
1
40
1
41
1
41
1
41
1
41
1
10
619.30685083120898
20
406.08490339635216
30
0
10
614.03472532272474
20
406.52403655383927
30
0
10
613.31282352593905
20
408.71397461830389
30
0
10
613.36038449684293
20
424.12848296932253
30
0
0
SPLINE
5
164
100
AcDbEntity
8
0
100
AcDbSpline
70
4
71
3
72
8
73
4
74
0
42
0.000000001
43
0.0000000001
44
0.0000000001
40
0
40
0
40
0
40
0
40
1
40
1
40
1
40
1
41
1
41
1
41
1
41
1
10
613.36038449684293
20
424.12848296932253
30
0
10
613.4118180577716
20
440.781965047509
30
0
10
614.23756092121141
20
443.35737654899674
30
0
10
619.96630421519876
20
444.74622182904204
30
0
0
LINE
5
165
100
AcDbEntity
8
0
100
AcDbLine
10
619.96630421519876
20
444.74622182904204
30
0
11
624.24162041345744
21
445.78226720107608
31
0
0
LINE
5
166
100
AcDbEntity
8
0
100
AcDbLine
10
624.24162041345744
20
445.78226720107608
30
0
11
626.77832920385879
21
453.90009708128451
31
0
0
SPLINE
5
167
100
AcDbEntity
8
0
100
AcDbSpline
70
4
71
3
72
8
73
4
74
0
42
0.000000001
43
0.0000000001
44
0.0000000001
40
0
40
0
40
0
40
0
40
1
40
1
40
1
40
1
41
1
41
1
41
1
41
1
10
626.77832920385879
20
453.90009708128451
30
0
10
628.17304134184587
20
458.36475278584726
30
0
10
630.43634991432589
20
464.73959250661335
30
0
10
631.80863813282781
20
468.06556760890305
30
0
0
LINE
5
168
100
AcDbEntity
8
0
100
AcDbLine
10
631.80863813282792
20
468.06556760890311
30
0
11
634.3041397826654
21
474.11318506715128
31
0
0
LINE
5
169
100
AcDbEntity
8
0
100
AcDbLine
10
634.3041397826654
20
474.11318506715128
30
0
11
630.98618813036728
21
478.45781367010602
31
0
0
SPLINE
5
170
100
AcDbEntity
8
0
100
AcDbSpline
70
4
71
3
72
8
73
4
74
0
42
0.000000001
43
0.0000000001
44
0.0000000001
40
0
40
0
40
0
40
0
40
1
40
1
40
1
40
1
41
1
41
1
41
1
41
1
10
630.98618813036728
20
478.45781367010602
30
0
10
627.6738946335546
20
482.79715514416444
30
0
10
627.6721786355796
20
482.80868015759165
30
0
10
629.35439000187762
20
485.71384154023627
30
0
0
SPLINE
5
171
100
AcDbEntity
8
0
100
AcDbSpline
70
4
71
3
72
8
73
4
74
0
42
0.000000001
43
0.0000000001
44
0.0000000001
40
0
40
0
40
0
40
0
40
1
40
1
40
1
40
1
41
1
41
1
41
1
41
1
10
629.35439000187762
20
485.71384154023627
30
0
10
631.57356959940398
20
489.54640707176293
30
0
10
647.69873300372296
20
506.61787379185182
30
0
10
649.11784013995032
20
506.63698166119593
30
0
0
SPLINE
5
172
100
AcDbEntity
8
0
100
AcDbSpline
70
4
71
3
72
8
73
4
74
0
42
0.000000001
43
0.0000000001
44
0.0000000001
40
0
40
0
40
0
40
0
40
1
40
1
40
1
40
1
41
1
41
1
41
1
41
1
10
649.11784013995032
20
506.63698166119593
30
0
10
649.72569763887896
20
506.64565440771867
30
0
10
651.76302782937091
20
504.86154986435992
30
0
10
653.64605733707663
20
502.67267850133925
30
0
0
LINE
5
173
100
AcDbEntity
8
0
100
AcDbLine
10
653.64605733707651
20
502.67267850133919
30
0
11
657.07079507958053
21
498.69151682083555
31
0
0
LINE
5
174
100
AcDbEntity
8
0
100
AcDbLine
10
657.07079507958053
20
498.69151682083555
30
0
11
665.19050328189678
21
502.5509122125942
31
0
0
SPLINE
5
175
100
AcDbEntity
8
0
100
AcDbSpline
70
4
71
3
72
8
73
4
74
0
42
0.000000001
43
0.0000000001
44
0.0000000001
40
0
40
0
40
0
40
0
40
1
40
1
40
1
40
1
41
1
41
1
41
1
41
1
10
665.19050328189678
20
502.5509122125942
30
0
10
669.65696774108198
20
504.67292922207236
30
0
10
673.78127611753371
20
506.99608902122372
30
0
10
674.35560208846277
20
507.71425736295555
30
0
0
SPLINE
5
176
100
AcDbEntity
8
0
100
AcDbSpline
70
4
71
3
72
8
73
4
74
0
42
0.000000001
43
0.0000000001
44
0.0000000001
40
0
40
0
40
0
40
0
40
1
40
1
40
1
40
1
41
1
41
1
41
1
41
1
10
674.35560208846277
20
507.71425736295555
30
0
10
674.92992805939161
20
508.4324025155255
30
0
10
675.69428921147971
20
511.04827910439849
30
0
10
676.05297916659447
20
513.52768747592927
30
0
0
SPLINE
5
177
100
AcDbEntity
8
0
100
AcDbSpline
70
4
71
3
72
8
73
4
74
0
42
0.000000001
43
0.0000000001
44
0.0000000001
40
0
40
0
40
0
40
0
40
1
40
1
40
1
40
1
41
1
41
1
41
1
41
1
10
571.95254173755586
20
739.28318393666302
30
0
10
568.9362810806058
20
740.81165405870411
30
0
10
565.87781614913365
20
741.58062840467267
30
0
10
562.77614980918088
20
741.59132368090343
30
0
0
SPLINE
5
178
100
AcDbEntity
8
0
100
AcDbSpline
70
4
71
3
72
8
73
4
74
0
42
0.000000001
43
0.0000000001
44
0.0000000001
40
0
40
0
40
0
40
0
40
1
40
1
40
1
40
1
41
1
41
1
41
1
41
1
10
562.77614980918088
20
741.59132368090343
30
0
10
559.67452984755164
20
741.60202258044046
30
0
10
556.52912874839626
20
740.85395616250264
30
0
10
553.34126829393858
20
739.3468867381813
30
0
0
SPLINE
5
179
100
AcDbEntity
8
0
100
AcDbSpline
70
4
71
3
72
8
73
4
74
0
42
0.000000001
43
0.0000000001
44
0.0000000001
40
0
40
0
40
0
40
0
40
1
40
1
40
1
40
1
41
1
41
1
41
1
41
1
10
553.34126829393858
20
739.3468867381813
30
0
10
550.70338519049312
20
738.09983376210107
30
0
10
547.42253619711573
20
735.83786291439378
30
0
10
546.04964506040631
20
734.32030909028208
30
0
0
SPLINE
5
180
100
AcDbEntity
8
0
100
AcDbSpline
70
4
71
3
72
8
73
4
74
0
42
0.000000001
43
0.0000000001
44
0.0000000001
40
0
40
0
40
0
40
0
40
1
40
1
40
1
40
1
41
1
41
1
41
1
41
1
10
546.04964506040631
20
734.32030909028208
30
0
10
544.67675392369688
20
732.80275381684771
30
0
10
526.57930592780633
20
706.30901613758169
30
0
10
505.83330781403055
20
675.44589397578977
30
0
0
SPLINE
5
181
100
AcDbEntity
8
0
100
AcDbSpline
70
4
71
3
72
8
73
4
74
0
42
0.000000001
43
0.0000000001
44
0.0000000001
40
0
40
0
40
0
40
0
40
1
40
1
40
1
40
1
41
1
41
1
41
1
41
1
10
505.83330781403055
20
675.44589397578977
30
0
10
485.08730970025488
20
644.58277761128829
30
0
10
461.98434198938639
20
610.26643561898049
30
0
10
454.49406880107716
20
599.18736136825271
30
0
0
SPLINE
5
182
100
AcDbEntity
8
0
100
AcDbSpline
70
4
71
3
72
8
73
4
74
0
42
0.000000001
43
0.0000000001
44
0.0000000001
40
0
40
0
40
0
40
0
40
1
40
1
40
1
40
1
41
1
41
1
41
1
41
1
10
454.49406880107716
20
599.18736136825271
30
0
10
447.00379561276782
20
588.10829871210592
30
0
10
433.15758187058015
20
567.60481285269998
30
0
10
423.72573813553686
20
553.62409037734426
30
0
0
SPLINE
5
183
100
AcDbEntity
8
0
100
AcDbSpline
70
4
71
3
72
8
73
4
74
0
42
0.000000001
43
0.0000000001
44
0.0000000001
40
0
40
0
40
0
40
0
40
1
40
1
40
1
40
1
41
1
41
1
41
1
41
1
10
423.72573813553686
20
553.62409037734426
30
0
10
398.44072826980539
20
516.14435249630446
30
0
10
366.59349286388732
20
469.06362913386715
30
0
10
339.19575324798876
20
428.66421345488004
30
0
0
SPLINE
5
184
100
AcDbEntity
8
0
100
AcDbSpline
70
4
71
3
72
8
73
4
74
0
42
0.000000001
43
0.0000000001
44
0.0000000001
40
0
40
0
40
0
40
0
40
1
40
1
40
1
40
1
41
1
41
1
41
1
41
1
10
339.19575324798876
20
428.66421345488004
30
0
10
324.64325560950476
20
407.20579791150527
30
0
10
314.3532476641447
20
391.08188672192483
30
0
10
313.41466344061752
20
388.26428761433283
30
0
0
SPLINE
5
185
100
AcDbEntity
8
0
100
AcDbSpline
70
4
71
3
72
8
73
4
74
0
42
0.000000001
43
0.0000000001
44
0.0000000001
40
0
40
0
40
0
40
0
40
1
40
1
40
1
40
1
41
1
41
1
41
1
41
1
10
313.41466344061752
20
388.26428761433283
30
0
10
310.30764185360562
20
378.93714294493117
30
0
10
313.62796604702294
20
366.8353686847999
30
0
10
320.66881588728512
20
361.82184870899232
30
0
0
SPLINE
5
186
100
AcDbEntity
8
0
100
AcDbSpline
70
4
71
3
72
8
73
4
74
0
42
0.000000001
43
0.0000000001
44
0.0000000001
40
0
40
0
40
0
40
0
40
1
40
1
40
1
40
1
41
1
41
1
41
1
41
1
10
320.66881588728512
20
361.82184870899232
30
0
10
327.70716999400588
20
356.81009110948355
30
0
10
322.94863804163015
20
356.99690299714871
30
0
10
444.06809410399921
20
356.97515156335658
30
0
0
SPLINE
5
187
100
AcDbEntity
8
0
100
AcDbSpline
70
4
71
3
72
8
73
4
74
0
42
0.000000001
43
0.0000000001
44
0.0000000001
40
0
40
0
40
0
40
0
40
1
40
1
40
1
40
1
41
1
41
1
41
1
41
1
10
444.06809410399921
20
356.97515156335658
30
0
10
508.51715183621377
20
356.96351060412019
30
0
10
557.61888021921789
20
356.58575915798485
30
0
10
558.92051106163785
20
356.09085606630771
30
0
0
SPLINE
5
188
100
AcDbEntity
8
0
100
AcDbSpline
70
4
71
3
72
8
73
4
74
0
42
0.000000001
43
0.0000000001
44
0.0000000001
40
0
40
0
40
0
40
0
40
1
40
1
40
1
40
1
41
1
41
1
41
1
41
1
10
558.92051106163785
20
356.09085606630771
30
0
10
558.99286124653304
20
356.06344647703008
30
0
10
559.06623175454854
20
356.03172370365303
30
0
10
559.13783988626528
20
355.99907336380289
30
0
0
LINE
5
189
100
AcDbEntity
8
0
100
AcDbLine
10
559.13783988626528
20
355.99907336380295
30
0
11
550.57600712458645
21
399.55583256028552
31
0
0
LINE
5
190
100
AcDbEntity
8
0
100
AcDbLine
10
550.57600712458645
20
399.55583256028552
30
0
11
550.52547794096893
21
406.16175227864147
31
0
0
LINE
5
191
100
AcDbEntity
8
0
100
AcDbLine
10
550.52547794096893
20
406.16175227864147
30
0
11
558.0250615777511
21
466.420667603982
31
0
0
LINE
5
192
100
AcDbEntity
8
0
100
AcDbLine
10
558.0250615777511
20
466.420667603982
30
0
11
558.94868589325574
21
471.59525949782869
31
0
0
LINE
5
193
100
AcDbEntity
8
0
100
AcDbLine
10
558.94868589325574
20
471.59525949782869
30
0
11
587.1465907271006
21
519.55471295847656
31
0
0
LINE
5
194
100
AcDbEntity
8
0
100
AcDbLine
10
587.1465907271006
20
519.55471295847656
30
0
11
590.82237433552609
21
524.25344006250475
31
0
0
LINE
5
195
100
AcDbEntity
8
0
100
AcDbLine
10
590.82237433552609
20
524.25344006250475
30
0
11
614.93230820949952
21
544.81686990522928
31
0
0
LINE
5
196
100
AcDbEntity
8
0
100
AcDbLine
10
614.93230820949952
20
544.81686990522928
30
0
11
617.04372777202343
21
544.94800461535169
31
0
0
LINE
5
197
100
AcDbEntity
8
0
100
AcDbLine
10
617.04372777202343
20
544.94800461535169
30
0
11
619.50175573635113
21
541.11483616561759
31
0
0
LINE
5
198
100
AcDbEntity
8
0
100
AcDbLine
10
619.50175573635113
20
541.11483616561759
30
0
11
618.71114445307694
21
539.14018627953976
31
0
0
LINE
5
199
100
AcDbEntity
8
0
100
AcDbLine
10
618.71114445307694
20
539.14018627953976
30
0
11
594.93654904826019
21
514.96843010013981
31
0
0
LINE
5
200
100
AcDbEntity
8
0
100
AcDbLine
10
594.93654904826019
20
514.96843010013981
30
0
11
592.93003725383426
21
512.48981016011112
31
0
0
LINE
5
201
100
AcDbEntity
8
0
100
AcDbLine
10
592.93003725383426
20
512.48981016011112
30
0
11
569.72125739755654
21
469.17472840817254
31
0
0
LINE
5
202
100
AcDbEntity
8
0
100
AcDbLine
10
569.72125739755654
20
469.17472840817254
30
0
11
568.19061039294911
21
465.03057010919827
31
0
0
LINE
5
203
100
AcDbEntity
8
0
100
AcDbLine
10
568.19061039294911
20
465.03057010919827
30
0
11
564.50731349609237
21
403.96418497993631
31
0
0
LINE
5
204
100
AcDbEntity
8
0
100
AcDbLine
10
564.50731349609237
20
403.96418497993631
30
0
11
564.64034971748458
21
401.54548583406438
31
0
0
LINE
5
205
100
AcDbEntity
8
0
100
AcDbLine
10
564.64034971748458
20
401.54548583406438
30
0
11
576.72623940176538
21
351.62072771955417
31
0
0
LINE
5
206
100
AcDbEntity
8
0
100
AcDbLine
10
576.72623940176538
20
351.62072771955417
30
0
11
575.37544753627549
21
349.53741342116257
31
0
0
LINE
5
207
100
AcDbEntity
8
0
100
AcDbLine
10
575.37544753627549
20
349.53741342116257
30
0
11
560.31633627939266
21
345.7566988554774
31
0
0
LINE
5
208
100
AcDbEntity
8
0
100
AcDbLine
10
560.31633627939266
20
345.7566988554774
30
0
11
560.30318802463762
21
345.86911991200679
31
0
0
SPLINE
5
209
100
AcDbEntity
8
0
100
AcDbSpline
70
4
71
3
72
8
73
4
74
0
42
0.000000001
43
0.0000000001
44
0.0000000001
40
0
40
0
40
0
40
0
40
1
40
1
40
1
40
1
41
1
41
1
41
1
41
1
10
560.30318802463762
20
345.86911991200679
30
0
10
556.08612300088441
20
344.67761439909543
30
0
10
543.3876220395008
20
342.2407581395143
30
0
10
503.46152034253134
20
334.41084489252967
30
0
0
SPLINE
5
210
100
AcDbEntity
8
0
100
AcDbSpline
70
4
71
3
72
8
73
4
74
0
42
0.000000001
43
0.0000000001
44
0.0000000001
40
0
40
0
40
0
40
0
40
1
40
1
40
1
40
1
41
1
41
1
41
1
41
1
10
503.46152034253134
20
334.41084489252967
30
0
10
400.23648536698136
20
314.1673559155098
30
0
10
379.9797785677211
20
310.03193993054367
30
0
10
378.66273852726806
20
308.93889559874287
30
0
0
SPLINE
5
211
100
AcDbEntity
8
0
100
AcDbSpline
70
4
71
3
72
8
73
4
74
0
42
0.000000001
43
0.0000000001
44
0.0000000001
40
0
40
0
40
0
40
0
40
1
40
1
40
1
40
1
41
1
41
1
41
1
41
1
10
378.66273852726806
20
308.93889559874287
30
0
10
377.25737096942225
20
307.77252713725028
30
0
10
376.87095837134513
20
304.99594965692734
30
0
10
377.96206061084308
20
303.90485321471988
30
0
0
SPLINE
5
212
100
AcDbEntity
8
0
100
AcDbSpline
70
4
71
3
72
8
73
4
74
0
42
0.000000001
43
0.0000000001
44
0.0000000001
40
0
40
0
40
0
40
0
40
1
40
1
40
1
40
1
41
1
41
1
41
1
41
1
10
377.96206061084308
20
303.90485321471988
30
0
10
378.31377062824851
20
303.55312000815263
30
0
10
449.86009743144632
20
303.26589904978357
30
0
10
536.95390503685996
20
303.26599180643086
30
0
0
SPLINE
5
213
100
AcDbEntity
8
0
100
AcDbSpline
70
4
71
3
72
8
73
4
74
0
42
0.000000001
43
0.0000000001
44
0.0000000001
40
0
40
0
40
0
40
0
40
1
40
1
40
1
40
1
41
1
41
1
41
1
41
1
10
536.95390503685996
20
303.26599180643086
30
0
10
710.86895483959199
20
303.26617731972544
30
0
10
702.43343344237587
20
302.99528153128142
30
0
10
717.68568722810244
20
309.07195500929686
30
0
0
SPLINE
5
214
100
AcDbEntity
8
0
100
AcDbSpline
70
4
71
3
72
8
73
4
74
0
42
0.000000001
43
0.0000000001
44
0.0000000001
40
0
40
0
40
0
40
0
40
1
40
1
40
1
40
1
41
1
41
1
41
1
41
1
10
717.68568722810244
20
309.07195500929686
30
0
10
752.98826427284325
20
323.13687733124056
30
0
10
777.16672212001072
20
357.30272166330172
30
0
10
783.53697038673545
20
402.12444963735845
30
0
0
SPLINE
5
215
100
AcDbEntity
8
0
100
AcDbSpline
70
4
71
3
72
8
73
4
74
0
42
0.000000001
43
0.0000000001
44
0.0000000001
40
0
40
0
40
0
40
0
40
1
40
1
40
1
40
1
41
1
41
1
41
1
41
1
10
783.53697038673545
20
402.12444963735845
30
0
10
787.50347651696552
20
430.03339432569737
30
0
10
782.64321371166193
20
459.98405195611315
30
0
10
769.87173645801386
20
486.33781550663343
30
0
0
SPLINE
5
216
100
AcDbEntity
8
0
100
AcDbSpline
70
4
71
3
72
8
73
4
74
0
42
0.000000001
43
0.0000000001
44
0.0000000001
40
0
40
0
40
0
40
0
40
1
40
1
40
1
40
1
41
1
41
1
41
1
41
1
10
769.87173645801386
20
486.33781550663343
30
0
10
758.52115190605377
20
509.7595878142771
30
0
10
739.67137793306256
20
528.31541597196986
30
0
10
718.10907494470996
20
537.29486234896194
30
0
0
LINE
5
217
100
AcDbEntity
8
0
100
AcDbLine
10
718.10907494470985
20
537.29486234896194
30
0
11
710.65445509270717
21
540.39924182084837
31
0
0
LINE
5
218
100
AcDbEntity
8
0
100
AcDbLine
10
710.65445509270717
20
540.39924182084837
30
0
11
695.59907729087831
21
562.60009316380524
31
0
0
SPLINE
5
219
100
AcDbEntity
8
0
100
AcDbSpline
70
4
71
3
72
8
73
4
74
0
42
0.000000001
43
0.0000000001
44
0.0000000001
40
0
40
0
40
0
40
0
40
1
40
1
40
1
40
1
41
1
41
1
41
1
41
1
10
695.59907729087831
20
562.60009316380524
30
0
10
687.31876095375924
20
574.80978978307178
30
0
10
665.13491886100132
20
607.46069776766217
30
0
10
646.30198021949525
20
635.15836600261014
30
0
0
SPLINE
5
220
100
AcDbEntity
8
0
100
AcDbSpline
70
4
71
3
72
8
73
4
74
0
42
0.000000001
43
0.0000000001
44
0.0000000001
40
0
40
0
40
0
40
0
40
1
40
1
40
1
40
1
41
1
41
1
41
1
41
1
10
646.30198021949525
20
635.15836600261014
30
0
10
627.46901838882752
20
662.85604003484855
30
0
10
606.22419821502615
20
694.1508168494388
30
0
10
599.09002939028824
20
704.7023115808322
30
0
0
SPLINE
5
221
100
AcDbEntity
8
0
100
AcDbSpline
70
4
71
3
72
8
73
4
74
0
42
0.000000001
43
0.0000000001
44
0.0000000001
40
0
40
0
40
0
40
0
40
1
40
1
40
1
40
1
41
1
41
1
41
1
41
1
10
599.09002939028824
20
704.7023115808322
30
0
10
579.23827492398448
20
734.06329201519054
30
0
10
577.24878397433838
20
736.59937324889995
30
0
10
571.95254173755586
20
739.28318393666302
30
0
0
SPLINE
5
222
100
AcDbEntity
8
0
100
AcDbSpline
70
4
71
3
72
8
73
4
74
0
42
0.000000001
43
0.0000000001
44
0.0000000001
40
-1
40
-1
40
-1
40
-1
40
0
40
0
40
0
40
0
41
1
41
1
41
1
41
1
10
693.56821687653564
20
469.05291574110379
30
0
10
701.80120413436896
20
468.84075809956346
30
0
10
707.72900319346547
20
466.06749666938157
30
0
10
714.02110398483853
20
459.70425152952816
30
0
0
SPLINE
5
223
100
AcDbEntity
8
0
100
AcDbSpline
70
4
71
3
72
8
73
4
74
0
42
0.000000001
43
0.0000000001
44
0.0000000001
40
-1
40
-1
40
-1
40
-1
40
0
40
0
40
0
40
0
41
1
41
1
41
1
41
1
10
714.02110398483853
20
459.70425152952816
30
0
10
723.74473694313053
20
449.8706787550222
30
0
10
728.61144633542153
20
437.24434246523913
30
0
10
728.65680433595207
20
421.73424838917634
30
0
0
SPLINE
5
224
100
AcDbEntity
8
0
100
AcDbSpline
70
4
71
3
72
8
73
4
74
0
42
0.000000001
43
0.0000000001
44
0.0000000001
40
-1
40
-1
40
-1
40
-1
40
0
40
0
40
0
40
0
41
1
41
1
41
1
41
1
10
728.65680433595207
20
421.73424838917634
30
0
10
728.73295754338653
20
395.71334206749754
30
0
10
713.65666311759105
20
375.52490416065109
30
0
10
693.44081562146698
20
374.57850808823395
30
0
0
SPLINE
5
225
100
AcDbEntity
8
0
100
AcDbSpline
70
4
71
3
72
8
73
4
74
0
42
0.000000001
43
0.0000000001
44
0.0000000001
40
-1
40
-1
40
-1
40
-1
40
0
40
0
40
0
40
0
41
1
41
1
41
1
41
1
10
693.44081562146698
20
374.57850808823395
30
0
10
689.44267947450714
20
374.39134836314139
30
0
10
685.0348140272547
20
374.79755291083643
30
0
10
682.66824411716607
20
375.57146799759641
30
0
0
SPLINE
5
226
100
AcDbEntity
8
0
100
AcDbSpline
70
4
71
3
72
8
73
4
74
0
42
0.000000001
43
0.0000000001
44
0.0000000001
40
-1
40
-1
40
-1
40
-1
40
0
40
0
40
0
40
0
41
1
41
1
41
1
41
1
10
682.66824411716607
20
375.57146799759641
30
0
10
673.62498116683071
20
378.52880499434809
30
0
10
665.34355174994425
20
386.34044518181435
30
0
10
660.3362464695058
20
396.6332329279482
30
0
0
SPLINE
5
227
100
AcDbEntity
8
0
100
AcDbSpline
70
4
71
3
72
8
73
4
74
0
42
0.000000001
43
0.0000000001
44
0.0000000001
40
-1
40
-1
40
-1
40
-1
40
0
40
0
40
0
40
0
41
1
41
1
41
1
41
1
10
660.3362464695058
20
396.6332329279482
30
0
10
652.46181003181641
20
412.81949977367708
30
0
10
652.5321195704712
20
433.3971909509242
30
0
10
660.5123449644077
20
448.36964431006578
30
0
0
SPLINE
5
228
100
AcDbEntity
8
0
100
AcDbSpline
70
4
71
3
72
8
73
4
74
0
42
0.000000001
43
0.0000000001
44
0.0000000001
40
-1
40
-1
40
-1
40
-1
40
0
40
0
40
0
40
0
41
1
41
1
41
1
41
1
10
660.5123449644077
20
448.36964431006578
30
0
10
667.56785615223407
20
461.60713095975655
30
0
10
677.06750499645466
20
468.27591649582104
30
0
10
689.89055494600234
20
468.99113981400103
30
0
0
SPLINE
5
229
100
AcDbEntity
8
0
100
AcDbSpline
70
4
71
3
72
8
73
4
74
0
42
0.000000001
43
0.0000000001
44
0.0000000001
40
-1
40
-1
40
-1
40
-1
40
0
40
0
40
0
40
0
41
1
41
1
41
1
41
1
10
689.89055494600234
20
468.99113981400103
30
0
10
691.16850965419871
20
469.06249286493767
30
0
10
692.3921089670763
20
469.0832239756096
30
0
10
693.56821687653564
20
469.05291574110379
30
0
0
SPLINE
5
230
100
AcDbEntity
8
0
100
AcDbSpline
70
4
71
3
72
8
73
4
74
0
42
0.000000001
43
0.0000000001
44
0.0000000001
40
-1
40
-1
40
-1
40
-1
40
0
40
0
40
0
40
0
41
1
41
1
41
1
41
1
10
678.81262855878504
20
518.70789114693764
30
0
10
677.18416966959808
20
518.1889177052858
30
0
10
676.5570883555165
20
517.01232282342812
30
0
10
676.05297916659447
20
513.52768747592927
30
0
0
SPLINE
5
231
100
AcDbEntity
8
0
100
AcDbSpline
70
4
71
3
72
8
73
4
74
0
42
0.000000001
43
0.0000000001
44
0.0000000001
40
-1
40
-1
40
-1
40
-1
40
0
40
0
40
0
40
0
41
1
41
1
41
1
41
1
10
676.05297916659447
20
513.52768747592927
30
0
10
675.69428921147971
20
511.04827910439849
30
0
10
674.92992805939161
20
508.4324025155255
30
0
10
674.35560208846277
20
507.71425736295555
30
0
0
SPLINE
5
232
100
AcDbEntity
8
0
100
AcDbSpline
70
4
71
3
72
8
73
4
74
0
42
0.000000001
43
0.0000000001
44
0.0000000001
40
-1
40
-1
40
-1
40
-1
40
0
40
0
40
0
40
0
41
1
41
1
41
1
41
1
10
674.35560208846277
20
507.71425736295555
30
0
10
673.78127611753371
20
506.99608902122372
30
0
10
669.65696774108198
20
504.67292922207236
30
0
10
665.19050328189678
20
502.5509122125942
30
0
0
LINE
5
233
100
AcDbEntity
8
0
100
AcDbLine
10
665.19050328189689
20
502.5509122125942
30
0
11
657.07079507958053
21
498.69151682083555
31
0
0
LINE
5
234
100
AcDbEntity
8
0
100
AcDbLine
10
657.07079507958053
20
498.69151682083555
30
0
11
653.64605733707651
21
502.67267850133919
31
0
0
SPLINE
5
235
100
AcDbEntity
8
0
100
AcDbSpline
70
4
71
3
72
8
73
4
74
0
42
0.000000001
43
0.0000000001
44
0.0000000001
40
-1
40
-1
40
-1
40
-1
40
0
40
0
40
0
40
0
41
1
41
1
41
1
41
1
10
653.64605733707663
20
502.67267850133925
30
0
10
651.76302782937091
20
504.86154986435992
30
0
10
649.72569763887896
20
506.64565440771867
30
0
10
649.11784013995032
20
506.63698166119593
30
0
0
SPLINE
5
236
100
AcDbEntity
8
0
100
AcDbSpline
70
4
71
3
72
8
73
4
74
0
42
0.000000001
43
0.0000000001
44
0.0000000001
40
-1
40
-1
40
-1
40
-1
40
0
40
0
40
0
40
0
41
1
41
1
41
1
41
1
10
649.11784013995032
20
506.63698166119593
30
0
10
647.69873300372296
20
506.61787379185182
30
0
10
631.57356959940398
20
489.54640707176293
30
0
10
629.35439000187762
20
485.71384154023627
30
0
0
SPLINE
5
237
100
AcDbEntity
8
0
100
AcDbSpline
70
4
71
3
72
8
73
4
74
0
42
0.000000001
43
0.0000000001
44
0.0000000001
40
-1
40
-1
40
-1
40
-1
40
0
40
0
40
0
40
0
41
1
41
1
41
1
41
1
10
629.35439000187762
20
485.71384154023627
30
0
10
627.6721786355796
20
482.80868015759165
30
0
10
627.6738946335546
20
482.79715514416444
30
0
10
630.98618813036728
20
478.45781367010602
30
0
0
LINE
5
238
100
AcDbEntity
8
0
100
AcDbLine
10
630.98618813036728
20
478.45781367010602
30
0
11
634.3041397826654
21
474.11318506715128
31
0
0
LINE
5
239
100
AcDbEntity
8
0
100
AcDbLine
10
634.3041397826654
20
474.11318506715128
30
0
11
631.80863813282792
21
468.06556760890311
31
0
0
SPLINE
5
240
100
AcDbEntity
8
0
100
AcDbSpline
70
4
71
3
72
8
73
4
74
0
42
0.000000001
43
0.0000000001
44
0.0000000001
40
-1
40
-1
40
-1
40
-1
40
0
40
0
40
0
40
0
41
1
41
1
41
1
41
1
10
631.80863813282781
20
468.06556760890305
30
0
10
630.43634991432589
20
464.73959250661335
30
0
10
628.17304134184587
20
458.36475278584726
30
0
10
626.77832920385879
20
453.90009708128451
30
0
0
LINE
5
241
100
AcDbEntity
8
0
100
AcDbLine
10
626.77832920385868
20
453.90009708128451
30
0
11
624.24162041345744
21
445.78226720107608
31
0
0
LINE
5
242
100
AcDbEntity
8
0
100
AcDbLine
10
624.24162041345744
20
445.78226720107608
30
0
11
619.96630421519876
21
444.74622182904204
31
0
0
SPLINE
5
243
100
AcDbEntity
8
0
100
AcDbSpline
70
4
71
3
72
8
73
4
74
0
42
0.000000001
43
0.0000000001
44
0.0000000001
40
-1
40
-1
40
-1
40
-1
40
0
40
0
40
0
40
0
41
1
41
1
41
1
41
1
10
619.96630421519876
20
444.74622182904204
30
0
10
614.23756092121141
20
443.35737654899674
30
0
10
613.4118180577716
20
440.781965047509
30
0
10
613.36038449684293
20
424.12848296932253
30
0
0
SPLINE
5
244
100
AcDbEntity
8
0
100
AcDbSpline
70
4
71
3
72
8
73
4
74
0
42
0.000000001
43
0.0000000001
44
0.0000000001
40
-1
40
-1
40
-1
40
-1
40
0
40
0
40
0
40
0
41
1
41
1
41
1
41
1
10
613.36038449684293
20
424.12848296932253
30
0
10
613.31282352593905
20
408.71397461830389
30
0
10
614.03472532272474
20
406.52403655383927
30
0
10
619.30685083120898
20
406.08490339635216
30
0
0
SPLINE
5
245
100
AcDbEntity
8
0
100
AcDbSpline
70
4
71
3
72
8
73
4
74
0
42
0.000000001
43
0.0000000001
44
0.0000000001
40
-1
40
-1
40
-1
40
-1
40
0
40
0
40
0
40
0
41
1
41
1
41
1
41
1
10
619.30685083120898
20
406.08490339635216
30
0
10
623.4119585816693
20
405.74297920523702
30
0
10
623.97724077948635
20
404.95306359681757
30
0
10
626.11324085354522
20
396.56009431155098
30
0
0
SPLINE
5
246
100
AcDbEntity
8
0
100
AcDbSpline
70
4
71
3
72
8
73
4
74
0
42
0.000000001
43
0.0000000001
44
0.0000000001
40
-1
40
-1
40
-1
40
-1
40
0
40
0
40
0
40
0
41
1
41
1
41
1
41
1
10
626.11324085354522
20
396.56009431155098
30
0
10
626.95120440526682
20
393.26744203480445
30
0
10
629.09075242108497
20
386.70131491814084
30
0
10
630.86815529667615
20
381.969357745217
30
0
0
LINE
5
247
100
AcDbEntity
8
0
100
AcDbLine
10
630.86815529667626
20
381.96935774521705
30
0
11
634.09993602363113
21
373.36629465381259
31
0
0
LINE
5
248
100
AcDbEntity
8
0
100
AcDbLine
10
634.09993602363113
20
373.36629465381259
30
0
11
631.38149377200443
21
370.76027345871529
31
0
0
SPLINE
5
249
100
AcDbEntity
8
0
100
AcDbSpline
70
4
71
3
72
8
73
4
74
0
42
0.000000001
43
0.0000000001
44
0.0000000001
40
-1
40
-1
40
-1
40
-1
40
0
40
0
40
0
40
0
41
1
41
1
41
1
41
1
10
631.38149377200443
20
370.76027345871529
30
0
10
627.12528544308998
20
366.68257529753248
30
0
10
627.09122056436843
20
365.1375046342697
30
0
10
631.11732284048981
20
359.06783428312553
30
0
0
SPLINE
5
250
100
AcDbEntity
8
0
100
AcDbSpline
70
4
71
3
72
8
73
4
74
0
42
0.000000001
43
0.0000000001
44
0.0000000001
40
-1
40
-1
40
-1
40
-1
40
0
40
0
40
0
40
0
41
1
41
1
41
1
41
1
10
631.11732284048981
20
359.06783428312553
30
0
10
635.07137639081964
20
353.10673558764779
30
0
10
644.32784049497764
20
342.99357108901319
30
0
10
647.27242345272543
20
341.4176820296845
30
0
0
SPLINE
5
251
100
AcDbEntity
8
0
100
AcDbSpline
70
4
71
3
72
8
73
4
74
0
42
0.000000001
43
0.0000000001
44
0.0000000001
40
-1
40
-1
40
-1
40
-1
40
0
40
0
40
0
40
0
41
1
41
1
41
1
41
1
10
647.27242345272543
20
341.4176820296845
30
0
10
648.8406832778137
20
340.5783735065769
30
0
10
649.66997408301256
20
341.03779718066119
30
0
10
652.55565656972385
20
344.3515747838307
30
0
0
LINE
5
252
100
AcDbEntity
8
0
100
AcDbLine
10
652.55565656972396
20
344.3515747838307
30
0
11
655.97851599011983
21
348.28403922450121
31
0
0
LINE
5
253
100
AcDbEntity
8
0
100
AcDbLine
10
655.97851599011983
20
348.28403922450121
30
0
11
665.09118410179872
21
343.02515472741936
31
0
0
SPLINE
5
254
100
AcDbEntity
8
0
100
AcDbSpline
70
4
71
3
72
8
73
4
74
0
42
0.000000001
43
0.0000000001
44
0.0000000001
40
-1
40
-1
40
-1
40
-1
40
0
40
0
40
0
40
0
41
1
41
1
41
1
41
1
10
665.09118410179872
20
343.02515472741936
30
0
10
674.14699238868161
20
337.79924521845322
30
0
10
674.20918572069741
20
337.73797945291057
30
0
10
674.98133843115863
20
333.25491155385851
30
0
0
SPLINE
5
255
100
AcDbEntity
8
0
100
AcDbSpline
70
4
71
3
72
8
73
4
74
0
42
0.000000001
43
0.0000000001
44
0.0000000001
40
-1
40
-1
40
-1
40
-1
40
0
40
0
40
0
40
0
41
1
41
1
41
1
41
1
10
674.98133843115863
20
333.25491155385851
30
0
10
675.40869149443836
20
330.77371761686715
30
0
10
676.20104196484954
20
328.20992388545386
30
0
10
676.74241613682489
20
327.55761276330611
30
0
0
SPLINE
5
256
100
AcDbEntity
8
0
100
AcDbSpline
70
4
71
3
72
8
73
4
74
0
42
0.000000001
43
0.0000000001
44
0.0000000001
40
-1
40
-1
40
-1
40
-1
40
0
40
0
40
0
40
0
41
1
41
1
41
1
41
1
10
676.74241613682489
20
327.55761276330611
30
0
10
678.8061124043121
20
325.07103894077136
30
0
10
700.91055480698003
20
325.66157413581629
30
0
10
702.54599363387626
20
328.24707292269812
30
0
0
SPLINE
5
257
100
AcDbEntity
8
0
100
AcDbSpline
70
4
71
3
72
8
73
4
74
0
42
0.000000001
43
0.0000000001
44
0.0000000001
40
-1
40
-1
40
-1
40
-1
40
0
40
0
40
0
40
0
41
1
41
1
41
1
41
1
10
702.54599363387626
20
328.24707292269812
30
0
10
703.03227035735426
20
329.01584001553289
30
0
10
703.43761690606186
20
330.86076973035961
30
0
10
703.44526932946428
20
332.34626743689307
30
0
0
SPLINE
5
258
100
AcDbEntity
8
0
100
AcDbSpline
70
4
71
3
72
8
73
4
74
0
42
0.000000001
43
0.0000000001
44
0.0000000001
40
-1
40
-1
40
-1
40
-1
40
0
40
0
40
0
40
0
41
1
41
1
41
1
41
1
10
703.44526932946428
20
332.34626743689307
30
0
10
703.46743816816922
20
336.42969332104667
30
0
10
704.9894356154158
20
338.47956884808605
30
0
10
708.96832475806059
20
339.78961735624864
30
0
0
SPLINE
5
259
100
AcDbEntity
8
0
100
AcDbSpline
70
4
71
3
72
8
73
4
74
0
42
0.000000001
43
0.0000000001
44
0.0000000001
40
-1
40
-1
40
-1
40
-1
40
0
40
0
40
0
40
0
41
1
41
1
41
1
41
1
10
708.96832475806059
20
339.78961735624864
30
0
10
710.95076620251177
20
340.44234588330932
30
0
10
715.34501961177284
20
342.21863567913289
30
0
10
718.73295615445977
20
343.7370619954583
30
0
0
LINE
5
260
100
AcDbEntity
8
0
100
AcDbLine
10
718.73295615446
20
343.73706199545836
30
0
11
724.89297148007563
21
346.49856652059475
31
0
0
LINE
5
261
100
AcDbEntity
8
0
100
AcDbLine
10
724.89297148007563
20
346.49856652059475
30
0
11
728.55004143490805
21
342.92771386942911
31
0
0
LINE
5
262
100
AcDbEntity
8
0
100
AcDbLine
10
728.55004143490805
20
342.92771386942911
30
0
11
732.2089665226863
21
339.35495970699384
31
0
0
LINE
5
263
100
AcDbEntity
8
0
100
AcDbLine
10
732.2089665226863
20
339.35495970699384
30
0
11
734.70444498336201
21
341.69493164846864
31
0
0
SPLINE
5
264
100
AcDbEntity
8
0
100
AcDbSpline
70
4
71
3
72
8
73
4
74
0
42
0.000000001
43
0.0000000001
44
0.0000000001
40
-1
40
-1
40
-1
40
-1
40
0
40
0
40
0
40
0
41
1
41
1
41
1
41
1
10
734.70444498336201
20
341.69493164846864
30
0
10
737.83131794221902
20
344.62585618990124
30
0
10
745.50924942260031
20
355.04284508677182
30
0
10
748.97857992329432
20
361.06119782279643
30
0
0
LINE
5
265
100
AcDbEntity
8
0
100
AcDbLine
10
748.97857992329421
20
361.06119782279643
30
0
11
751.60521628325444
21
365.61752028405493
31
0
0
LINE
5
266
100
AcDbEntity
8
0
100
AcDbLine
10
751.60521628325444
20
365.61752028405493
30
0
11
748.76876438709837
21
369.15465589392636
31
0
0
LINE
5
267
100
AcDbEntity
8
0
100
AcDbLine
10
748.76876438709837
20
369.15465589392636
30
0
11
745.93226611261866
21
372.69181469295978
31
0
0
LINE
5
268
100
AcDbEntity
8
0
100
AcDbLine
10
745.93226611261866
20
372.69181469295978
30
0
11
748.32844858235808
21
378.02564656106119
31
0
0
SPLINE
5
269
100
AcDbEntity
8
0
100
AcDbSpline
70
4
71
3
72
8
73
4
74
0
42
0.000000001
43
0.0000000001
44
0.0000000001
40
-1
40
-1
40
-1
40
-1
40
0
40
0
40
0
40
0
41
1
41
1
41
1
41
1
10
748.32844858235819
20
378.02564656106119
30
0
10
749.64642778386519
20
380.95993353095844
30
0
10
751.85417512461163
20
386.81457078449597
30
0
10
753.23513608963617
20
391.03516056084663
30
0
0
SPLINE
5
270
100
AcDbEntity
8
0
100
AcDbSpline
70
4
71
3
72
8
73
4
74
0
42
0.000000001
43
0.0000000001
44
0.0000000001
40
-1
40
-1
40
-1
40
-1
40
0
40
0
40
0
40
0
41
1
41
1
41
1
41
1
10
753.23513608963617
20
391.03516056084663
30
0
10
755.73998297168941
20
398.69059855425718
30
0
10
755.75524144017049
20
398.71003107186687
30
0
10
759.33708575404125
20
399.00685234323163
30
0
0
SPLINE
5
271
100
AcDbEntity
8
0
100
AcDbSpline
70
4
71
3
72
8
73
4
74
0
42
0.000000001
43
0.0000000001
44
0.0000000001
40
-1
40
-1
40
-1
40
-1
40
0
40
0
40
0
40
0
41
1
41
1
41
1
41
1
10
759.33708575404125
20
399.00685234323163
30
0
10
763.96221045843561
20
399.39014599904328
30
0
10
764.57584205865874
20
400.63807074267572
30
0
10
765.875594578971
20
412.28802737380136
30
0
0
SPLINE
5
272
100
AcDbEntity
8
0
100
AcDbSpline
70
4
71
3
72
8
73
4
74
0
42
0.000000001
43
0.0000000001
44
0.0000000001
40
-1
40
-1
40
-1
40
-1
40
0
40
0
40
0
40
0
41
1
41
1
41
1
41
1
10
765.875594578971
20
412.28802737380136
30
0
10
767.58287342920221
20
427.59083353230716
30
0
10
765.90731735234817
20
434.6799921939421
30
0
10
760.58299304059506
20
434.6799921939421
30
0
0
SPLINE
5
273
100
AcDbEntity
8
0
100
AcDbSpline
70
4
71
3
72
8
73
4
74
0
42
0.000000001
43
0.0000000001
44
0.0000000001
40
-1
40
-1
40
-1
40
-1
40
0
40
0
40
0
40
0
41
1
41
1
41
1
41
1
10
760.58299304059506
20
434.6799921939421
30
0
10
757.55017532210161
20
434.6799921939421
30
0
10
756.70720291142572
20
436.0188880194155
30
0
10
754.84260878737109
20
443.79263711645905
30
0
0
SPLINE
5
274
100
AcDbEntity
8
0
100
AcDbSpline
70
4
71
3
72
8
73
4
74
0
42
0.000000001
43
0.0000000001
44
0.0000000001
40
-1
40
-1
40
-1
40
-1
40
0
40
0
40
0
40
0
41
1
41
1
41
1
41
1
10
754.84260878737109
20
443.79263711645905
30
0
10
753.95682918396551
20
447.48565027212067
30
0
10
752.14376137748684
20
453.84381698553443
30
0
10
750.81460499998002
20
457.92248909151385
30
0
0
LINE
5
275
100
AcDbEntity
8
0
100
AcDbLine
10
750.81460499998002
20
457.92248909151391
30
0
11
748.39778417621596
21
465.33963525800675
31
0
0
LINE
5
276
100
AcDbEntity
8
0
100
AcDbLine
10
748.39778417621596
20
465.33963525800675
30
0
11
751.47215687270045
21
469.61868491131924
31
0
0
LINE
5
277
100
AcDbEntity
8
0
100
AcDbLine
10
751.47215687270045
20
469.61868491131924
30
0
11
754.54657594750859
21
473.89961288673965
31
0
0
LINE
5
278
100
AcDbEntity
8
0
100
AcDbLine
10
754.54657594750859
20
473.89961288673965
30
0
11
752.07920275096524
21
478.10935013535612
31
0
0
SPLINE
5
279
100
AcDbEntity
8
0
100
AcDbSpline
70
4
71
3
72
8
73
4
74
0
42
0.000000001
43
0.0000000001
44
0.0000000001
40
-1
40
-1
40
-1
40
-1
40
0
40
0
40
0
40
0
41
1
41
1
41
1
41
1
10
752.07920275096512
20
478.10935013535612
30
0
10
748.73416615765495
20
483.8171999945389
30
0
10
737.89921580804389
20
498.0845405100564
30
0
10
736.50299637453804
20
498.62032609403161
30
0
0
SPLINE
5
280
100
AcDbEntity
8
0
100
AcDbSpline
70
4
71
3
72
8
73
4
74
0
42
0.000000001
43
0.0000000001
44
0.0000000001
40
-1
40
-1
40
-1
40
-1
40
0
40
0
40
0
40
0
41
1
41
1
41
1
41
1
10
736.50299637453804
20
498.62032609403161
30
0
10
735.88342834888772
20
498.85808457022722
30
0
10
733.63315208535357
20
498.14397433181483
30
0
10
731.50267103180909
20
497.03349175032133
30
0
0
LINE
5
281
100
AcDbEntity
8
0
100
AcDbLine
10
731.50267103180909
20
497.03349175032122
30
0
11
727.62827225234923
21
495.01573321241005
31
0
0
LINE
5
282
100
AcDbEntity
8
0
100
AcDbLine
10
727.62827225234923
20
495.01573321241005
30
0
11
722.49864414328215
21
498.26061581579637
31
0
0
SPLINE
5
283
100
AcDbEntity
8
0
100
AcDbSpline
70
4
71
3
72
8
73
4
74
0
42
0.000000001
43
0.0000000001
44
0.0000000001
40
-1
40
-1
40
-1
40
-1
40
0
40
0
40
0
40
0
41
1
41
1
41
1
41
1
10
722.49864414328215
20
498.26061581579637
30
0
10
719.6773579589601
20
500.04518414239169
30
0
10
714.87302741197914
20
502.52524181045351
30
0
10
711.8235134969716
20
503.77242450090762
30
0
0
SPLINE
5
284
100
AcDbEntity
8
0
100
AcDbSpline
70
4
71
3
72
8
73
4
74
0
42
0.000000001
43
0.0000000001
44
0.0000000001
40
-1
40
-1
40
-1
40
-1
40
0
40
0
40
0
40
0
41
1
41
1
41
1
41
1
10
711.8235134969716
20
503.77242450090762
30
0
10
705.99037259644638
20
506.15805590201654
30
0
10
705.63219280289161
20
506.69370235102076
30
0
10
705.15389315108132
20
513.7525063998263
30
0
0
SPLINE
5
285
100
AcDbEntity
8
0
100
AcDbSpline
70
4
71
3
72
8
73
4
74
0
42
0.000000001
43
0.0000000001
44
0.0000000001
40
-1
40
-1
40
-1
40
-1
40
0
40
0
40
0
40
0
41
1
41
1
41
1
41
1
10
705.15389315108132
20
513.7525063998263
30
0
10
704.932158385707
20
517.0250072949467
30
0
10
704.51707238903293
20
517.63972878577545
30
0
10
702.02140841506264
20
518.37628613283482
30
0
0
SPLINE
5
286
100
AcDbEntity
8
0
100
AcDbSpline
70
4
71
3
72
8
73
4
74
0
42
0.000000001
43
0.0000000001
44
0.0000000001
40
-1
40
-1
40
-1
40
-1
40
0
40
0
40
0
40
0
41
1
41
1
41
1
41
1
10
702.02140841506264
20
518.37628613283482
30
0
10
700.27878928220957
20
518.89059855295977
30
0
10
695.21028780371398
20
519.20771034092172
30
0
10
690.21093640578169
20
519.2792952834767
30
0
0
SPLINE
5
287
100
AcDbEntity
8
0
100
AcDbSpline
70
4
71
3
72
8
73
4
74
0
42
0.000000001
43
0.0000000001
44
0.0000000001
40
-1
40
-1
40
-1
40
-1
40
0
40
0
40
0
40
0
41
1
41
1
41
1
41
1
10
690.21093640578169
20
519.2792952834767
30
0
10
685.21158500784952
20
519.35083384770792
30
0
10
680.28228806779168
20
519.17626583748654
30
0
10
678.81262855878504
20
518.70789114693764
30
0
0
SPLINE
5
288
100
AcDbEntity
8
0
100
AcDbSpline
70
4
71
3
72
8
73
4
74
0
42
0.000000001
43
0.0000000001
44
0.0000000001
40
0
40
0
40
0
40
0
40
1
40
1
40
1
40
1
41
1
41
1
41
1
41
1
10
916.00153256158342
20
732.59652245547636
30
0
10
908.01124307141447
20
735.00693437464088
30
0
10
895.67191903754406
20
736.16677798572493
30
0
10
885.56093432012119
20
735.72275336441533
30
0
0
SPLINE
5
289
100
AcDbEntity
8
0
100
AcDbSpline
70
4
71
3
72
8
73
4
74
0
42
0.000000001
43
0.0000000001
44
0.0000000001
40
0
40
0
40
0
40
0
40
1
40
1
40
1
40
1
41
1
41
1
41
1
41
1
10
885.56093432012119
20
735.72275336441533
30
0
10
882.19057516209773
20
735.57475433635534
30
0
10
879.06731971248541
20
735.24856399153873
30
0
10
876.43567449357101
20
734.73081957546356
30
0
0
SPLINE
5
290
100
AcDbEntity
8
0
100
AcDbSpline
70
4
71
3
72
8
73
4
74
0
42
0.000000001
43
0.0000000001
44
0.0000000001
40
0
40
0
40
0
40
0
40
1
40
1
40
1
40
1
41
1
41
1
41
1
41
1
10
876.43567449357101
20
734.73081957546356
30
0
10
852.2074990834501
20
729.96421924409537
30
0
10
840.46107553913089
20
716.19441668876732
30
0
10
840.47248460674894
20
692.57360600788604
30
0
0
SPLINE
5
291
100
AcDbEntity
8
0
100
AcDbSpline
70
4
71
3
72
8
73
4
74
0
42
0.000000001
43
0.0000000001
44
0.0000000001
40
0
40
0
40
0
40
0
40
1
40
1
40
1
40
1
41
1
41
1
41
1
41
1
10
840.47248460674894
20
692.57360600788604
30
0
10
840.47856016714718
20
679.26419817279395
30
0
10
843.33407355432371
20
672.27521669024463
30
0
10
851.80725415034419
20
664.83565819884745
30
0
0
SPLINE
5
292
100
AcDbEntity
8
0
100
AcDbSpline
70
4
71
3
72
8
73
4
74
0
42
0.000000001
43
0.0000000001
44
0.0000000001
40
0
40
0
40
0
40
0
40
1
40
1
40
1
40
1
41
1
41
1
41
1
41
1
10
851.80725415034419
20
664.83565819884745
30
0
10
858.21618193899349
20
659.20855300114056
30
0
10
864.73126971047941
20
656.27372108594034
30
0
10
888.41969418995313
20
648.34334079534733
30
0
0
SPLINE
5
293
100
AcDbEntity
8
0
100
AcDbSpline
70
4
71
3
72
8
73
4
74
0
42
0.000000001
43
0.0000000001
44
0.0000000001
40
0
40
0
40
0
40
0
40
1
40
1
40
1
40
1
41
1
41
1
41
1
41
1
10
888.41969418995313
20
648.34334079534733
30
0
10
908.9709497227193
20
641.46320923840631
30
0
10
913.24684565002372
20
639.13248977249987
30
0
10
915.32454817125335
20
633.66773189673245
30
0
0
SPLINE
5
294
100
AcDbEntity
8
0
100
AcDbSpline
70
4
71
3
72
8
73
4
74
0
42
0.000000001
43
0.0000000001
44
0.0000000001
40
0
40
0
40
0
40
0
40
1
40
1
40
1
40
1
41
1
41
1
41
1
41
1
10
915.32454817125335
20
633.66773189673245
30
0
10
919.08221271008415
20
623.78434880262546
30
0
10
912.87122760677619
20
615.93733354879464
30
0
10
899.24184412223667
20
613.3525768150912
30
0
0
SPLINE
5
295
100
AcDbEntity
8
0
100
AcDbSpline
70
4
71
3
72
8
73
4
74
0
42
0.000000001
43
0.0000000001
44
0.0000000001
40
0
40
0
40
0
40
0
40
1
40
1
40
1
40
1
41
1
41
1
41
1
41
1
10
899.24184412223667
20
613.3525768150912
30
0
10
884.34368883758361
20
610.52719774370678
30
0
10
869.53346685457234
20
616.6520235162526
30
0
10
866.94546363821348
20
626.71026448510372
30
0
0
SPLINE
5
296
100
AcDbEntity
8
0
100
AcDbSpline
70
4
71
3
72
8
73
4
74
0
42
0.000000001
43
0.0000000001
44
0.0000000001
40
0
40
0
40
0
40
0
40
1
40
1
40
1
40
1
41
1
41
1
41
1
41
1
10
866.94546363821348
20
626.71026448510372
30
0
10
865.56524472636727
20
632.07455531726282
30
0
10
862.77136813132256
20
632.70902237938594
30
0
10
847.00366565654178
20
631.23528157789804
30
0
0
LINE
5
297
100
AcDbEntity
8
0
100
AcDbLine
10
847.00366565654178
20
631.23528157789792
30
0
11
836.62178515067478
21
630.26562677617005
31
0
0
LINE
5
298
100
AcDbEntity
8
0
100
AcDbLine
10
836.62178515067478
20
630.26562677617005
30
0
11
837.49388314860335
21
625.04124775188438
31
0
0
SPLINE
5
299
100
AcDbEntity
8
0
100
AcDbSpline
70
4
71
3
72
8
73
4
74
0
42
0.000000001
43
0.0000000001
44
0.0000000001
40
0
40
0
40
0
40
0
40
1
40
1
40
1
40
1
41
1
41
1
41
1
41
1
10
837.49388314860335
20
625.04124775188438
30
0
10
840.67052004873767
20
606.06477979326019
30
0
10
851.47982318536992
20
595.05140043798372
30
0
10
872.02491040109055
20
589.85543973151505
30
0
0
SPLINE
5
300
100
AcDbEntity
8
0
100
AcDbSpline
70
4
71
3
72
8
73
4
74
0
42
0.000000001
43
0.0000000001
44
0.0000000001
40
0
40
0
40
0
40
0
40
1
40
1
40
1
40
1
41
1
41
1
41
1
41
1
10
872.02491040109055
20
589.85543973151505
30
0
10
882.86301447670985
20
587.11442283085137
30
0
10
907.61943899321295
20
587.87049385758678
30
0
10
917.18858575542413
20
591.23467310398371
30
0
0
SPLINE
5
301
100
AcDbEntity
8
0
100
AcDbSpline
70
4
71
3
72
8
73
4
74
0
42
0.000000001
43
0.0000000001
44
0.0000000001
40
0
40
0
40
0
40
0
40
1
40
1
40
1
40
1
41
1
41
1
41
1
41
1
10
917.18858575542413
20
591.23467310398371
30
0
10
937.45623783906603
20
598.36006483097071
30
0
10
948.10706624378372
20
614.86061438691888
30
0
10
946.17758884494174
20
636.13922116949982
30
0
0
SPLINE
5
302
100
AcDbEntity
8
0
100
AcDbSpline
70
4
71
3
72
8
73
4
74
0
42
0.000000001
43
0.0000000001
44
0.0000000001
40
0
40
0
40
0
40
0
40
1
40
1
40
1
40
1
41
1
41
1
41
1
41
1
10
946.17758884494174
20
636.13922116949982
30
0
10
944.3334011832934
20
656.47717699450573
30
0
10
934.45022679164299
20
664.7428783623842
30
0
10
898.38917864191774
20
676.11196786548089
30
0
0
SPLINE
5
303
100
AcDbEntity
8
0
100
AcDbSpline
70
4
71
3
72
8
73
4
74
0
42
0.000000001
43
0.0000000001
44
0.0000000001
40
0
40
0
40
0
40
0
40
1
40
1
40
1
40
1
41
1
41
1
41
1
41
1
10
898.38917864191774
20
676.11196786548089
30
0
10
875.02294437684577
20
683.47871238874643
30
0
10
870.94100259904894
20
686.43958573267639
30
0
10
870.94100259904894
20
696.01752118721959
30
0
0
SPLINE
5
304
100
AcDbEntity
8
0
100
AcDbSpline
70
4
71
3
72
8
73
4
74
0
42
0.000000001
43
0.0000000001
44
0.0000000001
40
0
40
0
40
0
40
0
40
1
40
1
40
1
40
1
41
1
41
1
41
1
41
1
10
870.94100259904894
20
696.01752118721959
30
0
10
870.94100259904894
20
701.18333018602482
30
0
10
871.69706203120336
20
703.48502841590675
30
0
10
874.15084637891709
20
705.78362509539465
30
0
0
SPLINE
5
305
100
AcDbEntity
8
0
100
AcDbSpline
70
4
71
3
72
8
73
4
74
0
42
0.000000001
43
0.0000000001
44
0.0000000001
40
0
40
0
40
0
40
0
40
1
40
1
40
1
40
1
41
1
41
1
41
1
41
1
10
874.15084637891709
20
705.78362509539465
30
0
10
886.44907921803292
20
717.30408764959691
30
0
10
910.84602534791907
20
711.7288189245055
30
0
10
914.66133814304783
20
696.5274218693072
30
0
0
SPLINE
5
306
100
AcDbEntity
8
0
100
AcDbSpline
70
4
71
3
72
8
73
4
74
0
42
0.000000001
43
0.0000000001
44
0.0000000001
40
0
40
0
40
0
40
0
40
1
40
1
40
1
40
1
41
1
41
1
41
1
41
1
10
914.66133814304783
20
696.5274218693072
30
0
10
915.51479205486885
20
693.12693999007263
30
0
10
915.62610003163059
20
693.10800024215177
30
0
10
928.5400514955337
20
694.08660026305392
30
0
0
SPLINE
5
307
100
AcDbEntity
8
0
100
AcDbSpline
70
4
71
3
72
8
73
4
74
0
42
0.000000001
43
0.0000000001
44
0.0000000001
40
0
40
0
40
0
40
0
40
1
40
1
40
1
40
1
41
1
41
1
41
1
41
1
10
928.5400514955337
20
694.08660026305392
30
0
10
935.69998347905971
20
694.6291860687345
30
0
10
941.95952668722998
20
695.30137609985695
30
0
10
942.4494209199529
20
695.58007504125521
30
0
0
SPLINE
5
308
100
AcDbEntity
8
0
100
AcDbSpline
70
4
71
3
72
8
73
4
74
0
42
0.000000001
43
0.0000000001
44
0.0000000001
40
0
40
0
40
0
40
0
40
1
40
1
40
1
40
1
41
1
41
1
41
1
41
1
10
942.4494209199529
20
695.58007504125521
30
0
10
943.83362836763297
20
696.36748622019763
30
0
10
941.2004990423618
20
708.478828908227
30
0
10
938.14175584094778
20
715.39368333635639
30
0
0
SPLINE
5
309
100
AcDbEntity
8
0
100
AcDbSpline
70
4
71
3
72
8
73
4
74
0
42
0.000000001
43
0.0000000001
44
0.0000000001
40
0
40
0
40
0
40
0
40
1
40
1
40
1
40
1
41
1
41
1
41
1
41
1
10
938.14175584094778
20
715.39368333635639
30
0
10
934.84513821752898
20
722.84622775837579
30
0
10
926.29056366350153
20
729.49265749311792
30
0
10
916.00153256158342
20
732.59652245547636
30
0
0
LINE
5
310
100
AcDbEntity
8
0
100
AcDbLine
10
1074.7585693322471
20
730.0693096268426
30
0
11
1073.2650481757221
21
734.7559073499134
31
0
0
LINE
5
311
100
AcDbEntity
8
0
100
AcDbLine
10
1073.2650481757221
20
734.7559073499134
30
0
11
1058.912673003791
21
734.34909408672047
31
0
0
LINE
5
312
100
AcDbEntity
8
0
100
AcDbLine
10
1058.912673003791
20
734.34909408672047
30
0
11
1044.5629877746319
21
733.94508381346316
31
0
0
LINE
5
313
100
AcDbEntity
8
0
100
AcDbLine
10
1044.5629877746319
20
733.94508381346316
30
0
11
1033.5625595662348
21
691.14700297509876
31
0
0
SPLINE
5
314
100
AcDbEntity
8
0
100
AcDbSpline
70
4
71
3
72
8
73
4
74
0
42
0.000000001
43
0.0000000001
44
0.0000000001
40
0
40
0
40
0
40
0
40
1
40
1
40
1
40
1
41
1
41
1
41
1
41
1
10
1033.5625595662348
20
691.14700297509876
30
0
10
1019.0282886089456
20
634.59328091266843
30
0
10
1017.4853281594087
20
629.0897855420717
30
0
10
1016.1563572951967
20
629.0897855420717
30
0
0
SPLINE
5
315
100
AcDbEntity
8
0
100
AcDbSpline
70
4
71
3
72
8
73
4
74
0
42
0.000000001
43
0.0000000001
44
0.0000000001
40
0
40
0
40
0
40
0
40
1
40
1
40
1
40
1
41
1
41
1
41
1
41
1
10
1016.1563572951967
20
629.0897855420717
30
0
10
1015.5358153247496
20
629.0897855420717
30
0
10
1015.0278799241268
20
630.23018214232002
30
0
10
1015.0278799241268
20
631.62533487438168
30
0
0
SPLINE
5
316
100
AcDbEntity
8
0
100
AcDbSpline
70
4
71
3
72
8
73
4
74
0
42
0.000000001
43
0.0000000001
44
0.0000000001
40
0
40
0
40
0
40
0
40
1
40
1
40
1
40
1
41
1
41
1
41
1
41
1
10
1015.0278799241268
20
631.62533487438168
30
0
10
1015.0278799241268
20
633.8623005590282
30
0
10
1004.6692813367325
20
682.89874565420337
30
0
10
996.35109709835274
20
720.03569554785008
30
0
0
LINE
5
317
100
AcDbEntity
8
0
100
AcDbLine
10
996.35109709835262
20
720.03569554785008
30
0
11
993.39480361388325
21
733.23176780384324
31
0
0
LINE
5
318
100
AcDbEntity
8
0
100
AcDbLine
10
993.39480361388325
20
733.23176780384324
30
0
11
976.95266755657315
21
733.23176780384324
31
0
0
SPLINE
5
319
100
AcDbEntity
8
0
100
AcDbSpline
70
4
71
3
72
8
73
4
74
0
42
0.000000001
43
0.0000000001
44
0.0000000001
40
0
40
0
40
0
40
0
40
1
40
1
40
1
40
1
41
1
41
1
41
1
41
1
10
976.95266755657315
20
733.23176780384324
30
0
10
964.40375987812502
20
733.23176780384324
30
0
10
960.66622353175876
20
732.80958447432795
30
0
10
961.16251797314533
20
731.4485154621816
30
0
0
SPLINE
5
320
100
AcDbEntity
8
0
100
AcDbSpline
70
4
71
3
72
8
73
4
74
0
42
0.000000001
43
0.0000000001
44
0.0000000001
40
0
40
0
40
0
40
0
40
1
40
1
40
1
40
1
41
1
41
1
41
1
41
1
10
961.16251797314533
20
731.4485154621816
30
0
10
961.52014122681624
20
730.46772551480956
30
0
10
969.67164176999518
20
698.85064543865371
30
0
10
979.27649984141749
20
661.18834508385316
30
0
0
SPLINE
5
321
100
AcDbEntity
8
0
100
AcDbSpline
70
4
71
3
72
8
73
4
74
0
42
0.000000001
43
0.0000000001
44
0.0000000001
40
0
40
0
40
0
40
0
40
1
40
1
40
1
40
1
41
1
41
1
41
1
41
1
10
979.27649984141749
20
661.18834508385316
30
0
10
988.88131153451627
20
623.52603313447173
30
0
10
996.95248482113197
20
591.98302213983129
30
0
10
997.21489337634796
20
591.09253513657507
30
0
0
SPLINE
5
322
100
AcDbEntity
8
0
100
AcDbSpline
70
4
71
3
72
8
73
4
74
0
42
0.000000001
43
0.0000000001
44
0.0000000001
40
0
40
0
40
0
40
0
40
1
40
1
40
1
40
1
41
1
41
1
41
1
41
1
10
997.21489337634796
20
591.09253513657507
30
0
10
997.542092449704
20
589.98231923044261
30
0
10
1003.3412380389933
20
589.53397997571085
30
0
10
1015.6632165798183
20
589.66593790107811
30
0
0
LINE
5
323
100
AcDbEntity
8
0
100
AcDbLine
10
1015.6632165798181
20
589.665937901078
30
0
11
1033.6323125650056
21
589.85819924177224
31
0
0
LINE
5
324
100
AcDbEntity
8
0
100
AcDbLine
10
1033.6323125650056
20
589.85819924177224
30
0
11
1035.0143402314741
21
594.85131275517347
31
0
0
SPLINE
5
325
100
AcDbEntity
8
0
100
AcDbSpline
70
4
71
3
72
8
73
4
74
0
42
0.000000001
43
0.0000000001
44
0.0000000001
40
0
40
0
40
0
40
0
40
1
40
1
40
1
40
1
41
1
41
1
41
1
41
1
10
1035.0143402314741
20
594.85131275517347
30
0
10
1035.773924416226
20
597.59751243350513
30
0
10
1041.3764722915598
20
618.9419648410892
30
0
10
1047.4664563484632
20
642.28307364932334
30
0
0
SPLINE
5
326
100
AcDbEntity
8
0
100
AcDbSpline
70
4
71
3
72
8
73
4
74
0
42
0.000000001
43
0.0000000001
44
0.0000000001
40
0
40
0
40
0
40
0
40
1
40
1
40
1
40
1
41
1
41
1
41
1
41
1
10
1047.4664563484632
20
642.28307364932334
30
0
10
1053.5564404053664
20
665.6241708629766
30
0
10
1058.8603118763895
20
684.71353525594748
30
0
10
1059.2526724944746
20
684.70499584710535
30
0
0
SPLINE
5
327
100
AcDbEntity
8
0
100
AcDbSpline
70
4
71
3
72
8
73
4
74
0
42
0.000000001
43
0.0000000001
44
0.0000000001
40
0
40
0
40
0
40
0
40
1
40
1
40
1
40
1
41
1
41
1
41
1
41
1
10
1059.2526724944746
20
684.70499584710535
30
0
10
1059.6449403559127
20
684.69596366857434
30
0
10
1065.6752818886011
20
663.51191649062685
30
0
10
1072.6522050070012
20
637.62990165370115
30
0
0
LINE
5
328
100
AcDbEntity
8
0
100
AcDbLine
10
1072.6522050070012
20
637.62990165370115
30
0
11
1085.3355634457128
21
590.5715094541016
31
0
0
LINE
5
329
100
AcDbEntity
8
0
100
AcDbLine
10
1085.3355634457128
20
590.5715094541016
30
0
11
1092.6245663039588
21
590.26223560283665
31
0
0
SPLINE
5
330
100
AcDbEntity
8
0
100
AcDbSpline
70
4
71
3
72
8
73
4
74
0
42
0.000000001
43
0.0000000001
44
0.0000000001
40
0
40
0
40
0
40
0
40
1
40
1
40
1
40
1
41
1
41
1
41
1
41
1
10
1092.6245663039588
20
590.26223560283665
30
0
10
1103.899971593281
20
589.78278808751611
30
0
10
1120.5961681075498
20
589.80722946408014
30
0
10
1120.5966318907863
20
590.30402247244592
30
0
0
SPLINE
5
331
100
AcDbEntity
8
0
100
AcDbSpline
70
4
71
3
72
8
73
4
74
0
42
0.000000001
43
0.0000000001
44
0.0000000001
40
0
40
0
40
0
40
0
40
1
40
1
40
1
40
1
41
1
41
1
41
1
41
1
10
1120.5966318907863
20
590.30402247244592
30
0
10
1120.5970029173754
20
590.73922506700364
30
0
10
1125.2338149593297
20
608.52568321365425
30
0
10
1135.5425104704759
20
647.63563076559876
30
0
0
SPLINE
5
332
100
AcDbEntity
8
0
100
AcDbSpline
70
4
71
3
72
8
73
4
74
0
42
0.000000001
43
0.0000000001
44
0.0000000001
40
0
40
0
40
0
40
0
40
1
40
1
40
1
40
1
41
1
41
1
41
1
41
1
10
1135.5425104704759
20
647.63563076559876
30
0
10
1145.947209111579
20
687.10922495599812
30
0
10
1157.6882527703547
20
732.72770934121297
30
0
10
1157.6882527703547
20
733.67758958519426
30
0
0
SPLINE
5
333
100
AcDbEntity
8
0
100
AcDbSpline
70
4
71
3
72
8
73
4
74
0
42
0.000000001
43
0.0000000001
44
0.0000000001
40
0
40
0
40
0
40
0
40
1
40
1
40
1
40
1
41
1
41
1
41
1
41
1
10
1157.6882527703547
20
733.67758958519426
30
0
10
1157.6882527703547
20
734.21768690394651
30
0
10
1150.6265964546449
20
734.65837953256641
30
0
10
1141.9956831798881
20
734.65837953256641
30
0
0
SPLINE
5
334
100
AcDbEntity
8
0
100
AcDbSpline
70
4
71
3
72
8
73
4
74
0
42
0.000000001
43
0.0000000001
44
0.0000000001
40
0
40
0
40
0
40
0
40
1
40
1
40
1
40
1
41
1
41
1
41
1
41
1
10
1141.9956831798881
20
734.65837953256641
30
0
10
1133.3646771484841
20
734.65837953256641
30
0
10
1126.3030208327741
20
734.33690093556822
30
0
10
1126.3030208327741
20
733.94229241810831
30
0
0
SPLINE
5
335
100
AcDbEntity
8
0
100
AcDbSpline
70
4
71
3
72
8
73
4
74
0
42
0.000000001
43
0.0000000001
44
0.0000000001
40
0
40
0
40
0
40
0
40
1
40
1
40
1
40
1
41
1
41
1
41
1
41
1
10
1126.3030208327741
20
733.94229241810831
30
0
10
1126.3030208327741
20
732.09852361069557
30
0
10
1103.2640320193818
20
629.82932269642561
30
0
10
1102.7278985979792
20
629.293189275023
30
0
0
SPLINE
5
336
100
AcDbEntity
8
0
100
AcDbSpline
70
4
71
3
72
8
73
4
74
0
42
0.000000001
43
0.0000000001
44
0.0000000001
40
0
40
0
40
0
40
0
40
1
40
1
40
1
40
1
41
1
41
1
41
1
41
1
10
1102.7278985979792
20
629.293189275023
30
0
10
1101.8688792873202
20
628.43423953184936
30
0
10
1102.0826833593501
20
627.69204721846643
30
0
10
1088.5120148325523
20
679.02087429776032
30
0
0
SPLINE
5
337
100
AcDbEntity
8
0
100
AcDbSpline
70
4
71
3
72
8
73
4
74
0
42
0.000000001
43
0.0000000001
44
0.0000000001
40
0
40
0
40
0
40
0
40
1
40
1
40
1
40
1
41
1
41
1
41
1
41
1
10
1088.5120148325523
20
679.02087429776032
30
0
10
1081.7699979234433
20
704.52143321994913
30
0
10
1075.5800685790728
20
727.49258214042129
30
0
10
1074.7585693322471
20
730.0693096268426
30
0
0
LWPOLYLINE
5
338
100
AcDbEntity
8
0
100
AcDbPolyline
90
4
70
1
43
0.0
10
1213.3257304680312
20
734.65826793472502
10
1181.9404057738034
20
734.65826793472502
10
1181.9404057738034
20
589.14479627279559
10
1213.3257304680315
20
589.14479627279559
0
SPLINE
5
339
100
AcDbEntity
8
0
100
AcDbSpline
70
4
71
3
72
8
73
4
74
0
42
0.000000001
43
0.0000000001
44
0.0000000001
40
0
40
0
40
0
40
0
40
1
40
1
40
1
40
1
41
1
41
1
41
1
41
1
10
1345.2476662561658
20
700.99388632849241
30
0
10
1341.4989063554756
20
724.57575371073312
30
0
10
1325.9314654822185
20
735.2952336290349
30
0
10
1295.355349779049
20
735.34659907180071
30
0
0
SPLINE
5
340
100
AcDbEntity
8
0
100
AcDbSpline
70
4
71
3
72
8
73
4
74
0
42
0.000000001
43
0.0000000001
44
0.0000000001
40
0
40
0
40
0
40
0
40
1
40
1
40
1
40
1
41
1
41
1
41
1
41
1
10
1295.355349779049
20
735.34659907180071
30
0
10
1275.6895492014228
20
735.37971319488736
30
0
10
1266.3424618528511
20
732.74222865516094
30
0
10
1257.0098445412589
20
724.52727386929212
30
0
0
SPLINE
5
341
100
AcDbEntity
8
0
100
AcDbSpline
70
4
71
3
72
8
73
4
74
0
42
0.000000001
43
0.0000000001
44
0.0000000001
40
0
40
0
40
0
40
0
40
1
40
1
40
1
40
1
41
1
41
1
41
1
41
1
10
1257.0098445412589
20
724.52727386929212
30
0
10
1247.332821798236
20
716.0092048532681
30
0
10
1244.3250947528377
20
709.32742179200045
30
0
10
1243.5825777911891
20
694.69121707661725
30
0
0
SPLINE
5
342
100
AcDbEntity
8
0
100
AcDbSpline
70
4
71
3
72
8
73
4
74
0
42
0.000000001
43
0.0000000001
44
0.0000000001
40
0
40
0
40
0
40
0
40
1
40
1
40
1
40
1
41
1
41
1
41
1
41
1
10
1243.5825777911891
20
694.69121707661725
30
0
10
1242.3414938502951
20
670.22566581147089
30
0
10
1250.6845832484755
20
661.69815880658393
30
0
10
1287.5675944282627
20
649.72257416781588
30
0
0
SPLINE
5
343
100
AcDbEntity
8
0
100
AcDbSpline
70
4
71
3
72
8
73
4
74
0
42
0.000000001
43
0.0000000001
44
0.0000000001
40
0
40
0
40
0
40
0
40
1
40
1
40
1
40
1
41
1
41
1
41
1
41
1
10
1287.5675944282627
20
649.72257416781588
30
0
10
1313.5096807888972
20
641.29945897217635
30
0
10
1318.8942969213963
20
637.6287421956099
30
0
10
1318.8942969213963
20
628.37647532974233
30
0
0
SPLINE
5
344
100
AcDbEntity
8
0
100
AcDbSpline
70
4
71
3
72
8
73
4
74
0
42
0.000000001
43
0.0000000001
44
0.0000000001
40
0
40
0
40
0
40
0
40
1
40
1
40
1
40
1
41
1
41
1
41
1
41
1
10
1318.8942969213963
20
628.37647532974233
30
0
10
1318.8942969213963
20
622.68252737307375
30
0
10
1315.4003395308437
20
617.8596918749563
30
0
10
1309.4821871630666
20
615.38659095544199
30
0
0
SPLINE
5
345
100
AcDbEntity
8
0
100
AcDbSpline
70
4
71
3
72
8
73
4
74
0
42
0.000000001
43
0.0000000001
44
0.0000000001
40
0
40
0
40
0
40
0
40
1
40
1
40
1
40
1
41
1
41
1
41
1
41
1
10
1309.4821871630666
20
615.38659095544199
30
0
10
1303.8546413712847
20
613.03527951383467
30
0
10
1287.9547606740994
20
612.75797192214588
30
0
10
1282.2513399448253
20
614.91291754141594
30
0
0
SPLINE
5
346
100
AcDbEntity
8
0
100
AcDbSpline
70
4
71
3
72
8
73
4
74
0
42
0.000000001
43
0.0000000001
44
0.0000000001
40
0
40
0
40
0
40
0
40
1
40
1
40
1
40
1
41
1
41
1
41
1
41
1
10
1282.2513399448253
20
614.91291754141594
30
0
10
1276.5459713259575
20
617.06851245721725
30
0
10
1270.6806902471421
20
623.08907975819625
30
0
10
1269.6320763493989
20
627.86378615094509
30
0
0
SPLINE
5
347
100
AcDbEntity
8
0
100
AcDbSpline
70
4
71
3
72
8
73
4
74
0
42
0.000000001
43
0.0000000001
44
0.0000000001
40
0
40
0
40
0
40
0
40
1
40
1
40
1
40
1
41
1
41
1
41
1
41
1
10
1269.6320763493989
20
627.86378615094509
30
0
10
1268.7534853861589
20
631.86364989046103
30
0
10
1268.5471018459132
20
631.94298001306561
30
0
10
1259.0411223605142
20
631.94298001306561
30
0
0
SPLINE
5
348
100
AcDbEntity
8
0
100
AcDbSpline
70
4
71
3
72
8
73
4
74
0
42
0.000000001
43
0.0000000001
44
0.0000000001
40
0
40
0
40
0
40
0
40
1
40
1
40
1
40
1
41
1
41
1
41
1
41
1
10
1259.0411223605142
20
631.94298001306561
30
0
10
1253.7091920036826
20
631.94298001306561
30
0
10
1247.3412626531403
20
631.54176113516303
30
0
10
1244.8893334383727
20
631.05135674088001
30
0
0
SPLINE
5
349
100
AcDbEntity
8
0
100
AcDbSpline
70
4
71
3
72
8
73
4
74
0
42
0.000000001
43
0.0000000001
44
0.0000000001
40
0
40
0
40
0
40
0
40
1
40
1
40
1
40
1
41
1
41
1
41
1
41
1
10
1244.8893334383727
20
631.05135674088001
30
0
10
1239.6829028253399
20
630.01005902369252
30
0
10
1239.2976844690968
20
627.69838945422566
30
0
10
1242.5294188177281
20
616.86614064196715
30
0
0
SPLINE
5
350
100
AcDbEntity
8
0
100
AcDbSpline
70
4
71
3
72
8
73
4
74
0
42
0.000000001
43
0.0000000001
44
0.0000000001
40
0
40
0
40
0
40
0
40
1
40
1
40
1
40
1
41
1
41
1
41
1
41
1
10
1242.5294188177281
20
616.86614064196715
30
0
10
1246.5595096296834
20
603.35770023092789
30
0
10
1257.487355761567
20
594.47833827637419
30
0
10
1275.7732156972886
20
589.84985114351514
30
0
0
SPLINE
5
351
100
AcDbEntity
8
0
100
AcDbSpline
70
4
71
3
72
8
73
4
74
0
42
0.000000001
43
0.0000000001
44
0.0000000001
40
0
40
0
40
0
40
0
40
1
40
1
40
1
40
1
41
1
41
1
41
1
41
1
10
1275.7732156972886
20
589.84985114351514
30
0
10
1287.8155329464996
20
586.80165901073167
30
0
10
1310.077684838742
20
587.86434872970301
30
0
10
1321.0343782879363
20
592.01204337585568
30
0
0
SPLINE
5
352
100
AcDbEntity
8
0
100
AcDbSpline
70
4
71
3
72
8
73
4
74
0
42
0.000000001
43
0.0000000001
44
0.0000000001
40
0
40
0
40
0
40
0
40
1
40
1
40
1
40
1
41
1
41
1
41
1
41
1
10
1321.0343782879363
20
592.01204337585568
30
0
10
1339.5256014407835
20
599.01185419697742
30
0
10
1350.0890067054195
20
615.71453208197647
30
0
10
1348.5049086828049
20
635.44818414710358
30
0
0
SPLINE
5
353
100
AcDbEntity
8
0
100
AcDbSpline
70
4
71
3
72
8
73
4
74
0
42
0.000000001
43
0.0000000001
44
0.0000000001
40
0
40
0
40
0
40
0
40
1
40
1
40
1
40
1
41
1
41
1
41
1
41
1
10
1348.5049086828049
20
635.44818414710358
30
0
10
1346.8538403608381
20
656.0161938492887
30
0
10
1335.4062787341243
20
666.01810834406592
30
0
10
1302.1765808649536
20
675.92524873446291
30
0
0
SPLINE
5
354
100
AcDbEntity
8
0
100
AcDbSpline
70
4
71
3
72
8
73
4
74
0
42
0.000000001
43
0.0000000001
44
0.0000000001
40
0
40
0
40
0
40
0
40
1
40
1
40
1
40
1
41
1
41
1
41
1
41
1
10
1302.1765808649536
20
675.92524873446291
30
0
10
1283.2688803657225
20
681.56238904194981
30
0
10
1277.8558806991491
20
684.22393088774754
30
0
10
1275.3190791521006
20
689.12967923397161
30
0
0
SPLINE
5
355
100
AcDbEntity
8
0
100
AcDbSpline
70
4
71
3
72
8
73
4
74
0
42
0.000000001
43
0.0000000001
44
0.0000000001
40
0
40
0
40
0
40
0
40
1
40
1
40
1
40
1
41
1
41
1
41
1
41
1
10
1275.3190791521006
20
689.12967923397161
30
0
10
1272.7023213750781
20
694.18941520929718
30
0
10
1272.6925819271114
20
698.06878806396844
30
0
10
1275.2772459041676
20
703.06691623361439
30
0
0
SPLINE
5
356
100
AcDbEntity
8
0
100
AcDbSpline
70
4
71
3
72
8
73
4
74
0
42
0.000000001
43
0.0000000001
44
0.0000000001
40
0
40
0
40
0
40
0
40
1
40
1
40
1
40
1
41
1
41
1
41
1
41
1
10
1275.2772459041676
20
703.06691623361439
30
0
10
1281.2121872251064
20
714.54383533919906
30
0
10
1307.6675888719074
20
714.33235887928743
30
0
10
1314.7289669176753
20
702.75207118622075
30
0
0
SPLINE
5
357
100
AcDbEntity
8
0
100
AcDbSpline
70
4
71
3
72
8
73
4
74
0
42
0.000000001
43
0.0000000001
44
0.0000000001
40
0
40
0
40
0
40
0
40
1
40
1
40
1
40
1
41
1
41
1
41
1
41
1
10
1314.7289669176753
20
702.75207118622075
30
0
10
1316.2288419045403
20
700.29227504830385
30
0
10
1317.4595371009366
20
697.15655542421041
30
0
10
1317.462319800356
20
695.78344978775419
30
0
0
SPLINE
5
358
100
AcDbEntity
8
0
100
AcDbSpline
70
4
71
3
72
8
73
4
74
0
42
0.000000001
43
0.0000000001
44
0.0000000001
40
0
40
0
40
0
40
0
40
1
40
1
40
1
40
1
41
1
41
1
41
1
41
1
10
1317.462319800356
20
695.78344978775419
30
0
10
1317.462319800356
20
692.94693412140316
30
0
10
1318.7794641920368
20
692.83157383861237
30
0
10
1335.1751291690489
20
694.21752627071999
30
0
0
LINE
5
359
100
AcDbEntity
8
0
100
AcDbLine
10
1335.1751291690489
20
694.21752627071987
30
0
11
1346.1782009418939
21
695.14816530767678
31
0
0
LINE
5
360
100
AcDbEntity
8
0
100
AcDbLine
10
1346.1782009418939
20
695.14816530767678
30
0
11
1345.2476662561658
21
700.99388632849241
31
0
0
LINE
5
361
100
AcDbEntity
8
0
100
AcDbLine
10
1141.5328275098536
20
552.05309423116069
30
0
11
1111.0700604296862
21
552.05309423116069
31
0
0
LINE
5
362
100
AcDbEntity
8
0
100
AcDbLine
10
1111.0700604296862
20
552.05309423116069
30
0
11
1116.4392789587332
21
536.00380576433417
31
0
0
SPLINE
5
363
100
AcDbEntity
8
0
100
AcDbSpline
70
4
71
3
72
8
73
4
74
0
42
0.000000001
43
0.0000000001
44
0.0000000001
40
0
40
0
40
0
40
0
40
1
40
1
40
1
40
1
41
1
41
1
41
1
41
1
10
1116.4392789587332
20
536.00380576433417
30
0
10
1119.3922795822236
20
527.17671218053499
30
0
10
1129.6073836362425
20
496.04108838084255
30
0
10
1139.1395204961807
20
466.81358476195112
30
0
0
LINE
5
364
100
AcDbEntity
8
0
100
AcDbLine
10
1139.1395204961807
20
466.81358476195112
30
0
11
1156.470543504581
21
413.6726522263944
31
0
0
LINE
5
365
100
AcDbEntity
8
0
100
AcDbLine
10
1156.470543504581
20
413.6726522263944
30
0
11
1192.6593639359639
21
413.6726522263944
31
0
0
LINE
5
366
100
AcDbEntity
8
0
100
AcDbLine
10
1192.6593639359639
20
413.6726522263944
30
0
11
1238.7622003442252
21
552.05309423116069
31
0
0
LINE
5
367
100
AcDbEntity
8
0
100
AcDbLine
10
1238.7622003442252
20
552.05309423116069
30
0
11
1209.2213415815875
21
552.05309423116069
31
0
0
LINE
5
368
100
AcDbEntity
8
0
100
AcDbLine
10
1209.2213415815875
20
552.05309423116069
30
0
11
1192.7290241780875
21
502.08300130528187
31
0
0
SPLINE
5
369
100
AcDbEntity
8
0
100
AcDbSpline
70
4
71
3
72
8
73
4
74
0
42
0.000000001
43
0.0000000001
44
0.0000000001
40
0
40
0
40
0
40
0
40
1
40
1
40
1
40
1
41
1
41
1
41
1
41
1
10
1192.7290241780875
20
502.08300130528187
30
0
10
1183.6574240720013
20
474.59920670984928
30
0
10
1176.2339240751683
20
451.16727754932612
30
0
10
1176.2339240751683
20
450.01201669634781
30
0
0
SPLINE
5
370
100
AcDbEntity
8
0
100
AcDbSpline
70
4
71
3
72
8
73
4
74
0
42
0.000000001
43
0.0000000001
44
0.0000000001
40
0
40
0
40
0
40
0
40
1
40
1
40
1
40
1
41
1
41
1
41
1
41
1
10
1176.2339240751683
20
450.01201669634781
30
0
10
1176.2339240751683
20
448.85677903253139
30
0
10
1175.5919553191943
20
447.91112501329269
30
0
10
1174.8073268396711
20
447.91112501329269
30
0
0
SPLINE
5
371
100
AcDbEntity
8
0
100
AcDbSpline
70
4
71
3
72
8
73
4
74
0
42
0.000000001
43
0.0000000001
44
0.0000000001
40
0
40
0
40
0
40
0
40
1
40
1
40
1
40
1
41
1
41
1
41
1
41
1
10
1174.8073268396711
20
447.91112501329269
30
0
10
1174.0226983601478
20
447.91112501329269
30
0
10
1173.38740808278
20
448.71358595825967
30
0
10
1173.3974258006883
20
449.69437155766389
30
0
0
SPLINE
5
372
100
AcDbEntity
8
0
100
AcDbSpline
70
4
71
3
72
8
73
4
74
0
42
0.000000001
43
0.0000000001
44
0.0000000001
40
0
40
0
40
0
40
0
40
1
40
1
40
1
40
1
41
1
41
1
41
1
41
1
10
1173.3974258006883
20
449.69437155766389
30
0
10
1173.4088348683065
20
450.67515715706804
30
0
10
1166.24394040415
20
474.10708631759121
30
0
10
1157.4762110746237
20
501.76535616659794
30
0
0
LINE
5
373
100
AcDbEntity
8
0
100
AcDbLine
10
1157.4762110746237
20
501.76535616659794
30
0
11
1141.5328275098536
21
552.05309423116069
31
0
0
SPLINE
5
374
100
AcDbEntity
8
0
100
AcDbSpline
70
4
71
3
72
8
73
4
74
0
42
0.000000001
43
0.0000000001
44
0.0000000001
40
0
40
0
40
0
40
0
40
1
40
1
40
1
40
1
41
1
41
1
41
1
41
1
10
994.3422663877443
20
484.28956322092176
30
0
10
994.3422663877443
20
499.14855201125181
30
0
10
994.7792893315052
20
502.37601955410724
30
0
10
997.65520918108803
20
508.73126443313089
30
0
0
SPLINE
5
375
100
AcDbEntity
8
0
100
AcDbSpline
70
4
71
3
72
8
73
4
74
0
42
0.000000001
43
0.0000000001
44
0.0000000001
40
0
40
0
40
0
40
0
40
1
40
1
40
1
40
1
41
1
41
1
41
1
41
1
10
997.65520918108803
20
508.73126443313089
30
0
10
1003.913221904578
20
522.56030660098691
30
0
10
1015.4043791555234
20
529.45854889331349
30
0
10
1032.3589493108507
20
529.56468568698824
30
0
0
SPLINE
5
376
100
AcDbEntity
8
0
100
AcDbSpline
70
4
71
3
72
8
73
4
74
0
42
0.000000001
43
0.0000000001
44
0.0000000001
40
0
40
0
40
0
40
0
40
1
40
1
40
1
40
1
41
1
41
1
41
1
41
1
10
1032.3589493108507
20
529.56468568698824
30
0
10
1051.4180286584776
20
529.68397073541792
30
0
10
1065.4309145012853
20
518.32717148808865
30
0
10
1069.3168614833339
20
499.61161638374267
30
0
0
SPLINE
5
377
100
AcDbEntity
8
0
100
AcDbSpline
70
4
71
3
72
8
73
4
74
0
42
0.000000001
43
0.0000000001
44
0.0000000001
40
0
40
0
40
0
40
0
40
1
40
1
40
1
40
1
41
1
41
1
41
1
41
1
10
1069.3168614833339
20
499.61161638374267
30
0
10
1071.4604212241479
20
489.28754645830634
30
0
10
1070.3147838733271
20
467.52630365065397
30
0
10
1067.2550667271164
20
460.44690762614766
30
0
0
SPLINE
5
378
100
AcDbEntity
8
0
100
AcDbSpline
70
4
71
3
72
8
73
4
74
0
42
0.000000001
43
0.0000000001
44
0.0000000001
40
0
40
0
40
0
40
0
40
1
40
1
40
1
40
1
41
1
41
1
41
1
41
1
10
1067.2550667271164
20
460.44690762614766
30
0
10
1063.7951046477999
20
452.44196258570503
30
0
10
1056.5253487938689
20
444.98699489627489
30
0
10
1048.5642776476
20
441.27972040609063
30
0
0
SPLINE
5
379
100
AcDbEntity
8
0
100
AcDbSpline
70
4
71
3
72
8
73
4
74
0
42
0.000000001
43
0.0000000001
44
0.0000000001
40
0
40
0
40
0
40
0
40
1
40
1
40
1
40
1
41
1
41
1
41
1
41
1
10
1048.5642776476
20
441.27972040609063
30
0
10
1035.4870744844461
20
435.18996824080568
30
0
10
1016.043704347049
20
438.02433311239736
30
0
10
1006.1980963975556
20
447.45701165726638
30
0
0
SPLINE
5
380
100
AcDbEntity
8
0
100
AcDbSpline
70
4
71
3
72
8
73
4
74
0
42
0.000000001
43
0.0000000001
44
0.0000000001
40
0
40
0
40
0
40
0
40
1
40
1
40
1
40
1
41
1
41
1
41
1
41
1
10
1006.1980963975556
20
447.45701165726638
30
0
10
1003.9403068455899
20
449.62011986149901
30
0
10
1000.3492332453127
20
454.94003823250523
30
0
10
998.21805651691352
20
459.27942608488735
30
0
0
SPLINE
5
381
100
AcDbEntity
8
0
100
AcDbSpline
70
4
71
3
72
8
73
4
74
0
42
0.000000001
43
0.0000000001
44
0.0000000001
40
0
40
0
40
0
40
0
40
1
40
1
40
1
40
1
41
1
41
1
41
1
41
1
10
998.21805651691352
20
459.27942608488735
30
0
10
994.6562476388599
20
466.53181325661109
30
0
10
994.3422663877443
20
468.55335162789981
30
0
10
994.3422663877443
20
484.28956322092176
30
0
0
SPLINE
5
382
100
AcDbEntity
8
0
100
AcDbSpline
70
4
71
3
72
8
73
4
74
0
42
0.000000001
43
0.0000000001
44
0.0000000001
40
0
40
0
40
0
40
0
40
1
40
1
40
1
40
1
41
1
41
1
41
1
41
1
10
1081.6994101148471
20
536.92334878735767
30
0
10
1068.7918588596076
20
549.83087685343514
30
0
10
1054.7423805194396
20
554.84583455727591
30
0
10
1031.3781405222846
20
554.88405029596402
30
0
0
SPLINE
5
383
100
AcDbEntity
8
0
100
AcDbSpline
70
4
71
3
72
8
73
4
74
0
42
0.000000001
43
0.0000000001
44
0.0000000001
40
0
40
0
40
0
40
0
40
1
40
1
40
1
40
1
41
1
41
1
41
1
41
1
10
1031.3781405222846
20
554.88405029596402
30
0
10
988.0583745596573
20
554.95486999617879
30
0
10
962.96760870795606
20
529.26466431129154
30
0
10
963.1324836485345
20
485.00279227118483
30
0
0
SPLINE
5
384
100
AcDbEntity
8
0
100
AcDbSpline
70
4
71
3
72
8
73
4
74
0
42
0.000000001
43
0.0000000001
44
0.0000000001
40
0
40
0
40
0
40
0
40
1
40
1
40
1
40
1
41
1
41
1
41
1
41
1
10
963.1324836485345
20
485.00279227118483
30
0
10
963.27356650907996
20
447.13145901439992
30
0
10
979.5463753067412
20
423.18078830384314
30
0
10
1011.124262800767
20
414.37203734704769
30
0
0
SPLINE
5
385
100
AcDbEntity
8
0
100
AcDbSpline
70
4
71
3
72
8
73
4
74
0
42
0.000000001
43
0.0000000001
44
0.0000000001
40
0
40
0
40
0
40
0
40
1
40
1
40
1
40
1
41
1
41
1
41
1
41
1
10
1011.124262800767
20
414.37203734704769
30
0
10
1021.4688551344187
20
411.48637804949823
30
0
10
1048.8681948024832
20
412.27787052092191
30
0
10
1058.5393274984026
20
415.7401283272593
30
0
0
SPLINE
5
386
100
AcDbEntity
8
0
100
AcDbSpline
70
4
71
3
72
8
73
4
74
0
42
0.000000001
43
0.0000000001
44
0.0000000001
40
0
40
0
40
0
40
0
40
1
40
1
40
1
40
1
41
1
41
1
41
1
41
1
10
1058.5393274984026
20
415.7401283272593
30
0
10
1076.3741118582973
20
422.12503214425749
30
0
10
1090.8056084503764
20
436.99123276391515
30
0
10
1096.4808311588711
20
454.82404604505473
30
0
0
SPLINE
5
387
100
AcDbEntity
8
0
100
AcDbSpline
70
4
71
3
72
8
73
4
74
0
42
0.000000001
43
0.0000000001
44
0.0000000001
40
0
40
0
40
0
40
0
40
1
40
1
40
1
40
1
41
1
41
1
41
1
41
1
10
1096.4808311588711
20
454.82404604505473
30
0
10
1100.2615921028798
20
466.70415510729725
30
0
10
1101.5725217991919
20
488.36269311722504
30
0
10
1099.3005404801893
20
501.40875323604735
30
0
0
SPLINE
5
388
100
AcDbEntity
8
0
100
AcDbSpline
70
4
71
3
72
8
73
4
74
0
42
0.000000001
43
0.0000000001
44
0.0000000001
40
0
40
0
40
0
40
0
40
1
40
1
40
1
40
1
41
1
41
1
41
1
41
1
10
1099.3005404801893
20
501.40875323604735
30
0
10
1096.8410979769899
20
515.53199629998176
30
0
10
1090.7007934389258
20
527.92189589579334
30
0
10
1081.6994101148471
20
536.92334878735767
30
0
0
LINE
5
389
100
AcDbEntity
8
0
100
AcDbLine
10
868.00423438883638
20
490.70936672646729
30
0
11
868.40267056731989
21
509.6118496642876
31
0
0
LINE
5
390
100
AcDbEntity
8
0
100
AcDbLine
10
868.40267056731989
20
509.6118496642876
30
0
11
868.80115312412715
21
528.51426303462245
31
0
0
LINE
5
391
100
AcDbEntity
8
0
100
AcDbLine
10
868.80115312412715
20
528.51426303462245
30
0
11
884.37953928176569
21
528.11860955555801
31
0
0
SPLINE
5
392
100
AcDbEntity
8
0
100
AcDbSpline
70
4
71
3
72
8
73
4
74
0
42
0.000000001
43
0.0000000001
44
0.0000000001
40
0
40
0
40
0
40
0
40
1
40
1
40
1
40
1
41
1
41
1
41
1
41
1
10
884.37953928176569
20
528.11860955555801
30
0
10
892.94821284618308
20
527.90111840679776
30
0
10
901.61479105182707
20
526.9362637615676
30
0
10
903.63864833929836
20
525.97590781373162
30
0
0
SPLINE
5
393
100
AcDbEntity
8
0
100
AcDbSpline
70
4
71
3
72
8
73
4
74
0
42
0.000000001
43
0.0000000001
44
0.0000000001
40
0
40
0
40
0
40
0
40
1
40
1
40
1
40
1
41
1
41
1
41
1
41
1
10
903.63864833929836
20
525.97590781373162
30
0
10
912.57426720044054
20
521.73588551977127
30
0
10
915.04683476923276
20
504.21005036287602
30
0
10
907.74011539135222
20
496.9033077958336
30
0
0
SPLINE
5
394
100
AcDbEntity
8
0
100
AcDbSpline
70
4
71
3
72
8
73
4
74
0
42
0.000000001
43
0.0000000001
44
0.0000000001
40
0
40
0
40
0
40
0
40
1
40
1
40
1
40
1
41
1
41
1
41
1
41
1
10
907.74011539135222
20
496.9033077958336
30
0
10
905.79361714773029
20
494.95683274137366
30
0
10
901.69474728180091
20
492.78020525579677
30
0
10
898.62881544022116
20
492.06901685177445
30
0
0
SPLINE
5
395
100
AcDbEntity
8
0
100
AcDbSpline
70
4
71
3
72
8
73
4
74
0
42
0.000000001
43
0.0000000001
44
0.0000000001
40
0
40
0
40
0
40
0
40
1
40
1
40
1
40
1
41
1
41
1
41
1
41
1
10
898.62881544022116
20
492.06901685177445
30
0
10
895.56288359864106
20
491.35787482607566
30
0
10
887.41713396759508
20
490.76142639476529
30
0
10
880.52879344736778
20
490.74273593033405
30
0
0
LINE
5
396
100
AcDbEntity
8
0
100
AcDbLine
10
880.52879344736778
20
490.74273593033405
30
0
11
868.00423438883638
21
490.70936672646729
31
0
0
LINE
5
397
100
AcDbEntity
8
0
100
AcDbLine
10
874.86428413163651
20
551.71872970680056
30
0
11
838.12921980429508
21
552.26488084611174
31
0
0
LINE
5
398
100
AcDbEntity
8
0
100
AcDbLine
10
838.12921980429508
20
552.26488084611174
30
0
11
838.12921980429508
21
413.6726522263944
31
0
0
LINE
5
399
100
AcDbEntity
8
0
100
AcDbLine
10
838.12921980429508
20
413.6726522263944
30
0
11
868.0237596630933
21
413.6726522263944
31
0
0
LINE
5
400
100
AcDbEntity
8
0
100
AcDbLine
10
868.0237596630933
20
413.6726522263944
30
0
11
868.41384774331982
21
440.42146633777173
31
0
0
LINE
5
401
100
AcDbEntity
8
0
100
AcDbLine
10
868.41384774331982
20
440.42146633777173
30
0
11
868.80115312412715
21
467.17028044914906
31
0
0
LINE
5
402
100
AcDbEntity
8
0
100
AcDbLine
10
868.80115312412715
20
467.17028044914906
30
0
11
886.92070039123735
21
467.17028044914906
31
0
0
LINE
5
403
100
AcDbEntity
8
0
100
AcDbLine
10
886.92070039123735
20
467.17028044914906
30
0
11
900.68518393257148
21
440.44096842286683
31
0
0
LINE
5
404
100
AcDbEntity
8
0
100
AcDbLine
10
900.68518393257148
20
440.44096842286683
30
0
11
914.45245017332479
21
413.71165639658471
31
0
0
LINE
5
405
100
AcDbEntity
8
0
100
AcDbLine
10
914.45245017332479
20
413.71165639658471
30
0
11
931.2150140687379
21
413.69213112232774
31
0
0
SPLINE
5
406
100
AcDbEntity
8
0
100
AcDbSpline
70
4
71
3
72
8
73
4
74
0
42
0.000000001
43
0.0000000001
44
0.0000000001
40
0
40
0
40
0
40
0
40
1
40
1
40
1
40
1
41
1
41
1
41
1
41
1
10
931.2150140687379
20
413.69213112232774
30
0
10
940.43442189229881
20
413.68195108028635
30
0
10
947.97762434247443
20
413.92017333971842
30
0
10
947.97762434247443
20
414.22156287596283
30
0
0
SPLINE
5
407
100
AcDbEntity
8
0
100
AcDbSpline
70
4
71
3
72
8
73
4
74
0
42
0.000000001
43
0.0000000001
44
0.0000000001
40
0
40
0
40
0
40
0
40
1
40
1
40
1
40
1
41
1
41
1
41
1
41
1
10
947.97762434247443
20
414.22156287596283
30
0
10
947.97762434247443
20
414.52290603388354
30
0
10
941.24701650098359
20
426.64084313980709
30
0
10
933.02056858678498
20
441.15146115203447
30
0
0
SPLINE
5
408
100
AcDbEntity
8
0
100
AcDbSpline
70
4
71
3
72
8
73
4
74
0
42
0.000000001
43
0.0000000001
44
0.0000000001
40
0
40
0
40
0
40
0
40
1
40
1
40
1
40
1
41
1
41
1
41
1
41
1
10
933.02056858678498
20
441.15146115203447
30
0
10
924.79416705091012
20
455.66207916426185
30
0
10
917.69814439737502
20
468.48366819661453
30
0
10
917.25272697703326
20
469.64451763759268
30
0
0
SPLINE
5
409
100
AcDbEntity
8
0
100
AcDbSpline
70
4
71
3
72
8
73
4
74
0
42
0.000000001
43
0.0000000001
44
0.0000000001
40
0
40
0
40
0
40
0
40
1
40
1
40
1
40
1
41
1
41
1
41
1
41
1
10
917.25272697703326
20
469.64451763759268
30
0
10
916.70532362298343
20
471.0709757381187
30
0
10
917.96839088928789
20
472.38549975451372
30
0
10
921.14525968104033
20
473.70139193145633
30
0
0
SPLINE
5
410
100
AcDbEntity
8
0
100
AcDbSpline
70
4
71
3
72
8
73
4
74
0
42
0.000000001
43
0.0000000001
44
0.0000000001
40
0
40
0
40
0
40
0
40
1
40
1
40
1
40
1
41
1
41
1
41
1
41
1
10
921.14525968104033
20
473.70139193145633
30
0
10
934.10011682640345
20
479.06747992365689
30
0
10
942.2712354004866
20
493.01664194976831
30
0
10
942.2712354004866
20
509.76213862207783
30
0
0
SPLINE
5
411
100
AcDbEntity
8
0
100
AcDbSpline
70
4
71
3
72
8
73
4
74
0
42
0.000000001
43
0.0000000001
44
0.0000000001
40
0
40
0
40
0
40
0
40
1
40
1
40
1
40
1
41
1
41
1
41
1
41
1
10
942.2712354004866
20
509.76213862207783
30
0
10
942.2712354004866
20
523.08303668685448
30
0
10
938.92007686845454
20
532.65385306871724
30
0
10
931.7389036126965
20
539.83502632447517
30
0
0
SPLINE
5
412
100
AcDbEntity
8
0
100
AcDbSpline
70
4
71
3
72
8
73
4
74
0
42
0.000000001
43
0.0000000001
44
0.0000000001
40
0
40
0
40
0
40
0
40
1
40
1
40
1
40
1
41
1
41
1
41
1
41
1
10
931.7389036126965
20
539.83502632447517
30
0
10
921.40507105013182
20
550.16885888703996
30
0
10
917.00715375330242
20
551.08953817899283
30
0
10
874.86428413163651
20
551.71872970680056
30
0
0
SPLINE
5
413
100
AcDbEntity
8
0
100
AcDbSpline
70
4
71
3
72
8
73
4
74
0
42
0.000000001
43
0.0000000001
44
0.0000000001
40
0
40
0
40
0
40
0
40
1
40
1
40
1
40
1
41
1
41
1
41
1
41
1
10
884.7780682168966
20
374.7868163289113
30
0
10
881.44541463600126
20
376.60020878365549
30
0
10
876.88164845379674
20
377.27482787947929
30
0
10
867.85382948523704
20
377.28331511270733
30
0
0
SPLINE
5
414
100
AcDbEntity
8
0
100
AcDbSpline
70
4
71
3
72
8
73
4
74
0
42
0.000000001
43
0.0000000001
44
0.0000000001
40
0
40
0
40
0
40
0
40
1
40
1
40
1
40
1
41
1
41
1
41
1
41
1
10
867.85382948523704
20
377.28331511270733
30
0
10
856.3764465964158
20
377.29472418032543
30
0
10
855.05229907786327
20
376.98361838527626
30
0
10
849.30801904545262
20
372.95058254976908
30
0
0
SPLINE
5
415
100
AcDbEntity
8
0
100
AcDbSpline
70
4
71
3
72
8
73
4
74
0
42
0.000000001
43
0.0000000001
44
0.0000000001
40
0
40
0
40
0
40
0
40
1
40
1
40
1
40
1
41
1
41
1
41
1
41
1
10
849.30801904545262
20
372.95058254976908
30
0
10
840.14032305276237
20
366.51392052357659
30
0
10
836.29245267443082
20
358.51421623370652
30
0
10
835.54910090295664
20
344.35166754047799
30
0
0
SPLINE
5
416
100
AcDbEntity
8
0
100
AcDbSpline
70
4
71
3
72
8
73
4
74
0
42
0.000000001
43
0.0000000001
44
0.0000000001
40
0
40
0
40
0
40
0
40
1
40
1
40
1
40
1
41
1
41
1
41
1
41
1
10
835.54910090295664
20
344.35166754047799
30
0
10
834.50122905839169
20
324.3875152068066
30
0
10
841.2623538368448
20
311.80665286336313
30
0
10
855.41284416592418
20
307.39370898967093
30
0
0
SPLINE
5
417
100
AcDbEntity
8
0
100
AcDbSpline
70
4
71
3
72
8
73
4
74
0
42
0.000000001
43
0.0000000001
44
0.0000000001
40
0
40
0
40
0
40
0
40
1
40
1
40
1
40
1
41
1
41
1
41
1
41
1
10
855.41284416592418
20
307.39370898967093
30
0
10
871.69641273467221
20
302.31560719817969
30
0
10
889.35477395139958
20
308.27577832718453
30
0
10
895.97908267508296
20
321.08579596778634
30
0
0
SPLINE
5
418
100
AcDbEntity
8
0
100
AcDbSpline
70
4
71
3
72
8
73
4
74
0
42
0.000000001
43
0.0000000001
44
0.0000000001
40
0
40
0
40
0
40
0
40
1
40
1
40
1
40
1
41
1
41
1
41
1
41
1
10
895.97908267508296
20
321.08579596778634
30
0
10
899.20872999915002
20
327.33119378724319
30
0
10
898.6287690618974
20
328.07830220293306
30
0
10
890.5569001004269
20
328.06833086334814
30
0
0
SPLINE
5
419
100
AcDbEntity
8
0
100
AcDbSpline
70
4
71
3
72
8
73
4
74
0
42
0.000000001
43
0.0000000001
44
0.0000000001
40
0
40
0
40
0
40
0
40
1
40
1
40
1
40
1
41
1
41
1
41
1
41
1
10
890.5569001004269
20
328.06833086334814
30
0
10
883.76929329916925
20
328.05928709023624
30
0
10
882.84529795707522
20
327.66725112041649
30
0
10
880.68768558419515
20
323.87489559549493
30
0
0
SPLINE
5
420
100
AcDbEntity
8
0
100
AcDbSpline
70
4
71
3
72
8
73
4
74
0
42
0.000000001
43
0.0000000001
44
0.0000000001
40
0
40
0
40
0
40
0
40
1
40
1
40
1
40
1
41
1
41
1
41
1
41
1
10
880.68768558419515
20
323.87489559549493
30
0
10
875.68912261776518
20
315.08898596309746
30
0
10
859.20696206714433
20
315.28530540711108
30
0
10
853.78844338005683
20
324.19532343359788
30
0
0
SPLINE
5
421
100
AcDbEntity
8
0
100
AcDbSpline
70
4
71
3
72
8
73
4
74
0
42
0.000000001
43
0.0000000001
44
0.0000000001
40
0
40
0
40
0
40
0
40
1
40
1
40
1
40
1
41
1
41
1
41
1
41
1
10
853.78844338005683
20
324.19532343359788
30
0
10
847.5073342513889
20
334.52377611061922
30
0
10
848.88314722248822
20
353.75417698581214
30
0
10
856.44383430068024
20
361.31486406400421
30
0
0
SPLINE
5
422
100
AcDbEntity
8
0
100
AcDbSpline
70
4
71
3
72
8
73
4
74
0
42
0.000000001
43
0.0000000001
44
0.0000000001
40
0
40
0
40
0
40
0
40
1
40
1
40
1
40
1
41
1
41
1
41
1
41
1
10
856.44383430068024
20
361.31486406400421
30
0
10
864.3647881969913
20
369.23581796031522
30
0
10
878.43787310389757
20
367.48911753498078
30
0
10
882.32609262380515
20
358.10223758471699
30
0
0
SPLINE
5
423
100
AcDbEntity
8
0
100
AcDbSpline
70
4
71
3
72
8
73
4
74
0
42
0.000000001
43
0.0000000001
44
0.0000000001
40
0
40
0
40
0
40
0
40
1
40
1
40
1
40
1
41
1
41
1
41
1
41
1
10
882.32609262380515
20
358.10223758471699
30
0
10
883.99367162899148
20
354.0762744435666
30
0
10
884.65372793118888
20
353.75556833552167
30
0
10
891.26463331933735
20
353.75556833552167
30
0
0
LINE
5
424
100
AcDbEntity
8
0
100
AcDbLine
10
891.26463331933735
20
353.75556833552167
30
0
11
898.40323127398392
21
353.75556833552167
31
0
0
LINE
5
425
100
AcDbEntity
8
0
100
AcDbLine
10
898.40323127398392
20
353.75556833552167
30
0
11
897.50047720412203
21
358.27221414089701
31
0
0
SPLINE
5
426
100
AcDbEntity
8
0
100
AcDbSpline
70
4
71
3
72
8
73
4
74
0
42
0.000000001
43
0.0000000001
44
0.0000000001
40
0
40
0
40
0
40
0
40
1
40
1
40
1
40
1
41
1
41
1
41
1
41
1
10
897.50047720412203
20
358.27221414089701
30
0
10
896.3273838857001
20
364.13756478719779
30
0
10
890.5388125542031
20
371.65222137916646
30
0
10
884.7780682168966
20
374.7868163289113
30
0
0
LINE
5
427
100
AcDbEntity
8
0
100
AcDbLine
10
977.93426477664127
20
306.67201589534164
30
0
11
977.93426477664127
21
376.57551232631141
31
0
0
LWPOLYLINE
5
428
100
AcDbEntity
8
0
100
AcDbPolyline
90
17
70
1
43
0.0
10
970.44458291195849
20
376.57931534885086
10
962.95694169351634
20
376.5839299920541
10
962.95694169351634
20
347.33578801913808
10
947.62097503360019
20
346.93178644181637
10
932.2849619953605
20
346.5250021650757
10
932.2849619953605
20
376.58117048179685
10
916.59229964824658
20
376.58117048179685
10
916.59229964824658
20
306.67767405082708
10
932.2849619953605
20
306.67767405082708
10
932.28115897282123
20
321.30029571467099
10
932.27735595028196
20
335.92296375683867
10
948.06472283429059
20
335.47717530990758
10
963.85487241771841
20
335.02860416355765
10
963.4034721936257
20
320.85172456832095
10
962.9549010472756
20
306.67201589534164
10
977.93426477664127
20
306.67201589534164
10
977.93426477664127
20
376.57551232631141
0
SPLINE
5
429
100
AcDbEntity
8
0
100
AcDbSpline
70
4
71
3
72
8
73
4
74
0
42
0.000000001
43
0.0000000001
44
0.0000000001
40
0
40
0
40
0
40
0
40
1
40
1
40
1
40
1
41
1
41
1
41
1
41
1
10
1017.9034751254439
20
334.1386968893471
30
0
10
1017.9163219210952
20
334.33483082006609
30
0
10
1020.0924856234356
20
340.91503375795764
30
0
10
1022.7377660695032
20
348.76136493151472
30
0
0
SPLINE
5
430
100
AcDbEntity
8
0
100
AcDbSpline
70
4
71
3
72
8
73
4
74
0
42
0.000000001
43
0.0000000001
44
0.0000000001
40
0
40
0
40
0
40
0
40
1
40
1
40
1
40
1
41
1
41
1
41
1
41
1
10
1022.7377660695032
20
348.76136493151472
30
0
10
1025.2711356206016
20
356.27572006437958
30
0
10
1027.3923410094158
20
361.02701699826582
30
0
10
1028.1934337938351
20
361.08253185167575
30
0
0
SPLINE
5
431
100
AcDbEntity
8
0
100
AcDbSpline
70
4
71
3
72
8
73
4
74
0
42
0.000000001
43
0.0000000001
44
0.0000000001
40
0
40
0
40
0
40
0
40
1
40
1
40
1
40
1
41
1
41
1
41
1
41
1
10
1028.1934337938351
20
361.08253185167575
30
0
10
1028.291848596622
20
361.08937265441426
30
0
10
1028.370598990181
20
361.02592710766004
30
0
10
1028.4274588149767
20
360.88748781156255
30
0
0
SPLINE
5
432
100
AcDbEntity
8
0
100
AcDbSpline
70
4
71
3
72
8
73
4
74
0
42
0.000000001
43
0.0000000001
44
0.0000000001
40
0
40
0
40
0
40
0
40
1
40
1
40
1
40
1
41
1
41
1
41
1
41
1
10
1028.4274588149767
20
360.88748781156255
30
0
10
1028.9111383523305
20
359.71054509227758
30
0
10
1031.1425850164624
20
353.13034215438597
30
0
10
1033.3871567461877
20
346.26481976939493
30
0
0
LINE
5
433
100
AcDbEntity
8
0
100
AcDbLine
10
1033.3871567461877
20
346.26481976939499
30
0
11
1037.4691449023082
21
333.78204758047281
31
0
0
LINE
5
434
100
AcDbEntity
8
0
100
AcDbLine
10
1037.4691449023082
20
333.78204758047281
30
0
11
1027.6751560270382
21
333.78204758047281
31
0
0
SPLINE
5
435
100
AcDbEntity
8
0
100
AcDbSpline
70
4
71
3
72
8
73
4
74
0
42
0.000000001
43
0.0000000001
44
0.0000000001
40
0
40
0
40
0
40
0
40
1
40
1
40
1
40
1
41
1
41
1
41
1
41
1
10
1027.6751560270382
20
333.78204758047281
30
0
10
1022.288684761593
20
333.78204758047281
30
0
10
1017.8906283297927
20
333.94256295862812
30
0
10
1017.9034751254439
20
334.1386968893471
30
0
0
LINE
5
436
100
AcDbEntity
8
0
100
AcDbLine
10
1037.1402762093007
20
376.56340758383863
30
0
11
1018.5944657695164
21
376.56340758383863
31
0
0
LINE
5
437
100
AcDbEntity
8
0
100
AcDbLine
10
1018.5944657695164
20
376.56340758383863
30
0
11
1012.6818788005774
21
359.80919178668273
31
0
0
SPLINE
5
438
100
AcDbEntity
8
0
100
AcDbSpline
70
4
71
3
72
8
73
4
74
0
42
0.000000001
43
0.0000000001
44
0.0000000001
40
0
40
0
40
0
40
0
40
1
40
1
40
1
40
1
41
1
41
1
41
1
41
1
10
1012.6818788005774
20
359.80919178668273
30
0
10
1009.4292742063031
20
350.59456093045776
30
0
10
1003.8371614537907
20
334.86985116170109
30
0
10
1000.2575896777787
20
324.86576848029313
30
0
0
LINE
5
439
100
AcDbEntity
8
0
100
AcDbLine
10
1000.2575896777787
20
324.86576848029313
30
0
11
993.75149930108114
21
306.67656097105947
31
0
0
LINE
5
440
100
AcDbEntity
8
0
100
AcDbLine
10
993.75149930108114
20
306.67656097105947
30
0
11
1009.1766514773775
21
306.67656097105947
31
0
0
LINE
5
441
100
AcDbEntity
8
0
100
AcDbLine
10
1009.1766514773775
20
306.67656097105947
30
0
11
1011.6481059664021
21
314.52293852294014
31
0
0
LINE
5
442
100
AcDbEntity
8
0
100
AcDbLine
10
1011.6481059664021
20
314.52293852294014
30
0
11
1014.122343154846
21
322.36917693984981
31
0
0
LINE
5
443
100
AcDbEntity
8
0
100
AcDbLine
10
1014.122343154846
20
322.36917693984981
30
0
11
1041.7209704796376
21
322.36917693984981
31
0
0
LINE
5
444
100
AcDbEntity
8
0
100
AcDbLine
10
1041.7209704796376
20
322.36917693984981
30
0
11
1043.7159804497981
21
314.87958783181432
31
0
0
LINE
5
445
100
AcDbEntity
8
0
100
AcDbLine
10
1043.7159804497981
20
314.87958783181432
30
0
11
1045.7137731193777
21
307.38985958880795
31
0
0
LINE
5
446
100
AcDbEntity
8
0
100
AcDbLine
10
1045.7137731193777
20
307.38985958880795
30
0
11
1053.8749667321997
21
306.96359641613395
31
0
0
LINE
5
447
100
AcDbEntity
8
0
100
AcDbLine
10
1053.8749667321997
20
306.96359641613395
30
0
11
1062.0333776456025
21
306.5373332434599
31
0
0
LINE
5
448
100
AcDbEntity
8
0
100
AcDbLine
10
1062.0333776456025
20
306.5373332434599
30
0
11
1055.5021965958097
21
324.79610823816972
31
0
0
SPLINE
5
449
100
AcDbEntity
8
0
100
AcDbSpline
70
4
71
3
72
8
73
4
74
0
42
0.000000001
43
0.0000000001
44
0.0000000001
40
0
40
0
40
0
40
0
40
1
40
1
40
1
40
1
41
1
41
1
41
1
41
1
10
1055.5021965958097
20
324.79610823816972
30
0
10
1051.9089432143207
20
334.83873130653143
30
0
10
1046.3054213941903
20
350.59456093045776
30
0
10
1043.0528631782399
20
359.80919178668273
30
0
0
LINE
5
450
100
AcDbEntity
8
0
100
AcDbLine
10
1043.0528631782399
20
359.80919178668273
30
0
11
1037.1402762093007
21
376.56340758383863
31
0
0
LWPOLYLINE
5
451
100
AcDbEntity
8
0
100
AcDbPolyline
90
9
70
1
43
0.0
10
1086.3582054822118
20
376.58114729263502
10
1079.2250337914322
20
376.58012696951471
10
1079.2250337914322
20
306.67656097105947
10
1121.7500607999805
20
306.67656097105947
10
1121.5299492759341
20
312.382996291371
10
1121.3098377518875
20
318.0866489122634
10
1107.4005147057919
20
318.0904519348029
10
1093.4911916596966
20
318.09045193480279
10
1093.4911916596966
20
376.58114729263502
0
LWPOLYLINE
5
452
100
AcDbEntity
8
0
100
AcDbPolyline
90
7
70
1
43
0.0
10
1148.4151852263299
20
376.58040523945664
10
1140.5689931877439
20
376.58012696951471
10
1140.5689931877439
20
306.67656097105947
10
1184.79350748815
20
306.67656097105947
10
1184.79350748815
20
318.08943161168247
10
1156.2615627782106
20
318.08943161168253
10
1156.2615627782106
20
376.58040523945664
0
LINE
5
453
100
AcDbEntity
8
0
100
AcDbLine
10
1278.0997379249047
20
376.58033567197117
30
0
11
1270.389898157852
21
376.58012696951471
31
0
0
LINE
5
454
100
AcDbEntity
8
0
100
AcDbLine
10
1270.389898157852
20
376.58012696951471
30
0
11
1270.389898157852
21
306.67656097105947
31
0
0
LINE
5
455
100
AcDbEntity
8
0
100
AcDbLine
10
1270.389898157852
20
306.67656097105947
30
0
11
1284.6559632694689
21
306.67656097105947
31
0
0
LINE
5
456
100
AcDbEntity
8
0
100
AcDbLine
10
1284.6559632694689
20
306.67656097105947
30
0
11
1284.6559632694689
21
354.2284417234647
31
0
0
LINE
5
457
100
AcDbEntity
8
0
100
AcDbLine
10
1284.6559632694689
20
354.2284417234647
30
0
11
1299.9917907944141
21
330.47494845590904
31
0
0
LINE
5
458
100
AcDbEntity
8
0
100
AcDbLine
10
1299.9917907944141
20
330.47494845590904
30
0
11
1315.3278965893012
21
306.72419150944876
31
0
0
LINE
5
459
100
AcDbEntity
8
0
100
AcDbLine
10
1315.3278965893012
20
306.72419150944876
30
0
11
1323.5308306934087
21
306.69928634964828
31
0
0
LINE
5
460
100
AcDbEntity
8
0
100
AcDbLine
10
1323.5308306934087
20
306.69928634964828
30
0
11
1331.733950310811
21
306.67670010603041
31
0
0
LINE
5
461
100
AcDbEntity
8
0
100
AcDbLine
10
1331.733950310811
20
306.67670010603041
30
0
11
1331.733950310811
21
376.58031248280929
31
0
0
LINE
5
462
100
AcDbEntity
8
0
100
AcDbLine
10
1331.733950310811
20
376.58031248280929
30
0
11
1317.537638197965
21
376.58031248280935
31
0
0
LINE
5
463
100
AcDbEntity
8
0
100
AcDbLine
10
1317.537638197965
20
376.58031248280935
30
0
11
1317.1447210399956
21
352.68473922074963
31
0
0
LINE
5
464
100
AcDbEntity
8
0
100
AcDbLine
10
1317.1447210399956
20
352.68473922074963
30
0
11
1316.7545865814452
21
328.78914276952804
31
0
0
LINE
5
465
100
AcDbEntity
8
0
100
AcDbLine
10
1316.7545865814452
20
328.78914276952804
30
0
11
1310.4489896978898
21
338.77536979633049
31
0
0
SPLINE
5
466
100
AcDbEntity
8
0
100
AcDbSpline
70
4
71
3
72
8
73
4
74
0
42
0.000000001
43
0.0000000001
44
0.0000000001
40
0
40
0
40
0
40
0
40
1
40
1
40
1
40
1
41
1
41
1
41
1
41
1
10
1310.4489896978898
20
338.77536979633049
30
0
10
1306.9810041685814
20
344.26781553131747
30
0
10
1300.0185047088371
20
355.0208153830377
30
0
10
1294.9765316314697
20
362.67096624755203
30
0
0
LINE
5
467
100
AcDbEntity
8
0
100
AcDbLine
10
1294.9765316314697
20
362.67096624755203
30
0
11
1285.8094849353101
21
376.58033567197117
31
0
0
LINE
5
468
100
AcDbEntity
8
0
100
AcDbLine
10
1285.8094849353101
20
376.58033567197117
30
0
11
1278.0997379249047
21
376.58033567197117
31
0
0
LINE
5
469
100
AcDbEntity
8
0
100
AcDbLine
10
1304.2717680141993
20
552.76636965974728
30
0
11
1260.4036247527258
21
552.76641603807093
31
0
0
LINE
5
470
100
AcDbEntity
8
0
100
AcDbLine
10
1260.4036247527258
20
552.76641603807093
30
0
11
1260.4036247527258
21
413.67265222639446
31
0
0
LINE
5
471
100
AcDbEntity
8
0
100
AcDbLine
10
1260.4036247527258
20
413.67265222639446
30
0
11
1350.2796216156241
21
413.6726522263944
31
0
0
LINE
5
472
100
AcDbEntity
8
0
100
AcDbLine
10
1350.2796216156241
20
413.6726522263944
30
0
11
1350.2796216156241
21
438.7050741469431
31
0
0
LINE
5
473
100
AcDbEntity
8
0
100
AcDbLine
10
1350.2796216156241
20
438.7050741469431
30
0
11
1322.104233457912
21
438.94747045550378
31
0
0
SPLINE
5
474
100
AcDbEntity
8
0
100
AcDbSpline
70
4
71
3
72
8
73
4
74
0
42
0.000000001
43
0.0000000001
44
0.0000000001
40
0
40
0
40
0
40
0
40
1
40
1
40
1
40
1
41
1
41
1
41
1
41
1
10
1322.104233457912
20
438.94747045550378
30
0
10
1306.6077514198405
20
439.08043710941047
30
0
10
1293.1263147877467
20
439.22590272154093
30
0
10
1292.1455059991808
20
439.27068099302574
30
0
0
SPLINE
5
475
100
AcDbEntity
8
0
100
AcDbSpline
70
4
71
3
72
8
73
4
74
0
42
0.000000001
43
0.0000000001
44
0.0000000001
40
0
40
0
40
0
40
0
40
1
40
1
40
1
40
1
41
1
41
1
41
1
41
1
10
1292.1455059991808
20
439.27068099302574
30
0
10
1290.82697025779
20
439.3309496246099
30
0
10
1290.3623522114569
20
443.62715925767316
30
0
10
1290.3623522114569
20
455.75740980852601
30
0
0
LINE
5
476
100
AcDbEntity
8
0
100
AcDbLine
10
1290.3623522114569
20
455.75740980852606
30
0
11
1290.3623522114569
21
472.16334758422659
31
0
0
LINE
5
477
100
AcDbEntity
8
0
100
AcDbLine
10
1290.3623522114569
20
472.16334758422659
30
0
11
1344.5732326736361
21
472.16334758422659
31
0
0
LINE
5
478
100
AcDbEntity
8
0
100
AcDbLine
10
1344.5732326736361
20
472.16334758422659
30
0
11
1344.5732326736361
21
497.84219057981937
31
0
0
LINE
5
479
100
AcDbEntity
8
0
100
AcDbLine
10
1344.5732326736361
20
497.84219057981937
30
0
11
1290.3623522114567
21
497.84219057981943
31
0
0
LINE
5
480
100
AcDbEntity
8
0
100
AcDbLine
10
1290.3623522114567
20
497.84219057981943
30
0
11
1290.3623522114569
21
527.80082528190303
31
0
0
LINE
5
481
100
AcDbEntity
8
0
100
AcDbLine
10
1290.3623522114569
20
527.80082528190303
30
0
11
1348.9644251135362
21
527.80082528190303
31
0
0
LINE
5
482
100
AcDbEntity
8
0
100
AcDbLine
10
1348.9644251135362
20
527.80082528190303
30
0
11
1348.552121816281
21
540.28359747082516
31
0
0
LINE
5
483
100
AcDbEntity
8
0
100
AcDbLine
10
1348.552121816281
20
540.28359747082516
30
0
11
1348.1397257623789
21
552.76636965974728
31
0
0
LINE
5
484
100
AcDbEntity
8
0
100
AcDbLine
10
1348.1397257623789
20
552.76636965974728
30
0
11
1304.2717680141993
21
552.76636965974728
31
0
0
LWPOLYLINE
5
485
100
AcDbEntity
8
0
100
AcDbPolyline
90
17
70
1
43
0.0
10
1225.0950649042338
20
376.57917621387986
10
1202.6261584451568
20
376.58012696951471
10
1202.6261584451568
20
306.67656097105947
10
1249.1050303015782
20
306.67656097105947
10
1248.7707353447038
20
312.382996291371
10
1248.4335649317627
20
318.08943161168247
10
1217.6055221745221
20
318.08943161168253
10
1217.6055221745221
20
335.20873757261711
10
1230.8016393595165
20
335.20873757261711
10
1243.9977565445108
20
335.20493455007772
10
1243.9977565445108
20
345.90724289404773
10
1231.1581031550961
20
346.6205415117962
10
1218.3188207922706
20
347.33384012954468
10
1217.8952011840447
20
356.25011922972442
10
1217.468891633047
20
365.16637514074228
10
1247.5641568766057
20
365.16637514074228
10
1247.5641568766057
20
376.57917621387986
0
LINE
5
486
100
AcDbEntity
8
0
100
AcDbLine
10
1407.3436965487977
20
490.35812049229838
30
0
11
1407.3436965487974
21
529.6147510873692
31
0
0
LINE
5
487
100
AcDbEntity
8
0
100
AcDbLine
10
1407.3436965487974
20
529.6147510873692
30
0
11
1424.1063068225344
21
528.63677137654588
31
0
0
SPLINE
5
488
100
AcDbEntity
8
0
100
AcDbSpline
70
4
71
3
72
8
73
4
74
0
42
0.000000001
43
0.0000000001
44
0.0000000001
40
0
40
0
40
0
40
0
40
1
40
1
40
1
40
1
41
1
41
1
41
1
41
1
10
1424.1063068225344
20
528.63677137654588
30
0
10
1441.9925711216815
20
527.59272574368208
30
0
10
1446.2047432322893
20
526.02836169778061
30
0
10
1449.7629809794219
20
519.10470408409333
30
0
0
SPLINE
5
489
100
AcDbEntity
8
0
100
AcDbSpline
70
4
71
3
72
8
73
4
74
0
42
0.000000001
43
0.0000000001
44
0.0000000001
40
0
40
0
40
0
40
0
40
1
40
1
40
1
40
1
41
1
41
1
41
1
41
1
10
1449.7629809794219
20
519.10470408409333
30
0
10
1453.8970519930024
20
511.06045341435686
30
0
10
1450.787478148867
20
496.99138023244643
30
0
10
1444.0649401356909
20
493.33391606186308
30
0
0
SPLINE
5
490
100
AcDbEntity
8
0
100
AcDbSpline
70
4
71
3
72
8
73
4
74
0
42
0.000000001
43
0.0000000001
44
0.0000000001
40
0
40
0
40
0
40
0
40
1
40
1
40
1
40
1
41
1
41
1
41
1
41
1
10
1444.0649401356909
20
493.33391606186308
30
0
10
1442.3016362704898
20
492.37460362630918
30
0
10
1433.356927257912
20
491.31868514259082
30
0
10
1424.1063068225344
20
490.97669138399021
30
0
0
LINE
5
491
100
AcDbEntity
8
0
100
AcDbLine
10
1424.1063068225344
20
490.9766913839901
30
0
11
1407.3436965487977
21
490.35812049229838
31
0
0
LINE
5
492
100
AcDbEntity
8
0
100
AcDbLine
10
1414.1204044439971
20
551.69366222286737
30
0
11
1377.3851546033611
21
552.22863618617885
31
0
0
LINE
5
493
100
AcDbEntity
8
0
100
AcDbLine
10
1377.3851546033611
20
552.22863618617885
30
0
11
1377.3851546033611
21
413.6726522263944
31
0
0
LINE
5
494
100
AcDbEntity
8
0
100
AcDbLine
10
1377.3851546033611
20
413.6726522263944
30
0
11
1407.2796944621591
21
413.6726522263944
31
0
0
LINE
5
495
100
AcDbEntity
8
0
100
AcDbLine
10
1407.2796944621591
20
413.6726522263944
30
0
11
1407.6699216773568
21
440.42144314860991
31
0
0
LINE
5
496
100
AcDbEntity
8
0
100
AcDbLine
10
1407.6699216773568
20
440.42144314860991
30
0
11
1408.0571806798407
21
467.17025725998724
31
0
0
LINE
5
497
100
AcDbEntity
8
0
100
AcDbLine
10
1408.0571806798407
20
467.17025725998724
30
0
11
1426.1461182533415
21
467.17025725998724
31
0
0
LINE
5
498
100
AcDbEntity
8
0
100
AcDbLine
10
1426.1461182533415
20
467.17025725998724
30
0
11
1439.8075027811999
21
440.42144314860991
31
0
0
LINE
5
499
100
AcDbEntity
8
0
100
AcDbLine
10
1439.8075027811999
20
440.42144314860991
30
0
11
1453.4716700084778
21
413.6726522263944
31
0
0
LINE
5
500
100
AcDbEntity
8
0
100
AcDbLine
10
1453.4716700084778
20
413.6726522263944
30
0
11
1488.4987134324094
21
413.6726522263944
31
0
0
LINE
5
501
100
AcDbEntity
8
0
100
AcDbLine
10
1488.4987134324094
20
413.6726522263944
30
0
11
1476.2973185330766
21
435.42835282437056
31
0
0
SPLINE
5
502
100
AcDbEntity
8
0
100
AcDbSpline
70
4
71
3
72
8
73
4
74
0
42
0.000000001
43
0.0000000001
44
0.0000000001
40
0
40
0
40
0
40
0
40
1
40
1
40
1
40
1
41
1
41
1
41
1
41
1
10
1476.2973185330766
20
435.42835282437056
30
0
10
1469.5864678574605
20
447.39398351542502
30
0
10
1462.2402341478296
20
460.24390970352829
30
0
10
1459.9722413646609
20
463.98267507547138
30
0
0
SPLINE
5
503
100
AcDbEntity
8
0
100
AcDbSpline
70
4
71
3
72
8
73
4
74
0
42
0.000000001
43
0.0000000001
44
0.0000000001
40
0
40
0
40
0
40
0
40
1
40
1
40
1
40
1
41
1
41
1
41
1
41
1
10
1459.9722413646609
20
463.98267507547138
30
0
10
1457.7044340947868
20
467.72148682573811
30
0
10
1455.8485590955784
20
471.02097990522327
30
0
10
1455.8485590955784
20
471.31631707023121
30
0
0
SPLINE
5
504
100
AcDbEntity
8
0
100
AcDbSpline
70
4
71
3
72
8
73
4
74
0
42
0.000000001
43
0.0000000001
44
0.0000000001
40
0
40
0
40
0
40
0
40
1
40
1
40
1
40
1
41
1
41
1
41
1
41
1
10
1455.8485590955784
20
471.31631707023121
30
0
10
1455.8485590955784
20
471.61165423523914
30
0
10
1458.3572553784943
20
472.85612379375959
30
0
10
1461.4237901382819
20
474.08315510258745
30
0
0
SPLINE
5
505
100
AcDbEntity
8
0
100
AcDbSpline
70
4
71
3
72
8
73
4
74
0
42
0.000000001
43
0.0000000001
44
0.0000000001
40
0
40
0
40
0
40
0
40
1
40
1
40
1
40
1
41
1
41
1
41
1
41
1
10
1461.4237901382819
20
474.08315510258745
30
0
10
1475.2027900949188
20
479.59642470489365
30
0
10
1482.2374542262639
20
493.4806802670559
30
0
10
1481.3044151110582
20
513.32587220056314
30
0
0
SPLINE
5
506
100
AcDbEntity
8
0
100
AcDbSpline
70
4
71
3
72
8
73
4
74
0
42
0.000000001
43
0.0000000001
44
0.0000000001
40
0
40
0
40
0
40
0
40
1
40
1
40
1
40
1
41
1
41
1
41
1
41
1
10
1481.3044151110582
20
513.32587220056314
30
0
10
1480.6611477620227
20
527.00805740657893
30
0
10
1476.2650392198157
20
536.53541729918095
30
0
10
1467.5817184393336
20
543.06996077743838
30
0
0
SPLINE
5
507
100
AcDbEntity
8
0
100
AcDbSpline
70
4
71
3
72
8
73
4
74
0
42
0.000000001
43
0.0000000001
44
0.0000000001
40
0
40
0
40
0
40
0
40
1
40
1
40
1
40
1
41
1
41
1
41
1
41
1
10
1467.5817184393336
20
543.06996077743838
30
0
10
1457.6743809410609
20
550.52567052004702
30
0
10
1454.0438857656807
20
551.11149831524142
30
0
10
1414.1204044439974
20
551.69366222286737
30
0
0
LINE
5
508
100
AcDbEntity
8
0
100
AcDbLine
10
1388.6422868331651
20
377.68284118179679
30
0
11
1388.6419158065758
21
377.68455717977179
31
0
0
SPLINE
5
509
100
AcDbEntity
8
0
100
AcDbSpline
70
4
71
3
72
8
73
4
74
0
42
0.000000001
43
0.0000000001
44
0.0000000001
40
0
40
0
40
0
40
0
40
1
40
1
40
1
40
1
41
1
41
1
41
1
41
1
10
1388.6419158065758
20
377.68455717977179
30
0
10
1365.2062068126752
20
379.36695405936439
30
0
10
1352.638052129912
20
367.32857896766376
30
0
10
1352.4891777109929
20
343.05599631264715
30
0
0
SPLINE
5
510
100
AcDbEntity
8
0
100
AcDbSpline
70
4
71
3
72
8
73
4
74
0
42
0.000000001
43
0.0000000001
44
0.0000000001
40
0
40
0
40
0
40
0
40
1
40
1
40
1
40
1
41
1
41
1
41
1
41
1
10
1352.4891777109929
20
343.05599631264715
30
0
10
1352.3691506093849
20
323.47641303868772
30
0
10
1358.5589871971081
20
313.07695514815714
30
0
10
1373.3839111087168
20
307.95660270382007
30
0
0
SPLINE
5
511
100
AcDbEntity
8
0
100
AcDbSpline
70
4
71
3
72
8
73
4
74
0
42
0.000000001
43
0.0000000001
44
0.0000000001
40
0
40
0
40
0
40
0
40
1
40
1
40
1
40
1
41
1
41
1
41
1
41
1
10
1373.3839111087168
20
307.95660270382007
30
0
10
1377.5456236031928
20
306.51910656226516
30
0
10
1383.5632110968772
20
305.3240299184327
30
0
10
1386.7556166270526
20
305.29838270545383
30
0
0
SPLINE
5
512
100
AcDbEntity
8
0
100
AcDbSpline
70
4
71
3
72
8
73
4
74
0
42
0.000000001
43
0.0000000001
44
0.0000000001
40
0
40
0
40
0
40
0
40
1
40
1
40
1
40
1
41
1
41
1
41
1
41
1
10
1386.7556166270526
20
305.29838270545383
30
0
10
1394.8886122190947
20
305.23280375581174
30
0
10
1406.4139039162474
20
308.93175333690067
30
0
10
1411.5566107125842
20
313.25889731183901
30
0
0
SPLINE
5
513
100
AcDbEntity
8
0
100
AcDbSpline
70
4
71
3
72
8
73
4
74
0
42
0.000000001
43
0.0000000001
44
0.0000000001
40
0
40
0
40
0
40
0
40
1
40
1
40
1
40
1
41
1
41
1
41
1
41
1
10
1411.5566107125842
20
313.25889731183901
30
0
10
1415.8638583866764
20
316.8831314135266
30
0
10
1415.9033727184265
20
317.0502788919639
30
0
10
1415.9033727184265
20
331.05801674084626
30
0
0
LINE
5
514
100
AcDbEntity
8
0
100
AcDbLine
10
1415.9033727184265
20
331.05801674084626
30
0
11
1415.9033727184265
21
345.19589216589259
31
0
0
LINE
5
515
100
AcDbEntity
8
0
100
AcDbLine
10
1415.9033727184265
20
345.19589216589259
30
0
11
1385.1756926535663
21
345.19589216589253
31
0
0
LINE
5
516
100
AcDbEntity
8
0
100
AcDbLine
10
1385.1756926535663
20
345.19589216589253
30
0
11
1385.2037979176987
21
339.48950322390465
31
0
0
LINE
5
517
100
AcDbEntity
8
0
100
AcDbLine
10
1385.2037979176987
20
339.48950322390465
30
0
11
1385.2319031818311
21
333.78585060301219
31
0
0
LINE
5
518
100
AcDbEntity
8
0
100
AcDbLine
10
1385.2319031818311
20
333.78585060301219
30
0
11
1393.4348372859386
21
333.78585060301219
31
0
0
LINE
5
519
100
AcDbEntity
8
0
100
AcDbLine
10
1393.4348372859386
20
333.78585060301219
30
0
11
1401.6377713900463
21
333.78204758047281
31
0
0
LINE
5
520
100
AcDbEntity
8
0
100
AcDbLine
10
1401.6377713900463
20
333.78204758047281
30
0
11
1401.6377713900463
21
327.41249498860293
31
0
0
SPLINE
5
521
100
AcDbEntity
8
0
100
AcDbSpline
70
4
71
3
72
8
73
4
74
0
42
0.000000001
43
0.0000000001
44
0.0000000001
40
0
40
0
40
0
40
0
40
1
40
1
40
1
40
1
41
1
41
1
41
1
41
1
10
1401.6377713900463
20
327.41249498860293
30
0
10
1401.6377713900463
20
319.54329930148612
30
0
10
1399.4450042478388
20
318.08984901659534
30
0
10
1387.5751216059616
20
318.08943161168253
30
0
0
SPLINE
5
522
100
AcDbEntity
8
0
100
AcDbSpline
70
4
71
3
72
8
73
4
74
0
42
0.000000001
43
0.0000000001
44
0.0000000001
40
0
40
0
40
0
40
0
40
1
40
1
40
1
40
1
41
1
41
1
41
1
41
1
10
1387.5751216059616
20
318.08943161168253
30
0
10
1380.4859165660027
20
318.08943161168253
30
0
10
1378.2900884544347
20
318.71252438993031
30
0
10
1374.6828751975268
20
321.74789291622437
30
0
0
SPLINE
5
523
100
AcDbEntity
8
0
100
AcDbSpline
70
4
71
3
72
8
73
4
74
0
42
0.000000001
43
0.0000000001
44
0.0000000001
40
0
40
0
40
0
40
0
40
1
40
1
40
1
40
1
41
1
41
1
41
1
41
1
10
1374.6828751975268
20
321.74789291622437
30
0
10
1367.2584476342206
20
327.99509949030357
30
0
10
1365.0117888799311
20
344.79546171949204
30
0
10
1370.1020881705426
20
356.00306189963692
30
0
0
SPLINE
5
524
100
AcDbEntity
8
0
100
AcDbSpline
70
4
71
3
72
8
73
4
74
0
42
0.000000001
43
0.0000000001
44
0.0000000001
40
0
40
0
40
0
40
0
40
1
40
1
40
1
40
1
41
1
41
1
41
1
41
1
10
1370.1020881705426
20
356.00306189963692
30
0
10
1375.6814005057274
20
368.28754356579026
30
0
10
1393.7055939394118
20
370.39165854233914
30
0
10
1399.9130542901225
20
359.48319854974159
30
0
0
SPLINE
5
525
100
AcDbEntity
8
0
100
AcDbSpline
70
4
71
3
72
8
73
4
74
0
42
0.000000001
43
0.0000000001
44
0.0000000001
40
0
40
0
40
0
40
0
40
1
40
1
40
1
40
1
41
1
41
1
41
1
41
1
10
1399.9130542901225
20
359.48319854974159
30
0
10
1402.0974733340722
20
355.64446470116928
30
0
10
1403.0733660203316
20
355.19802695770721
30
0
10
1409.3058706658132
20
355.18944696783183
30
0
0
LINE
5
526
100
AcDbEntity
8
0
100
AcDbLine
10
1409.3058706658132
20
355.18944696783183
30
0
11
1416.2604858105374
21
355.18040319471993
31
0
0
LINE
5
527
100
AcDbEntity
8
0
100
AcDbLine
10
1416.2604858105374
20
355.18040319471993
30
0
11
1415.4049912524758
21
359.45462950237277
31
0
0
SPLINE
5
528
100
AcDbEntity
8
0
100
AcDbSpline
70
4
71
3
72
8
73
4
74
0
42
0.000000001
43
0.0000000001
44
0.0000000001
40
0
40
0
40
0
40
0
40
1
40
1
40
1
40
1
41
1
41
1
41
1
41
1
10
1415.4049912524758
20
359.45462950237277
30
0
10
1413.2429265605253
20
370.26490658380169
30
0
10
1403.9651284274878
20
376.58281691228643
30
0
10
1388.6422868331651
20
377.68284118179673
30
0
0
SPLINE
5
529
100
AcDbEntity
8
0
100
AcDbSpline
70
4
71
3
72
8
73
4
74
0
42
0.000000001
43
0.0000000001
44
0.0000000001
40
0
40
0
40
0
40
0
40
1
40
1
40
1
40
1
41
1
41
1
41
1
41
1
10
1430.1692523167492
20
735.72283017851396
30
0
10
1426.95977956347
20
735.89076318980801
30
0
10
1423.8786820100563
20
735.91681186515098
30
0
10
1420.9298554356947
20
735.80355454947323
30
0
0
SPLINE
5
530
100
AcDbEntity
8
0
100
AcDbSpline
70
4
71
3
72
8
73
4
74
0
42
0.000000001
43
0.0000000001
44
0.0000000001
40
0
40
0
40
0
40
0
40
1
40
1
40
1
40
1
41
1
41
1
41
1
41
1
10
1420.9298554356947
20
735.80355454947323
30
0
10
1400.2879766585147
20
735.01127509587013
30
0
10
1386.0800699647557
20
727.35325730820648
30
0
10
1378.9676757629718
20
713.12001500583074
30
0
0
SPLINE
5
531
100
AcDbEntity
8
0
100
AcDbSpline
70
4
71
3
72
8
73
4
74
0
42
0.000000001
43
0.0000000001
44
0.0000000001
40
0
40
0
40
0
40
0
40
1
40
1
40
1
40
1
41
1
41
1
41
1
41
1
10
1378.9676757629718
20
713.12001500583074
30
0
10
1375.063826747994
20
705.30745594782718
30
0
10
1374.5318673757199
20
702.81178907521166
30
0
10
1374.5318673757199
20
692.28939964055428
30
0
0
SPLINE
5
532
100
AcDbEntity
8
0
100
AcDbSpline
70
4
71
3
72
8
73
4
74
0
42
0.000000001
43
0.0000000001
44
0.0000000001
40
0
40
0
40
0
40
0
40
1
40
1
40
1
40
1
41
1
41
1
41
1
41
1
10
1374.5318673757199
20
692.28939964055428
30
0
10
1374.5318673757199
20
678.48209151461913
30
0
10
1376.9863937766122
20
672.18590363347414
30
0
10
1385.1674373119565
20
665.0028520556084
30
0
0
SPLINE
5
533
100
AcDbEntity
8
0
100
AcDbSpline
70
4
71
3
72
8
73
4
74
0
42
0.000000001
43
0.0000000001
44
0.0000000001
40
0
40
0
40
0
40
0
40
1
40
1
40
1
40
1
41
1
41
1
41
1
41
1
10
1385.1674373119565
20
665.0028520556084
30
0
10
1392.2352155663884
20
658.7971946622298
30
0
10
1395.4556336040491
20
657.31521011371285
30
0
10
1419.603620892578
20
649.15975002115238
30
0
0
SPLINE
5
534
100
AcDbEntity
8
0
100
AcDbSpline
70
4
71
3
72
8
73
4
74
0
42
0.000000001
43
0.0000000001
44
0.0000000001
40
0
40
0
40
0
40
0
40
1
40
1
40
1
40
1
41
1
41
1
41
1
41
1
10
1419.603620892578
20
649.15975002115238
30
0
10
1431.2670272375624
20
645.22066507478075
30
0
10
1442.4186951593845
20
640.79787740189363
30
0
10
1444.3852288388234
20
639.32955126969193
30
0
0
SPLINE
5
535
100
AcDbEntity
8
0
100
AcDbSpline
70
4
71
3
72
8
73
4
74
0
42
0.000000001
43
0.0000000001
44
0.0000000001
40
0
40
0
40
0
40
0
40
1
40
1
40
1
40
1
41
1
41
1
41
1
41
1
10
1444.3852288388234
20
639.32955126969193
30
0
10
1448.7152946481515
20
636.09670384129299
30
0
10
1450.8502743990903
20
628.2867680572208
30
0
10
1448.8461742774939
20
623.01558170979069
30
0
0
SPLINE
5
536
100
AcDbEntity
8
0
100
AcDbSpline
70
4
71
3
72
8
73
4
74
0
42
0.000000001
43
0.0000000001
44
0.0000000001
40
0
40
0
40
0
40
0
40
1
40
1
40
1
40
1
41
1
41
1
41
1
41
1
10
1448.8461742774939
20
623.01558170979069
30
0
10
1448.0253707055231
20
620.85639247390657
30
0
10
1445.0736686750952
20
618.05296194418986
30
0
10
1441.9973017106936
20
616.51227403251198
30
0
0
SPLINE
5
537
100
AcDbEntity
8
0
100
AcDbSpline
70
4
71
3
72
8
73
4
74
0
42
0.000000001
43
0.0000000001
44
0.0000000001
40
0
40
0
40
0
40
0
40
1
40
1
40
1
40
1
41
1
41
1
41
1
41
1
10
1441.9973017106936
20
616.51227403251198
30
0
10
1425.8223975542592
20
608.41144180792162
30
0
10
1403.2294754577399
20
614.15407540984245
30
0
10
1400.8237390533282
20
626.97773987217852
30
0
0
LINE
5
538
100
AcDbEntity
8
0
100
AcDbLine
10
1400.8237390533282
20
626.97773987217863
30
0
11
1399.893018854305
21
631.94298001306572
31
0
0
LINE
5
539
100
AcDbEntity
8
0
100
AcDbLine
10
1399.893018854305
20
631.94298001306572
30
0
11
1390.4222868948807
21
631.92634178945593
31
0
0
SPLINE
5
540
100
AcDbEntity
8
0
100
AcDbSpline
70
4
71
3
72
8
73
4
74
0
42
0.000000001
43
0.0000000001
44
0.0000000001
40
0
40
0
40
0
40
0
40
1
40
1
40
1
40
1
41
1
41
1
41
1
41
1
10
1390.4222868948807
20
631.92634178945593
30
0
10
1385.2134446090179
20
631.91729801634415
30
0
10
1378.532090547244
20
631.51247322377765
30
0
10
1375.5738955515051
20
631.02357612501328
30
0
0
SPLINE
5
541
100
AcDbEntity
8
0
100
AcDbSpline
70
4
71
3
72
8
73
4
74
0
42
0.000000001
43
0.0000000001
44
0.0000000001
40
0
40
0
40
0
40
0
40
1
40
1
40
1
40
1
41
1
41
1
41
1
41
1
10
1375.5738955515051
20
631.02357612501328
30
0
10
1370.2851897923156
20
630.14947226458673
30
0
10
1370.2100569080017
20
630.04680225060486
30
0
10
1371.1101674134152
20
624.97442818208458
30
0
0
SPLINE
5
542
100
AcDbEntity
8
0
100
AcDbSpline
70
4
71
3
72
8
73
4
74
0
42
0.000000001
43
0.0000000001
44
0.0000000001
40
0
40
0
40
0
40
0
40
1
40
1
40
1
40
1
41
1
41
1
41
1
41
1
10
1371.1101674134152
20
624.97442818208458
30
0
10
1374.4667522093141
20
606.06319133567513
30
0
10
1386.6021043757687
20
594.47414103808376
30
0
10
1407.8982885430132
20
589.84154942358168
30
0
0
SPLINE
5
543
100
AcDbEntity
8
0
100
AcDbSpline
70
4
71
3
72
8
73
4
74
0
42
0.000000001
43
0.0000000001
44
0.0000000001
40
0
40
0
40
0
40
0
40
1
40
1
40
1
40
1
41
1
41
1
41
1
41
1
10
1407.8982885430132
20
589.84154942358168
30
0
10
1431.4437286506718
20
584.7196548999832
30
0
10
1456.2125361795893
20
589.60408081190894
30
0
10
1468.3755298269398
20
601.7670860538401
30
0
0
SPLINE
5
544
100
AcDbEntity
8
0
100
AcDbSpline
70
4
71
3
72
8
73
4
74
0
42
0.000000001
43
0.0000000001
44
0.0000000001
40
0
40
0
40
0
40
0
40
1
40
1
40
1
40
1
41
1
41
1
41
1
41
1
10
1468.3755298269398
20
601.7670860538401
30
0
10
1482.2267872118243
20
615.61840141162929
30
0
10
1483.6851999773457
20
642.86079683245976
30
0
10
1471.3290869903135
20
656.93367883420001
30
0
0
SPLINE
5
545
100
AcDbEntity
8
0
100
AcDbSpline
70
4
71
3
72
8
73
4
74
0
42
0.000000001
43
0.0000000001
44
0.0000000001
40
0
40
0
40
0
40
0
40
1
40
1
40
1
40
1
41
1
41
1
41
1
41
1
10
1471.3290869903135
20
656.93367883420001
30
0
10
1465.7622968025146
20
663.27392032552268
30
0
10
1451.4146058412723
20
670.12321029723591
30
0
10
1429.5814534427996
20
676.86710552845284
30
0
0
SPLINE
5
546
100
AcDbEntity
8
0
100
AcDbSpline
70
4
71
3
72
8
73
4
74
0
42
0.000000001
43
0.0000000001
44
0.0000000001
40
0
40
0
40
0
40
0
40
1
40
1
40
1
40
1
41
1
41
1
41
1
41
1
10
1429.5814534427996
20
676.86710552845284
30
0
10
1409.4557654078526
20
683.0835690712421
30
0
10
1404.4905020778037
20
686.83948862564546
30
0
10
1404.4905020778037
20
695.83925450568699
30
0
0
SPLINE
5
547
100
AcDbEntity
8
0
100
AcDbSpline
70
4
71
3
72
8
73
4
74
0
42
0.000000001
43
0.0000000001
44
0.0000000001
40
0
40
0
40
0
40
0
40
1
40
1
40
1
40
1
41
1
41
1
41
1
41
1
10
1404.4905020778037
20
695.83925450568699
30
0
10
1404.4905020778037
20
706.10370219742504
30
0
10
1412.4578342977654
20
711.85172727947031
30
0
10
1426.6028519846541
20
711.79380944916625
30
0
0
SPLINE
5
548
100
AcDbEntity
8
0
100
AcDbSpline
70
4
71
3
72
8
73
4
74
0
42
0.000000001
43
0.0000000001
44
0.0000000001
40
0
40
0
40
0
40
0
40
1
40
1
40
1
40
1
41
1
41
1
41
1
41
1
10
1426.6028519846541
20
711.79380944916625
30
0
10
1438.0059831773106
20
711.74713836234741
30
0
10
1448.7151091348571
20
703.75484590832593
30
0
10
1448.7151091348571
20
695.29313235282814
30
0
0
SPLINE
5
549
100
AcDbEntity
8
0
100
AcDbSpline
70
4
71
3
72
8
73
4
74
0
42
0.000000001
43
0.0000000001
44
0.0000000001
40
0
40
0
40
0
40
0
40
1
40
1
40
1
40
1
41
1
41
1
41
1
41
1
10
1448.7151091348571
20
695.29313235282814
30
0
10
1448.7151091348571
20
693.18798545857794
30
0
10
1449.8366297573796
20
692.99760823728207
30
0
10
1457.4836732742092
20
693.79686907791722
30
0
0
SPLINE
5
550
100
AcDbEntity
8
0
100
AcDbSpline
70
4
71
3
72
8
73
4
74
0
42
0.000000001
43
0.0000000001
44
0.0000000001
40
0
40
0
40
0
40
0
40
1
40
1
40
1
40
1
41
1
41
1
41
1
41
1
10
1457.4836732742092
20
693.79686907791722
30
0
10
1462.3065551506502
20
694.30096087496759
30
0
10
1468.7989639218711
20
694.71358302319788
30
0
10
1471.9113204654252
20
694.71358302319788
30
0
0
LINE
5
551
100
AcDbEntity
8
0
100
AcDbLine
10
1471.9113204654252
20
694.71358302319788
30
0
11
1477.5704035172894
21
694.71358302319788
31
0
0
LINE
5
552
100
AcDbEntity
8
0
100
AcDbLine
10
1477.5704035172894
20
694.71358302319788
30
0
11
1476.5644576773047
21
701.42863673439456
31
0
0
SPLINE
5
553
100
AcDbEntity
8
0
100
AcDbSpline
70
4
71
3
72
8
73
4
74
0
42
0.000000001
43
0.0000000001
44
0.0000000001
40
0
40
0
40
0
40
0
40
1
40
1
40
1
40
1
41
1
41
1
41
1
41
1
10
1476.5644576773047
20
701.42863673439456
30
0
10
1473.3078645471965
20
723.14518243262842
30
0
10
1458.2828645473587
20
734.25180250895949
30
0
10
1430.1692523167492
20
735.72283017851396
30
0
0
LWPOLYLINE
5
554
100
AcDbEntity
8
0
100
AcDbPolyline
90
15
70
1
43
0.0
10
1460.4847218410014
20
376.58121686012055
10
1438.0156298686297
20
376.5839299920541
10
1438.4197705809222
20
341.62939907715014
10
1438.826601235987
20
306.67767405082708
10
1484.3804110488709
20
306.67767405082708
10
1484.3804110488704
20
318.09049831312649
10
1452.9950863546426
20
318.09049831312649
10
1452.9950863546424
20
335.20975789573743
10
1478.3730267863891
20
335.20975789573743
10
1478.9190851690532
20
340.91619321604895
10
1479.4624536089452
20
346.62258215803683
10
1452.9950863546426
20
346.62258215803683
10
1452.9950863546424
20
365.16841578698291
10
1482.9538138133737
20
365.16841578698291
10
1482.9538138133735
20
376.58121686012043
0
ENDSEC
0
SECTION
2
OBJECTS
0
DICTIONARY
5
C
100
AcDbDictionary
3
ACAD_GROUP
350
D
3
ACAD_MLINESTYLE
350
17
0
DICTIONARY
5
D
100
AcDbDictionary
0
DICTIONARY
5
1A
330
C
100
AcDbDictionary
0
DICTIONARY
5
17
100
AcDbDictionary
0
ENDSEC
0
EOF
