<?xml version="1.0" encoding="UTF-8" standalone="no"?>
<!-- Created with Inkscape (http://www.inkscape.org/) -->

<svg
   version="1.1"
   id="svg1"
   width="400"
   height="400"
   viewBox="0 0 400 400"
   sodipodi:docname="icon-small.svg"
   inkscape:version="1.4.1-rc (06eac75fbf, 2025-03-29)"
   xmlns:inkscape="http://www.inkscape.org/namespaces/inkscape"
   xmlns:sodipodi="http://sodipodi.sourceforge.net/DTD/sodipodi-0.dtd"
   xmlns="http://www.w3.org/2000/svg"
   xmlns:svg="http://www.w3.org/2000/svg">
  <defs
     id="defs1" />
  <sodipodi:namedview
     id="namedview1"
     pagecolor="#505050"
     bordercolor="#eeeeee"
     borderopacity="1"
     inkscape:showpageshadow="0"
     inkscape:pageopacity="0"
     inkscape:pagecheckerboard="0"
     inkscape:deskcolor="#505050"
     inkscape:zoom="0.95478904"
     inkscape:cx="-159.19747"
     inkscape:cy="151.34233"
     inkscape:window-width="3374"
     inkscape:window-height="1371"
     inkscape:window-x="66"
     inkscape:window-y="32"
     inkscape:window-maximized="1"
     inkscape:current-layer="g1" />
  <g
     inkscape:groupmode="layer"
     inkscape:label="Image"
     id="g1">
    <g
       id="g2">
      <rect
         style="fill:#ffffff;stroke:none;stroke-width:7.215"
         id="rect4"
         width="71.475876"
         height="64.478233"
         x="167.19356"
         y="230.67213"
         ry="32.239117" />
      <rect
         style="fill:#ffffff;stroke-width:7.08296"
         id="rect3"
         width="26.197437"
         height="59.007008"
         x="189.3246"
         y="340.56668"
         ry="8.3068218" />
      <rect
         style="fill:#ffffff;stroke-width:7.215"
         id="rect1"
         width="204.3102"
         height="114.09994"
         x="102.33338"
         y="90.566826"
         ry="32.239117" />
      <rect
         style="fill:#ffffff;stroke-width:7.215"
         id="rect2"
         width="256.01172"
         height="84.148705"
         x="74.164955"
         y="261.36017"
         ry="32.239117" />
      <path
         style="fill:#dc1d1e;stroke-width:0.617742"
         d="m 197.89929,312.98541 c -5.3511,-5.06927 -14.8735,-12.22279 -22.51109,-16.91105 -6.11956,-3.75643 -18.79662,-10.68647 -19.54867,-10.68647 -0.28551,0 -0.51912,-14.2775 -0.51912,-31.72778 v -31.72777 l 3.24314,-0.38955 c 4.25193,-0.51072 81.07871,-0.50822 86.48976,0.003 l 4.17534,0.39433 -0.15999,31.56929 -0.16001,31.56952 -3.39759,1.7612 c -16.54754,8.57765 -28.73237,17.02722 -39.84451,27.63013 l -3.08872,2.94718 z m 14.87132,-31.30368 v -9.8836 l 9.72948,0.11649 9.72946,0.11649 0.16938,-10.30956 0.16938,-10.30959 h -9.88317 -9.88314 l -0.17014,-9.72947 -0.17011,-9.72947 h -10.19278 -10.19279 l -0.17011,9.72947 -0.17014,9.72947 h -10.192 -10.19204 l 0.16936,10.26677 0.16938,10.26676 10.03835,-0.0837 10.03833,-0.0837 v 9.89369 9.8937 h 10.50166 10.50164 z"
         id="path3"
         sodipodi:nodetypes="csscsccccsscscscccccccccccccccccccccccs" />
      <path
         style="fill:#141a14;stroke-width:0.617742"
         d="m 185.07443,395.59163 c -4.1907,-2.1295 -9.97347,-4.85721 -12.85056,-6.06159 -19.85315,-8.31069 -48.20807,-15.63809 -73.08139,-18.88547 -5.585798,-0.72927 -10.656149,-1.59361 -11.267442,-1.92076 -1.914032,-1.02435 -2.802978,-3.67713 -4.275453,-12.75865 l -1.427296,-8.80286 h -1.90516 c -1.047841,0 -3.561987,-0.42543 -5.586983,-0.94541 -15.610672,-4.00856 -27.061725,-17.8064 -31.257646,-37.66359 -1.165306,-5.51485 -0.992619,-19.89215 0.318788,-26.5406 1.540812,-7.81148 4.395533,-16.3918 7.611922,-22.87894 3.575549,-7.2115 4.538925,-8.77796 9.497754,-15.4436 10.013205,-13.45969 24.712321,-24.79084 40.943586,-31.56229 l 5.46869,-2.28145 -4.85096,-2.53961 C 86.97197,199.22337 77.617482,187.9098 73.756341,172.64958 c -1.366356,-5.4002 -1.408376,-6.44578 -1.464614,-36.44692 -0.05685,-30.3185 -0.03215,-30.97819 1.341836,-35.82915 4.50925,-15.920355 13.862906,-26.948249 28.923357,-34.100434 3.46126,-1.643738 4.53796,-2.442047 4.30977,-3.195428 -0.1673,-0.552342 -0.89611,-3.765142 -1.61958,-7.139546 -1.88609,-8.796902 -1.86142,-8.752904 -5.16118,-9.205194 C 92.101031,45.638458 84.661538,38.814701 82.172251,30.301877 77.559146,14.526049 91.303754,-0.92226603 107.45103,1.8896685 124.76917,4.9054868 132.37839,25.493117 121.33747,39.460942 l -2.38826,3.021366 1.8819,8.251178 c 1.03502,4.538148 1.96766,8.343726 2.0725,8.456841 0.10486,0.113115 2.3683,-0.22811 5.0299,-0.758272 14.62995,-2.914127 36.52105,-5.127119 59.20072,-5.984634 30.80707,-1.164824 60.19356,0.716642 87.07447,5.574921 3.72225,0.672728 6.85501,1.135861 6.96169,1.029176 0.10669,-0.106691 1.05516,-3.975437 2.10772,-8.597217 l 1.9137,-8.403243 -2.19312,-2.987634 c -3.59006,-4.890635 -4.96844,-8.981697 -4.94348,-14.672437 0.0433,-9.854973 5.51925,-17.7641784 14.91358,-21.5401793 3.62926,-1.4587502 10.57776,-1.5294436 14.71517,-0.1496976 9.86285,3.2890553 16.86061,14.6372549 15.20118,24.6516009 -1.1729,7.07823 -4.79509,12.737412 -10.48778,16.385765 -2.63686,1.689922 -5.04892,2.522196 -10.08778,3.480726 -1.4742,0.280443 -1.6881,0.801268 -3.24316,7.89715 -0.91567,4.178307 -1.66485,7.908546 -1.66485,8.289437 0,0.38089 2.12971,1.703925 4.73268,2.94007 12.42757,5.901826 22.46107,16.606449 26.97273,28.776834 3.02515,8.160497 3.19967,10.531207 3.1609,42.933217 -0.0352,29.28706 -0.0806,30.42986 -1.40407,35.21141 -4.11107,14.85327 -13.37891,25.99971 -28.37453,34.126 l -4.48732,2.43172 7.26717,3.54724 c 13.97248,6.82021 22.849,13.1229 31.92434,22.66749 12.04866,12.67168 19.96111,27.6075 23.62452,44.59458 1.69188,7.84511 1.55532,24.30673 -0.26131,31.5027 -4.90754,19.43931 -18.55682,33.20357 -34.56977,34.86092 -3.74489,0.38759 -3.38033,-0.31934 -5.10043,9.89072 -0.7009,4.16033 -1.53357,8.24607 -1.85041,9.07941 -0.9595,2.52367 -3.12967,3.39329 -10.87641,4.35832 -34.93405,4.35185 -68.56463,14.15766 -92.10609,26.85575 -4.77546,2.57585 -6.82962,3.01884 -8.10136,1.7471 -0.55406,-0.55406 -0.7413,-7.59578 -0.7413,-27.88002 0,-31.73522 -0.80107,-28.2475 8.39585,-36.55389 7.10761,-6.41936 14.18903,-11.72256 21.11922,-15.81592 20.91511,-12.35361 54.8045,-24.59003 77.66355,-28.04192 9.70926,-1.46616 9.46243,-1.38676 10.49042,-3.37468 1.31731,-2.54739 1.17498,-5.73109 -0.34248,-7.66021 -1.17125,-1.48902 -1.65805,-1.62739 -5.71413,-1.62432 -9.82656,0.007 -30.84252,4.20351 -45.82266,9.14905 -26.15109,8.63353 -48.03331,22.11965 -65.70978,40.49727 l -4.5531,4.73368 -6.88138,-6.65168 c -3.78477,-3.65842 -9.10247,-8.43853 -11.81714,-10.62248 -10.73284,-8.63456 -27.02998,-18.1757 -40.45602,-23.68494 -17.15982,-7.04131 -40.04588,-12.54896 -55.065685,-13.25179 l -7.190529,-0.33645 -1.149017,1.75362 c -1.683763,2.56974 -1.521009,6.5633 0.348581,8.55338 0.891331,0.94878 2.1715,1.59413 3.162239,1.59413 9.589479,0 42.019941,9.45702 62.417241,18.2014 19.74711,8.46567 36.20779,19.16829 47.36003,30.79313 l 3.86089,4.02453 v 28.09474 c 0,25.04886 -0.10593,28.13538 -0.97713,28.46969 -1.90114,0.72954 -3.73813,0.12608 -11.27545,-3.70396 z m 28.00505,-87.71964 c 8.77691,-7.41083 19.22173,-14.18427 32.43158,-21.03177 l 3.39759,-1.76119 0.16001,-31.56955 0.15999,-31.56953 -4.17534,-0.39436 c -5.41105,-0.51102 -82.23783,-0.51352 -86.48976,-0.003 l -3.24314,0.38956 v 31.72777 c 0,17.45055 0.23361,31.72803 0.51912,31.72803 0.75205,0 13.42911,6.93005 19.54867,10.68649 7.63759,4.68827 17.15999,11.84179 22.51109,16.91105 l 4.67854,4.43211 3.08872,-2.94717 c 1.69879,-1.62095 5.03462,-4.59022 7.41293,-6.59837 z m 0.3169,-118.27819 c 13.90736,-3.85394 24.74254,-15.58315 18.74985,-20.29698 -2.84248,-2.2359 -5.24878,-1.71791 -8.65964,1.86411 -5.13861,5.39648 -11.96192,7.97495 -21.10381,7.97495 -9.31371,0 -16.38684,-2.65828 -21.19425,-7.96542 -2.39624,-2.64532 -3.20469,-3.15398 -5.01307,-3.15398 -3.0258,0 -5.41144,2.00895 -5.41144,4.557 0,4.17745 5.32297,10.17754 12.35325,13.92464 8.23951,4.3916 20.92311,5.68836 30.27911,3.09568 z m -64.46973,-25.52773 c 14.10089,-3.75452 24.05757,-18.8425 22.80372,-34.55593 -0.69954,-8.76659 -3.87894,-15.72782 -9.99523,-21.8844 -10.09031,-10.156717 -24.80188,-11.691223 -36.59372,-3.81693 -8.9921,6.00469 -14.2986,16.34416 -14.2986,27.86017 0,6.26751 0.89478,10.35815 3.43832,15.71939 3.67648,7.7491 10.07095,13.53959 17.94093,16.24632 4.34837,1.49553 11.96879,1.69232 16.70458,0.43138 z m -6.66277,-10.74782 c -5.74673,-2.99267 -8.71558,-9.91511 -7.74976,-18.07007 0.60226,-5.08511 3.9047,-10.32261 7.74375,-12.28114 5.29099,-2.69926 10.19037,-2.13904 14.37776,1.64403 3.68886,3.33267 5.02949,6.39923 5.33763,12.20935 0.3426,6.45986 -1.20021,10.84849 -5.06664,14.41244 -4.50292,4.15066 -9.35098,4.84109 -14.64274,2.08539 z m 131.8637,9.79754 c 7.69529,-2.99397 14.55646,-10.09777 17.73623,-18.36343 1.71265,-4.45195 2.36417,-15.36206 1.24058,-20.7743 -2.77136,-13.34964 -14.73878,-24.29973 -27.35549,-25.030113 -9.32078,-0.539555 -16.61567,2.294503 -23.36157,9.076043 -7.03573,7.07282 -10.35996,16.21985 -9.66063,26.58233 0.58493,8.66744 3.49632,15.39501 9.33795,21.57799 3.58656,3.79614 6.9651,5.93666 11.96986,7.58366 4.99084,1.64242 15.03312,1.31647 20.09307,-0.65218 z m -22.43273,-8.88456 c -3.20075,-1.0193 -7.06269,-5.20788 -8.33578,-9.04078 -1.35238,-4.07163 -1.08561,-12.90015 0.47975,-15.87727 2.84902,-5.41841 8.55087,-8.74355 13.67538,-7.97509 4.03556,0.60518 8.30827,3.71545 10.20975,7.43212 2.28309,4.4625 2.5804,12.98623 0.61253,17.56067 -2.91961,6.78679 -9.83273,10.06868 -16.64163,7.90035 z"
         id="path2"
         sodipodi:nodetypes="ssssscssssssscssssssssssscssssssscsssssssssssssscssssssssssssssssssscsssscssssscssssscccsccsssscssssssssssssssssssssssssssssssssssssssssss" />
    </g>
  </g>
</svg>
