<?xml version="1.0" encoding="UTF-8" standalone="no"?>
<!-- Created with Inkscape (http://www.inkscape.org/) -->

<svg
   version="1.1"
   id="svg1"
   width="1024"
   height="425"
   viewBox="0 0 1024 425"
   sodipodi:docname="logo-small.svg"
   inkscape:version="1.4.1-rc (06eac75fbf, 2025-03-29)"
   xmlns:inkscape="http://www.inkscape.org/namespaces/inkscape"
   xmlns:sodipodi="http://sodipodi.sourceforge.net/DTD/sodipodi-0.dtd"
   xmlns="http://www.w3.org/2000/svg"
   xmlns:svg="http://www.w3.org/2000/svg">
  <defs
     id="defs1" />
  <sodipodi:namedview
     id="namedview1"
     pagecolor="#505050"
     bordercolor="#eeeeee"
     borderopacity="1"
     inkscape:showpageshadow="0"
     inkscape:pageopacity="0"
     inkscape:pagecheckerboard="0"
     inkscape:deskcolor="#505050"
     inkscape:zoom="0.98068735"
     inkscape:cx="71.888354"
     inkscape:cy="259.51186"
     inkscape:window-width="3374"
     inkscape:window-height="1371"
     inkscape:window-x="66"
     inkscape:window-y="32"
     inkscape:window-maximized="1"
     inkscape:current-layer="g10" />
  <g
     inkscape:groupmode="layer"
     inkscape:label="Image"
     id="g1">
    <g
       id="g10">
      <rect
         style="fill:#f9f9f9;stroke:none;stroke-width:9.73208"
         id="rect12"
         width="167.80612"
         height="182.49873"
         x="840.54639"
         y="19.482512"
         ry="1.2261207" />
      <path
         style="fill:#da261a;stroke-width:1.34887"
         d="m 828.82581,213.25529 -0.90816,-0.90816 V 108.85342 5.3597412 l 2.13362,-0.8187449 2.13362,-0.8187551 93.29878,0.020642 93.29873,0.020642 1.6945,1.0758069 1.6945,1.0758173 -0.3456,103.7780006 -0.3457,103.77804 -95.87303,0.34614 -95.87309,0.34613 z m 114.99542,-38.28235 0.03,-3.50978 0.37176,-22.15976 0.37175,-22.15976 21.58188,-0.67443 21.58188,-0.67443 V 108.2595 90.724212 l -21.5819,-0.674438 -21.58188,-0.674428 -0.67443,-23.605188 -0.67444,-23.605189 h -18.88414 -18.88415 l -0.67444,23.605189 -0.67443,23.605188 -20.90745,0.674428 -20.90745,0.674438 v 17.535288 17.53528 l 20.90745,0.67443 20.90745,0.67443 0.3711,22.87208 0.37109,22.8721 0.0484,2.06743 3.25597,0.0318 16.35848,0.0206 16.35847,0.0206 z"
         id="path11"
         sodipodi:nodetypes="cccccccccccccccccccccccccccccccccccccccccccc" />
      <path
         style="fill:#171a17;stroke-width:1.34887"
         d="m 640.78187,418.52109 -7.06193,-1.97998 -6.94025,-3.51689 -6.94024,-3.51689 -6.45601,-6.456 -6.45601,-6.456 -3.49384,-6.89478 -3.49385,-6.89479 -1.99374,-8.45626 -1.99373,-8.45627 -0.0199,-10.94405 -0.0199,-10.94405 1.34723,-7.26566 1.34723,-7.26566 4.74409,-9.67356 4.74411,-9.67356 6.80088,-6.11457 6.80088,-6.1146 7.02712,-3.43803 7.02712,-3.43805 9.41853,-1.99507 9.41856,-1.99506 6.0699,-0.0135 6.0699,-0.0135 8.76764,1.41532 8.76763,1.41531 9.62046,4.61869 9.62044,4.61868 6.80672,7.44766 6.80672,7.44764 3.32053,7.0784 3.32054,7.07839 1.66987,7.56947 1.66987,7.56947 -0.65046,16.03572 -0.65047,16.0357 -3.0388,7.88235 -3.0388,7.88233 -5.64086,6.95522 -5.64087,6.9552 -6.37144,4.29314 -6.37145,4.29316 -7.73931,2.99146 -7.73928,2.99143 -16.18642,0.46075 -16.18641,0.46073 z m 34.13168,-21.56516 6.65194,-1.98455 5.1047,-4.22183 5.10468,-4.22183 3.27748,-6.46778 3.27747,-6.46777 1.49373,-9.24495 1.49374,-9.24493 -0.90728,-7.39506 -0.90725,-7.39506 -2.54861,-6.81177 -2.54861,-6.81175 -5.74559,-5.54231 -5.74559,-5.5423 -4.72103,-2.50205 -4.72104,-2.50207 -12.13982,0.004 -12.13981,0.004 -5.39546,2.90708 -5.39548,2.90709 -4.31472,4.50201 -4.31473,4.50203 -3.09475,6.74434 -3.09475,6.74433 -0.009,15.51199 -0.009,15.51198 3.65186,7.43562 3.65185,7.43563 4.68767,4.54347 4.68768,4.54347 7.17244,2.4772 7.17247,2.47719 6.83673,0.044 6.83704,0.0451 z m -665.140786,20.53149 -0.6463502,-1.68608 0.3514744,-62.72236 0.3514744,-62.72234 13.1736904,-0.38633 13.173689,-0.38633 17.910509,27.36368 17.910509,27.36369 9.24929,14.50032 9.249312,14.50033 h 1.124686 1.124697 l 0.356711,-41.47767 0.356709,-41.47769 h 12.139805 12.13981 v 64.07121 64.07122 l -11.82786,0.39011 -11.827868,0.39009 -1.935463,-1.08314 -1.935464,-1.08314 -26.052501,-39.66867 -26.052516,-39.66865 -1.32463,-0.44194 -1.324628,-0.4419 0.4741,39.96497 0.474114,39.965 -1.822981,1.1552 -1.822968,1.15519 -11.170487,0.0206 -11.170499,0.0206 z m 149.731926,0.0198 -0.65395,-1.70591 0.35147,-62.72236 0.35147,-62.72234 h 41.14046 41.14047 v 10.79094 10.79094 l -27.65178,0.67444 -27.65179,0.67443 -0.39071,12.69332 -0.39069,12.69332 1.31655,1.31655 1.31654,1.31653 22.72463,0.23044 22.72463,0.23045 1.64079,1.01406 1.6408,1.01406 v 9.19731 9.19731 l -1.78468,1.48115 -1.78469,1.48115 -23.50659,0.37011 -23.50658,0.37008 -0.38773,13.28961 -0.38772,13.2896 1.56454,1.88516 1.56454,1.88515 h 26.72129 26.72128 l 0.73426,2.36052 0.73425,2.36052 -0.98056,8.76765 -0.98058,8.76763 -40.83796,0.35704 -40.83799,0.35705 z m 150.04515,0.81403 -0.94627,-0.94626 v -51.6809 -51.68091 l -3.03495,-0.70643 -3.03496,-0.70642 -16.18641,-0.33091 -16.18642,-0.33093 v -10.79094 -10.79094 h 51.25697 51.25698 l 0.39177,11.12816 0.39176,11.12816 -9.83383,0.15765 -9.83385,0.15767 -8.76763,0.85399 -8.76764,0.85398 -0.67444,51.93142 -0.67443,51.9314 -12.20519,0.38424 -12.2052,0.38424 z m 122.1356,-0.7889 -1.41891,-1.73104 -17.0484,-61.2687 -17.04838,-61.26872 0.70605,-1.83999 0.70607,-1.83997 13.17495,0.38634 13.17493,0.38634 9.4647,37.76829 9.46469,37.7683 1.73325,6.60711 1.73324,6.60712 1.2477,-1.2477 1.24769,-1.24769 10.83841,-40.42998 10.8384,-40.42998 1.30388,-3.03495 1.30388,-3.03495 h 13.43799 13.43799 l 0.85719,1.38695 0.85719,1.38696 11.3891,42.70293 11.3891,42.70291 0.64755,0.64756 0.64757,0.64757 0.87837,-0.87836 0.87839,-0.87837 10.32789,-42.21977 10.32788,-42.21977 1.01315,-1.63931 1.01315,-1.6393 h 12.73465 12.73463 v 2.66685 2.66683 l -16.23515,58.74701 -16.23515,58.74702 -1.26675,3.33179 -1.26674,3.3318 -13.18485,-0.0206 -13.18484,-0.0206 -1.54534,-0.99098 -1.54537,-0.991 -11.71572,-40.46325 -11.71573,-40.46324 -0.58729,-0.58731 -0.5873,-0.58729 -1.38282,1.38282 -1.38281,1.3828 -11.7699,40.34217 -11.76992,40.34216 -13.59968,0.38218 -13.59968,0.38216 z m 332.10439,-0.045 -0.64635,-1.68608 0.35147,-62.72236 0.35147,-62.72234 h 33.72169 33.7217 l 6.78708,2.37111 6.78708,2.37112 4.92978,4.06354 4.92977,4.06353 3.78789,7.72846 3.78788,7.72847 0.004,11.46536 0.004,11.46539 -3.10029,6.74432 -3.10032,6.74435 -4.31471,4.4989 -4.31474,4.49892 -3.70938,1.94284 -3.70938,1.94286 v 1.87721 1.87721 l 5.82098,9.89074 5.82098,9.89074 6.97412,12.94579 6.97412,12.9458 -0.88011,0.8801 -0.8801,0.88011 -12.25222,-0.0206 -12.25222,-0.0206 -1.51902,-0.99098 -1.51903,-0.99101 -12.78015,-22.93075 -12.78015,-22.93076 -9.64321,-0.39631 -9.64435,-0.39634 v 22.72008 22.72007 l -1.61864,1.61864 -1.61863,1.61864 H 776.34847 764.4361 Z m 58.05792,-68.41561 5.39546,-1.24507 3.70939,-4.13949 3.70938,-4.13949 v -7.4645 -7.46447 l -2.11289,-4.08588 -2.11289,-4.08587 -4.58813,-1.91705 -4.58811,-1.91704 h -14.88087 -14.88088 v 17.9849 17.98492 l 0.89925,0.89924 0.89924,0.89924 11.57779,-0.0322 11.57778,-0.0322 z m 79.54614,68.46654 -0.6659,-1.73701 0.35147,-62.72236 0.35148,-62.72234 h 12.81424 12.81425 l 0.36573,26.64014 0.36573,26.64013 h 1.15836 1.15837 l 17.34072,-19.8958 17.34074,-19.8958 6.62209,-7.08155 6.62211,-7.08155 h 13.29302 13.293 l -0.024,1.68608 -0.024,1.68608 -21.55821,24.86092 -21.55815,24.86089 v 1.86007 1.86005 l 19.14119,26.55931 19.14117,26.55931 5.8129,8.28125 5.8128,8.28123 v 1.49806 1.49805 h -14.57968 -14.57973 l -2.11307,-1.68609 -2.11308,-1.68608 -17.8073,-24.95406 -17.80731,-24.95405 -1.70897,-0.39561 -1.70897,-0.39562 -5.26861,6.4233 -5.26859,6.4233 -0.67444,20.27524 -0.67442,20.27523 -12.49983,0.38814 -12.49983,0.38813 z m -844.354156,-202.6911 -8.093207,-1.78165 -7.275994,-2.88912 -7.275996,-2.8891 -7.24091,-4.80624 -7.240924,-4.80624 -4.742242,-5.54026 -4.742241,-5.54025 -3.2130036,-6.79461 -3.2130159,-6.79461 -1.6961743,-8.21772 -1.69618766,-8.2177 0.77298206,-2.01436 0.7729955,-2.01437 19.0931149,-1.5997 19.093115,-1.5997 1.267288,0.78321 1.267289,0.78322 0.01348,2.28093 0.01349,2.2809 3.188386,6.74435 3.188385,6.74433 3.879992,3.63707 3.879991,3.63706 6.518645,2.88251 6.518648,2.88252 9.838101,0.74404 9.838087,0.74405 9.420072,-2.86125 9.42008,-2.86126 5.53864,-6.00872 5.53867,-6.00873 0.88681,-3.53338 0.88681,-3.53336 -0.73464,-5.47716 -0.73464,-5.47714 -4.49029,-4.6686 -4.49029,-4.66859 -2.26833,-1.2363 -2.26833,-1.23626 -28.081185,-7.50494 -28.08119,-7.50491 -11.271664,-5.41922 -11.271664,-5.41919 -6.034067,-6.03407 -6.034065,-6.034057 -3.240802,-7.07881 L 9.2029494,83.840951 7.6383435,73.777012 6.0737378,63.713073 8.2530901,53.026259 10.432443,42.339434 l 3.417815,-6.985748 3.417801,-6.985737 6.749518,-6.749513 6.749505,-6.749513 8.628788,-4.24794 8.628775,-4.2479278 10.456315,-2.6742734 10.456314,-2.6742735 14.284552,0.023428 14.284558,0.023428 9.442076,1.9823928 9.44207,1.9823929 10.11651,4.974631 10.11651,4.974642 7.58764,7.580819 7.58763,7.580839 2.96646,5.814741 2.96645,5.814741 1.87169,8.945662 1.87167,8.945672 -1.27947,1.279459 -1.27947,1.279469 -19.08982,1.179479 -19.08983,1.17948 -0.93838,-1.093889 -0.93839,-1.093899 -2.34835,-6.382369 -2.34837,-6.382357 -5.88797,-5.182805 -5.88797,-5.182803 -5.294574,-1.586289 -5.294569,-1.586298 -9.285579,0.01353 -9.28558,0.01351 -6.799467,3.166239 -6.799453,3.166238 -3.600587,4.279067 -3.6006,4.279057 -0.892357,4.756716 -0.89237,4.756697 0.80348,4.951244 0.80348,4.951255 2.535062,3.395445 2.535062,3.395445 5.93058,3.003396 5.930566,3.003396 18.209717,4.828405 18.209709,4.828417 12.3133,4.035824 12.31331,4.035824 7.91971,4.74884 7.91972,4.74882 5.13352,4.97377 5.1335,4.97379 4.21991,8.55919 4.21991,8.55921 0.60007,11.43267 0.60006,11.43269 -2.35783,8.71049 -2.35782,8.71049 -5.03634,7.7922 -5.03634,7.79221 -5.25706,4.37256 -5.25706,4.37258 -9.44207,4.65815 -9.44207,4.65815 -10.66949,2.69672 -10.67013,2.69601 -17.65672,-0.10723 -17.656729,-0.10723 z m 193.145076,-1.56869 -0.93143,-0.93141 -0.0206,-82.39336 -0.0206,-82.393324 -1.0542,-1.659556 -1.0542,-1.659535 -30.28632,-0.363759 -30.28636,-0.363759 -0.67443,-14.837542 -0.67445,-14.837541 0.48598,-4.3938958 0.48597,-4.3939177 84.4927,0.3473079 84.49269,0.3472975 V 24.629696 43.513837 l -29.67508,0.674437 -29.6751,0.674439 -0.67444,84.304227 -0.67442,84.30424 -21.66212,0.3694 -21.66209,0.3694 z m 135.46085,-0.9675 -1.52255,-1.83456 0.34575,-102.36547 0.34573,-102.3654641 h 68.11782 68.11782 V 23.955257 42.164969 l -45.18707,0.674439 -45.18706,0.674429 -0.36984,22.593535 -0.36983,22.593536 0.36983,0.287498 0.36984,0.287498 41.14046,0.724155 41.14046,0.724153 v 18.209718 18.20971 l -41.14046,0.67444 -41.14046,0.67444 v 22.93075 22.93075 l 46.53594,0.67442 46.53592,0.67444 0.37864,17.34717 0.37863,17.34718 -1.55544,1.87418 -1.55545,1.8742 h -67.11306 -67.11306 z m 175.5334,0.94125 -1.6861,-0.68037 V 108.96584 5.3597412 l 2.13362,-0.8187449 2.13362,-0.8187551 27.8787,0.020642 27.87868,0.020642 1.78487,1.1316635 1.78488,1.1316635 24.85639,63.8642158 24.85637,63.864232 1.13515,1.13515 1.13514,1.13513 1.36785,-1.74325 1.36786,-1.74325 4.70175,-12.1398 4.70174,-12.13981 19.96531,-50.582551 19.96533,-50.5825371 1.3202,-1.6860805 1.3202,-1.6860908 h 28.05075 28.05074 l 2.13361,0.8187553 2.13362,0.8187861 V 108.93394 212.50812 l -2.13362,0.81876 -2.13361,0.81874 H 769.2419 752.60169 l -2.13362,-0.81874 -2.13362,-0.81876 V 139.81357 67.119024 h -1.20455 -1.20455 l -0.70692,1.686091 -0.70693,1.68608 -8.98868,21.581884 -8.98869,21.581881 -20.26787,49.23367 -20.26786,49.23367 -1.54202,0.99101 -1.54202,0.99099 h -8.0932 -8.09321 l -1.69696,-1.07732 -1.69694,-1.07731 -29.50926,-71.85569 -29.50926,-71.855708 -1.50384,-1.503835 -1.50382,-1.503823 -0.0571,1.955857 -0.0571,1.955858 0.11182,69.790091 0.11182,69.79009 -1.45118,2.71156 -1.45118,2.71154 -17.82503,-0.10656 -17.82504,-0.10642 z"
         id="path10" />
    </g>
  </g>
</svg>
