<?xml version="1.0" encoding="UTF-8" standalone="no"?>
<!-- Created with Inkscape (http://www.inkscape.org/) -->

<svg
   version="1.1"
   id="svg1"
   width="2048"
   height="850"
   viewBox="0 0 2048 850"
   sodipodi:docname="logo.svg"
   inkscape:version="1.4.1-rc (06eac75fbf, 2025-03-29)"
   xmlns:inkscape="http://www.inkscape.org/namespaces/inkscape"
   xmlns:sodipodi="http://sodipodi.sourceforge.net/DTD/sodipodi-0.dtd"
   xmlns="http://www.w3.org/2000/svg"
   xmlns:svg="http://www.w3.org/2000/svg">
  <defs
     id="defs1" />
  <sodipodi:namedview
     id="namedview1"
     pagecolor="#505050"
     bordercolor="#eeeeee"
     borderopacity="1"
     inkscape:showpageshadow="0"
     inkscape:pageopacity="0"
     inkscape:pagecheckerboard="0"
     inkscape:deskcolor="#505050"
     inkscape:zoom="0.56252002"
     inkscape:cx="-11.555144"
     inkscape:cy="489.76035"
     inkscape:window-width="3374"
     inkscape:window-height="1371"
     inkscape:window-x="66"
     inkscape:window-y="32"
     inkscape:window-maximized="1"
     inkscape:current-layer="g10" />
  <g
     inkscape:groupmode="layer"
     inkscape:label="Image"
     id="g1">
    <g
       id="g10">
      <rect
         style="fill:#f9f9f9;stroke:none;stroke-width:17.5272"
         id="rect12"
         width="302.21393"
         height="328.67487"
         x="1622.8396"
         y="85.820557"
         ry="2.2082076" />
      <path
         style="fill:#da261a;stroke-width:2.42927"
         d="m 1601.7311,434.79967 -1.6356,-1.63558 V 246.77495 60.385858 l 3.8426,-1.474536 3.8426,-1.474554 168.0284,0.03717 168.0282,0.03718 3.0519,1.937496 3.0517,1.937515 -0.6224,186.901141 -0.6226,186.90122 -172.6646,0.6234 -172.6646,0.62336 z m 207.1034,-68.9454 0.053,-6.32101 0.6696,-39.90908 0.6695,-39.90908 38.8683,-1.21463 38.8684,-1.21463 v -31.58053 -31.58054 l -38.8684,-1.21464 -38.8683,-1.21463 -1.2147,-42.51225 -1.2146,-42.51225 h -34.0098 -34.0098 l -1.2147,42.51225 -1.2146,42.51225 -37.6536,1.21463 -37.6538,1.21464 v 31.58054 31.58053 l 37.6538,1.21463 37.6536,1.21463 0.6683,41.19195 0.6684,41.19198 0.088,3.72338 5.8639,0.0573 29.4612,0.0371 29.4611,0.0371 z"
         id="path11"
         sodipodi:nodetypes="cccccccccccccccccccccccccccccccccccccccccccc" />
      <path
         style="fill:#171a17;stroke-width:2.42927"
         d="m 1263.0695,804.47738 -12.7184,-3.56589 -12.4991,-6.33382 -12.4992,-6.33381 -11.6271,-11.62707 -11.6271,-11.62707 -6.2923,-12.4173 -6.2923,-12.41731 -3.5907,-15.22947 -3.5906,-15.22951 -0.036,-19.7099 -0.036,-19.70992 2.4263,-13.08524 2.4263,-13.08525 8.544,-17.4218 8.544,-17.42179 12.2482,-11.01217 12.2482,-11.01222 12.6556,-6.19178 12.6556,-6.19183 16.9625,-3.59306 16.9627,-3.59305 10.9317,-0.0243 10.9317,-0.0243 15.7902,2.54896 15.7902,2.54893 17.3263,8.31812 17.326,8.31811 12.2588,13.41302 12.2587,13.41299 5.9801,12.74798 5.9803,12.74798 3.0073,13.63239 3.0074,13.63239 -1.1715,28.87987 -1.1714,28.87983 -5.4728,14.19588 -5.4728,14.19584 -10.1591,12.52615 -10.159,12.52612 -11.4748,7.73182 -11.4748,7.73185 -13.9382,5.38754 -13.9382,5.38748 -29.1513,0.82978 -29.1513,0.82977 z m 61.4701,-38.83823 11.98,-3.57411 9.1934,-7.60339 9.1934,-7.6034 5.9026,-11.64828 5.9027,-11.64827 2.6901,-16.64988 2.6902,-16.64985 -1.634,-13.31829 -1.6339,-13.31828 -4.59,-12.2678 -4.59,-12.26777 -10.3476,-9.98153 -10.3477,-9.98153 -8.5024,-4.50611 -8.5024,-4.50616 -21.8635,0.007 -21.8635,0.007 -9.717,5.23557 -9.7171,5.23558 -7.7707,8.10799 -7.7707,8.10802 -5.5735,12.14637 -5.5736,12.14633 -0.016,27.93664 -0.016,27.93663 6.5769,13.39134 6.5768,13.39135 8.4424,8.18266 8.4424,8.18265 12.9174,4.46137 12.9173,4.46134 12.3128,0.0793 12.3134,0.0812 z m -1197.89912,36.97662 -1.16405,-3.03659 0.63299,-112.96113 0.63299,-112.9611 23.72544,-0.69577 23.72543,-0.69578 32.25631,49.28119 32.25629,49.28122 16.65771,26.11465 16.65774,26.11467 h 2.02552 2.02555 l 0.64243,-74.70008 0.64242,-74.7001 h 21.86343 21.86345 v 115.39037 115.3904 l -21.30163,0.70258 -21.30165,0.70254 -3.48571,-1.95071 -3.48572,-1.9507 -46.91979,-71.44212 -46.91982,-71.44208 -2.38562,-0.79592 -2.38561,-0.79585 0.85384,71.97575 0.85386,71.9758 -3.28313,2.08048 -3.28312,2.08046 -20.11772,0.0371 -20.11774,0.0371 z m 269.66283,0.0357 -1.17774,-3.0723 0.63298,-112.96113 0.63299,-112.96111 h 74.09277 74.09278 v 19.43416 19.43418 l -49.80005,1.21464 -49.80006,1.21463 -0.70366,22.8603 -0.70362,22.86029 2.37106,2.37108 2.37106,2.37103 40.92639,0.41501 40.92639,0.41504 2.95502,1.82629 2.95504,1.82629 v 16.56409 16.56408 l -3.21416,2.66751 -3.21418,2.66752 -42.33468,0.66654 -42.33466,0.66651 -0.69829,23.9342 -0.69828,23.93418 2.8177,3.39512 2.81768,3.3951 h 48.12426 48.12426 l 1.32238,4.25123 1.32235,4.25123 -1.76595,15.79028 -1.766,15.79024 -73.54797,0.64302 -73.54803,0.64304 z m 270.22693,1.46604 -1.70421,-1.70419 v -93.07579 -93.07581 l -5.46585,-1.27226 -5.46587,-1.27224 -29.15125,-0.59596 -29.15127,-0.59599 v -19.43418 -19.43416 h 92.3123 92.31232 l 0.70557,20.04149 0.70555,20.04149 -17.71044,0.28392 -17.71048,0.28396 -15.79025,1.53801 -15.79026,1.538 -1.21465,93.52697 -1.21462,93.52693 -21.98119,0.69201 -21.98121,0.69201 z m 219.96265,-1.42079 -2.55541,-3.11755 -30.70368,-110.34314 -30.70363,-110.34317 1.27157,-3.31377 1.27162,-3.31374 23.7277,0.6958 23.72767,0.69578 17.04564,68.01959 17.04563,68.0196 3.12153,11.89922 3.12152,11.89922 2.24707,-2.24707 2.24705,-2.24705 19.51966,-72.81322 19.51964,-72.81321 2.34825,-5.46586 2.34825,-5.46585 h 24.20143 24.2015 l 1.5437,2.49785 1.5438,2.49788 20.5114,76.90673 20.5115,76.90669 1.1662,1.16624 1.1663,1.16626 1.5819,-1.5819 1.5819,-1.58192 18.6003,-76.03658 18.6002,-76.03657 1.8246,-2.95235 1.8246,-2.95233 h 22.9348 22.9347 v 4.80292 4.80288 l -29.2391,105.80166 -29.2389,105.80166 -2.2814,6.00046 -2.2814,6.00047 -23.7456,-0.0371 -23.7455,-0.0371 -2.7831,-1.78474 -2.7831,-1.78476 -21.0997,-72.87313 -21.0997,-72.87311 -1.0577,-1.05773 -1.05771,-1.0577 -2.49042,2.49043 -2.4904,2.49038 -21.19724,72.65507 -21.19729,72.65505 -24.49262,0.6883 -24.49263,0.68825 z m 598.11041,-0.081 -1.1642,-3.03659 0.6331,-112.96113 0.6329,-112.9611 h 60.7319 60.7317 l 12.2234,4.2703 12.2233,4.27031 8.8784,7.31832 8.8783,7.3183 6.8219,13.91873 6.8218,13.91875 0.01,20.64878 0.01,20.64883 -5.5835,12.14633 -5.5837,12.14637 -7.7706,8.10239 -7.7707,8.10242 -6.6806,3.499 -6.6804,3.49904 v 3.38079 3.3808 l 10.4834,17.81294 10.4834,17.81293 12.5602,23.31499 12.5602,23.31501 -1.5851,1.58504 -1.585,1.58505 -22.0659,-0.0371 -22.0659,-0.0371 -2.7357,-1.78472 -2.7357,-1.78478 -23.0167,-41.29761 -23.0167,-41.29763 -17.3672,-0.71375 -17.3691,-0.71379 v 40.9182 40.91818 l -2.9152,2.91512 -2.9151,2.91512 h -21.4537 -21.4539 z m 104.5605,-123.21452 9.7171,-2.24233 6.6805,-7.4551 6.6804,-7.4551 V 648.8053 635.36201 l -3.8052,-7.35855 -3.8053,-7.35853 -8.263,-3.45255 -8.2631,-3.45254 h -26.7999 -26.8001 v 32.39028 32.39031 l 1.6195,1.61951 1.6195,1.61951 20.8513,-0.058 20.8512,-0.058 z m 143.2603,123.30624 -1.1993,-3.12831 0.6331,-112.96113 0.6329,-112.9611 h 23.0781 23.0781 l 0.6586,47.97811 0.6587,47.9781 h 2.0862 2.0862 l 31.2302,-35.83176 31.2301,-35.83175 11.9262,-12.75367 11.9263,-12.75366 h 23.9402 23.9403 l -0.043,3.03658 -0.043,3.03658 -38.8257,44.77379 -38.8256,44.77374 v 3.34992 3.3499 l 34.4727,47.83255 34.4727,47.83254 10.4689,14.91428 10.4686,14.91426 v 2.69796 2.69795 h -26.2575 -26.2578 l -3.8055,-3.0366 -3.8055,-3.03659 -32.0705,-44.94153 -32.0704,-44.94151 -3.0778,-0.71249 -3.0778,-0.7125 -9.4887,11.56818 -9.4885,11.56818 -1.2146,36.51511 -1.2147,36.5151 -22.5119,0.69903 -22.5118,0.69901 z M 211.76692,437.66661 l -14.57563,-3.2087 -13.10386,-5.20321 -13.10386,-5.2032 -13.04066,-8.65589 -13.04069,-8.6559 -8.54064,-9.97784 -8.54064,-9.97783 -5.78652,-12.2369 -5.78655,-12.2369 -3.05476,-14.79986 -3.05479,-14.79985 1.39212,-3.6278 1.39215,-3.62782 34.38614,-2.88101 34.38614,-2.88102 2.28234,1.41054 2.28236,1.41056 0.0243,4.10789 0.0243,4.10784 5.7422,12.14637 5.74218,12.14635 6.98775,6.55025 6.98776,6.55024 11.73989,5.19132 11.7399,5.19133 17.71813,1.34 17.7181,1.34001 16.96528,-5.15303 16.96529,-5.15305 9.97493,-10.82153 9.97498,-10.82154 1.59712,-6.36352 1.59712,-6.36348 -1.32307,-9.86421 -1.32307,-9.86417 -8.08687,-8.408 -8.08689,-8.408 -4.08519,-2.22654 -4.0852,-2.22647 -50.57339,-13.51617 -50.5734,-13.51613 -20.29994,-9.75985 -20.29994,-9.75981 -10.86718,-10.86718 -10.86718,-10.86716 -5.83658,-12.74873 -5.83659,-12.74879 -2.81781,-18.12486 -2.81781,-18.12486 3.92494,-19.24664 3.92495,-19.24666 6.15539,-12.58112 6.15536,-12.58111 12.15569,-12.155678 12.15566,-12.155676 15.54019,-7.650416 15.54017,-7.650394 18.83152,-4.816288 18.83152,-4.816289 25.72606,0.0422 25.72607,0.0422 17.0049,3.570232 17.00489,3.570232 18.21954,8.959164 18.21955,8.959185 13.66511,13.652835 13.6651,13.652863 5.34251,10.47218 5.34249,10.47218 3.37086,16.11088 3.37082,16.11089 -2.30429,2.30426 -2.30428,2.30429 -34.38021,2.1242 -34.38023,2.12422 -1.68999,-1.97007 -1.69002,-1.97008 -4.2293,-11.49445 -4.22936,-11.49445 -10.60405,-9.33407 -10.60407,-9.33408 -9.53537,-2.85686 -9.53536,-2.85688 -16.72306,0.0244 -16.72306,0.0243 -12.24564,5.7023 -12.24562,5.70231 -6.48455,7.70646 -6.48458,7.70646 -1.60711,8.56672 -1.60712,8.56666 1.44704,8.91705 1.44704,8.91707 4.56557,6.11509 4.56558,6.1151 10.6808,5.40903 10.68078,5.40903 32.79516,8.69582 32.79516,8.69583 22.17589,7.26841 22.17592,7.26839 14.26316,8.55253 14.26319,8.55249 9.24531,8.9576 9.24528,8.95766 7.59994,15.41485 7.59993,15.41489 1.08072,20.5899 1.08068,20.58995 -4.24638,15.68733 -4.24636,15.68734 -9.07031,14.03352 -9.07029,14.03355 -9.46781,7.87485 -9.46781,7.87489 -17.00491,8.38919 -17.00489,8.38919 -19.21544,4.85671 -19.21658,4.85544 -31.79925,-0.19312 -31.79925,-0.19312 z m 347.84864,-2.82516 -1.67748,-1.67744 -0.0371,-148.38804 -0.0371,-148.38797 -1.89859,-2.98881 -1.89858,-2.98878 -54.54478,-0.65512 -54.54484,-0.65512 -1.21464,-26.72197 -1.21466,-26.721979 0.87524,-7.913278 0.87521,-7.913317 152.16889,0.625492 152.16886,0.625472 v 34.009893 34.009787 l -53.44394,1.21464 -53.444,1.21464 -1.21464,151.82946 -1.21461,151.82947 -39.01285,0.66527 -39.01278,0.66529 z m 243.96104,-1.74244 -2.74207,-3.30399 0.62268,-184.35723 0.62265,-184.3572 h 122.6782 122.67824 V 93.875838 126.671 l -81.38062,1.21464 -81.38058,1.21463 -0.66607,40.69029 -0.66605,40.6903 0.66605,0.51778 0.66607,0.51777 74.09277,1.30418 74.09273,1.30418 v 32.79517 32.79516 l -74.09273,1.21464 -74.09277,1.21465 v 41.29761 41.29761 l 83.80987,1.21462 83.80993,1.21464 0.6818,31.24174 0.682,31.24178 -2.8013,3.37534 -2.8013,3.37537 H 927.18734 806.31868 Z m 316.1305,1.69516 -3.0366,-1.22532 V 246.97741 60.385858 l 3.8426,-1.474536 3.8426,-1.474554 50.2087,0.03717 50.2087,0.03718 3.2145,2.038092 3.2145,2.038092 44.7657,115.017588 44.7656,115.01761 2.0443,2.04438 2.0444,2.04433 2.4635,-3.13954 2.4634,-3.13954 8.4677,-21.86343 8.4677,-21.86344 35.9569,-91.0977 35.957,-91.097667 2.3777,-3.036582 2.3776,-3.0366 h 50.5186 50.5186 l 3.8426,1.474555 3.8425,1.474609 V 246.91996 433.45404 l -3.8425,1.47456 -3.8426,1.47452 h -29.9686 -29.9685 l -3.8426,-1.47452 -3.8425,-1.47456 V 302.53327 171.61252 h -2.1694 -2.1694 l -1.2732,3.03659 -1.2731,3.03659 -16.1883,38.86835 -16.1884,38.86833 -36.5019,88.6684 -36.5017,88.6684 -2.7772,1.78478 -2.7772,1.78474 h -14.5756 -14.5756 l -3.0561,-1.94022 -3.0562,-1.9402 -53.1453,-129.41 -53.1453,-129.41003 -2.7084,-2.70836 -2.7084,-2.70834 -0.1028,3.52244 -0.1029,3.52245 0.2015,125.68991 0.2014,125.68992 -2.6135,4.88343 -2.6136,4.8834 -32.1023,-0.19191 -32.1024,-0.19166 z"
         id="path10" />
    </g>
  </g>
</svg>
