<?xml version="1.0" encoding="UTF-8" standalone="no"?>
<!-- Created with Inkscape (http://www.inkscape.org/) -->

<svg
   version="1.1"
   id="svg1"
   width="350"
   height="350"
   viewBox="0 0 350 350"
   sodipodi:docname="icon1-background.svg"
   inkscape:version="1.4.1-rc (06eac75fbf, 2025-03-29)"
   xmlns:inkscape="http://www.inkscape.org/namespaces/inkscape"
   xmlns:sodipodi="http://sodipodi.sourceforge.net/DTD/sodipodi-0.dtd"
   xmlns="http://www.w3.org/2000/svg"
   xmlns:svg="http://www.w3.org/2000/svg">
  <defs
     id="defs1" />
  <sodipodi:namedview
     id="namedview1"
     pagecolor="#505050"
     bordercolor="#eeeeee"
     borderopacity="1"
     inkscape:showpageshadow="0"
     inkscape:pageopacity="0"
     inkscape:pagecheckerboard="0"
     inkscape:deskcolor="#505050"
     inkscape:zoom="0.72340594"
     inkscape:cx="599.2486"
     inkscape:cy="300.66106"
     inkscape:window-width="1854"
     inkscape:window-height="1011"
     inkscape:window-x="66"
     inkscape:window-y="32"
     inkscape:window-maximized="1"
     inkscape:current-layer="g1" />
  <g
     inkscape:groupmode="layer"
     inkscape:label="Image"
     id="g1">
    <rect
       style="fill:#ffffff;fill-opacity:1;stroke:#ffffff;stroke-width:0;stroke-dasharray:none"
       id="rect3"
       width="349.12613"
       height="349.12613"
       x="1.0373418"
       y="-0.38702133"
       ry="69.007233" />
    <g
       id="g2"
       transform="matrix(1.0063715,0,0,1.0063715,-55.391793,-304.10019)">
      <path
         style="fill:#c01c18"
         d="m 209.88448,622.06428 c -18.95959,-20.20286 -44.0674,-30.76039 -90.26688,-37.95614 -13.22853,-2.0604 -16.21846,-2.84018 -17.67238,-4.60903 -1.64515,-2.00148 -1.75,-9.329 -1.75,-122.29575 0,-107.14179 0.16873,-120.40761 1.5567,-122.38922 l 1.55671,-2.22251 h 60.74329 c 45.91146,0 61.03631,0.29301 61.9433,1.2 0.90244,0.90245 1.2,14.04445 1.2,53 0,28.49 0.35298,51.8 0.78439,51.8 0.43142,0 1.52749,-1.25795 2.43571,-2.79545 3.00148,-5.08111 19.52742,-20.07541 28.98099,-26.29501 12.24328,-8.05498 20.87757,-12.32824 40.79891,-20.1921 21.76481,-8.59155 54.45049,-19.71744 57.92601,-19.71744 1.52021,0 3.50876,0.82294 4.419,1.82874 1.51937,1.67888 1.65499,11.05993 1.65499,114.47695 v 112.64821 l -2.25,1.40884 c -1.2375,0.77486 -9.675,3.02021 -18.75,4.98965 -92.12544,19.99296 -119.17692,25.64761 -122.69651,25.64761 -1.9857,0 -4.52965,-2.04378 -10.61423,-8.52735 z M 302.07421,597.488 c 24.95845,-5.46578 45.65845,-10.10933 46,-10.319 0.34156,-0.20967 0.48254,-5.7937 0.31331,-12.40896 l -0.3077,-12.02774 -17.4672,5.91519 c -31.29929,10.59938 -50.19904,19.14492 -65.9646,29.82596 -4.92404,3.336 -10.0778,7.01285 -11.4528,8.17077 l -2.5,2.10533 3,-0.66189 c 1.65,-0.36404 23.42055,-5.13389 48.37899,-10.59966 z m -86.6935,-113.85261 c -4.60746,-5.76868 -18.32816,-16.23817 -27.83097,-21.23623 -15.95751,-8.39295 -29.04119,-12.24907 -51.85452,-15.28298 -6.6,-0.87773 -13.4625,-1.8549 -15.25,-2.1715 l -3.25,-0.57563 v 61.59224 61.59224 l 2.25,0.43935 c 1.2375,0.24164 9,1.65978 17.25,3.15142 32.15702,5.81413 54.48763,14.78991 74,29.74426 l 7,5.36482 0.25795,-59.53711 0.25795,-59.53712 z m 26.28026,112.32431 c 22.41438,-18.04097 41.80569,-27.70107 85.82802,-42.75663 l 20.79377,-7.11144 -0.0556,-78.42853 c -0.0306,-43.1357 -0.1628,-78.53565 -0.29377,-78.66657 -0.40762,-0.40744 -37.63718,13.08853 -49.73813,18.03042 -31.41441,12.8293 -53.06987,30.29091 -62.25478,50.19837 l -2.24522,4.86631 v 69.74794 c 0,38.36136 0.225,69.74317 0.5,69.73734 0.275,-0.006 3.63459,-2.53357 7.46575,-5.61721 z m -65.65695,-181.36996 -0.3088,-12.00189 12.25,0.002 12.25,0.002 V 390.5296 378.46757 l -12.09107,0.28277 -12.09107,0.28278 -0.15893,-11.97074 -0.15893,-11.97075 -11.75,-0.28173 -11.75,-0.28174 v 12.4092 12.40919 l -11.75,-0.12746 -11.75,-0.12746 -0.28174,11.75 -0.28173,11.75 h 12.58462 12.58462 l -0.10967,11.25 c -0.0603,6.1875 -0.0841,11.5875 -0.0529,12 0.0312,0.4125 5.25825,0.75 11.61559,0.75 h 11.5588 z m 419.6912,208.06554 c -5.41298,-0.92836 -9.60247,-3.27738 -13.2457,-7.42679 -4.04175,-4.6033 -5.6981,-9.75589 -5.67056,-17.63999 0.0519,-14.85169 11.43293,-25.08922 26.38445,-23.73347 10.99865,0.99732 18.55335,7.40524 21.06272,17.86544 2.43616,10.15507 -1.4926,22.14711 -8.94847,27.31403 -2.9977,2.07741 -12.58967,4.91738 -14.96893,4.43197 -0.33743,-0.0688 -2.41351,-0.43388 -4.61351,-0.81119 z m 12.88512,-11.15194 c 3.83731,-3.01843 5.61488,-7.10049 5.61488,-12.89417 0,-6.256 -2.0156,-11.32643 -5.37838,-13.5298 -3.94679,-2.58604 -9.76994,-2.98572 -14.03226,-0.96312 -9.09395,4.31536 -10.34706,20.80121 -2.07568,27.30748 3.78992,2.98115 12.12955,3.02298 15.87144,0.0796 z m 108.25743,11.06009 c -8.9636,-2.68615 -12.84579,-15.01152 -6.93924,-22.03105 3.63609,-4.32124 7.29312,-5.67385 17.60189,-6.51029 8.34556,-0.67716 8.6948,-0.80303 8.6948,-3.13372 0,-3.79945 -1.68543,-6.03781 -5.49232,-7.2942 -4.57135,-1.50868 -10.19395,0.21478 -11.73502,3.59707 -0.90992,1.99707 -1.82283,2.40039 -5.43318,2.40039 -3.76235,0 -4.33948,-0.28354 -4.33948,-2.13196 0,-1.17258 0.91697,-3.61566 2.03771,-5.42905 6.30075,-10.19483 27.70043,-9.84262 33.1383,0.54541 1.57157,3.0022 1.82399,6.01213 1.82399,21.75 v 18.2656 h -4.5 c -4.36211,0 -4.5,-0.0947 -4.5,-3.08889 v -3.08889 l -3.03106,2.55046 c -4.8208,4.05644 -11.30539,5.40345 -17.32639,3.59912 z m 15.95745,-11.3718 c 2.60741,-2.6074 3.4,-4.23921 3.4,-7 0,-3.5695 -0.036,-3.59995 -4.25,-3.59442 -5.34901,0.007 -11.22072,1.608 -13.21626,3.60354 -2.0147,2.0147 -1.95447,6.26851 0.12125,8.56214 1.13047,1.24916 3.06373,1.82874 6.1,1.82874 3.72178,0 4.99821,-0.5532 7.84501,-3.4 z m -307.10804,9.65 c 0.98492,-2.44155 20.25178,-52.58105 22.6898,-59.04723 l 1.99728,-5.29723 5.60273,0.29723 5.60273,0.29723 11.67308,30.5 c 6.4202,16.775 11.9965,31.53609 12.39178,32.80241 0.70027,2.24343 0.56922,2.29467 -5.11534,2 l -5.83402,-0.30241 -2.86328,-8.25 -2.86328,-8.25 h -12.38672 c -6.8127,0 -12.71297,-0.0338 -13.11172,-0.075 -0.39875,-0.0412 -2.01125,3.78375 -3.58333,8.5 l -2.85834,8.575 h -6.02365 c -5.33908,0 -5.94343,-0.19888 -5.31772,-1.75 z m 39.50804,-24.95975 c 0,-1.47948 -8.46701,-26.29015 -8.97123,-26.28818 -0.29082,10e-4 -2.51111,5.51364 -4.93397,12.25 -2.42285,6.73637 -4.6085,12.81043 -4.85698,13.49793 -0.34142,0.94461 1.89531,1.25 9.15519,1.25 5.28384,0 9.60699,-0.31938 9.60699,-0.70975 z m 31.84781,24.69184 c -3.7238,-1.96734 -7.84781,-7.40631 -7.84781,-10.35012 0,-1.24385 0.97478,-1.63197 4.09879,-1.63197 3.26478,0 4.66901,0.61043 6.90121,3 2.32805,2.49218 3.58087,3 7.40121,3 5.00636,0 8.59879,-2.45554 8.59879,-5.87755 0,-2.82595 -2.15302,-4.09907 -10.43,-6.16745 -9.05279,-2.26225 -12.395,-4.29191 -14.20643,-8.62728 -1.96529,-4.70361 -1.68473,-8.5512 0.90636,-12.42983 3.16272,-4.7343 7.96527,-6.89446 15.33219,-6.89633 4.68367,-0.001 6.87058,0.52146 9.40805,2.24844 3.66755,2.49611 6.48693,6.07936 7.47481,9.5 0.61306,2.12281 0.36334,2.25 -4.41759,2.25 -2.78707,0 -5.06739,-0.45 -5.06739,-1 0,-0.55 -0.9,-1.9 -2,-3 -3.93952,-3.93951 -13,-1.54597 -13,3.43426 0,3.27089 1.68256,4.32363 9.8629,6.17099 11.40746,2.57613 16.09081,6.78729 16.12236,14.49687 0.0187,4.58245 -3.46193,9.86371 -8.00519,12.14633 -4.89066,2.45715 -16.24817,2.314 -21.13226,-0.26636 z m 44.12351,-0.0751 c -4.10643,-2.38227 -7.97132,-7.5793 -7.97132,-10.71884 0,-1.92666 0.53771,-2.18812 4.5,-2.18812 2.475,0 4.5,0.47046 4.5,1.04546 0,0.575 1.10454,2.15 2.45454,3.5 4.77249,4.77249 15.54546,2.40035 15.54546,-3.42301 0,-2.84009 -2.15753,-4.1002 -10.65687,-6.22414 -4.26497,-1.0658 -8.77756,-2.60816 -10.02799,-3.42748 -3.61797,-2.37058 -5.60758,-7.184 -5.04233,-12.19881 0.87921,-7.80038 7.16279,-12.27202 17.24473,-12.27202 8.04003,0 13.8949,3.66129 16.3911,10.25 1.03918,2.74293 1.03047,2.75 -3.38794,2.75 -3.39178,0 -5.01561,-0.58581 -6.92979,-2.5 -4.41964,-4.41963 -13.59091,-2.43957 -13.59091,2.93426 0,3.27089 1.68256,4.32363 9.8629,6.17099 7.90431,1.78502 12.94402,4.64267 14.85779,8.42477 3.0467,6.02108 0.21604,14.07002 -6.22069,17.68846 -5.45716,3.06777 -16.40038,3.16357 -21.52868,0.18848 z m 105.02868,0.55396 c -9.37072,-4.18422 -14.65265,-13.74149 -13.7575,-24.89321 1.03672,-12.91527 8.70202,-20.98973 21.1351,-22.26323 7.02761,-0.71983 12.97106,1.11311 17.83194,5.49933 3.3957,3.06409 6.79046,8.3954 6.79046,10.66407 0,0.29267 -2.28022,0.53212 -5.06715,0.53212 -4.4764,0 -5.44448,-0.40008 -8.30363,-3.43166 -4.07092,-4.31643 -7.77866,-5.30461 -13.03261,-3.47343 -5.90123,2.05679 -8.59661,6.57336 -8.59661,14.40509 0,9.74903 4.85138,15.45186 13.17327,15.48526 3.99726,0.016 9.23453,-3.54405 10.34067,-7.02918 0.51778,-1.6314 1.54056,-1.95608 6.16185,-1.95608 h 5.54103 l -0.6779,2.75 c -1.15666,4.6922 -3.95999,8.59942 -8.4177,11.73242 -3.72942,2.62113 -5.27386,3.04442 -11.95204,3.27571 -5.29047,0.18323 -8.75476,-0.21912 -11.16918,-1.29721 z m 40,-21.96092 v -23.5 h 5.5 5.5 v 23.5 23.5 h -5.5 -5.5 z m 83.07108,21.74845 c -6.74134,-3.4375 -7.51773,-5.62366 -7.92483,-22.31476 l -0.36424,-14.93369 h -2.891 c -2.70618,0 -2.89101,-0.25573 -2.89101,-4 0,-3.77777 0.16667,-4 3,-4 h 3 v -6.33333 c 0,-3.48333 0.18728,-6.52083 0.41618,-6.75 0.22889,-0.22917 2.70389,-0.26074 5.5,-0.0702 l 5.08382,0.34651 v 6.40349 6.40348 h 5.5 5.5 v 4 4 h -5.5 -5.5 v 12.7775 c 0,15.70447 0.84479,17.5953 7.62052,17.05641 l 4.37948,-0.34832 v 4.15022 c 0,2.86196 -0.491,4.33863 -1.58179,4.7572 -3.06314,1.17544 -9.95662,0.5843 -13.34713,-1.14456 z m 23.59559,1.08489 c -0.36667,-0.36667 -0.66667,-10.94167 -0.66667,-23.5 v -22.83334 h 5.5 5.5 v 23.5 23.5 h -4.83333 c -2.65834,0 -5.13334,-0.3 -5.5,-0.66666 z m 31.76259,-1.22615 c -4.88216,-2.21743 -9.72238,-7.80446 -11.28783,-13.02947 -1.75775,-5.86684 -1.38589,-15.95617 0.75842,-20.57772 5.4796,-11.80995 20.31858,-16.8712 32.64101,-11.13313 6.39988,2.98017 10.0093,7.27794 12.07238,14.37466 3.76019,12.93462 -1.72764,26.06723 -12.83112,30.70542 -5.19159,2.16866 -16.21626,1.99323 -21.35286,-0.33976 z m 17.54072,-8.3865 c 4.3018,-2.17673 7.03002,-7.37729 7.03002,-13.40069 0,-10.91346 -5.25171,-16.79743 -14.29675,-16.01796 -3.55678,0.30651 -5.5643,1.14872 -7.76595,3.25803 -7.15384,6.85382 -6.04238,21.59569 1.95597,25.94302 3.24557,1.76407 9.80479,1.87321 13.07671,0.2176 z m 27.03002,-13.3994 v -23.32129 h 5 c 4.78051,0 5.00133,0.12072 5.03041,2.75 0.027,2.44175 0.15061,2.5432 1.10281,0.90508 1.45524,-2.50355 8.5812,-5.61115 12.86678,-5.61115 4.05475,0 10.74859,2.82711 13.1804,5.56667 3.15818,3.55788 3.738,7.31645 3.87159,25.09707 l 0.13368,17.79233 -5.09284,0.30226 -5.09283,0.30226 -0.004,-16.30226 c -0.003,-14.39475 -0.23174,-16.67619 -1.9523,-19.498 -2.50369,-4.10616 -7.33702,-5.20809 -12.36947,-2.82004 -5.7326,2.7203 -6.67449,6.03183 -6.67449,23.46635 v 15.1483 l -5,-0.22814 -5,-0.22815 z M 687.88978,566.48051 c -2.97924,-1.73316 -3.90896,-5.57359 -2.1655,-8.94508 2.97542,-5.75382 12.47094,-3.36405 12.47094,3.13861 0,1.80403 -0.92035,3.49638 -2.63486,4.84501 -2.9107,2.28956 -4.94854,2.54499 -7.67058,0.96146 z m 105.9403,-0.96146 c -5.05542,-3.97659 -2.43317,-10.92742 4.12245,-10.92742 3.8935,0 6.24269,2.28474 6.24269,6.07143 0,3.30875 -3.06424,6.92857 -5.86514,6.92857 -1.02583,0 -3.05083,-0.93266 -4.5,-2.07258 z M 515.51945,527.95409 c -5.91682,-2.09656 -12.76078,-8.51146 -15.87776,-14.88235 -3.63766,-7.4351 -4.48619,-19.76637 -1.92128,-27.9209 2.24488,-7.13704 8.64258,-14.46727 15.69334,-17.98082 9.19067,-4.5799 22.51432,-2.92953 29.53147,3.65799 l 2.25,2.11225 v -16.67431 -16.67432 h 6.97952 6.97951 l 0.27049,44.08393 c 0.14876,24.24615 0.19739,44.15865 0.10806,44.25 -0.0893,0.0913 -3.35184,0.0167 -7.25,-0.16599 l -7.08758,-0.33206 v -3.49586 -3.49586 l -4.18465,3.5819 c -2.30156,1.97005 -5.78906,4.0276 -7.75,4.57235 -5.00094,1.38924 -12.81637,1.10909 -17.74112,-0.63595 z m 20.17293,-13.65913 c 13.87011,-7.85527 11.11206,-32.40386 -4.11289,-36.60767 -6.39956,-1.767 -14.43827,2.24532 -17.8399,8.90434 -3.55094,6.95133 -2.50908,18.40159 2.12955,23.40414 3.02854,3.26615 9.7009,6.54946 13.32608,6.55745 1.375,0.003 4.29872,-1.01319 6.49716,-2.25826 z m 110.83529,13.44561 c -9.07365,-3.13563 -15.84197,-9.67301 -18.85437,-18.21106 -1.67653,-4.75179 -2.1946,-16.35913 -0.98132,-21.98652 1.83922,-8.53065 7.61902,-15.8537 15.69972,-19.89168 5.32405,-2.66046 7.17857,-3.0584 14.21324,-3.04991 9.81788,0.0119 16.20401,2.58393 21.78371,8.77358 4.98188,5.52648 6.53183,8.79063 7.75569,16.3332 1.7819,10.98181 4.23567,9.88345 -22.07996,9.88345 h -23.13085 l 0.60474,3.72655 c 0.72293,4.45488 3.16218,7.97126 7.64678,11.02345 6.26921,4.26679 17.80765,2.23397 20.98153,-3.69649 0.96003,-1.79383 2.05668,-2.05351 8.67223,-2.05351 h 7.57323 l -0.65974,2.62859 c -0.95989,3.8245 -4.641,8.86196 -9.0173,12.3398 -7.40954,5.88836 -20.15935,7.65288 -30.20733,4.18055 z m 25.13002,-39.39894 c -1.34042,-4.48605 -4.03382,-8.06196 -7.44687,-9.8869 -3.75653,-2.00861 -10.3797,-2.43556 -14.35224,-0.92521 -2.96687,1.128 -7.24588,6.51318 -8.19391,10.31211 l -0.68627,2.75 h 15.6758 15.67579 z m 45.272,40.22315 c -9.23725,-2.3264 -16.00868,-7.72735 -20.49244,-16.34494 -2.3321,-4.4822 -2.67287,-6.32493 -2.70513,-14.62821 -0.0327,-8.42775 0.27982,-10.14497 2.76925,-15.21444 5.44513,-11.08844 15.60607,-17.10241 28.75641,-17.02009 11.07248,0.0693 21.18273,6.06996 26.02217,15.44469 3.26463,6.32408 2.88615,6.78984 -5.51734,6.78984 -6.52162,0 -7.5094,-0.24194 -8.05911,-1.97391 -1.61268,-5.08109 -10.8477,-8.81959 -17.41693,-7.05068 -13.55992,3.6513 -16.28987,26.583 -4.1394,34.77119 6.60655,4.45216 17.81913,2.06167 20.98482,-4.47389 1.56009,-3.22081 1.57879,-3.22733 9.31323,-3.25 8.83427,-0.0259 8.87186,0.0262 5.39869,7.48457 -2.66613,5.72529 -8.11435,10.92647 -14.32161,13.67224 -5.05484,2.23599 -15.29476,3.1279 -20.59261,1.79363 z m -283.31705,-0.88981 c -0.22958,-0.22917 -0.41742,-19.91667 -0.41742,-43.75 v -43.33334 h 27.5 27.5 v 7 7 h -19.5 -19.5 v 11 11 h 17.5 17.5 v 6.5 6.5 h -17.5 -17.5 v 12.5 12.5 h 19.5 19.5 l 3e-4,6.75 3.1e-4,6.75 h -27.08288 c -14.89559,0 -27.27072,-0.1875 -27.50031,-0.41666 z m 166.33258,0.1246 -7.75,-0.29207 v -36.45793 -36.45794 h -12.5 -12.5 v -7 -7 l 33.75,-5.4e-4 33.75,-5.5e-4 -0.14663,6.75055 -0.14663,6.75054 -13.09123,0.27894 -13.09123,0.27894 -0.26214,36.72106 -0.26214,36.72106 z m 162.48949,-43.95794 0.26051,-43.75 7.25,-0.29381 7.25,-0.29381 v 16.47619 16.47618 l 5.04597,-3.39568 c 12.00104,-8.0761 27.40722,-5.09263 33.95403,6.57534 2.4401,4.34884 2.50789,5.02461 2.82932,28.20559 l 0.32932,23.75 h -7.57932 -7.57932 l -0.002,-20.25 c -0.002,-22.16337 -0.78149,-25.8646 -5.99845,-28.47134 -3.66162,-1.8296 -10.05275,-1.54391 -13.58004,0.60702 -5.93269,3.61775 -6.75883,7.25286 -6.5566,28.84951 l 0.18039,19.26481 h -8.03238 -8.03239 z m -309.49357,-67.2724 c -12.5075,-3.1586 -20.1142,-10.78695 -22.1645,-22.2276 l -0.67205,-3.75 h 8.04532 c 7.18474,0 8.04531,0.19951 8.04531,1.86514 0,2.89147 3.92353,7.1957 8.4214,9.23853 8.16234,3.70715 19.6818,1.35477 22.38154,-4.57051 3.58302,-7.86388 -0.23393,-14.11167 -10.34445,-16.93235 -23.16665,-6.46314 -28.70548,-9.53163 -32.57236,-18.045 -3.98765,-8.77923 -1.14408,-21.79519 6.09169,-27.88369 14.8594,-12.50336 43.45531,-8.22771 50.83759,7.60122 1.08417,2.32466 2.25281,5.46416 2.59696,6.97666 l 0.62573,2.75 -7.76905,-0.0216 c -7.7645,-0.0216 -7.76993,-0.0235 -9.26905,-3.24053 -2.36797,-5.08149 -7.24188,-7.73783 -14.19754,-7.73783 -9.78505,0 -14.80246,3.94331 -14.80246,11.63362 0,5.5147 3.57322,8.57863 13.29086,11.3965 18.54715,5.37822 22.66195,7.15655 26.90609,11.6283 3.99861,4.21305 5.80305,9.45227 5.80305,16.8493 0,10.4567 -5.19514,18.0466 -15.45438,22.57826 -5.61168,2.47877 -19.45543,3.49378 -25.7997,1.89162 z m 192.43669,-0.81333 c -5.87455,-2.10191 -11.2835,-6.74977 -13.644,-11.72414 -2.73359,-5.76062 -2.25864,-6.44013 4.50144,-6.44013 5.74588,0 6.22538,0.19482 9.84517,4 3.6049,3.78954 4.11724,4 9.73744,4 6.60012,0 9.91705,-1.65915 11.46703,-5.73589 0.71501,-1.88064 0.5683,-3.13714 -0.56899,-4.87286 -1.51841,-2.31738 -3.11158,-2.90302 -18.69719,-6.87293 -12.06426,-3.07297 -17.93967,-10.58955 -16.38438,-20.96099 0.82235,-5.4838 4.88153,-10.61379 10.96619,-13.85907 3.33763,-1.78014 5.75866,-2.18392 13.09468,-2.18392 9.91692,0 14.49111,1.65906 19.69695,7.14408 2.95079,3.10903 6.09415,9.71715 5.09673,10.71457 -0.34486,0.34486 -3.44669,0.62701 -6.89296,0.62701 -5.39908,0 -6.35425,-0.27821 -6.9042,-2.01096 -1.793,-5.64923 -16.24316,-6.81317 -19.73121,-1.58933 -1.34358,2.0122 -0.78933,6.26858 1.03076,7.91574 0.98784,0.89399 6.05034,2.59677 11.25,3.78396 11.13002,2.54122 15.74385,4.67379 19.32843,8.93382 3.26793,3.88371 4.00097,6.70738 3.39053,13.06037 -0.97747,10.17268 -9.79766,16.7567 -23.48713,17.53246 -5.96708,0.33815 -9.01587,-0.002 -13.09529,-1.46179 z m 62.2154,0.94852 c -8.44804,-2.17778 -16.25832,-9.34827 -17.82278,-16.36279 l -0.61334,-2.75 h 6.85854 c 6.30948,0 6.94797,0.19629 7.9757,2.4519 1.79273,3.93462 6.60133,5.83207 13.51294,5.33213 4.71392,-0.34098 6.38239,-0.91973 7.83966,-2.71938 4.62238,-5.70839 1.03287,-10.23103 -10.05026,-12.66294 -16.24048,-3.56355 -21.87593,-7.14782 -24.07425,-15.31177 -2.66664,-9.90312 3.25769,-19.31436 14.2047,-22.56528 13.47585,-4.0019 27.70991,0.55463 32.78031,10.49344 3.24586,6.36241 2.87441,6.9819 -4.1864,6.9819 -5.71542,0 -6.37524,-0.23724 -8.82666,-3.17365 -2.33237,-2.7938 -3.38002,-3.22649 -8.75313,-3.61515 -5.52494,-0.39964 -6.34729,-0.19785 -8.67335,2.1282 -3.20144,3.20144 -3.33895,7.11055 -0.31969,9.08849 1.2375,0.81069 6.14134,2.38124 10.89741,3.4901 4.75608,1.10886 10.49526,2.75547 12.75373,3.65913 14.45721,5.78463 14.16733,25.839 -0.47706,33.00383 -5.96836,2.92005 -16.87013,4.11876 -23.02607,2.53184 z m -146.85879,-1.11279 c -0.14772,-0.275 -2.88619,-9.3875 -6.08549,-20.25 -3.19929,-10.8625 -6.18518,-19.75 -6.63531,-19.75 -0.45013,0 -0.81842,0.61798 -0.81842,1.37329 0,0.75531 -1.53719,6.49281 -3.41598,12.75 -1.87879,6.25719 -4.37815,14.65702 -5.55413,18.66628 l -2.13815,7.28957 -8.11335,-0.28957 -8.11335,-0.28957 -10.33252,-30.98782 c -5.68289,-17.0433 -10.33289,-31.2183 -10.33334,-31.5 -4.4e-4,-0.2817 3.37963,-0.51218 7.51128,-0.51218 h 7.51209 l 6.48872,20.15499 c 3.5688,11.08525 6.48873,20.64775 6.48873,21.25 0,0.60226 0.35094,1.09501 0.77987,1.09501 0.42893,0 2.48184,-5.7375 4.56203,-12.75 2.08018,-7.0125 4.92128,-16.42722 6.31354,-20.9216 l 2.53139,-8.1716 6.9432,-0.3284 6.9432,-0.3284 3.04529,10 c 1.6749,5.5 4.65094,15.175 6.61342,21.5 l 3.56813,11.5 2.29222,-7 c 1.26072,-3.85 4.33131,-13.525 6.82354,-21.5 l 4.53131,-14.5 h 7.52643 c 4.13954,0 7.52046,0.225 7.51317,0.5 -0.007,0.275 -4.67502,14.60436 -10.37273,31.84302 l -10.35948,31.34303 -7.72336,0.15697 c -4.24785,0.0863 -7.84423,-0.068 -7.99195,-0.34302 z m 44.08596,0.29185 c -0.11449,-0.11449 -0.0652,-14.44618 0.10951,-31.8482 l 0.31766,-31.64005 6.97431,-0.1518 6.97432,-0.1518 -4.9e-4,32 -4.9e-4,32 h -7.08333 c -3.89584,0 -7.17701,-0.0937 -7.29149,-0.20815 z m 2.14996,-73.80123 c -3.35756,-1.88297 -4.77514,-4.40356 -4.77514,-8.49062 0,-4.41377 1.63146,-6.94806 5.5183,-8.57209 6.99091,-2.92099 13.93624,1.37914 13.93624,8.62846 0,7.26326 -8.2822,12.02191 -14.6794,8.43425 z"
         id="path2" />
    </g>
  </g>
</svg>
