<?xml version="1.0" encoding="UTF-8" standalone="no"?>
<!-- Created with Inkscape (http://www.inkscape.org/) -->

<svg
   version="1.1"
   id="svg1"
   width="870"
   height="213"
   viewBox="0 0 870 213"
   sodipodi:docname="microtemp.svg"
   inkscape:version="1.4.1-rc (06eac75fbf, 2025-03-29)"
   xmlns:inkscape="http://www.inkscape.org/namespaces/inkscape"
   xmlns:sodipodi="http://sodipodi.sourceforge.net/DTD/sodipodi-0.dtd"
   xmlns="http://www.w3.org/2000/svg"
   xmlns:svg="http://www.w3.org/2000/svg">
  <defs
     id="defs1" />
  <sodipodi:namedview
     id="namedview1"
     pagecolor="#505050"
     bordercolor="#eeeeee"
     borderopacity="1"
     inkscape:showpageshadow="0"
     inkscape:pageopacity="0"
     inkscape:pagecheckerboard="0"
     inkscape:deskcolor="#505050"
     inkscape:zoom="1.1148402"
     inkscape:cx="234.56276"
     inkscape:cy="192.40426"
     inkscape:window-width="1854"
     inkscape:window-height="1011"
     inkscape:window-x="66"
     inkscape:window-y="32"
     inkscape:window-maximized="1"
     inkscape:current-layer="g1" />
  <g
     inkscape:groupmode="layer"
     inkscape:label="Image"
     id="g1">
    <path
       style="fill:#000000"
       d="m 194.5,188.60118 c -6.1318,-1.93924 -9.65947,-4.07779 -13.63982,-8.26876 -6.86027,-7.22329 -9.40735,-15.87256 -8.60298,-29.21365 0.66251,-10.98831 3.48626,-18.50488 9.43895,-25.12572 10.19069,-11.33449 27.72648,-14.97331 43.44493,-9.01516 8.72753,3.3082 8.53808,2.88914 4.88707,10.81011 l -3.23103,7.0098 -4.14856,-1.79944 c -17.88879,-7.75929 -29.92399,1.9318 -28.42456,22.88828 0.56315,7.87069 2.0746,11.14478 6.73072,14.57996 4.77658,3.52405 13.37317,3.52499 20.94062,0.002 2.96743,-1.38136 5.47039,-2.38946 5.56212,-2.24023 0.0917,0.14923 1.82633,2.82259 3.85466,5.9408 2.02834,3.1182 3.68788,6.08419 3.68788,6.59107 0,1.36089 -8.69755,5.81374 -14.9315,7.64443 -6.45546,1.89573 -19.86917,1.99867 -25.5685,0.19621 z m 131,0 c -12.9745,-4.1033 -21.28791,-14.63378 -23.67513,-29.98895 -2.81802,-18.12623 4.66781,-34.53062 18.55273,-40.65627 6.24345,-2.75444 16.96742,-4.29925 24.49286,-3.52825 12.88115,1.31971 24.31245,9.14206 29.33293,20.07229 2.00698,4.36944 2.29661,6.57906 2.29661,17.52103 0,12.17002 -0.0935,12.71087 -3.33384,19.29302 -6.18075,12.55487 -17.83728,18.75203 -35.0215,18.61905 C 333.3901,189.89631 327.7,189.29694 325.5,188.60118 Z m 22,-16.50115 c 4.47494,-2.46972 6.80927,-8.16144 7.31735,-17.84162 0.54779,-10.43672 -0.95199,-16.02734 -5.47588,-20.41206 -3.18157,-3.0837 -3.95261,-3.34635 -9.82368,-3.34635 -7.51453,0 -10.95228,1.99595 -13.9302,8.08782 -2.3104,4.72636 -2.77954,18.95771 -0.80812,24.51425 3.65651,10.30601 13.37603,14.15521 22.72053,8.99796 z m 133.91633,15.85859 c -7.8092,-2.47618 -16.04712,-10.64693 -19.11842,-18.96252 -5.44866,-14.75234 -3.08413,-32.90259 5.73741,-44.0407 6.51903,-8.23094 21.23968,-12.53867 34.16091,-9.99658 7.54477,1.48435 10.6409,2.9958 15.93592,7.77954 6.69131,6.04519 8.21862,10.09379 8.68101,23.01164 l 0.40269,11.25 h -23.10792 c -25.50085,0 -24.50906,-0.28914 -21.74005,6.33804 1.59485,3.817 5.14659,7.83739 8.4775,9.59608 3.98628,2.10472 14.43227,1.43715 21.37169,-1.36581 3.41196,-1.37815 6.44643,-2.1432 6.74325,-1.70011 4.39294,6.55772 7.22216,11.2702 6.91832,11.52348 -2.52032,2.10094 -10.62257,5.82824 -15.33874,7.05632 -8.2295,2.14295 -21.5266,1.91951 -29.12357,-0.48938 z M 506,139.4 c 0,-2.76078 -0.79259,-4.39259 -3.4,-7 -1.87,-1.87 -4.4575,-3.44981 -5.75,-3.51069 -7.50521,-0.35352 -10.72277,1.21545 -13.20052,6.43693 -3.30047,6.95523 -2.75752,7.26706 13.10052,7.52393 L 506,143 Z m 81.88235,46.71765 C 584.49001,182.72531 584,181.65062 584,177.60296 c 0,-3.88016 0.55583,-5.23885 3.42316,-8.36765 3.10381,-3.38683 3.90349,-3.73531 8.57176,-3.73531 4.76123,0 5.44416,0.31685 9.07684,4.21128 2.92458,3.13529 3.92728,5.05154 3.9245,7.5 -0.008,6.94761 -6.20322,12.78872 -13.56425,12.78872 -2.92667,0 -4.45137,-0.78407 -7.54966,-3.88235 z M 640.5,189.04708 c -9.31388,-2.32289 -17.08103,-8.65296 -20.82906,-16.97525 -2.62144,-5.82078 -3.47391,-21.57583 -1.63603,-30.23634 4.90817,-23.12836 31.00427,-34.26498 55.0904,-23.51006 l 4.87004,2.17457 -3.19114,6.8296 c -3.53098,7.55693 -2.52181,7.23708 -12.93988,4.10125 -9.62001,-2.89561 -17.01341,0.28509 -20.98467,9.02778 -2.28755,5.03603 -2.55675,18.68088 -0.46698,23.66925 2.58669,6.17452 5.8441,8.26475 13.55914,8.70069 5.76973,0.32601 7.77119,-0.0221 12.45491,-2.16639 l 5.58048,-2.55483 3.59346,5.61747 c 1.9764,3.08961 3.79533,6.14356 4.04207,6.78656 0.5489,1.43041 -10.4247,6.97125 -16.64274,8.40333 -5.11052,1.17701 -18.00718,1.25288 -22.5,0.13237 z M 8,152.57946 l 0,-35.42055 2.75,-0.53608 c 1.5125,-0.29484 6.2375,-0.83346 10.5,-1.19694 l 7.75,-0.66087 0,2.61749 C 29,118.82213 29.302193,120 29.671539,120 c 0.369347,0 3.494299,-1.12928 6.944338,-2.50951 12.070423,-4.82893 23.13981,-4.27793 29.695635,1.47816 l 3.285252,2.88449 5.89727,-2.85026 c 15.344135,-7.41609 30.529836,-6.22473 37.295196,2.92591 3.51374,4.75259 4.21077,11.3256 4.21077,39.7077 L 117,188 H 106 95 v -26.35398 -26.35397 l -2.452251,-2.64603 c -3.015988,-3.2543 -6.468744,-3.3958 -14.010236,-0.57417 L 73,134.1437 73,161.07185 V 188 H 62.5 52 l -0.0016,-24.75 c -0.0014,-21.56393 -0.226632,-25.19918 -1.75,-28.23928 -2.295659,-4.58132 -5.830221,-5.80296 -12.021645,-4.15499 C 28.367525,133.47997 29,131.37779 29,161.52305 V 188 H 18.5 8 Z m 127,0.008 v -35.4121 l 3.75,-0.55691 c 2.0625,-0.3063 6.72126,-0.84119 10.35281,-1.18864 l 6.60281,-0.63172 0.63619,3.85074 c 0.3499,2.1179 0.64113,18.58823 0.64718,36.60073 L 157,188 h -11 -11 z m 112,-0.008 v -35.42055 l 2.75,-0.53608 c 1.5125,-0.29484 6.17251,-0.82737 10.35557,-1.1834 l 7.60557,-0.64734 0.66684,4.17023 0.66685,4.17023 4.05301,-3.21004 c 6.48408,-5.13549 13.06304,-6.84033 20.58854,-5.33523 2.74831,0.54966 2.91738,0.85388 2.63978,4.75 -0.16314,2.28949 -0.79907,7.23078 -1.41319,10.98064 -0.87683,5.35395 -1.43558,6.69551 -2.6022,6.24784 -6.89241,-2.64487 -14.27386,-1.29309 -19.89654,3.64369 L 269,143.20718 V 165.60359 188 H 258 247 Z M 407.22627,186.25 c -0.39104,-0.9625 -6.58526,-17.05 -13.76495,-35.75 l -13.05399,-34 10.9661,-0.28434 c 8.09727,-0.20995 11.17741,0.0517 11.77387,1 1.09088,1.73446 13.62822,40.4112 14.47958,44.6684 0.67285,3.36461 0.68357,3.37036 1.86381,1 0.65288,-1.31123 3.80088,-12.39656 6.99554,-24.63406 L 432.29471,116 h 11.80063 11.80062 l -1.02718,3.25 c -0.56495,1.7875 -6.50084,17.9875 -13.19086,36 L 429.51424,188 h -10.78851 c -9.33725,0 -10.88414,-0.23541 -11.49946,-1.75 z M 542,152.57946 v -35.42055 l 2.75,-0.51968 c 1.5125,-0.28583 6.17479,-0.8041 10.36064,-1.15172 l 7.61063,-0.63203 0.64973,4.06315 0.64972,4.06316 4.79014,-3.44138 c 6.03144,-4.33315 12.25682,-6.05727 18.49411,-5.12193 l 4.7547,0.71301 -0.50641,4.18426 c -0.27852,2.30134 -0.79384,6.71665 -1.14515,9.81182 -0.8765,7.72232 -1.05855,7.90379 -6.64639,6.62511 -5.9555,-1.36281 -11.39125,0.10513 -16.2783,4.39602 L 564,143.20718 V 165.60359 188 H 553 542 Z M 692,133.08532 V 78.17064 l 7.75,-0.645091 c 4.2625,-0.354801 8.9875,-0.878949 10.5,-1.164776 L 713,75.841089 V 97.920545 C 713,110.06425 713.36,120 713.8,120 c 0.44,0 1.2275,-0.37393 1.75,-0.83096 2.41056,-2.10849 14.45101,-4.66896 21.95,-4.66779 8.93709,0.001 14.48656,2.28416 18.39087,7.56501 3.46243,4.68319 4.05925,10.33534 4.08468,38.68374 L 760,188 h -11 -11 v -26.31144 c 0,-25.0489 -0.0973,-26.41587 -2.02768,-28.48789 -3.623,-3.88884 -10.21161,-4.08933 -18.98781,-0.5778 L 713,134.21716 V 161.10858 188 H 702.5 692 Z M 138.04081,102.38088 c -5.88563,-4.952427 -7.27912,-9.969083 -4.43435,-15.963988 4.23865,-8.932286 15.94869,-9.899053 23.39354,-1.931342 3.23644,3.463734 3.48305,10.704248 0.5,14.680047 -4.80933,6.409873 -13.88122,7.908843 -19.45919,3.215283 z M 817.78893,63.25 817.5,54.5 807.75,54.213788 798,53.927576 V 46.5 39.072424 L 807.75,38.786212 817.5,38.5 817.78893,29.75 818.07787,21 H 825.03893 832 v 9 9 h 9.5 9.5 v 7.462474 7.462474 L 841.75,54.212474 832.5,54.5 832.21107,63.25 831.92213,72 H 825 818.07787 Z"
       id="path1" />
  </g>
</svg>
