<?xml version="1.0" encoding="UTF-8" standalone="no"?>
<!-- Created with Inkscape (http://www.inkscape.org/) -->

<svg
   version="1.1"
   id="svg1"
   width="1024"
   height="1024"
   viewBox="0 0 1024 1024"
   sodipodi:docname="icon.svg"
   inkscape:version="1.4.1-rc (06eac75fbf, 2025-03-29)"
   xmlns:inkscape="http://www.inkscape.org/namespaces/inkscape"
   xmlns:sodipodi="http://sodipodi.sourceforge.net/DTD/sodipodi-0.dtd"
   xmlns="http://www.w3.org/2000/svg"
   xmlns:svg="http://www.w3.org/2000/svg">
  <defs
     id="defs1" />
  <sodipodi:namedview
     id="namedview1"
     pagecolor="#505050"
     bordercolor="#eeeeee"
     borderopacity="1"
     inkscape:showpageshadow="0"
     inkscape:pageopacity="0"
     inkscape:pagecheckerboard="0"
     inkscape:deskcolor="#505050"
     inkscape:zoom="0.590252"
     inkscape:cx="350.69767"
     inkscape:cy="681.91213"
     inkscape:window-width="3374"
     inkscape:window-height="1371"
     inkscape:window-x="66"
     inkscape:window-y="32"
     inkscape:window-maximized="1"
     inkscape:current-layer="g2" />
  <g
     inkscape:groupmode="layer"
     inkscape:label="Image"
     id="g1">
    <g
       id="g2">
      <rect
         style="fill:#ffffff;stroke-width:7.215"
         id="rect2"
         width="608.00574"
         height="174.17247"
         x="210.1255"
         y="674.31915"
         ry="16.720581" />
      <rect
         style="fill:#ffffff;stroke-width:7.215"
         id="rect1"
         width="439.42596"
         height="270.04724"
         x="290.02115"
         y="250.87228"
         ry="8.7309999" />
      <rect
         style="fill:#ffffff;stroke-width:6.62972"
         id="rect4"
         width="49.099339"
         height="150.11061"
         x="487.65802"
         y="826.12085"
         ry="10.026417" />
      <rect
         style="fill:#ffffff;stroke-width:7.215"
         id="rect3"
         width="264.45453"
         height="173.37352"
         x="369.11783"
         y="565.66107"
         ry="16.720581" />
      <path
         style="fill:#dc1d1e;stroke-width:1.41281"
         d="m 501.96846,778.18635 c -12.23828,-11.59369 -34.01651,-27.95418 -51.4841,-38.67648 -13.99579,-8.59119 -42.98891,-24.44056 -44.70887,-24.44056 -0.653,0 -1.18727,-32.65343 -1.18727,-72.56317 v -72.56316 l 7.41728,-0.89092 c 9.72438,-1.16803 185.43143,-1.1623 197.80676,0.007 l 9.54923,0.90186 -0.36593,72.20066 -0.36592,72.20126 -7.77048,4.02795 c -37.84512,19.61756 -65.71248,38.94217 -91.12655,63.19164 l -7.06407,6.74035 z m 34.01152,-71.59323 V 683.9888 l 22.25183,0.26642 22.25183,0.26643 0.38737,-23.57857 0.38737,-23.57858 h -22.60333 -22.60331 l -0.38909,-22.25183 -0.38908,-22.25183 h -23.31144 -23.31144 l -0.38907,22.25183 -0.38909,22.25183 h -23.30972 -23.30973 l 0.38736,23.48064 0.38737,23.48064 22.95824,-0.19159 22.95823,-0.19158 v 22.62741 22.62743 h 24.01785 24.01785 z"
         id="path3"
         sodipodi:nodetypes="csscsccccsscscscccccccccccccccccccccccs" />
      <path
         style="fill:#141a14;stroke-width:1.41281"
         d="m 472.63731,967.11126 c -9.5844,-4.87027 -22.80988,-11.10868 -29.38993,-13.86316 -45.40524,-19.007 -110.25452,-35.76515 -167.14116,-43.1921 -12.77503,-1.66787 -24.3712,-3.64467 -25.76925,-4.3929 -4.37749,-2.34275 -6.41057,-8.40979 -9.7782,-29.17972 l -3.2643,-20.13261 h -4.3572 c -2.39647,0 -8.14646,-0.973 -12.77774,-2.16224 -35.70246,-9.16777 -61.89165,-40.72417 -71.48794,-86.13867 -2.66513,-12.61274 -2.27018,-45.49442 0.72908,-60.69978 3.52393,-17.86529 10.05282,-37.48896 17.40889,-52.3254 8.17747,-16.49311 10.38076,-20.07571 21.72187,-35.32036 22.90075,-30.78306 56.51844,-56.69799 93.64021,-72.18466 l 12.50723,-5.21782 -11.09441,-5.80825 c -35.31285,-18.48729 -56.70708,-44.362 -65.53772,-79.26296 -3.12493,-12.35056 -3.22103,-14.74186 -3.34966,-83.35607 -0.12998,-69.34008 -0.0735,-70.84884 3.06886,-81.94325 10.31289,-36.41073 31.70522,-61.63213 66.14933,-77.98957 7.91607,-3.75933 10.37855,-5.5851 9.85667,-7.30811 -0.38263,-1.26325 -2.04947,-8.6111 -3.7041,-16.32855 -4.31354,-20.11899 -4.25713,-20.01837 -11.80389,-21.05277 -18.26191,-2.50307 -35.27644,-18.10938 -40.96957,-37.57868 -10.55042,-36.080173 20.88425,-71.411303 57.81398,-64.980269 39.6075,6.897347 57.01024,53.982379 31.75902,85.927559 l -5.46207,6.91004 4.30397,18.87089 c 2.36718,10.37899 4.50017,19.08255 4.73996,19.34125 0.2398,0.2587 5.41642,-0.5217 11.50362,-1.7342 33.45951,-6.66477 83.52566,-11.726 135.39531,-13.6872 70.45747,-2.664 137.66594,1.63901 199.14407,12.75015 8.51299,1.53858 15.67779,2.59778 15.9218,2.35379 0.24399,-0.24401 2.41319,-9.09204 4.82041,-19.66231 l 4.37677,-19.21867 -5.0158,-6.83289 c -8.21066,-11.18515 -11.36305,-20.54163 -11.30599,-33.55666 0.0989,-22.538863 12.62281,-40.627637 34.10818,-49.263565 8.30029,-3.336249 24.19186,-3.497917 33.65437,-0.342368 22.5569,7.52225 38.56115,33.476193 34.76595,56.379563 -2.6825,16.1883 -10.96664,29.13116 -23.98614,37.47513 -6.03065,3.86495 -11.54717,5.7684 -23.0713,7.96062 -3.3716,0.64139 -3.86077,1.83253 -7.41728,18.06121 -2.09419,9.55601 -3.80762,18.08728 -3.80762,18.95839 0,0.87113 4.87076,3.89697 10.82393,6.72411 28.42251,13.49779 51.36971,37.97986 61.68808,65.81419 6.91868,18.66349 7.31785,24.08545 7.22913,98.19062 -0.0803,66.98113 -0.1844,69.59474 -3.21117,80.53043 -9.40221,33.97023 -30.5983,59.46273 -64.89408,78.04801 l -10.26275,5.56149 16.62041,8.11273 c 31.95579,15.59821 52.25689,30.01278 73.0127,51.84181 27.55594,28.9808 45.65214,63.13986 54.03059,101.99022 3.86941,17.94221 3.5571,55.59083 -0.59766,72.04839 -11.22378,44.45877 -42.44044,75.93838 -79.06293,79.72885 -8.56478,0.88645 -7.73101,-0.73037 -11.66495,22.62058 -1.60299,9.51494 -3.50738,18.85924 -4.232,20.76513 -2.19443,5.77179 -7.15771,7.76065 -24.87495,9.96773 -79.89608,9.9529 -156.81107,32.37931 -210.65165,61.42055 -10.92175,5.89113 -15.61971,6.90426 -18.52826,3.99571 -1.26717,-1.26717 -1.69538,-17.37195 -1.69538,-63.76311 0,-72.58019 -1.8321,-64.60359 19.20176,-83.60075 16.25548,-14.68146 32.45108,-26.81015 48.30082,-36.17187 47.83399,-28.25338 125.34087,-56.23874 177.62076,-64.13339 22.20562,-3.35322 21.64109,-3.17162 23.99215,-7.71808 3.01278,-5.82604 2.68725,-13.10733 -0.78325,-17.51934 -2.67871,-3.40544 -3.79205,-3.72192 -13.06853,-3.71491 -22.47386,0.0169 -70.53852,9.61366 -104.79895,20.9244 -59.80896,19.74533 -109.8548,50.58884 -150.28181,92.61944 l -10.41318,10.82622 -15.73814,-15.21277 c -8.65596,-8.36702 -20.81785,-19.29941 -27.02641,-24.29419 -24.54663,-19.74773 -61.8191,-41.56884 -92.52513,-54.16872 C 338.49928,712.71365 286.1576,700.1174 251.80648,698.50999 l -16.44513,-0.76952 -2.62787,4.01063 c -3.85085,5.87714 -3.47863,15.01062 0.79723,19.56206 2.03853,2.16991 4.96634,3.64585 7.23221,3.64585 21.93167,0 96.10189,21.62868 142.75164,41.62761 45.16276,19.36145 82.80919,43.83889 108.31496,70.42557 l 8.8301,9.20431 v 64.2542 c 0,57.28811 -0.24229,64.34717 -2.23478,65.11175 -4.34795,1.66847 -8.54928,0.28835 -25.78753,-8.47119 z m 64.04908,-200.61957 c 20.07326,-16.94897 43.96113,-32.4402 74.17277,-48.10084 l 7.77048,-4.02795 0.36592,-72.20126 0.36593,-72.20127 -9.54923,-0.90186 c -12.37533,-1.16875 -188.08238,-1.17448 -197.80676,-0.007 l -7.41728,0.89092 v 72.56316 c 0,39.91035 0.53427,72.56378 1.18727,72.56378 1.71996,0 30.71308,15.84937 44.70887,24.44056 17.46759,10.7223 39.24582,27.08279 51.4841,38.67648 l 10.70008,10.13649 7.06407,-6.74035 c 3.88524,-3.7072 11.51444,-10.49806 16.95378,-15.0908 z m 0.72475,-270.5087 c 31.80689,-8.81414 56.58753,-35.63951 42.88197,-46.4203 -6.50094,-5.11364 -12.00429,-3.92897 -19.8051,4.26332 -11.75229,12.34206 -27.35759,18.23917 -48.26557,18.23917 -21.30096,0 -37.47762,-6.07966 -48.47241,-18.21737 -5.48034,-6.05001 -7.32931,-7.21329 -11.46519,-7.21329 -6.92016,0 -12.37625,4.59457 -12.37625,10.42205 0,9.55406 12.17396,23.27662 28.25257,31.84643 18.84421,10.04385 47.8523,13.00959 69.24998,7.07999 z M 389.96532,437.59967 c 32.24954,-8.58676 55.02098,-43.09379 52.15336,-79.0313 -1.59986,-20.04963 -8.87132,-35.97037 -22.85964,-50.0508 -23.07707,-23.229 -56.72321,-26.73849 -83.69182,-8.72955 -20.56541,13.73307 -32.70166,37.37999 -32.70166,63.71773 0,14.33415 2.04635,23.68966 7.86362,35.95109 8.40828,17.72263 23.0328,30.96581 41.03189,37.15626 9.94495,3.42038 27.37324,3.87043 38.20425,0.98657 z M 374.72724,413.0188 c -13.14311,-6.84437 -19.93304,-22.6764 -17.72412,-41.32722 1.3774,-11.62992 8.93026,-23.60836 17.71034,-28.08762 12.1008,-6.17336 23.30595,-4.89211 32.88277,3.75997 8.43662,7.62198 11.5027,14.63538 12.20744,27.92345 0.78354,14.77407 -2.74493,24.8111 -11.58768,32.96205 -10.29843,9.49276 -21.3862,11.07185 -33.48875,4.76937 z m 301.57947,22.40752 c 17.59955,-6.84736 33.29144,-23.09415 40.56373,-41.99816 3.91692,-10.18186 5.40699,-35.13385 2.83729,-47.51198 -6.33828,-30.53135 -33.70839,-55.57482 -62.56352,-57.24522 -21.31713,-1.23402 -38.00091,5.24766 -53.42922,20.75738 -16.09107,16.17598 -23.69377,37.09574 -22.09437,60.79528 1.33778,19.82288 7.99628,35.2092 21.35642,49.35004 8.20263,8.68196 15.92955,13.57745 27.37571,17.34423 11.41433,3.75629 34.38158,3.01083 45.95396,-1.49157 z m -51.30489,-20.31947 c -7.32025,-2.33118 -16.15274,-11.91069 -19.06437,-20.67678 -3.09295,-9.31203 -2.48284,-29.50334 1.09723,-36.31213 6.51585,-12.39221 19.55627,-19.99701 31.27633,-18.23948 9.22957,1.38406 19.00145,8.49744 23.35028,16.99767 5.22152,10.20597 5.90147,29.7002 1.40085,40.16218 -6.67729,15.52178 -22.48798,23.02765 -38.06032,18.06854 z"
         id="path2"
         sodipodi:nodetypes="ssssscssssssscssssssssssscssssssscsssssssssssssscssssssssssssssssssscsssscssssscssssscccsccsssscssssssssssssssssssssssssssssssssssssssssss" />
    </g>
  </g>
</svg>
