<?xml version="1.0" encoding="UTF-8" standalone="no"?>
<!-- Created with Inkscape (http://www.inkscape.org/) -->

<svg
   width="400mm"
   height="400mm"
   viewBox="0 0 400 400"
   version="1.1"
   id="svg1"
   xml:space="preserve"
   inkscape:version="1.4.2 (2aeb623e1d, 2025-05-12)"
   sodipodi:docname="swissroverchallenge-white-transparent.svg"
   xmlns:inkscape="http://www.inkscape.org/namespaces/inkscape"
   xmlns:sodipodi="http://sodipodi.sourceforge.net/DTD/sodipodi-0.dtd"
   xmlns="http://www.w3.org/2000/svg"
   xmlns:svg="http://www.w3.org/2000/svg"><sodipodi:namedview
     id="namedview1"
     pagecolor="#505050"
     bordercolor="#eeeeee"
     borderopacity="1"
     inkscape:showpageshadow="0"
     inkscape:pageopacity="0"
     inkscape:pagecheckerboard="0"
     inkscape:deskcolor="#505050"
     inkscape:document-units="mm"
     inkscape:zoom="0.15143597"
     inkscape:cx="336.776"
     inkscape:cy="300.45702"
     inkscape:window-width="1854"
     inkscape:window-height="1011"
     inkscape:window-x="66"
     inkscape:window-y="32"
     inkscape:window-maximized="1"
     inkscape:current-layer="layer1" /><defs
     id="defs1" /><g
     inkscape:label="Layer 1"
     inkscape:groupmode="layer"
     id="layer1"><path
       style="fill:#ffffff;stroke-width:1.28675"
       d="m 0.4560551,398.1284 -1.9114471,-1.91144 v -53.99839 -53.99839 h 55.909825 55.909817 v 55.90984 55.90984 H 56.365879 2.3675023 Z M 96.028401,342.69643 V 302.55604 H 55.888017 15.747631 v 40.14039 40.1404 h 40.140386 40.140384 z m -63.077748,0 v -22.93737 h 22.937364 22.937362 v 22.93737 22.93737 H 55.888017 32.950653 Z m 94.616617,24.37096 v -32.97246 h 8.60152 8.60152 v -7.16793 -7.16794 h 7.16793 7.16792 v 7.16794 7.16793 h 8.60151 8.60152 v 8.6015 8.60152 h 7.16792 7.16793 v 7.16793 7.16792 h 8.60151 8.60151 v -7.16792 -7.16793 h 7.16793 7.16792 v 7.16793 7.16792 h -7.16792 -7.16793 v 17.20303 17.20303 h -8.60151 -8.60151 v -8.60151 -8.60152 H 174.8756 159.10616 v 8.60152 8.60151 h -15.76944 -15.76945 z m 48.74192,-8.60151 v -7.16793 h -8.60152 -8.60151 v -8.60152 -8.6015 h -7.16792 -7.16793 v 8.6015 8.60152 h 7.16793 7.16792 v 7.16793 7.16792 h 8.60151 8.60152 z m 45.87472,32.97247 v -8.60152 h 8.60151 8.60151 v -15.76944 -15.76944 h 7.16794 7.16792 v -31.53889 -31.53888 h -7.16792 -7.16794 v 22.93737 22.93738 h -24.37094 -24.37095 v -15.76945 -15.76944 h -22.93737 -22.93736 v -7.16792 -7.16794 h -8.60152 -8.60152 v -17.20302 -17.20303 h -8.6015 -8.60152 v 8.60152 8.60151 H 94.594823 78.825379 v -8.60151 -8.60152 h -7.167926 -7.167928 v 8.60152 8.60151 h -8.601508 -8.60151 v -8.60151 -8.60152 H 40.11858 32.950653 v -7.16793 -7.16792 h -8.60151 -8.601512 v 7.16792 7.16793 H 7.1461188 -1.455392 v -7.16793 -7.16792 h 8.6015108 8.6015122 v -8.60151 -8.60152 h 8.601512 8.60151 v 8.60152 8.60151 h 22.937364 22.937362 v -8.60151 -8.60152 h 15.769444 15.769427 v -7.16792 -7.16792 h -7.16792 -7.167929 v -8.60153 -8.60151 h 15.769439 15.76943 V 159.1975 127.65862 h 8.60152 8.60152 v -8.60152 -8.60152 h -8.60152 -8.60152 v -7.16792 -7.167935 h 8.60152 8.60152 v -8.601504 -8.601518 h -8.60152 -8.60152 V 55.979333 33.041966 h 8.60152 8.60152 V 24.440452 15.83894 h -8.60152 -8.60152 V 7.2374266 -1.3640867 h 40.1404 40.14039 V 7.2374266 15.83894 h 7.16793 7.16792 V 7.2374266 -1.3640867 h 24.37096 24.37094 V 7.2374266 15.83894 h -24.37094 -24.37096 v 8.601512 8.601514 h 15.76943 15.76945 v 15.76944 15.76944 h 8.60151 8.60151 v 7.16793 7.167927 h -15.76945 -15.76943 v 15.769444 15.769433 h 7.16794 7.16792 v -7.16792 -7.167935 h 8.60151 8.60151 v 15.769445 15.76945 h 8.6015 8.60152 v 15.76943 15.76945 h -17.20302 -17.20302 v 31.53887 31.53888 h -7.16792 -7.16794 v 8.60152 8.60151 h -8.60151 -8.60151 v -15.76944 -15.76943 h 8.60151 8.60151 V 183.56844 159.1975 h -8.60151 -8.60151 v 8.6015 8.60152 h -7.16792 -7.16793 v 7.16792 7.16793 h -24.37095 -24.37095 v 8.60151 8.60153 h -7.16792 -7.16793 v -8.60153 -8.60151 h -8.60152 -8.60152 v 15.76945 15.76943 h 24.37097 24.37095 v 8.60152 8.60151 h 7.16792 7.16793 v 15.76944 15.76944 h 15.76943 15.76944 v -8.60151 -8.60152 h 8.60151 8.60151 v 8.60152 8.60151 h 7.16794 7.16792 v -15.76944 -15.76944 h 8.60151 8.60151 v -8.60151 -8.60152 h 8.6015 8.60152 v -7.16792 -7.16792 h -8.60152 -8.6015 v -15.76945 -15.76944 h 15.76943 15.76945 v -8.60152 -8.6015 h 8.6015 8.60152 v 8.6015 8.60152 h -8.60152 -8.6015 v 7.16792 7.16793 h 15.76944 15.76943 V 174.96694 159.1975 h 24.37095 24.37096 v -15.76945 -15.76943 h 8.6015 8.60151 v 63.07775 63.07776 h -8.60151 -8.6015 v 8.60152 8.60151 h -8.60152 -8.60151 v 8.60151 8.60151 h 17.20303 17.20301 v 31.53888 31.53889 h -8.60151 -8.6015 v 7.16793 7.16792 h 8.6015 8.60151 v 17.20303 17.20303 h -32.97245 -32.97247 v -8.60151 -8.60152 h -15.76943 -15.76944 v -24.37095 -24.37095 h -15.76945 -15.76943 v 8.6015 8.60152 h -8.60151 -8.60151 v 24.37095 24.37096 h -15.76945 -15.76943 z m 143.35853,-17.20303 v -8.60152 h -15.76943 -15.76945 v -7.16792 -7.16793 h -7.16793 -7.16792 v 7.16793 7.16792 h 7.16792 7.16793 v 8.60152 8.60151 h 15.76945 15.76943 z m 0,-31.53889 v -8.6015 h 8.60151 8.60152 v -7.16793 -7.16794 h -8.60152 -8.60151 v -8.60151 -8.60151 h -7.16793 -7.16792 v -7.16792 -7.16794 h -8.60152 -8.60151 v 22.93737 22.93738 h 8.60151 8.60152 v 8.6015 8.60152 h 7.16792 7.16793 z M 351.20659,326.927 v -7.16794 h 7.16792 7.16793 v 7.16794 7.16793 h -7.16793 -7.16792 z m -31.53888,-31.53888 v -24.37096 h -24.37095 -24.37095 v 24.37096 24.37094 h 24.37095 24.37095 z m -31.53888,0 v -7.16794 h 7.16793 7.16793 v 7.16794 7.16792 h -7.16793 -7.16793 z M 159.10616,262.41565 v -8.60152 h 8.60151 8.60152 v -7.16793 -7.16792 h -8.60152 -8.60151 v 7.16792 7.16793 h -7.16792 -7.16793 v -7.16793 -7.16792 h -8.60152 -8.60152 v 7.16792 7.16793 h 8.60152 8.60152 v 8.60152 8.60151 h 7.16793 7.16792 z m 206.43628,-31.53888 v -40.1404 h 8.60151 8.60152 v -7.16793 -7.16792 h -8.60152 -8.60151 v 7.16792 7.16793 h -7.16793 -7.16792 v 24.37096 24.37095 h -24.37096 -24.37094 v -8.60151 -8.60152 h -7.16793 -7.16793 v 8.60152 8.60151 h -8.60152 -8.6015 v 7.16792 7.16793 h 31.53888 31.53887 v 8.60152 8.60151 h 15.76945 15.76943 z M 110.36425,246.6462 v -7.16792 H 94.594823 78.825379 v 7.16792 7.16793 h 15.769444 15.769427 z m 223.63931,-31.53887 v -7.16792 h -7.16793 -7.16792 v 7.16792 7.16792 h 7.16792 7.16793 z m -174.8974,-31.53889 v -7.16792 h 8.60151 8.60152 v -8.60152 -8.6015 h 7.16792 7.16793 v 8.6015 8.60152 h 8.60151 8.60151 v -8.60152 -8.6015 h 7.16793 7.16792 v -7.16794 -7.16792 h 8.60151 8.60151 v 7.16792 7.16794 h 7.16794 7.16792 v -7.16794 -7.16792 h 8.60151 8.60151 v -8.60153 -8.60149 H 246.55487 222.18391 V 96.119725 64.580846 h 8.60151 8.60151 V 55.979333 47.37782 h -8.60151 -8.60151 v 8.601513 8.601513 h -7.16792 -7.16793 v 7.16793 7.167927 h -8.60151 -8.60151 V 63.147261 47.37782 h -7.16793 -7.16792 v 15.769441 15.769442 h -8.60152 -8.60151 V 63.147261 47.37782 h -7.16792 -7.16793 v 15.769441 15.769442 h 7.16793 7.16792 v 8.601518 8.601504 h -7.16792 -7.16793 v 7.167935 7.16792 h 7.16793 7.16792 v 8.60152 8.60152 h -7.16792 -7.16793 v 8.60149 8.60153 h 15.76943 15.76945 v 7.16792 7.16794 h -15.76945 -15.76943 v 15.76944 15.76943 h 7.16793 7.16792 z m 31.53888,-47.30833 v -8.60149 h 8.60151 8.60151 v 8.60149 8.60153 h -8.60151 -8.60151 z m -31.53888,-32.97245 v -7.167935 h 8.60151 8.60152 v -8.601504 -8.601518 h 7.16792 7.16793 v 8.601518 8.601504 h 8.60151 8.60151 v 7.167935 7.16792 h -8.60151 -8.60151 v -7.16792 -7.167935 h -7.16793 -7.16792 v 7.167935 7.16792 h -8.60152 -8.60151 z m 48.7419,-78.847208 V 15.83894 h -8.60151 -8.60151 v 8.601512 8.601514 h 8.60151 8.60151 z M 270.92581,382.83683 V 365.6338 h 8.6015 8.60152 v 17.20303 17.20303 h -8.60152 -8.6015 z M 47.286507,215.10733 v -7.16792 h 8.60151 8.601508 v 7.16792 7.16792 h -8.601508 -8.60151 z m 143.358533,0 v -7.16792 h 8.60151 8.60151 v 7.16792 7.16792 h -8.60151 -8.60151 z M 15.747631,199.33788 v -8.60151 H 7.1461188 -1.455392 v -7.16793 -7.16792 H 7.1461188 15.747631 V 167.799 159.1975 H 7.1461188 -1.455392 v -15.76945 -15.76943 h 32.97246 32.972457 v 8.60149 8.60153 H 80.25897 96.028401 v -8.60153 -8.60149 h 7.167929 7.16792 v 8.60149 8.60153 h -7.16792 -7.167929 v 7.16792 7.16794 h 7.167929 7.16792 v 8.6015 8.60152 h -7.16792 -7.167929 V 167.799 159.1975 H 80.25897 64.489525 v -7.16794 -7.16792 H 48.720092 32.950653 v 31.53888 31.53889 h -8.60151 -8.601512 z m 48.741894,-15.76944 v -7.16792 h 7.167928 7.167926 v 7.16792 7.16793 H 71.657453 64.489525 Z M 319.66771,136.26011 v -8.60149 h 22.93736 22.93737 v 8.60149 8.60153 H 342.60507 319.66771 Z M -0.8005099,55.262542 -0.02180665,0.06949861 55.171227,-0.70920333 110.36425,-1.4879065 V 54.483838 110.45558 H 54.392523 -1.5792131 Z M 96.028401,55.979333 V 15.83894 H 55.888017 15.747631 v 40.140393 40.140392 h 40.140386 40.140384 z m -63.077748,0 V 33.041966 h 22.937364 22.937362 v 22.937367 22.93737 H 55.888017 32.950653 Z M 288.12883,54.483838 V -1.4879065 l 55.19303,0.77870317 55.19304,0.77870194 0.7787,55.19304339 0.7787,55.193038 h -55.97173 -55.97174 z m 94.61664,1.495495 V 15.83894 h -40.1404 -40.14038 v 40.140393 40.140392 h 40.14038 40.1404 z m -63.07776,0 V 33.041966 h 22.93736 22.93737 v 22.937367 22.93737 h -22.93737 -22.93736 z"
       id="path1" /></g></svg>
