<?xml version="1.0" encoding="UTF-8" standalone="no"?>
<!-- Created with Inkscape (http://www.inkscape.org/) -->

<svg
   version="1.1"
   id="svg1"
   width="650"
   height="600"
   viewBox="0 0 650 600"
   sodipodi:docname="icon.svg"
   inkscape:version="1.4.1-rc (06eac75fbf, 2025-03-29)"
   xmlns:inkscape="http://www.inkscape.org/namespaces/inkscape"
   xmlns:sodipodi="http://sodipodi.sourceforge.net/DTD/sodipodi-0.dtd"
   xmlns="http://www.w3.org/2000/svg"
   xmlns:svg="http://www.w3.org/2000/svg">
  <defs
     id="defs1">
    <linearGradient
       id="swatch39">
      <stop
         style="stop-color:#1a1a1a;stop-opacity:1;"
         offset="0"
         id="stop40" />
    </linearGradient>
  </defs>
  <sodipodi:namedview
     id="namedview1"
     pagecolor="#505050"
     bordercolor="#eeeeee"
     borderopacity="1"
     inkscape:showpageshadow="0"
     inkscape:pageopacity="0"
     inkscape:pagecheckerboard="0"
     inkscape:deskcolor="#505050"
     inkscape:zoom="0.28070443"
     inkscape:cx="653.71252"
     inkscape:cy="667.96239"
     inkscape:window-width="1854"
     inkscape:window-height="1011"
     inkscape:window-x="66"
     inkscape:window-y="32"
     inkscape:window-maximized="1"
     inkscape:current-layer="g1" />
  <g
     inkscape:groupmode="layer"
     inkscape:label="Image"
     id="g1">
    <ellipse
       style="fill:#ffffff;fill-opacity:1;stroke:#ffffff;stroke-width:1.43369;stroke-dasharray:none;stroke-opacity:1"
       id="path42"
       cx="514.88556"
       cy="434.77145"
       rx="114.87035"
       ry="134.26755" />
    <ellipse
       style="fill:#ffffff;fill-opacity:1;stroke:#ffffff;stroke-width:2.11717;stroke-dasharray:none;stroke-opacity:1"
       id="path43"
       cx="-0.78382766"
       cy="387.64667"
       rx="122.63126"
       ry="87.929611"
       transform="matrix(0.63322991,-0.77396375,0.80312626,0.59580888,0,0)" />
    <path
       id="path20"
       style="fill:#ff0000;stroke-width:1.26237"
       inkscape:label="logo"
       d="m 345.82068,11.066051 c -4.08181,-0.01408 -8.22125,0.970396 -12.41658,2.953741 -3.47152,1.641156 -7.78921,4.617973 -9.59598,6.615116 -1.80675,1.997144 -25.6235,36.863635 -52.9258,77.480355 -27.30231,40.616717 -57.70645,85.777967 -67.56386,100.358327 -9.8574,14.58036 -28.07941,41.5635 -40.49197,59.96253 -33.27577,49.32437 -75.187615,111.28389 -111.2438,164.45067 -19.151488,28.23987 -32.693424,49.45938 -33.928627,53.16743 -4.088926,12.27478 0.280713,28.20104 9.546665,34.79898 9.26267,6.5956 3.00031,6.34975 162.396862,6.37841 84.81675,0.0153 149.43598,0.51248 151.14896,1.16375 0.0952,0.0361 0.19177,0.0778 0.286,0.12081 l -11.26762,-57.3219 -0.0665,-8.69358 9.86965,-79.30241 1.21553,-6.8099 37.10921,-63.11597 4.83744,-6.18364 31.72934,-27.06204 2.7787,-0.17259 3.23482,5.04456 -1.04047,2.5987 -31.28802,31.81071 -2.64062,3.26193 -30.54341,57.00385 -2.01436,5.45384 -4.84731,80.36505 0.17507,3.18306 15.90536,65.70235 -1.77769,2.74171 -19.8182,4.9755 -0.0173,-0.14792 c -5.54976,1.56806 -22.26134,4.775 -74.80522,15.07939 -135.847,26.64099 -162.50538,32.08334 -164.23864,33.52181 -1.8495,1.53495 -2.35803,5.18904 -0.92211,6.62496 0.46286,0.46288 94.61981,0.84088 209.23765,0.84077 228.877,-2.4e-4 217.77566,0.35629 237.84806,-7.64078 46.45919,-18.50985 78.2787,-63.47302 86.66212,-122.45966 5.22006,-36.72893 -1.17621,-76.14483 -17.98382,-110.82712 -14.93769,-30.82369 -39.74448,-55.24367 -68.12109,-67.06087 l -9.81048,-4.08544 -19.81327,-29.21694 C 509.7222,230.55516 480.52766,187.58566 455.74298,151.13476 430.95828,114.68386 402.9995,73.499069 393.61075,59.613011 367.48528,20.973148 364.86706,17.635596 357.89705,14.103626 c -3.96947,-2.011509 -7.99452,-3.0235 -12.07633,-3.037575 z M 317.78722,136.22796 c 0.48433,0.004 0.9762,0.0876 1.50152,0.21943 3.25648,0.81733 21.19548,23.62293 51.27388,65.18212 9.29626,12.84461 19.93392,27.45485 23.63983,32.46656 6.77049,9.1562 8.08474,12.61227 5.16042,13.57786 -4.20309,1.38783 -14.12989,1.83495 -41.84802,1.87876 l -30.16865,0.0468 -13.38308,13.09214 c -7.36,7.20049 -15.88057,14.86938 -18.93553,17.04198 l -5.55492,3.94984 h -34.91485 c -27.2976,0 -35.42253,-0.37055 -37.24236,-1.70124 -2.77696,-2.03056 -4.35232,0.81599 16.16671,-29.2268 43.47303,-63.65077 52.68858,-77.05529 64.67175,-94.05388 13.12263,-18.61494 16.24291,-22.49981 19.6333,-22.47361 z m 195.74114,167.40688 c 6.57929,0.0942 13.24955,0.51154 15.54292,1.1884 3.28436,0.96933 3.83061,1.77832 4.12242,6.08502 0.62944,9.28957 1.1008,9.9945 8.77741,13.13405 4.01326,1.64134 10.33589,4.90514 14.04879,7.2537 l 6.75071,4.27036 5.0988,-2.65542 c 2.80379,-1.46142 5.76522,-2.40122 6.58059,-2.08833 1.83746,0.7051 16.09658,19.48133 20.4987,26.993 l 3.24714,5.54012 -4.046,5.63381 -4.04598,5.63135 3.18058,9.76117 c 1.74919,5.36766 4.13523,13.73517 5.30096,18.59529 2.45386,10.23046 3.56323,11.9925 7.55449,11.9925 7.00695,0 9.21206,9.32953 6.96522,29.46843 -1.71051,15.33166 -2.51809,16.97397 -8.60483,17.47838 -4.71381,0.39064 -4.73389,0.41619 -8.03034,10.49098 -1.8174,5.55442 -4.72285,13.25929 -6.45731,17.12088 l -3.15346,7.01946 3.73288,4.65499 3.73286,4.65498 -3.45673,5.99626 c -4.56575,7.92031 -14.67009,21.62936 -18.78513,25.48653 l -3.28414,3.07949 -4.81524,-4.70183 -4.81278,-4.69936 -8.10677,3.63423 c -4.45864,1.99827 -10.24155,4.33594 -12.85052,5.19495 -5.23634,1.72408 -7.23934,4.42177 -7.26848,9.79568 -0.0101,1.95498 -0.54351,4.38296 -1.18348,5.39466 -2.1523,3.40256 -31.24234,4.17977 -33.95822,0.90733 -0.71245,-0.85844 -1.75522,-4.2325 -2.31763,-7.49778 -1.01618,-5.89984 -1.09803,-5.98048 -13.01571,-12.85792 l -11.99251,-6.92084 -4.50459,5.17522 c -3.79763,4.36105 -4.88902,4.96562 -6.95288,3.86107 -3.87516,-2.07392 -16.05691,-15.38314 -21.26057,-23.22808 -5.29845,-7.98784 -5.25362,-10.02121 0.34765,-15.38758 l 3.57754,-3.42961 -4.2531,-11.32187 c -2.33911,-6.2274 -5.15481,-14.86859 -6.25761,-19.20181 -2.81105,-11.04539 -3.55496,-12.08494 -8.9574,-12.53492 -6.93827,-0.57792 -7.88831,-3.45993 -7.8257,-23.74586 0.0677,-21.91645 1.15439,-25.30575 8.69358,-27.13353 l 5.62642,-1.36346 3.33837,-10.68329 c 1.83547,-5.8756 4.81407,-14.26507 6.62004,-18.64214 l 3.28414,-7.95884 -4.36652,-5.71764 c -4.35906,-5.71069 -4.36132,-5.72585 -2.1475,-9.54912 2.92049,-5.04375 24.14165,-27.5103 26.00924,-27.53542 0.79995,-0.0114 3.48115,2.33653 5.95926,5.21713 l 4.50705,5.23932 10.68577,-5.07907 c 5.87799,-2.79262 11.30571,-5.84998 12.06153,-6.79509 0.75583,-0.9451 1.76176,-4.38766 2.2338,-7.65065 0.66341,-4.58588 1.48868,-6.1343 3.63178,-6.81728 1.93412,-0.61638 8.4212,-0.84613 15.00049,-0.752 z m 4.41829,66.09932 c -1.54782,-0.0399 -3.15809,-0.0126 -4.83989,0.0813 -16.87548,0.94124 -29.37729,9.71757 -38.66253,27.13847 -10.5022,19.70415 -10.59472,46.78498 -0.23175,68.08655 6.58975,13.54558 17.48834,23.82592 29.38952,27.71787 3.11448,1.01849 8.91533,1.55308 14.177,1.30675 26.60463,-1.24549 46.44544,-27.81401 46.34521,-62.05825 -0.0597,-20.41172 -6.4644,-37.02833 -19.26099,-49.96959 -8.28058,-8.37422 -16.08175,-12.02391 -26.91657,-12.30316 z" />
  </g>
  <g
     inkscape:groupmode="layer"
     id="layer2"
     inkscape:label="Flag">
    <rect
       style="fill:#ffffff;fill-opacity:1;stroke:#ffffff;stroke-width:1.39618;stroke-dasharray:none;stroke-opacity:1"
       id="rect33"
       width="32.163425"
       height="109.04526"
       x="140.26727"
       y="377.33847" />
    <rect
       style="fill:#ffffff;fill-opacity:1;stroke:#ffffff;stroke-width:1.39618;stroke-dasharray:none;stroke-opacity:1"
       id="rect33-3"
       width="32.163425"
       height="109.04526"
       x="417.46951"
       y="-211.86827"
       transform="rotate(90)" />
  </g>
</svg>
