<?xml version="1.0" encoding="UTF-8" standalone="no"?>
<!-- Created with Inkscape (http://www.inkscape.org/) -->

<svg
   version="1.1"
   id="svg1"
   width="670"
   height="1024"
   viewBox="0 0 670 1024"
   sodipodi:docname="logo-vertical.svg"
   inkscape:version="1.4.1-rc (06eac75fbf, 2025-03-29)"
   xmlns:inkscape="http://www.inkscape.org/namespaces/inkscape"
   xmlns:sodipodi="http://sodipodi.sourceforge.net/DTD/sodipodi-0.dtd"
   xmlns="http://www.w3.org/2000/svg"
   xmlns:svg="http://www.w3.org/2000/svg">
  <defs
     id="defs1">
    <linearGradient
       id="swatch39">
      <stop
         style="stop-color:#1a1a1a;stop-opacity:1;"
         offset="0"
         id="stop40" />
    </linearGradient>
  </defs>
  <sodipodi:namedview
     id="namedview1"
     pagecolor="#505050"
     bordercolor="#eeeeee"
     borderopacity="1"
     inkscape:showpageshadow="0"
     inkscape:pageopacity="0"
     inkscape:pagecheckerboard="0"
     inkscape:deskcolor="#505050"
     inkscape:zoom="0.53178264"
     inkscape:cx="472.93759"
     inkscape:cy="683.54996"
     inkscape:window-width="1854"
     inkscape:window-height="1011"
     inkscape:window-x="66"
     inkscape:window-y="32"
     inkscape:window-maximized="1"
     inkscape:current-layer="g1" />
  <g
     inkscape:groupmode="layer"
     inkscape:label="Image"
     id="g1">
    <path
       id="path1"
       style="fill:#1a1a1a;stroke-width:1.26237"
       d="m 577.07089,629.82161 c -18.26556,0.70107 -30.83777,7.47748 -37.1314,20.07216 -3.45454,6.91316 -3.92518,9.12152 -3.92518,18.43255 0,12.21778 2.17183,17.78913 9.41106,24.14527 6.25418,5.49124 9.10391,6.80262 30.47191,14.0192 10.32071,3.4856 20.18847,7.39924 21.92872,8.69852 3.83161,2.86068 5.72075,9.77152 3.94738,14.43587 -0.72642,1.91062 -3.33822,4.39131 -6.06036,5.75463 -14.31281,7.16825 -34.30487,2.08671 -36.43364,-9.26066 l -0.82351,-4.39364 -8.38045,0.0148 c -4.60928,0.008 -10.52137,0.36622 -13.13899,0.79884 -4.67992,0.77347 -4.74647,0.86433 -3.94984,5.35275 2.97009,16.73413 13.70842,26.98903 32.55285,31.0883 20.83491,4.53225 42.75229,0.21014 53.51508,-10.55263 12.25671,-12.25673 13.54718,-36.36291 2.61349,-48.8157 -4.92594,-5.61033 -17.62184,-11.67112 -36.94155,-17.63864 -17.80873,-5.50081 -22.2024,-8.82434 -22.2024,-16.78803 0,-9.08278 7.05014,-14.16908 19.56671,-14.11783 10.0904,0.0413 19.56672,7.1135 19.56672,14.60108 0,1.8628 0.9924,2.03126 7.75913,1.32401 4.26766,-0.44606 10.01252,-0.81118 12.7667,-0.81118 h 5.00755 l -0.89007,-5.942 c -2.88169,-19.21649 -16.17701,-29.04449 -41.0541,-30.34617 -2.84003,-0.1486 -5.56644,-0.17165 -8.17581,-0.0715 z m -473.736,0.0715 c -2.98237,0.13096 -5.746074,0.4196 -8.074728,0.87774 -21.438963,4.21786 -31.833132,16.40245 -31.823033,37.30398 0.0054,11.7772 2.532174,17.96159 10.029913,24.5447 5.671104,4.9793 11.436191,7.57626 32.397508,14.59368 18.18534,6.08807 21.96899,8.15047 23.8075,12.98612 3.32506,8.74558 -2.17089,15.68923 -14.23124,17.97643 -13.18302,2.50011 -26.288291,-2.91961 -28.578355,-11.81992 -1.221342,-4.74674 -3.693578,-5.30816 -17.646049,-4.00408 l -9.186688,0.85802 0.771724,4.62293 c 2.810917,16.79186 12.375848,26.53736 30.555741,31.13515 9.590407,2.42546 31.496787,1.75644 39.964337,-1.22045 17.9344,-6.3051 27.35908,-20.90608 25.65172,-39.73504 -1.63187,-17.9966 -10.37727,-25.31073 -42.2869,-35.37099 -20.676251,-6.51867 -24.288267,-9.13868 -24.288267,-17.61398 0,-4.57111 0.66903,-6.60783 2.84033,-8.64181 10.882437,-10.1942 32.470747,-5.26077 35.846837,8.19061 0.75521,3.00901 0.8537,3.02577 12.28098,2.15983 6.33566,-0.48012 11.8746,-1.07493 12.3081,-1.32154 1.22485,-0.69676 -1.10513,-11.41382 -3.81176,-17.53262 -2.91711,-6.59459 -10.48685,-12.47587 -19.59137,-15.22241 -7.07044,-2.13292 -17.98921,-3.15924 -26.9363,-2.76635 z m 362.61794,0.33285 c -17.4018,-0.0293 -25.67282,2.30455 -33.9311,9.57378 -8.563,7.53745 -11.22454,13.45001 -11.88155,26.40126 -1.09824,21.64902 6.28439,29.19483 38.92141,39.79175 22.95548,7.45343 27.72033,10.70157 27.72033,18.88868 0,5.03846 -3.09183,9.30607 -8.32868,11.49447 -4.97963,2.08062 -19.04902,2.32601 -24.09596,0.41914 -5.04845,-1.90744 -10.23857,-7.23491 -11.16654,-11.45994 -0.77739,-3.53939 -0.96007,-3.60959 -9.37161,-3.60959 -4.71815,0 -10.3529,0.35504 -12.5226,0.78898 -4.60705,0.92142 -4.94802,2.96696 -2.08833,12.55219 3.56618,11.95332 13.23598,19.81047 29.41665,23.90611 10.65606,2.69727 30.35521,1.75692 40.05062,-1.91328 16.36238,-6.19398 25.70967,-20.97381 24.308,-38.43568 -1.46094,-18.20017 -11.5906,-27.05064 -40.99493,-35.81725 -16.73098,-4.98818 -21.52076,-7.34332 -23.76558,-11.68431 -2.31533,-4.47725 -2.32407,-7.91002 -0.037,-12.33275 5.25169,-10.15567 28.66153,-9.96854 34.90992,0.2786 1.32723,2.17662 2.41619,4.95135 2.41872,6.16638 0.005,2.50997 1.16549,2.61205 15.67359,1.38565 l 9.73652,-0.8235 -0.8235,-5.17275 c -3.31724,-20.86707 -17.09245,-30.3525 -44.1484,-30.39794 z m -196.52273,0.52269 -12.70012,0.35998 -12.69767,0.3575 -9.73403,37.87107 c -12.86107,50.04313 -14.22638,54.91305 -15.40238,54.91305 -0.54912,0 -0.99856,-1.00912 -0.99856,-2.24366 0,-1.97944 -9.16609,-45.3707 -16.52668,-78.23236 l -2.61596,-11.67691 h -14.54929 c -11.10423,0 -14.41151,0.37358 -13.97236,1.57796 0.31647,0.86788 7.52954,28.84513 16.02863,62.17167 8.49908,33.32654 15.64108,61.23825 15.8733,62.02621 0.28954,0.98241 5.42106,1.37913 16.3245,1.26237 l 15.90044,-0.17013 1.22292,-4.4183 c 0.67213,-2.43006 5.62972,-21.31729 11.0186,-41.9713 5.38887,-20.65402 10.08218,-37.54578 10.42934,-37.53822 0.34715,0.008 5.68324,18.75329 11.8569,41.65571 l 11.22324,41.64092 6.44992,0.27368 c 9.9774,0.42425 24.75138,0.40262 24.7518,-0.037 3.7e-4,-0.3851 4.10323,-16.12394 13.22528,-50.73146 9.20688,-34.92931 19.59631,-75.29609 19.59631,-76.13662 0,-0.47792 -6.24872,-0.86788 -13.88606,-0.86788 -7.63733,0 -13.88605,0.28447 -13.88605,0.63365 0,1.63151 -20.38674,92.12726 -20.86114,92.60166 -0.76008,0.76007 -0.57087,1.41682 -12.57931,-44.00292 -5.96588,-22.56485 -11.44316,-42.89151 -12.17003,-45.1716 z m 96.1644,0.0864 v 64.38082 64.38081 h 13.88606 13.88606 v -64.38081 -64.38082 h -13.88606 z m -133.22923,159.0782 c -38.33269,-0.0626 -60.53494,22.67004 -60.38906,61.83636 0.12485,33.51149 14.52427,54.70492 42.46687,62.4996 9.1537,2.55345 33.39879,1.85307 41.95651,-1.2106 15.78161,-5.64985 28.55169,-18.80463 33.57359,-34.58447 3.34555,-10.51244 4.50549,-29.6776 2.49516,-41.22177 -2.17633,-12.49735 -7.60978,-23.46089 -15.57497,-31.42608 -11.42161,-11.4216 -23.85362,-15.85921 -44.5281,-15.89304 z m 202.65952,1.87384 v 61.54048 61.54049 h 39.76463 39.76462 v -11.07532 -11.07532 l -24.93179,-0.2145 c -13.71248,-0.11765 -25.64187,-0.24636 -26.50975,-0.286 -1.16672,-0.0533 -1.57796,-3.85495 -1.57796,-14.58874 v -14.51725 h 23.98501 23.98501 v -11.36132 -11.36132 h -23.98501 -23.98501 v -13.25487 -13.25488 h 25.92787 25.92787 l -0.3649,-11.04572 -0.3649,-11.04573 h -38.81784 z m -373.661203,0.4438 v 61.31858 61.31859 h 13.227758 13.225284 l 0.345182,-23.66942 0.342708,-23.66942 h 8.015551 8.01801 l 12.17989,23.65216 12.18236,23.65217 14.83283,0.0173 c 8.15806,0.009 14.83284,-0.20179 14.83284,-0.46847 0,-0.26667 -5.95578,-10.98955 -13.23516,-23.82967 -7.27936,-12.84012 -13.55846,-24.18566 -13.95262,-25.21287 -0.48438,-1.26225 0.63327,-2.42544 3.4444,-3.58984 11.46345,-4.74833 18.6939,-17.09163 18.6939,-31.90935 0,-11.78737 -2.96536,-20.25637 -9.31983,-26.61083 -9.14417,-9.14418 -13.03581,-9.95886 -50.327103,-10.51563 z m 477.175463,0.0321 v 61.30379 61.30133 h 13.22775 13.22529 l 0.34518,-23.66942 0.34271,-23.66942 h 8.00322 8.00323 l 12.08865,23.66942 12.09113,23.66942 h 15.49608 15.49853 l -10.79671,-19.25113 c -5.93841,-10.58812 -12.43896,-21.95873 -14.44574,-25.26709 -2.00678,-3.3084 -3.64903,-6.22804 -3.64903,-6.48938 0,-0.26133 2.21996,-1.36253 4.93359,-2.4483 12.1927,-4.87856 18.41744,-17.16444 17.5918,-34.72501 -0.56924,-12.10708 -4.45928,-20.53761 -12.1429,-26.31989 -8.76674,-6.59739 -11.97934,-7.11577 -47.30678,-7.63093 z m -235.65617,0.15533 4.75114,14.20165 c 2.61299,7.81091 11.65217,35.36211 20.08695,61.2249 l 15.3358,47.02324 h 16.01139 16.01137 l 20.39762,-61.22489 20.39761,-61.2249 H 402.8048 389.73485 l -14.59368,44.21743 c -8.02727,24.31979 -14.59614,45.0542 -14.59614,46.07646 0,1.02226 -0.56807,1.85904 -1.26237,1.85904 -0.6943,0 -1.25641,-0.71008 -1.24757,-1.57796 0.009,-0.86788 -6.32995,-21.60228 -14.08824,-46.07646 l -14.10796,-44.49851 h -13.47677 z m 262.16591,19.8552 14.83284,0.8654 c 15.8271,0.92384 19.55435,2.30813 22.70292,8.4347 3.65817,7.11818 0.9066,19.56759 -5.04209,22.80401 -1.56025,0.84887 -9.47523,1.78323 -17.66083,2.08586 l -14.83284,0.54735 v -17.36743 z m -331.81564,0.0443 c 16.86497,-0.10554 29.26464,9.94383 32.70325,26.50482 1.89685,9.13554 0.883,28.39157 -1.82452,34.65597 -3.06153,7.08341 -9.49445,13.68012 -16.53901,16.96062 -11.57173,5.38868 -28.77674,2.88061 -37.4889,-5.46616 -1.99786,-1.91408 -5.17555,-6.62157 -7.06138,-10.46139 -3.15177,-6.41748 -3.4296,-8.20628 -3.4296,-22.13091 0,-13.1484 0.38671,-16.00431 2.93156,-21.62792 5.53757,-12.237 15.70583,-18.34111 30.7086,-18.43503 z m -144.728631,0.92952 13.784971,0.3501 c 7.58221,0.19246 15.25111,1.04624 17.04198,1.89603 7.90695,3.75191 10.09486,19.26013 3.62931,25.72569 -1.7224,1.7224 -5.34943,3.64846 -8.0624,4.27776 -2.71297,0.62928 -9.92099,1.15707 -16.016304,1.1736 l -11.082703,0.0295 0.352567,-16.72639 z M 548.49992,946.71318 c -20.73768,-1.48871 -31.85902,9.16377 -31.99069,30.64204 -0.10616,17.32555 5.371,26.52778 18.48926,31.05868 3.68255,1.272 9.00747,2.3295 11.83225,2.3522 7.19679,0.058 17.39538,-3.2151 21.94598,-7.0441 3.81124,-3.207 3.84629,-3.3549 3.84629,-15.75005 v -12.51028 h -13.59512 -13.59512 l 0.0246,5.04947 0.0246,5.04702 h 7.25862 l 7.25862,0.003 v 5.63628 c 0,6.96327 -1.94043,8.24938 -12.4437,8.24978 -6.27316,0 -8.2161,-0.55134 -11.40816,-3.23728 -6.56968,-5.52802 -8.55769,-20.39429 -4.0534,-30.31165 4.93708,-10.87026 20.88631,-12.73215 26.37908,-3.07949 1.93294,3.39681 2.79658,3.79186 8.31142,3.79943 l 6.15404,0.008 -0.75692,-3.78217 c -1.91316,-9.56577 -10.12284,-15.15636 -23.68176,-16.12973 z m -460.833689,0.35505 c -10.156099,-0.0101 -11.327805,0.26519 -16.410796,3.83395 -8.112299,5.69566 -11.517185,12.77443 -12.174955,25.30656 -0.927223,17.66583 5.055547,28.79836 17.576997,32.70326 14.408957,4.4935 30.034463,-0.7805 35.896153,-12.11581 2.85783,-5.52642 2.34465,-6.18753 -4.79798,-6.1787 -6.00619,0.008 -6.82384,0.3549 -8.733035,3.71067 -4.423101,7.77444 -19.007842,7.60074 -23.802559,-0.28354 -5.558009,-9.13941 -4.340568,-26.15599 2.349685,-32.84624 7.009063,-7.00907 19.462055,-5.46346 22.902629,2.84279 1.47562,3.56248 2.05966,3.84628 7.90952,3.84628 h 6.31678 l -0.79884,-3.99668 c -1.03802,-5.19012 -6.16023,-11.83966 -11.25776,-14.6134 -2.948998,-1.60463 -6.987367,-2.20157 -14.975839,-2.20914 z m 84.154639,0.61886 v 12.93928 12.94174 l -13.57046,0.35751 -13.57047,0.35997 v -13.29925 -13.29679 h -6.94303 -6.94303 v 30.92804 30.92801 h 6.94303 6.94303 l -0.003,-12.93925 -0.003,-12.93928 13.96989,0.39449 13.97236,0.39695 -0.39943,12.54479 -0.39695,12.5473 h 6.62744 6.62743 v -30.92802 -30.92804 l -6.62743,-0.003 z m 420.36886,0 0.3575,30.9305 0.35998,30.92801 h 20.15351 20.156 v -5.0494 -5.04952 H 619.33066 605.4446 v -7.57422 -7.57421 h 11.22818 11.22818 l 0.48326,-5.04948 0.48077,-5.04947 H 617.15603 605.4446 v -8.2054 -8.2054 h 13.25487 13.25488 v -5.04947 -5.04948 h -19.88231 z m -317.48579,0.003 v 30.92804 30.92807 h 18.81473 18.81471 l -0.19477,-5.0495 -0.19479,-5.04702 -12.30809,-0.003 h -12.3081 v -25.87857 -25.87856 h -6.31184 z m 54.28187,0 v 30.92804 30.92807 h 19.56671 19.56672 v -5.0495 -5.04948 h -12.62369 -12.62369 v -25.87856 -25.87857 h -6.94303 z m 54.91304,0 v 30.92804 30.92807 h 20.56528 20.5628 l -0.29587,-5.0495 -0.29832,-5.04948 h -13.63951 -13.6395 v -7.57421 -7.57422 h 11.67691 l 11.67691,0.003 v -4.73635 -4.73388 l -11.36132,-0.63119 -11.36132,-0.63118 -0.37477,-7.88981 -0.37722,-7.8898 h 13.3165 13.31405 v -5.04948 -5.04947 h -19.88231 z m 59.96253,0 v 30.92804 30.92807 h 6.31184 6.31185 v -21.03869 -21.03866 l 13.57046,21.01894 13.57047,21.01651 7.25862,0.022 7.25862,0.02 v -30.92807 -30.92804 h -6.28225 -6.2798 l -0.34764,21.14468 -0.34518,21.14468 -5.57957,-8.83658 c -3.06885,-4.86012 -9.22984,-14.37523 -13.69128,-21.14468 l -8.11171,-12.3081 h -6.82221 z m -222.80812,0.0148 -5.23192,14.82544 c -2.87814,8.15381 -7.82648,22.06828 -10.99396,30.92064 l -5.75709,16.09523 h 6.82469 6.82468 l 2.18695,-6.9431 2.18942,-6.94298 h 12.20948 12.21194 l 1.76535,6.62738 1.7678,6.6275 7.22164,0.3772 7.21917,0.3772 -5.77929,-16.15679 c -3.17958,-8.88649 -8.138,-22.82847 -11.01614,-30.98228 l -5.23192,-14.82544 h -8.2054 z m 8.49388,13.69868 c 0.0871,-0.006 0.15676,0.0501 0.2071,0.17259 0.42798,1.04145 2.40257,6.86413 4.3887,12.93928 l 3.61206,11.04573 h -8.66647 c -4.76635,0 -8.6581,-0.14202 -8.64673,-0.3156 0.0114,-0.17357 1.937,-5.99625 4.27776,-12.93928 2.24173,-6.64929 4.11874,-10.85361 4.82758,-10.90272 z"
       inkscape:label="text" />
    <ellipse
       style="fill:#ffffff;fill-opacity:1;stroke:#ffffff;stroke-width:1.43369;stroke-dasharray:none;stroke-opacity:1"
       id="path42"
       cx="514.88556"
       cy="434.77145"
       rx="114.87035"
       ry="134.26755" />
    <ellipse
       style="fill:#ffffff;fill-opacity:1;stroke:#ffffff;stroke-width:2.11717;stroke-dasharray:none;stroke-opacity:1"
       id="path43"
       cx="-0.78382766"
       cy="387.64667"
       rx="122.63126"
       ry="87.929611"
       transform="matrix(0.63322991,-0.77396375,0.80312626,0.59580888,0,0)" />
    <path
       id="path20"
       style="fill:#ff0000;stroke-width:1.26237"
       inkscape:label="logo"
       d="m 345.82068,11.066051 c -4.08181,-0.01408 -8.22125,0.970396 -12.41658,2.953741 -3.47152,1.641156 -7.78921,4.617973 -9.59598,6.615116 -1.80675,1.997144 -25.6235,36.863635 -52.9258,77.480355 -27.30231,40.616717 -57.70645,85.777967 -67.56386,100.358327 -9.8574,14.58036 -28.07941,41.5635 -40.49197,59.96253 -33.27577,49.32437 -75.187615,111.28389 -111.2438,164.45067 -19.151488,28.23987 -32.693424,49.45938 -33.928627,53.16743 -4.088926,12.27478 0.280713,28.20104 9.546665,34.79898 9.26267,6.5956 3.00031,6.34975 162.396862,6.37841 84.81675,0.0153 149.43598,0.51248 151.14896,1.16375 0.0952,0.0361 0.19177,0.0778 0.286,0.12081 l -11.26762,-57.3219 -0.0665,-8.69358 9.86965,-79.30241 1.21553,-6.8099 37.10921,-63.11597 4.83744,-6.18364 31.72934,-27.06204 2.7787,-0.17259 3.23482,5.04456 -1.04047,2.5987 -31.28802,31.81071 -2.64062,3.26193 -30.54341,57.00385 -2.01436,5.45384 -4.84731,80.36505 0.17507,3.18306 15.90536,65.70235 -1.77769,2.74171 -19.8182,4.9755 -0.0173,-0.14792 c -5.54976,1.56806 -22.26134,4.775 -74.80522,15.07939 -135.847,26.64099 -162.50538,32.08334 -164.23864,33.52181 -1.8495,1.53495 -2.35803,5.18904 -0.92211,6.62496 0.46286,0.46288 94.61981,0.84088 209.23765,0.84077 228.877,-2.4e-4 217.77566,0.35629 237.84806,-7.64078 46.45919,-18.50985 78.2787,-63.47302 86.66212,-122.45966 5.22006,-36.72893 -1.17621,-76.14483 -17.98382,-110.82712 -14.93769,-30.82369 -39.74448,-55.24367 -68.12109,-67.06087 l -9.81048,-4.08544 -19.81327,-29.21694 C 509.7222,230.55516 480.52766,187.58566 455.74298,151.13476 430.95828,114.68386 402.9995,73.499069 393.61075,59.613011 367.48528,20.973148 364.86706,17.635596 357.89705,14.103626 c -3.96947,-2.011509 -7.99452,-3.0235 -12.07633,-3.037575 z M 317.78722,136.22796 c 0.48433,0.004 0.9762,0.0876 1.50152,0.21943 3.25648,0.81733 21.19548,23.62293 51.27388,65.18212 9.29626,12.84461 19.93392,27.45485 23.63983,32.46656 6.77049,9.1562 8.08474,12.61227 5.16042,13.57786 -4.20309,1.38783 -14.12989,1.83495 -41.84802,1.87876 l -30.16865,0.0468 -13.38308,13.09214 c -7.36,7.20049 -15.88057,14.86938 -18.93553,17.04198 l -5.55492,3.94984 h -34.91485 c -27.2976,0 -35.42253,-0.37055 -37.24236,-1.70124 -2.77696,-2.03056 -4.35232,0.81599 16.16671,-29.2268 43.47303,-63.65077 52.68858,-77.05529 64.67175,-94.05388 13.12263,-18.61494 16.24291,-22.49981 19.6333,-22.47361 z m 195.74114,167.40688 c 6.57929,0.0942 13.24955,0.51154 15.54292,1.1884 3.28436,0.96933 3.83061,1.77832 4.12242,6.08502 0.62944,9.28957 1.1008,9.9945 8.77741,13.13405 4.01326,1.64134 10.33589,4.90514 14.04879,7.2537 l 6.75071,4.27036 5.0988,-2.65542 c 2.80379,-1.46142 5.76522,-2.40122 6.58059,-2.08833 1.83746,0.7051 16.09658,19.48133 20.4987,26.993 l 3.24714,5.54012 -4.046,5.63381 -4.04598,5.63135 3.18058,9.76117 c 1.74919,5.36766 4.13523,13.73517 5.30096,18.59529 2.45386,10.23046 3.56323,11.9925 7.55449,11.9925 7.00695,0 9.21206,9.32953 6.96522,29.46843 -1.71051,15.33166 -2.51809,16.97397 -8.60483,17.47838 -4.71381,0.39064 -4.73389,0.41619 -8.03034,10.49098 -1.8174,5.55442 -4.72285,13.25929 -6.45731,17.12088 l -3.15346,7.01946 3.73288,4.65499 3.73286,4.65498 -3.45673,5.99626 c -4.56575,7.92031 -14.67009,21.62936 -18.78513,25.48653 l -3.28414,3.07949 -4.81524,-4.70183 -4.81278,-4.69936 -8.10677,3.63423 c -4.45864,1.99827 -10.24155,4.33594 -12.85052,5.19495 -5.23634,1.72408 -7.23934,4.42177 -7.26848,9.79568 -0.0101,1.95498 -0.54351,4.38296 -1.18348,5.39466 -2.1523,3.40256 -31.24234,4.17977 -33.95822,0.90733 -0.71245,-0.85844 -1.75522,-4.2325 -2.31763,-7.49778 -1.01618,-5.89984 -1.09803,-5.98048 -13.01571,-12.85792 l -11.99251,-6.92084 -4.50459,5.17522 c -3.79763,4.36105 -4.88902,4.96562 -6.95288,3.86107 -3.87516,-2.07392 -16.05691,-15.38314 -21.26057,-23.22808 -5.29845,-7.98784 -5.25362,-10.02121 0.34765,-15.38758 l 3.57754,-3.42961 -4.2531,-11.32187 c -2.33911,-6.2274 -5.15481,-14.86859 -6.25761,-19.20181 -2.81105,-11.04539 -3.55496,-12.08494 -8.9574,-12.53492 -6.93827,-0.57792 -7.88831,-3.45993 -7.8257,-23.74586 0.0677,-21.91645 1.15439,-25.30575 8.69358,-27.13353 l 5.62642,-1.36346 3.33837,-10.68329 c 1.83547,-5.8756 4.81407,-14.26507 6.62004,-18.64214 l 3.28414,-7.95884 -4.36652,-5.71764 c -4.35906,-5.71069 -4.36132,-5.72585 -2.1475,-9.54912 2.92049,-5.04375 24.14165,-27.5103 26.00924,-27.53542 0.79995,-0.0114 3.48115,2.33653 5.95926,5.21713 l 4.50705,5.23932 10.68577,-5.07907 c 5.87799,-2.79262 11.30571,-5.84998 12.06153,-6.79509 0.75583,-0.9451 1.76176,-4.38766 2.2338,-7.65065 0.66341,-4.58588 1.48868,-6.1343 3.63178,-6.81728 1.93412,-0.61638 8.4212,-0.84613 15.00049,-0.752 z m 4.41829,66.09932 c -1.54782,-0.0399 -3.15809,-0.0126 -4.83989,0.0813 -16.87548,0.94124 -29.37729,9.71757 -38.66253,27.13847 -10.5022,19.70415 -10.59472,46.78498 -0.23175,68.08655 6.58975,13.54558 17.48834,23.82592 29.38952,27.71787 3.11448,1.01849 8.91533,1.55308 14.177,1.30675 26.60463,-1.24549 46.44544,-27.81401 46.34521,-62.05825 -0.0597,-20.41172 -6.4644,-37.02833 -19.26099,-49.96959 -8.28058,-8.37422 -16.08175,-12.02391 -26.91657,-12.30316 z" />
  </g>
  <g
     inkscape:groupmode="layer"
     id="layer2"
     inkscape:label="Flag">
    <rect
       style="fill:#ffffff;fill-opacity:1;stroke:#ffffff;stroke-width:1.39618;stroke-dasharray:none;stroke-opacity:1"
       id="rect33"
       width="32.163425"
       height="109.04526"
       x="140.26727"
       y="377.33847" />
    <rect
       style="fill:#ffffff;fill-opacity:1;stroke:#ffffff;stroke-width:1.39618;stroke-dasharray:none;stroke-opacity:1"
       id="rect33-3"
       width="32.163425"
       height="109.04526"
       x="417.46951"
       y="-211.86827"
       transform="rotate(90)" />
  </g>
</svg>
