<?xml version="1.0" encoding="UTF-8" standalone="no"?>
<!-- Created with Inkscape (http://www.inkscape.org/) -->

<svg
   version="1.1"
   id="svg1"
   width="1024"
   height="1024"
   viewBox="0 0 1024 1024"
   sodipodi:docname="logo.svg"
   inkscape:version="1.4.1-rc (06eac75fbf, 2025-03-29)"
   xmlns:inkscape="http://www.inkscape.org/namespaces/inkscape"
   xmlns:sodipodi="http://sodipodi.sourceforge.net/DTD/sodipodi-0.dtd"
   xmlns="http://www.w3.org/2000/svg"
   xmlns:svg="http://www.w3.org/2000/svg">
  <defs
     id="defs1">
    <linearGradient
       id="swatch39">
      <stop
         style="stop-color:#1a1a1a;stop-opacity:1;"
         offset="0"
         id="stop40" />
    </linearGradient>
  </defs>
  <sodipodi:namedview
     id="namedview1"
     pagecolor="#505050"
     bordercolor="#eeeeee"
     borderopacity="1"
     inkscape:showpageshadow="0"
     inkscape:pageopacity="0"
     inkscape:pagecheckerboard="0"
     inkscape:deskcolor="#505050"
     inkscape:zoom="0.54901123"
     inkscape:cx="177.59199"
     inkscape:cy="647.52773"
     inkscape:window-width="1854"
     inkscape:window-height="1011"
     inkscape:window-x="66"
     inkscape:window-y="32"
     inkscape:window-maximized="1"
     inkscape:current-layer="g1" />
  <g
     inkscape:groupmode="layer"
     inkscape:label="Image"
     id="g1">
    <path
       id="path1"
       style="fill:#1a1a1a"
       d="M 689.52344 608.19727 C 675.05417 608.75263 665.09495 614.12064 660.10938 624.09766 C 657.37282 629.574 657 631.32338 657 638.69922 C 657 648.37767 658.72044 652.79108 664.45508 657.82617 C 669.4094 662.17612 671.66685 663.21494 688.59375 668.93164 C 696.76942 671.6928 704.58628 674.79303 705.96484 675.82227 C 709.00009 678.08839 710.4966 683.56289 709.0918 687.25781 C 708.51636 688.77133 706.44739 690.73644 704.29102 691.81641 C 692.95296 697.49482 677.11602 693.46942 675.42969 684.48047 L 674.77734 681 L 668.13867 681.01172 C 664.48738 681.01777 659.80405 681.30182 657.73047 681.64453 C 654.02322 682.25724 653.9705 682.32922 654.60156 685.88477 C 656.95435 699.1409 665.46084 707.26444 680.38867 710.51172 C 696.89328 714.102 714.25539 710.67819 722.78125 702.15234 C 732.49055 692.44303 733.51281 673.34704 724.85156 663.48242 C 720.94942 659.03813 710.89222 654.23701 695.58789 649.50977 C 681.4805 645.15224 678 642.51947 678 636.21094 C 678 629.01591 683.58485 624.98674 693.5 625.02734 C 701.49322 625.06008 709 630.66238 709 636.59375 C 709 638.06939 709.78614 638.20284 715.14648 637.64258 C 718.52716 637.28923 723.07801 637 725.25977 637 L 729.22656 637 L 728.52148 632.29297 C 726.23871 617.07041 715.70667 609.28505 696 608.25391 C 693.75024 608.13619 691.59048 608.11793 689.52344 608.19727 z M 314.24805 608.25391 C 311.88553 608.35765 309.69623 608.5863 307.85156 608.94922 C 290.86844 612.29045 282.63458 621.94261 282.64258 638.5 C 282.64684 647.82944 284.64847 652.72848 290.58789 657.94336 C 295.08032 661.88777 299.6472 663.94498 316.25195 669.50391 C 330.65767 674.32665 333.65493 675.9604 335.11133 679.79102 C 337.74531 686.71893 333.39163 692.21942 323.83789 694.03125 C 313.39481 696.01174 303.01332 691.71845 301.19922 684.66797 C 300.23172 680.90778 298.27331 680.46305 287.2207 681.49609 L 279.94336 682.17578 L 280.55469 685.83789 C 282.78139 699.13975 290.35836 706.85976 304.75977 710.50195 C 312.35692 712.42331 329.71031 711.89334 336.41797 709.53516 C 350.62491 704.5405 358.09078 692.97417 356.73828 678.05859 C 355.44557 663.80238 348.5178 658.00841 323.24023 650.03906 C 306.8613 644.87522 304 642.79975 304 636.08594 C 304 632.46488 304.52998 630.85147 306.25 629.24023 C 314.87065 621.16478 331.97207 625.07285 334.64648 635.72852 C 335.24473 638.11214 335.32275 638.12542 344.375 637.43945 C 349.39386 637.05912 353.7816 636.58793 354.125 636.39258 C 355.09528 635.84063 353.24956 627.35099 351.10547 622.50391 C 348.79465 617.27993 342.79819 612.62101 335.58594 610.44531 C 329.98501 608.75569 321.33559 607.94268 314.24805 608.25391 z M 601.5 608.51758 C 587.71496 608.49443 581.16298 610.34316 574.62109 616.10156 C 567.83781 622.07244 565.72944 626.75614 565.20898 637.01562 C 564.339 654.16514 570.18723 660.14264 596.04102 668.53711 C 614.22547 674.44143 618 677.01448 618 683.5 C 618 687.49127 615.55077 690.87191 611.40234 692.60547 C 607.45767 694.25366 596.31244 694.44805 592.31445 692.9375 C 588.31526 691.4265 584.20385 687.20628 583.46875 683.85938 C 582.85293 681.05561 582.70822 681 576.04492 681 C 572.30738 681 567.84375 681.28125 566.125 681.625 C 562.47547 682.35491 562.20537 683.97531 564.4707 691.56836 C 567.29569 701.03732 574.95574 707.26145 587.77344 710.50586 C 596.21476 712.64253 611.81967 711.89762 619.5 708.99023 C 632.46164 704.0836 639.86621 692.37559 638.75586 678.54297 C 637.59856 664.12549 629.57423 657.11449 606.28125 650.16992 C 593.02762 646.21848 589.23334 644.35283 587.45508 640.91406 C 585.62096 637.36736 585.61404 634.64805 587.42578 631.14453 C 591.58597 623.0996 610.13034 623.24784 615.08008 631.36523 C 616.13146 633.08946 616.99409 635.2875 616.99609 636.25 C 617.00034 638.2383 617.91935 638.31916 629.41211 637.34766 L 637.125 636.69531 L 636.47266 632.59766 C 633.84487 616.06757 622.93268 608.55358 601.5 608.51758 z M 445.82227 608.93164 L 435.76172 609.2168 L 425.70312 609.5 L 417.99219 639.5 C 407.80415 679.14224 406.7226 683 405.79102 683 C 405.35603 683 405 682.20061 405 681.22266 C 405 679.65462 397.73898 645.28174 391.9082 619.25 L 389.83594 610 L 378.31055 610 C 369.51421 610 366.89431 610.29594 367.24219 611.25 C 367.49288 611.9375 373.2068 634.1 379.93945 660.5 C 386.67209 686.9 392.32971 709.01058 392.51367 709.63477 C 392.74303 710.413 396.80802 710.72727 405.44531 710.63477 L 418.04102 710.5 L 419.00977 707 C 419.54221 705.075 423.46942 690.11326 427.73828 673.75195 C 432.00714 657.39063 435.725 644.00963 436 644.01562 C 436.275 644.02202 440.50205 658.87125 445.39258 677.01367 L 454.2832 710 L 459.39258 710.2168 C 467.29629 710.55287 478.99967 710.53574 479 710.1875 C 479.00029 709.88244 482.25042 697.41474 489.47656 670 C 496.76989 642.33034 505 610.35334 505 609.6875 C 505 609.30891 500.05 609 494 609 C 487.95 609 483 609.22535 483 609.50195 C 483 610.79437 466.85041 682.48162 466.47461 682.85742 C 465.87251 683.45952 466.02239 683.97977 456.50977 648 C 451.78383 630.125 447.44494 614.023 446.86914 612.2168 L 445.82227 608.93164 z M 522 609 L 522 660 L 522 711 L 533 711 L 544 711 L 544 660 L 544 609 L 533 609 L 522 609 z M 416.46094 735.01562 C 386.09526 734.96598 368.50749 752.97395 368.62305 784 C 368.72193 810.54651 380.12862 827.33513 402.26367 833.50977 C 409.51488 835.53252 428.7209 834.9777 435.5 832.55078 C 448.00158 828.07519 458.11755 817.65448 462.0957 805.1543 C 464.74592 796.82675 465.66478 781.64485 464.07227 772.5 C 462.34827 762.60008 458.0441 753.91519 451.73438 747.60547 C 442.68662 738.55772 432.83846 735.04242 416.46094 735.01562 z M 577 736.5 L 577 785.25 L 577 834 L 608.5 834 L 640 834 L 640 825.22656 L 640 816.45312 L 620.25 816.2832 C 609.3875 816.19004 599.9375 816.08804 599.25 816.05664 C 598.32577 816.01444 598 813.0029 598 804.5 L 598 793 L 617 793 L 636 793 L 636 784 L 636 775 L 617 775 L 598 775 L 598 764.5 L 598 754 L 618.53906 754 L 639.07812 754 L 638.78906 745.25 L 638.5 736.5 L 607.75 736.5 L 577 736.5 z M 281 736.85156 L 281 785.42578 L 281 834 L 291.47852 834 L 301.95508 834 L 302.22852 815.25 L 302.5 796.5 L 308.84961 796.5 L 315.20117 796.5 L 324.84961 815.23633 L 334.5 833.97266 L 346.25 833.98633 C 352.7125 833.9936 358 833.82648 358 833.61523 C 358 833.40398 353.28206 824.90973 347.51562 814.73828 C 341.74919 804.56683 336.77513 795.57933 336.46289 794.76562 C 336.07918 793.76571 336.96454 792.84428 339.19141 791.92188 C 348.27231 788.16044 354 778.38255 354 766.64453 C 354 757.30703 351.65095 750.59821 346.61719 745.56445 C 339.37353 738.32079 336.29072 737.67543 306.75 737.23438 L 281 736.85156 z M 659 736.87695 L 659 785.43945 L 659 834 L 669.47852 834 L 679.95508 834 L 680.22852 815.25 L 680.5 796.5 L 686.83984 796.5 L 693.17969 796.5 L 702.75586 815.25 L 712.33398 834 L 724.60938 834 L 736.88672 834 L 728.33398 818.75 C 723.6298 810.3625 718.48032 801.35514 716.89062 798.73438 C 715.30093 796.1136 714 793.80077 714 793.59375 C 714 793.38673 715.75857 792.5144 717.9082 791.6543 C 727.56679 787.78969 732.49779 778.05729 731.84375 764.14648 C 731.39282 754.55572 728.31128 747.87738 722.22461 743.29688 C 715.27994 738.07068 712.73504 737.66004 684.75 737.25195 L 659 736.87695 z M 472.32227 737 L 476.08594 748.25 C 478.15585 754.4375 485.31634 776.2625 491.99805 796.75 L 504.14648 834 L 516.83008 834 L 529.51367 834 L 545.67188 785.5 L 561.83008 737 L 551.47656 737 L 541.12305 737 L 529.5625 772.02734 C 523.20361 791.29254 518 807.71754 518 808.52734 C 518 809.33713 517.55 810 517 810 C 516.45 810 516.00472 809.4375 516.01172 808.75 C 516.0186 808.0625 510.99738 791.6375 504.85156 772.25 L 493.67578 737 L 483 737 L 472.32227 737 z M 680 752.72852 L 691.75 753.41406 C 704.28762 754.14589 707.2402 755.24247 709.73438 760.0957 C 712.63224 765.73445 710.45255 775.59639 705.74023 778.16016 C 704.50426 778.8326 698.23432 779.57277 691.75 779.8125 L 680 780.24609 L 680 766.48828 L 680 752.72852 z M 417.14844 752.76367 C 430.50822 752.68003 440.33076 760.64079 443.05469 773.75977 C 444.5573 780.99659 443.75417 796.25048 441.60938 801.21289 C 439.18415 806.8241 434.08824 812.04976 428.50781 814.64844 C 419.34113 818.91715 405.71199 816.93035 398.81055 810.31836 C 397.22792 808.8021 394.71068 805.07301 393.2168 802.03125 C 390.72009 796.94757 390.5 795.53055 390.5 784.5 C 390.5 774.08434 390.80634 771.822 392.82227 767.36719 C 397.20892 757.67351 405.26382 752.83807 417.14844 752.76367 z M 302.5 753.5 L 313.41992 753.77734 C 319.42626 753.9298 325.50126 754.60613 326.91992 755.2793 C 333.1835 758.25142 334.91668 770.53643 329.79492 775.6582 C 328.4305 777.02262 325.55731 778.54837 323.4082 779.04688 C 321.25909 779.54537 315.54917 779.96346 310.7207 779.97656 L 301.94141 780 L 302.2207 766.75 L 302.5 753.5 z M 666.89062 859.22656 C 650.46303 858.04726 641.65313 866.48574 641.54883 883.5 C 641.4647 897.22463 645.80353 904.51426 656.19531 908.10352 C 659.11248 909.11109 663.33068 909.9488 665.56836 909.9668 C 671.26938 910.01255 679.34831 907.41996 682.95312 904.38672 C 685.97224 901.84632 686 901.72914 686 891.91016 L 686 882 L 675.23047 882 L 664.46094 882 L 664.48047 886 L 664.5 889.99805 L 670.25 889.99805 L 676 890 L 676 894.46484 C 676 899.98088 674.46286 900.99968 666.14258 901 C 661.17322 901 659.6341 900.56325 657.10547 898.43555 C 651.90123 894.05647 650.3264 882.27998 653.89453 874.42383 C 657.80549 865.81283 670.43986 864.33791 674.79102 871.98438 C 676.32222 874.6752 677.00636 874.98814 681.375 874.99414 L 686.25 875 L 685.65039 872.00391 C 684.13486 864.42627 677.63147 859.99762 666.89062 859.22656 z M 301.83594 859.50781 C 293.79067 859.49979 292.86249 859.71789 288.83594 862.54492 C 282.40969 867.0568 279.71247 872.66433 279.19141 882.5918 C 278.4569 896.58599 283.19622 905.40479 293.11523 908.49805 C 304.52945 912.05761 316.90737 907.87976 321.55078 898.90039 C 323.81464 894.52257 323.40812 893.99886 317.75 894.00586 C 312.99213 894.01159 312.34442 894.287 310.83203 896.94531 C 307.32822 903.10391 295.77475 902.96633 291.97656 896.7207 C 287.57372 889.48081 288.53813 876.00093 293.83789 870.70117 C 299.3902 865.14886 309.25498 866.37323 311.98047 872.95312 C 313.1494 875.77518 313.61205 876 318.24609 876 L 323.25 876 L 322.61719 872.83398 C 321.79491 868.72257 317.73729 863.45506 313.69922 861.25781 C 311.36314 859.98668 308.1641 859.51381 301.83594 859.50781 z M 368.5 859.99805 L 368.5 870.24805 L 368.5 880.5 L 357.75 880.7832 L 347 881.06836 L 347 870.5332 L 347 860 L 341.5 860 L 336 860 L 336 884.5 L 336 909 L 341.5 909 L 347 909 L 346.99805 898.75 L 346.99609 888.5 L 358.0625 888.8125 L 369.13086 889.12695 L 368.81445 899.06445 L 368.5 909.00391 L 373.75 909.00195 L 379 909 L 379 884.5 L 379 860 L 373.75 859.99805 L 368.5 859.99805 z M 701.5 859.99805 L 701.7832 884.5 L 702.06836 909 L 718.0332 909 L 734 909 L 734 905 L 734 901 L 723 901 L 712 901 L 712 895 L 712 889 L 720.89453 889 L 729.78906 889 L 730.17188 885 L 730.55273 881 L 721.27734 881 L 712 881 L 712 874.5 L 712 868 L 722.5 868 L 733 868 L 733 864 L 733 860 L 717.25 860 L 701.5 859.99805 z M 450 860 L 450 884.5 L 450 909 L 464.9043 909 L 479.80859 909 L 479.6543 905 L 479.5 901.00195 L 469.75 901 L 460 901 L 460 880.5 L 460 860 L 455 860 L 450 860 z M 493 860 L 493 884.5 L 493 909 L 508.5 909 L 524 909 L 524 905 L 524 901 L 514 901 L 504 901 L 504 880.5 L 504 860 L 498.5 860 L 493 860 z M 536.5 860 L 536.5 884.5 L 536.5 909 L 552.79102 909 L 569.08008 909 L 568.8457 905 L 568.60938 901 L 557.80469 901 L 547 901 L 547 895 L 547 889 L 556.25 889 L 565.5 889.00195 L 565.5 885.25 L 565.5 881.5 L 556.5 881 L 547.5 880.5 L 547.20312 874.25 L 546.9043 868 L 557.45312 868 L 568 868 L 568 864 L 568 860 L 552.25 860 L 536.5 860 z M 584 860 L 584 884.5 L 584 909 L 589 909 L 594 909 L 594 892.33398 L 594 875.66797 L 604.75 892.31836 L 615.5 908.9668 L 621.25 908.98438 L 627 909 L 627 884.5 L 627 860 L 622.02344 860 L 617.04883 860 L 616.77344 876.75 L 616.5 893.5 L 612.08008 886.5 C 609.64906 882.65 604.76856 875.1125 601.23438 869.75 L 594.80859 860 L 589.4043 860 L 584 860 z M 407.5 860.01172 L 403.35547 871.75586 C 401.07552 878.21499 397.15564 889.2375 394.64648 896.25 L 390.08594 909 L 395.49219 909 L 400.89844 909 L 402.63086 903.5 L 404.36523 898 L 414.03711 898 L 423.71094 898 L 425.10938 903.25 L 426.50977 908.5 L 432.23047 908.79883 L 437.94922 909.09766 L 433.37109 896.29883 C 430.85235 889.25929 426.92448 878.21499 424.64453 871.75586 L 420.5 860.01172 L 414 860.01172 L 407.5 860.01172 z M 414.22852 870.86328 C 414.29747 870.8585 414.3527 870.90297 414.39258 871 C 414.73161 871.825 416.2958 876.4375 417.86914 881.25 L 420.73047 890 L 413.86523 890 C 410.08951 890 407.00662 889.8875 407.01562 889.75 C 407.02471 889.6125 408.55004 885 410.4043 879.5 C 412.18011 874.23269 413.66701 870.90219 414.22852 870.86328 z "
       inkscape:label="text" />
    <ellipse
       style="fill:#ffffff;fill-opacity:1;stroke:#ffffff;stroke-width:1.13571;stroke-dasharray:none;stroke-opacity:1"
       id="path42"
       cx="640.26263"
       cy="453.68607"
       rx="90.995865"
       ry="106.36157" />
    <ellipse
       style="fill:#ffffff;fill-opacity:1;stroke:#ffffff;stroke-width:1.67714;stroke-dasharray:none;stroke-opacity:1"
       id="path43"
       cx="50.133179"
       cy="556.41827"
       rx="97.143761"
       ry="69.654449"
       transform="matrix(0.63322991,-0.77396375,0.80312626,0.59580888,0,0)" />
    <path
       id="path20"
       style="fill:#ff0000"
       inkscape:label="logo"
       d="M 506.33594 118.04297 C 503.10249 118.03182 499.82338 118.81168 496.5 120.38281 C 493.75 121.68287 490.32969 124.04099 488.89844 125.62305 C 487.4672 127.20511 468.60049 154.825 446.97266 187 C 425.34482 219.175 401.25983 254.95 393.45117 266.5 C 385.64252 278.05 371.20775 299.425 361.375 314 C 335.01521 353.07287 301.81427 402.15481 273.25195 444.27148 C 258.08088 466.64202 247.35348 483.4513 246.375 486.38867 C 243.13591 496.11228 246.59737 508.72845 253.9375 513.95508 C 261.27503 519.17986 256.31423 518.98511 382.58203 519.00781 C 449.77059 519.01987 500.95945 519.41378 502.31641 519.92969 C 502.39178 519.95834 502.46832 519.9913 502.54297 520.02539 L 493.61719 474.61719 L 493.56445 467.73047 L 501.38281 404.91016 L 502.3457 399.51562 L 531.74219 349.51758 L 535.57422 344.61914 L 560.70898 323.18164 L 562.91016 323.04492 L 565.47266 327.04102 L 564.64844 329.09961 L 539.86328 354.29883 L 537.77148 356.88281 L 513.57617 402.03906 L 511.98047 406.35938 L 508.14062 470.02148 L 508.2793 472.54297 L 520.87891 524.58984 L 519.4707 526.76172 L 503.77148 530.70312 L 503.75781 530.58594 C 499.3615 531.8281 486.12323 534.36851 444.5 542.53125 C 336.88724 563.63522 315.7695 567.94644 314.39648 569.08594 C 312.93138 570.30187 312.52854 573.1965 313.66602 574.33398 C 314.03268 574.70065 388.62018 575.00009 479.41602 575 C 660.72355 574.99981 651.9295 575.28224 667.83008 568.94727 C 704.63326 554.28448 729.83945 518.66639 736.48047 471.93945 C 740.6156 442.84421 735.54872 411.62045 722.23438 384.14648 C 710.40132 359.72914 690.75034 340.38457 668.27148 331.02344 L 660.5 327.78711 L 644.80469 304.64258 C 636.17237 291.91378 613.04558 257.875 593.41211 229 C 573.77863 200.125 551.63076 167.5 544.19336 156.5 C 523.49777 125.89099 521.42371 123.24711 515.90234 120.44922 C 512.75788 118.85578 509.56939 118.05412 506.33594 118.04297 z M 484.12891 217.19141 C 484.51258 217.19437 484.90222 217.26079 485.31836 217.36523 C 487.89802 218.01269 502.1086 236.07841 525.93555 269 C 533.29969 279.175 541.72643 290.74867 544.66211 294.71875 C 550.02543 301.97194 551.06653 304.70971 548.75 305.47461 C 545.42047 306.574 537.55684 306.92819 515.59961 306.96289 L 491.70117 307 L 481.09961 317.37109 C 475.2693 323.07504 468.51963 329.15004 466.09961 330.87109 L 461.69922 334 L 434.04102 334 C 412.41691 334 405.98066 333.70646 404.53906 332.65234 C 402.33926 331.04381 401.09132 333.29874 417.3457 309.5 C 451.78336 259.07831 459.08356 248.45977 468.57617 234.99414 C 478.97141 220.2481 481.44318 217.17066 484.12891 217.19141 z M 639.1875 349.80469 C 644.39936 349.87926 649.68328 350.20991 651.5 350.74609 C 654.10174 351.51396 654.53446 352.15481 654.76562 355.56641 C 655.26424 362.92525 655.63763 363.48367 661.71875 365.9707 C 664.8979 367.2709 669.90644 369.85636 672.84766 371.7168 L 678.19531 375.09961 L 682.23438 372.99609 C 684.45544 371.83841 686.80137 371.09394 687.44727 371.3418 C 688.90284 371.90035 700.19836 386.77416 703.68555 392.72461 L 706.25781 397.11328 L 703.05273 401.57617 L 699.84766 406.03711 L 702.36719 413.76953 C 703.75283 418.02158 705.64296 424.65 706.56641 428.5 C 708.51026 436.60418 709.38906 438 712.55078 438 C 718.10142 438 719.84822 445.39049 718.06836 461.34375 C 716.71336 473.4889 716.07363 474.78988 711.25195 475.18945 C 707.51785 475.4989 707.50194 475.51914 704.89062 483.5 C 703.45095 487.9 701.14936 494.0035 699.77539 497.0625 L 697.27734 502.62305 L 700.23438 506.31055 L 703.19141 509.99805 L 700.45312 514.74805 C 696.83631 521.02222 688.83204 531.882 685.57227 534.9375 L 682.9707 537.37695 L 679.15625 533.65234 L 675.34375 529.92969 L 668.92188 532.80859 C 665.38992 534.39154 660.80892 536.24335 658.74219 536.92383 C 654.59417 538.28958 653.00747 540.42658 652.98438 544.68359 C 652.97596 546.23225 652.55384 548.1556 652.04688 548.95703 C 650.34191 551.65241 627.2979 552.26808 625.14648 549.67578 C 624.58211 548.99576 623.75607 546.32296 623.31055 543.73633 C 622.50557 539.0627 622.44073 538.99882 613 533.55078 L 603.5 528.06836 L 599.93164 532.16797 C 596.9233 535.62262 596.05874 536.10154 594.42383 535.22656 C 591.35408 533.58368 581.70417 523.04063 577.58203 516.82617 C 573.3848 510.49851 573.42031 508.88775 577.85742 504.63672 L 580.69141 501.91992 L 577.32227 492.95117 C 575.46932 488.01806 573.23883 481.17284 572.36523 477.74023 C 570.13843 468.9905 569.54913 468.16701 565.26953 467.81055 C 559.7733 467.35275 559.02071 465.06973 559.07031 449 C 559.12394 431.63863 559.98477 428.95376 565.95703 427.50586 L 570.41406 426.42578 L 573.05859 417.96289 C 574.51258 413.30847 576.87211 406.66265 578.30273 403.19531 L 580.9043 396.89062 L 577.44531 392.36133 C 573.99223 387.83754 573.99044 387.82553 575.74414 384.79688 C 578.05764 380.80142 594.86823 363.00428 596.34766 362.98438 C 596.98135 362.97585 599.10529 364.83529 601.06836 367.11719 L 604.63867 371.26758 L 613.10352 367.24414 C 617.75984 365.03193 622.05947 362.61001 622.6582 361.86133 C 623.25694 361.11266 624.0538 358.38559 624.42773 355.80078 C 624.95326 352.16802 625.60701 350.94142 627.30469 350.40039 C 628.83682 349.91212 633.97564 349.73012 639.1875 349.80469 z M 642.6875 402.16602 C 641.46137 402.13441 640.18578 402.15616 638.85352 402.23047 C 625.48542 402.97609 615.58197 409.92836 608.22656 423.72852 C 599.90712 439.33739 599.83383 460.78978 608.04297 477.66406 C 613.26312 488.39435 621.89656 496.53804 631.32422 499.62109 C 633.79139 500.4279 638.3866 500.85138 642.55469 500.65625 C 663.62985 499.66962 679.34698 478.62306 679.26758 451.49609 C 679.22027 435.32672 674.14673 422.16368 664.00977 411.91211 C 657.45021 405.27838 651.27042 402.38723 642.6875 402.16602 z " />
  </g>
  <g
     inkscape:groupmode="layer"
     id="layer2"
     inkscape:label="Flag">
    <rect
       style="fill:#ffffff;fill-opacity:1;stroke:#ffffff;stroke-width:1.106;stroke-dasharray:none;stroke-opacity:1"
       id="rect33"
       width="25.478624"
       height="86.381447"
       x="343.50446"
       y="408.18988" />
    <rect
       style="fill:#ffffff;fill-opacity:1;stroke:#ffffff;stroke-width:1.106;stroke-dasharray:none;stroke-opacity:1"
       id="rect33-3"
       width="25.478624"
       height="86.381447"
       x="439.98013"
       y="-400.224"
       transform="rotate(90)" />
  </g>
</svg>
