<?xml version="1.0" encoding="UTF-8" standalone="no"?>
<!-- Created with Inkscape (http://www.inkscape.org/) -->

<svg
   version="1.1"
   id="svg1"
   width="1600"
   height="600"
   viewBox="0 0 1600 600"
   sodipodi:docname="logo-horizontal.svg"
   inkscape:version="1.4.1-rc (06eac75fbf, 2025-03-29)"
   xmlns:inkscape="http://www.inkscape.org/namespaces/inkscape"
   xmlns:sodipodi="http://sodipodi.sourceforge.net/DTD/sodipodi-0.dtd"
   xmlns="http://www.w3.org/2000/svg"
   xmlns:svg="http://www.w3.org/2000/svg">
  <defs
     id="defs1">
    <linearGradient
       id="swatch39">
      <stop
         style="stop-color:#1a1a1a;stop-opacity:1;"
         offset="0"
         id="stop40" />
    </linearGradient>
  </defs>
  <sodipodi:namedview
     id="namedview1"
     pagecolor="#505050"
     bordercolor="#eeeeee"
     borderopacity="1"
     inkscape:showpageshadow="0"
     inkscape:pageopacity="0"
     inkscape:pagecheckerboard="0"
     inkscape:deskcolor="#505050"
     inkscape:zoom="0.28070443"
     inkscape:cx="653.71252"
     inkscape:cy="667.96239"
     inkscape:window-width="1854"
     inkscape:window-height="1011"
     inkscape:window-x="66"
     inkscape:window-y="32"
     inkscape:window-maximized="1"
     inkscape:current-layer="g1" />
  <g
     inkscape:groupmode="layer"
     inkscape:label="Image"
     id="g1">
    <path
       id="path1"
       style="fill:#1a1a1a;stroke-width:1.87745"
       d="m 1475.1747,18.682914 c -27.1653,1.042661 -45.8633,11.120825 -55.2234,29.852166 -5.1376,10.281543 -5.8377,13.56591 -5.8377,27.413668 0,18.170799 3.2302,26.456752 13.9967,35.909852 9.3014,8.16682 13.5396,10.11715 45.319,20.84996 15.3494,5.18394 30.0253,11.00446 32.6133,12.93681 5.6985,4.25452 8.5082,14.53261 5.8707,21.46963 -1.0802,2.84156 -4.9647,6.53095 -9.0133,8.55853 -21.2866,10.66092 -51.0195,3.10345 -54.1855,-13.77284 l -1.2248,-6.5344 -12.4638,0.0219 c -6.855,0.0119 -15.6478,0.54467 -19.5409,1.18807 -6.9601,1.15034 -7.059,1.28546 -5.8744,7.96084 4.4174,24.88771 20.3878,40.13923 48.4142,46.23584 30.9865,6.74055 63.5829,0.31252 79.5897,-15.69433 18.2286,-18.22872 20.148,-54.08046 3.887,-72.60076 -7.3261,-8.34393 -26.208,-17.35779 -54.941,-26.232939 -26.486,-8.181038 -33.0204,-13.123931 -33.0204,-24.967868 0,-13.508296 10.4852,-21.072856 29.1005,-20.996635 15.0068,0.06142 29.1003,10.579499 29.1003,21.715345 0,2.770434 1.476,3.020975 11.5397,1.969123 6.3471,-0.663399 14.8912,-1.206421 18.9872,-1.206421 h 7.4475 l -1.3238,-8.837194 c -4.2858,-28.579577 -24.0591,-43.196194 -61.0574,-45.132108 -4.2237,-0.221004 -8.2786,-0.255285 -12.1594,-0.106338 z m -704.56031,0.106337 c -4.43551,0.19477 -8.5458,0.624047 -12.00908,1.305413 -31.88492,6.272979 -47.34358,24.394417 -47.32856,55.480058 0.008,17.51555 3.76595,26.713238 14.9169,36.503908 8.43432,7.40543 17.00839,11.26775 48.18296,21.70434 27.04601,9.05444 32.67321,12.12173 35.40752,19.31351 4.94517,13.0068 -3.22864,23.33369 -21.1653,26.73531 -19.60636,3.71827 -39.09706,-4.34217 -42.50295,-17.57908 -1.81643,-7.05956 -5.49324,-7.89453 -26.24393,-5.95505 l -13.66284,1.27609 1.14773,6.87543 c 4.18052,24.97355 18.4059,39.46747 45.44379,46.3055 14.26327,3.60725 46.84337,2.61225 59.43666,-1.81511 26.67279,-9.37721 40.68958,-31.0924 38.15032,-59.09562 -2.42699,-26.76531 -15.43351,-37.6432 -62.89086,-52.605239 -30.7506,-9.694842 -36.12255,-13.591432 -36.12255,-26.196257 0,-6.798347 0.99501,-9.827444 4.22426,-12.852465 16.18483,-15.161246 48.29187,-7.82404 53.31294,12.181421 1.12318,4.475128 1.26965,4.500054 18.26479,3.212192 9.42266,-0.714055 17.66041,-1.598682 18.30513,-1.965451 1.82165,-1.036252 -1.6436,-16.975116 -5.66901,-26.075255 -4.33845,-9.807753 -15.59649,-18.55464 -29.13712,-22.639412 -10.51546,-3.172168 -26.75431,-4.698555 -40.0608,-4.114233 z m 539.30081,0.495029 c -25.8807,-0.04358 -38.1817,3.427424 -50.4638,14.238531 -12.7352,11.210014 -16.6935,20.003424 -17.6706,39.265071 -1.6333,32.197338 9.3464,43.419778 57.8855,59.179978 34.1405,11.08505 41.2268,15.91582 41.2268,28.09205 0,7.4934 -4.5982,13.84037 -12.3866,17.09505 -7.406,3.09439 -28.3307,3.45934 -35.8366,0.62336 -7.5084,-2.83682 -15.2273,-10.76006 -16.6073,-17.0437 -1.1562,-5.26393 -1.4279,-5.36833 -13.938,-5.36833 -7.017,0 -15.3973,0.52802 -18.6242,1.1734 -6.8518,1.37037 -7.3588,4.41259 -3.1057,18.66814 5.3037,17.77748 19.6851,29.46297 43.7497,35.55418 15.848,4.0115 45.1456,2.61297 59.5649,-2.84551 24.3349,-9.21195 38.2367,-31.19313 36.152,-57.16316 -2.1729,-27.06807 -17.2381,-40.23086 -60.9694,-53.268937 -24.883,-7.418632 -32.0067,-10.921296 -35.3452,-17.3774 -3.4437,-6.658756 -3.4565,-11.764116 -0.055,-18.341788 7.8106,-15.103941 42.6266,-14.825634 51.9195,0.414346 1.9739,3.237161 3.5935,7.363857 3.5972,9.170901 0,3.732934 1.7334,3.884751 23.3105,2.060797 l 14.4804,-1.224744 -1.2246,-7.693132 c -4.9335,-31.03439 -25.4206,-45.141522 -65.6594,-45.209103 z m -292.277,0.777367 -18.8881,0.535378 -18.88456,0.531689 -14.47686,56.323457 c -19.12753,74.426259 -21.15806,81.669009 -22.90706,81.669009 -0.81668,0 -1.48511,-1.5008 -1.48511,-3.33686 0,-2.94391 -13.6322,-67.477228 -24.57917,-116.350479 l -3.89057,-17.366395 h -21.63832 c -16.51468,0 -21.4334,0.555604 -20.78029,2.34681 0.47067,1.290746 11.19826,42.899696 23.83847,92.464324 12.64018,49.56465 23.26207,91.07612 23.60743,92.24802 0.43062,1.46108 8.06243,2.0511 24.27849,1.87744 l 23.64781,-0.25302 1.81878,-6.57108 c 0.99962,-3.61408 8.37275,-31.70397 16.38732,-62.4215 8.01456,-30.71753 14.99464,-55.839665 15.51101,-55.828422 0.51622,0.01189 8.45233,27.890682 17.63413,61.952122 l 16.6916,61.93015 9.5925,0.40702 c 14.8388,0.63097 36.8114,0.5988 36.812,-0.055 5e-4,-0.57274 6.1026,-23.98021 19.6692,-75.44998 13.6929,-51.948342 29.1444,-111.983525 29.1444,-113.233597 0,-0.710783 -9.2933,-1.290747 -20.6518,-1.290747 -11.3587,0 -20.652,0.423075 -20.652,0.942391 0,2.42645 -30.32,137.015553 -31.0255,137.721113 -1.1305,1.1304 -0.8491,2.10714 -18.7085,-65.443011 -8.8727,-33.559439 -17.0188,-63.790108 -18.0999,-67.181154 z m 143.0198,0.128497 v 95.749886 95.74986 h 20.6521 20.6518 V 115.94003 20.190144 h -20.6518 z M 962.51383,256.77798 c -57.01,-0.0932 -90.03013,33.71583 -89.81316,91.96565 0.18568,49.83971 21.60111,81.35946 63.15852,92.95204 13.61377,3.79761 49.67209,2.75597 62.39953,-1.80044 23.47108,-8.40271 42.46328,-27.96705 49.93208,-51.4355 4.9756,-15.63454 6.7008,-44.13778 3.7108,-61.30676 -3.2367,-18.58659 -11.3175,-34.89202 -23.1636,-46.7382 -16.9867,-16.98668 -35.4762,-23.58649 -66.22417,-23.63679 z m 301.40387,2.78686 v 91.52559 91.52563 h 59.1397 59.1397 v -16.47169 -16.47169 l -37.0796,-0.319 c -20.3938,-0.17499 -38.1357,-0.36641 -39.4265,-0.42536 -1.7352,-0.0793 -2.3467,-5.73325 -2.3467,-21.69699 v -21.59066 h 35.6715 35.6715 v -16.89704 -16.89704 h -35.6715 -35.6715 v -19.71321 -19.71321 h 38.5609 38.561 l -0.5426,-16.42766 -0.5427,-16.42767 h -57.7315 z m -555.7248,0.66003 v 91.19558 91.19561 h 19.67287 19.66921 l 0.51336,-35.20217 0.50969,-35.20217 h 11.92107 11.92472 l 18.11445,35.1765 18.11812,35.17651 22.06001,0.0257 c 12.13302,0.0134 22.06003,-0.30012 22.06003,-0.69675 0,-0.39659 -8.85769,-16.34411 -19.68389,-35.44048 -10.82618,-19.09637 -20.16471,-35.96994 -20.75092,-37.49765 -0.7204,-1.87727 0.94182,-3.60721 5.12266,-5.33896 17.04893,-7.06192 27.80235,-25.4194 27.80235,-47.45694 0,-17.53067 -4.4102,-30.12612 -13.86084,-39.57675 -13.5996,-13.59961 -19.38741,-14.81124 -74.84859,-15.63929 z m 709.6757,0.0477 v 91.17359 91.16993 h 19.6728 19.6692 l 0.5135,-35.20216 0.5096,-35.20217 h 11.9027 11.9028 l 17.9787,35.20217 17.9824,35.20216 h 23.0465 23.05 l -16.0574,-28.6311 c -8.8317,-15.7471 -18.4995,-32.65795 -21.4842,-37.57828 -2.9845,-4.92039 -5.4269,-9.26261 -5.4269,-9.65128 0,-0.38867 3.3015,-2.02642 7.3372,-3.64122 18.1336,-7.25561 27.3913,-25.52767 26.1634,-51.64451 -0.8465,-18.00615 -6.632,-30.5444 -18.0594,-39.14404 -13.0383,-9.81193 -17.8162,-10.58289 -70.3566,-11.34904 z m -350.478,0.23101 7.0661,21.1213 c 3.8862,11.61671 17.3296,52.59203 29.8742,91.05626 l 22.8081,69.93495 h 23.8128 23.8127 l 30.3363,-91.05625 30.3363,-91.05626 h -19.4383 -19.4382 l -21.7044,65.76203 c -11.9385,36.16943 -21.708,67.00651 -21.708,68.52687 0,1.52034 -0.8448,2.76483 -1.8774,2.76483 -1.0326,0 -1.8687,-1.05605 -1.8555,-2.3468 0.015,-1.29075 -9.4142,-32.12782 -20.9527,-68.52686 l -20.9819,-66.18007 h -20.0432 z m 389.9043,29.52949 22.06,1.28706 c 23.5388,1.37398 29.0822,3.43275 33.7649,12.54445 5.4405,10.58645 1.3483,29.10174 -7.4988,33.91508 -2.3206,1.26248 -14.0921,2.6521 -26.2661,3.10218 l -22.06,0.81405 V 315.8663 Z m -493.49031,0.0659 c 25.08228,-0.15697 43.52361,14.78888 48.63761,39.41907 2.821,13.58677 1.3133,42.22516 -2.7134,51.54183 -4.5534,10.53474 -14.12062,20.34566 -24.59758,25.22455 -17.20997,8.01428 -42.79799,4.28418 -55.75509,-8.1295 -2.97129,-2.8467 -7.69729,-9.84788 -10.50197,-15.55862 -4.68746,-9.54435 -5.10064,-12.20473 -5.10064,-32.91403 0,-19.55485 0.57513,-23.80228 4.35992,-32.16595 8.23571,-18.1994 23.35839,-27.27767 45.67115,-27.41735 z m -215.24656,1.3824 20.5016,0.5207 c 11.27659,0.28623 22.68209,1.556 25.34555,2.81985 11.75955,5.58 15.01351,28.64448 5.39766,38.26034 -2.56163,2.56162 -7.95589,5.42613 -11.99074,6.36206 -4.03485,0.93589 -14.75491,1.72084 -23.82012,1.74543 l -16.48267,0.0439 0.52435,-24.87619 z m 684.12477,198.49606 c -30.842,-2.21408 -47.3821,13.62874 -47.578,45.57213 -0.1579,25.7673 7.988,39.45324 27.4981,46.19179 5.4769,1.89177 13.3963,3.46452 17.5975,3.49828 10.7033,0.0863 25.8709,-4.78163 32.6388,-10.47628 5.6684,-4.76958 5.7204,-4.98955 5.7204,-23.42415 v -18.60581 h -20.2192 -20.2192 l 0.037,7.50979 0.037,7.50615 h 10.7953 l 10.7953,0.005 v 8.38252 c 0,10.35607 -2.8858,12.26883 -18.5068,12.26942 -9.3296,0 -12.2194,-0.81998 -16.9666,-4.81462 -9.7708,-8.22151 -12.7274,-30.33126 -6.0284,-45.08077 7.3425,-16.16672 31.0629,-18.9358 39.232,-4.57995 2.8748,5.05188 4.1591,5.63943 12.3612,5.65068 l 9.1525,0.0119 -1.1258,-5.625 c -2.8453,-14.22662 -15.0552,-22.54118 -35.2205,-23.98882 z m -685.37151,0.52804 c -15.10458,-0.015 -16.84718,0.3944 -24.40683,5.70201 -12.06494,8.47083 -17.12884,18.99868 -18.1071,37.63698 -1.379,26.27338 7.51882,42.83015 26.14126,48.63769 21.4296,6.68291 44.66852,-1.1608 53.38627,-18.01916 4.25029,-8.21912 3.48706,-9.20235 -7.13576,-9.18922 -8.93266,0.0119 -10.1487,0.52782 -12.98815,5.51867 -6.57822,11.56248 -28.26925,11.30414 -35.40016,-0.42169 -8.2661,-13.59252 -6.45548,-38.90029 3.49455,-48.85033 10.42417,-10.42418 28.94479,-8.12548 34.06176,4.22792 2.1946,5.29827 3.06322,5.72036 11.76337,5.72036 h 9.39458 l -1.18806,-5.94403 c -1.5438,-7.71897 -9.16175,-17.60845 -16.74302,-21.73367 -4.38587,-2.38648 -10.39191,-3.27428 -22.27271,-3.28553 z m 125.15835,0.9204 v 19.24384 19.24751 l -20.18256,0.5317 -20.18259,0.53536 v -19.7792 -19.77555 h -10.32596 -10.32597 v 45.99749 45.99745 h 10.32597 10.32596 l -0.005,-19.2438 -0.005,-19.24384 20.77662,0.5867 20.78029,0.59035 -0.59406,18.65716 -0.59036,18.66087 h 9.85661 9.8566 v -45.99746 -45.9975 l -9.8566,-0.005 z m 625.19036,0 0.5318,46.00114 0.5354,45.99745 h 29.9731 29.9769 v -7.50968 -7.50987 h -20.6518 -20.6521 v -11.26469 -11.26469 h 16.699 16.6991 l 0.7186,-7.5098 0.7151,-7.50979 h -17.4141 -17.4177 v -12.20342 -12.20341 h 19.7133 19.7133 v -7.50978 -7.50981 H 1527.23 Z m -472.1783,0.005 v 45.99749 45.99753 h 27.9821 27.982 l -0.2897,-7.50983 -0.2897,-7.50614 -18.3051,-0.005 h -18.3051 v -38.48769 -38.4877 h -9.3872 z m 80.7303,0 v 45.99749 45.99753 h 29.1004 29.1004 v -7.50983 -7.5098 h -18.7745 -18.7743 v -38.48805 -38.48769 h -10.3261 z m 81.669,0 v 45.99749 45.99753 h 30.5856 30.5819 l -0.4399,-7.50983 -0.4437,-7.5098 h -20.2854 -20.2852 V 557.1415 545.87679 h 17.3665 l 17.3664,0.005 v -7.04411 -7.04042 l -16.8973,-0.93873 -16.8968,-0.93872 -0.5575,-11.73406 -0.561,-11.73404 h 19.8049 19.8013 v -7.5098 -7.50978 h -29.5699 z m 89.1789,0 v 45.99749 45.99753 h 9.3872 9.3873 v -31.28998 -31.28959 l 20.1824,31.26026 20.1827,31.25665 10.7953,0.0328 10.7955,0.0297 v -45.99764 -45.99748 h -9.3434 -9.3394 l -0.5171,31.44726 -0.5134,31.44726 -8.2983,-13.14213 c -4.564,-7.22819 -13.7268,-21.37946 -20.3622,-31.44727 l -12.0641,-18.30512 h -10.1462 z m -331.36978,0.022 -7.78112,22.04901 c -4.28049,12.1267 -11.63987,32.82089 -16.35069,45.98649 l -8.56219,23.93751 h 10.14998 10.14995 l 3.25253,-10.32607 3.25619,-10.32589 h 18.15845 18.16212 l 2.6255,9.85651 2.62915,9.8567 10.74033,0.56099 10.73668,0.56099 -8.59523,-24.02906 c -4.72881,-13.21636 -12.10318,-33.95147 -16.38367,-46.07817 l -7.78113,-22.04901 h -12.20343 z m 12.63248,20.37326 c 0.12953,-0.009 0.23314,0.0745 0.30799,0.25669 0.63651,1.54888 3.57321,10.20861 6.52707,19.24384 l 5.372,16.42767 h -12.88913 c -7.08873,0 -12.8767,-0.21122 -12.85979,-0.46938 0.0169,-0.25813 2.88079,-8.91787 6.36207,-19.24384 3.33399,-9.8891 6.12556,-16.14195 7.17979,-16.21498 z"
       inkscape:label="text" />
    <ellipse
       style="fill:#ffffff;fill-opacity:1;stroke:#ffffff;stroke-width:1.43369;stroke-dasharray:none;stroke-opacity:1"
       id="path42"
       cx="514.88556"
       cy="434.77145"
       rx="114.87035"
       ry="134.26755" />
    <ellipse
       style="fill:#ffffff;fill-opacity:1;stroke:#ffffff;stroke-width:2.11717;stroke-dasharray:none;stroke-opacity:1"
       id="path43"
       cx="-0.78382766"
       cy="387.64667"
       rx="122.63126"
       ry="87.929611"
       transform="matrix(0.63322991,-0.77396375,0.80312626,0.59580888,0,0)" />
    <path
       id="path20"
       style="fill:#ff0000;stroke-width:1.26237"
       inkscape:label="logo"
       d="m 345.82068,11.066051 c -4.08181,-0.01408 -8.22125,0.970396 -12.41658,2.953741 -3.47152,1.641156 -7.78921,4.617973 -9.59598,6.615116 -1.80675,1.997144 -25.6235,36.863635 -52.9258,77.480355 -27.30231,40.616717 -57.70645,85.777967 -67.56386,100.358327 -9.8574,14.58036 -28.07941,41.5635 -40.49197,59.96253 -33.27577,49.32437 -75.187615,111.28389 -111.2438,164.45067 -19.151488,28.23987 -32.693424,49.45938 -33.928627,53.16743 -4.088926,12.27478 0.280713,28.20104 9.546665,34.79898 9.26267,6.5956 3.00031,6.34975 162.396862,6.37841 84.81675,0.0153 149.43598,0.51248 151.14896,1.16375 0.0952,0.0361 0.19177,0.0778 0.286,0.12081 l -11.26762,-57.3219 -0.0665,-8.69358 9.86965,-79.30241 1.21553,-6.8099 37.10921,-63.11597 4.83744,-6.18364 31.72934,-27.06204 2.7787,-0.17259 3.23482,5.04456 -1.04047,2.5987 -31.28802,31.81071 -2.64062,3.26193 -30.54341,57.00385 -2.01436,5.45384 -4.84731,80.36505 0.17507,3.18306 15.90536,65.70235 -1.77769,2.74171 -19.8182,4.9755 -0.0173,-0.14792 c -5.54976,1.56806 -22.26134,4.775 -74.80522,15.07939 -135.847,26.64099 -162.50538,32.08334 -164.23864,33.52181 -1.8495,1.53495 -2.35803,5.18904 -0.92211,6.62496 0.46286,0.46288 94.61981,0.84088 209.23765,0.84077 228.877,-2.4e-4 217.77566,0.35629 237.84806,-7.64078 46.45919,-18.50985 78.2787,-63.47302 86.66212,-122.45966 5.22006,-36.72893 -1.17621,-76.14483 -17.98382,-110.82712 -14.93769,-30.82369 -39.74448,-55.24367 -68.12109,-67.06087 l -9.81048,-4.08544 -19.81327,-29.21694 C 509.7222,230.55516 480.52766,187.58566 455.74298,151.13476 430.95828,114.68386 402.9995,73.499069 393.61075,59.613011 367.48528,20.973148 364.86706,17.635596 357.89705,14.103626 c -3.96947,-2.011509 -7.99452,-3.0235 -12.07633,-3.037575 z M 317.78722,136.22796 c 0.48433,0.004 0.9762,0.0876 1.50152,0.21943 3.25648,0.81733 21.19548,23.62293 51.27388,65.18212 9.29626,12.84461 19.93392,27.45485 23.63983,32.46656 6.77049,9.1562 8.08474,12.61227 5.16042,13.57786 -4.20309,1.38783 -14.12989,1.83495 -41.84802,1.87876 l -30.16865,0.0468 -13.38308,13.09214 c -7.36,7.20049 -15.88057,14.86938 -18.93553,17.04198 l -5.55492,3.94984 h -34.91485 c -27.2976,0 -35.42253,-0.37055 -37.24236,-1.70124 -2.77696,-2.03056 -4.35232,0.81599 16.16671,-29.2268 43.47303,-63.65077 52.68858,-77.05529 64.67175,-94.05388 13.12263,-18.61494 16.24291,-22.49981 19.6333,-22.47361 z m 195.74114,167.40688 c 6.57929,0.0942 13.24955,0.51154 15.54292,1.1884 3.28436,0.96933 3.83061,1.77832 4.12242,6.08502 0.62944,9.28957 1.1008,9.9945 8.77741,13.13405 4.01326,1.64134 10.33589,4.90514 14.04879,7.2537 l 6.75071,4.27036 5.0988,-2.65542 c 2.80379,-1.46142 5.76522,-2.40122 6.58059,-2.08833 1.83746,0.7051 16.09658,19.48133 20.4987,26.993 l 3.24714,5.54012 -4.046,5.63381 -4.04598,5.63135 3.18058,9.76117 c 1.74919,5.36766 4.13523,13.73517 5.30096,18.59529 2.45386,10.23046 3.56323,11.9925 7.55449,11.9925 7.00695,0 9.21206,9.32953 6.96522,29.46843 -1.71051,15.33166 -2.51809,16.97397 -8.60483,17.47838 -4.71381,0.39064 -4.73389,0.41619 -8.03034,10.49098 -1.8174,5.55442 -4.72285,13.25929 -6.45731,17.12088 l -3.15346,7.01946 3.73288,4.65499 3.73286,4.65498 -3.45673,5.99626 c -4.56575,7.92031 -14.67009,21.62936 -18.78513,25.48653 l -3.28414,3.07949 -4.81524,-4.70183 -4.81278,-4.69936 -8.10677,3.63423 c -4.45864,1.99827 -10.24155,4.33594 -12.85052,5.19495 -5.23634,1.72408 -7.23934,4.42177 -7.26848,9.79568 -0.0101,1.95498 -0.54351,4.38296 -1.18348,5.39466 -2.1523,3.40256 -31.24234,4.17977 -33.95822,0.90733 -0.71245,-0.85844 -1.75522,-4.2325 -2.31763,-7.49778 -1.01618,-5.89984 -1.09803,-5.98048 -13.01571,-12.85792 l -11.99251,-6.92084 -4.50459,5.17522 c -3.79763,4.36105 -4.88902,4.96562 -6.95288,3.86107 -3.87516,-2.07392 -16.05691,-15.38314 -21.26057,-23.22808 -5.29845,-7.98784 -5.25362,-10.02121 0.34765,-15.38758 l 3.57754,-3.42961 -4.2531,-11.32187 c -2.33911,-6.2274 -5.15481,-14.86859 -6.25761,-19.20181 -2.81105,-11.04539 -3.55496,-12.08494 -8.9574,-12.53492 -6.93827,-0.57792 -7.88831,-3.45993 -7.8257,-23.74586 0.0677,-21.91645 1.15439,-25.30575 8.69358,-27.13353 l 5.62642,-1.36346 3.33837,-10.68329 c 1.83547,-5.8756 4.81407,-14.26507 6.62004,-18.64214 l 3.28414,-7.95884 -4.36652,-5.71764 c -4.35906,-5.71069 -4.36132,-5.72585 -2.1475,-9.54912 2.92049,-5.04375 24.14165,-27.5103 26.00924,-27.53542 0.79995,-0.0114 3.48115,2.33653 5.95926,5.21713 l 4.50705,5.23932 10.68577,-5.07907 c 5.87799,-2.79262 11.30571,-5.84998 12.06153,-6.79509 0.75583,-0.9451 1.76176,-4.38766 2.2338,-7.65065 0.66341,-4.58588 1.48868,-6.1343 3.63178,-6.81728 1.93412,-0.61638 8.4212,-0.84613 15.00049,-0.752 z m 4.41829,66.09932 c -1.54782,-0.0399 -3.15809,-0.0126 -4.83989,0.0813 -16.87548,0.94124 -29.37729,9.71757 -38.66253,27.13847 -10.5022,19.70415 -10.59472,46.78498 -0.23175,68.08655 6.58975,13.54558 17.48834,23.82592 29.38952,27.71787 3.11448,1.01849 8.91533,1.55308 14.177,1.30675 26.60463,-1.24549 46.44544,-27.81401 46.34521,-62.05825 -0.0597,-20.41172 -6.4644,-37.02833 -19.26099,-49.96959 -8.28058,-8.37422 -16.08175,-12.02391 -26.91657,-12.30316 z" />
  </g>
  <g
     inkscape:groupmode="layer"
     id="layer2"
     inkscape:label="Flag">
    <rect
       style="fill:#ffffff;fill-opacity:1;stroke:#ffffff;stroke-width:1.39618;stroke-dasharray:none;stroke-opacity:1"
       id="rect33"
       width="32.163425"
       height="109.04526"
       x="140.26727"
       y="377.33847" />
    <rect
       style="fill:#ffffff;fill-opacity:1;stroke:#ffffff;stroke-width:1.39618;stroke-dasharray:none;stroke-opacity:1"
       id="rect33-3"
       width="32.163425"
       height="109.04526"
       x="417.46951"
       y="-211.86827"
       transform="rotate(90)" />
  </g>
</svg>
